<?xml version="1.0" encoding="utf-8"?>
<!-- Generator: Adobe Illustrator 22.0.1, SVG Export Plug-In . SVG Version: 6.00 Build 0)  -->
<svg version="1.1" id="Layer_1" xmlns="http://www.w3.org/2000/svg" xmlns:xlink="http://www.w3.org/1999/xlink" x="0px" y="0px"
	 viewBox="0 0 634.4 525.8" enable-background="new 0 0 634.4 525.8" xml:space="preserve">
<path fill="none" stroke="#000000" stroke-width="2" stroke-miterlimit="10" d="M634.4,316.7"/>
<g>
	<g>
		<path stroke="#000000" stroke-width="2" stroke-miterlimit="10" d="M628.9,262.9c-0.7,2.6-1.9,6.4-4.3,10.5
			c-8.5,15.2-23.6,20.8-31.2,23.6c-13,4.9-24,4.8-30.8,4.7c-7.3-0.1-22-0.5-37.9-8.7c-6.1-3.2-13.8-7.3-19.8-16.4
			c-3.5-5.3-5.2-10.4-6-13.8c0.7-2.1,2.6-7,7.4-10.2c1.4-0.9,2.7-1.4,3.9-1.8c35.8,0,71.6,0,107.3,0c1.2,0.3,2.7,0.9,4.3,1.8
			C626.7,255.9,628.4,261.2,628.9,262.9z"/>
		<path stroke="#000000" stroke-width="2" stroke-miterlimit="10" d="M620,340.4c-37.6,0-75.1,0-112.7,0c-2.3-0.7-4-1.8-5-2.5
			c-4.9-3.7-6.4-9.1-6.7-10.9c-0.5-2.5-0.4-4.5-0.4-5.1c0.4-6.1,0.4-18.8,0-37.8c5,4.9,29.9,28.4,68.7,28.4c7,0,40.7-0.8,68.7-28.4
			c0,0,0,20.5-0.4,37.1c0,1.7-0.2,5-1.8,8.7c-1.8,4.1-4.4,6.5-5.3,7.3C623.3,338.8,621.3,339.8,620,340.4z"/>
	</g>
	<path stroke="#000000" stroke-width="2" stroke-miterlimit="10" d="M546.7,244.4c0.1-0.8,0.3-3.2,2.1-5.5c2.1-2.6,4.9-3.2,5.7-3.3
		c6.3,0,12.5,0,18.8,0c0.8,0.2,3.3,0.8,5.3,3.3c1.8,2.2,2.1,4.6,2.1,5.5c4.6,0,9.2,0,13.8,0c-0.1-1.9-0.9-9.5-7.1-15.6
		c-5.3-5.3-11.4-6.3-13.5-6.5c-7,0-13.9,0-20.9,0c-2.1,0.3-8,1.6-13.1,6.9c-5.8,6.1-6.6,13.3-6.7,15.3
		C537.7,244.4,542.2,244.4,546.7,244.4z"/>
</g>
<g>
	<path stroke="#000000" stroke-width="2" stroke-miterlimit="10" d="M454.4,465.8c-23-30-59-30.1-63-30c-12.2,0-24.5,0-36.7,0
		c-6.4-96-12.8-192-19.2-288c-17.3,2.7-34.7,5.3-52,8c-7.2,93.3-14.5,186.7-21.7,280c-16.7,0-33.5,0-50.2,0c-5.1,0.6-31.4,4.3-50,28
		c-20.7,26.4-15.1,56.6-14.2,61h322C469.9,519.7,473.9,491.2,454.4,465.8z"/>
	<path stroke="#000000" stroke-width="2" stroke-miterlimit="10" d="M587.3,38.7c-65.7,10.4-131.3,20.7-197,31.1
		c-9.2-0.4-21-2.5-29-11c-10.9-11.7-4.4-24.3-15-39C338,8.2,322.7,0.5,307.4,1c-17.8,0.6-34.3,12.3-41,26.8c-8.1,17.6,2.9,29.7-6,47
		c-5.9,11.5-16.6,17.7-24,21C164,108.4,91.6,120.9,19.2,133.5c-14.5,5.6-21.3,21.1-16.8,33.3c3.5,9.5,13.6,16.1,25,16.1
		c183-30.5,365.9-61.1,548.9-91.6c6.4-1.1,12.8-2.1,19.2-3.2c12.1-3.2,20.2-14,19.8-25.3C614.9,49.4,602.5,37.9,587.3,38.7z
		 M306.9,65.8c-13.5,0-24.5-11-24.5-24.5c0-13.5,11-24.5,24.5-24.5c13.5,0,24.5,11,24.5,24.5C331.4,54.8,320.4,65.8,306.9,65.8z"/>
</g>
<path fill="none" stroke="#000000" stroke-width="10" stroke-miterlimit="10" d="M625,231.4l-59.9-116.5c0-0.1-0.1-0.1-0.1-0.2
	c-0.4-1.3-1.3-2.4-2.6-3c-2.5-1.2-5.5-0.1-6.6,2.4l-55.3,118.7c-1.2,2.5-0.1,5.5,2.4,6.6c2.5,1.2,5.5,0.1,6.6-2.4l51-109.4
	L616.1,236c1.3,2.4,4.3,3.4,6.7,2.2C625.3,236.9,626.2,233.9,625,231.4z"/>
<path fill="none" d="M152.4,399.7"/>
<g>
	<path d="M135.9,345.9c-0.7,2.6-1.9,6.4-4.3,10.5c-8.5,15.2-23.6,20.8-31.2,23.6c-13,4.9-24,4.8-30.8,4.7c-7.3-0.1-22-0.5-37.9-8.7
		c-6.1-3.2-13.8-7.3-19.8-16.4c-3.5-5.3-5.2-10.4-6-13.8c0.7-2.1,2.6-7,7.4-10.2c1.4-0.9,2.7-1.4,3.9-1.8c35.8,0,71.6,0,107.3,0
		c1.2,0.3,2.7,0.9,4.3,1.8C133.7,338.9,135.4,344.2,135.9,345.9z"/>
	<path d="M127,423.4c-37.6,0-75.1,0-112.7,0c-2.3-0.7-4-1.8-5-2.5c-4.9-3.7-6.4-9.1-6.7-10.9c-0.5-2.5-0.4-4.5-0.4-5.1
		c0.4-6.1,0.4-18.8,0-37.8c5,4.9,29.9,28.4,68.7,28.4c7,0,40.7-0.8,68.7-28.4c0,0,0,20.5-0.4,37.1c0,1.7-0.2,5-1.8,8.7
		c-1.8,4.1-4.4,6.5-5.3,7.3C130.3,421.8,128.3,422.8,127,423.4z"/>
	<path d="M53.7,327.4c0.1-0.8,0.3-3.2,2.1-5.5c2.1-2.6,4.9-3.2,5.7-3.3c6.3,0,12.5,0,18.8,0c0.8,0.2,3.3,0.8,5.3,3.3
		c1.8,2.2,2.1,4.6,2.1,5.5c4.6,0,9.2,0,13.8,0c-0.1-1.9-0.9-9.5-7.1-15.6c-5.3-5.3-11.4-6.3-13.5-6.5c-7,0-13.9,0-20.9,0
		c-2.1,0.3-8,1.6-13.1,6.9c-5.8,6.1-6.6,13.3-6.7,15.3C44.7,327.4,49.2,327.4,53.7,327.4z"/>
</g>
<path fill="none" stroke="#000000" stroke-width="10" stroke-miterlimit="10" d="M132,311.4L72.1,194.9c0-0.1-0.1-0.1-0.1-0.2
	c-0.4-1.3-1.3-2.4-2.6-3c-2.5-1.2-5.5-0.1-6.6,2.4L7.4,312.9c-1.2,2.5-0.1,5.5,2.4,6.6s5.5,0.1,6.6-2.4l51-109.4L123.1,316
	c1.3,2.4,4.3,3.4,6.7,2.2C132.3,316.9,133.2,313.9,132,311.4z"/>
<g>
</g>
<g>
</g>
<g>
</g>
<g>
</g>
<g>
</g>
<g>
</g>
<g>
</g>
<g>
</g>
<g>
</g>
<g>
</g>
<g>
</g>
<g>
</g>
<g>
</g>
<g>
</g>
<g>
</g>
</svg>
