<svg xmlns="http://www.w3.org/2000/svg" viewBox="0 0 1193.1 601.52"><defs><style>.cls-1{fill:#fbb03b;}.cls-2{fill:#42210b;}.cls-3{fill:none;stroke:#42210b;stroke-miterlimit:10;stroke-width:10px;}</style></defs><title>error-icon</title><g id="Layer_2" data-name="Layer 2"><g id="Layer_1-2" data-name="Layer 1"><path class="cls-1" d="M587.7,154.22c1.2-1.7,3.9-4-.8,1,.8-.9,1.5-1.8,2.3-2.6a57.74,57.74,0,0,1,4.4-4.2c2.1-1.9-5,3.5-1.9,1.4.9-.6,1.7-1.2,2.6-1.7a43.89,43.89,0,0,1,5.3-2.7l-5.7,2.4a39.22,39.22,0,0,1,10-2.8l-6.4.9a41.57,41.57,0,0,1,12.2.1l-6.4-.9a55.71,55.71,0,0,1,13.1,3.7l-5.7-2.4a68.63,68.63,0,0,1,11.6,6.4c1.7,1.1,5.4,4.6-.6-.6.8.7,1.7,1.4,2.5,2.1a57.89,57.89,0,0,1,5.1,4.8c1.7,1.7,3.2,3.5,4.8,5.3,2.9,3.3-3.5-4.9-1-1.4.7,1,1.5,2.2,2.2,3.2a88.91,88.91,0,0,1,7.3,13.2l-2.4-5.7a68.85,68.85,0,0,1,4.9,17.9c-.3-2.2-.6-4.2-.9-6.4a70.87,70.87,0,0,1,.1,16.6c.3-2.2.6-4.2.9-6.4a67.24,67.24,0,0,1-4.5,16.5l2.4-5.7a61.31,61.31,0,0,1-5.7,10.4,12.57,12.57,0,0,0-2,2.7c.4-1.2,4.1-5.1,1.3-1.8-1.3,1.5-2.6,2.9-4,4.3a58.23,58.23,0,0,1-4.5,4c-3.1,2.7,5.1-3.6,1.7-1.3-.9.6-1.7,1.2-2.6,1.8a82,82,0,0,1-12,6.5l5.7-2.4a96.25,96.25,0,0,1-23.7,6.2l6.4-.9a106.5,106.5,0,0,1-28.2-.1l6.4.9a114.77,114.77,0,0,1-28.9-8l5.7,2.4a119.34,119.34,0,0,1-19.9-10.7c-1.5-1-2.9-2-4.4-3s-4.5-3.8,1.4,1.1c-.7-.6-1.4-1.1-2.1-1.7-2.9-2.4-5.7-4.9-8.5-7.6-2.6-2.6-5-5.1-7.3-7.9-.7-.8-1.4-1.7-2.1-2.5-2.4-2.9,3.1,4.1,1.4,1.8-1-1.4-2.2-2.9-3.2-4.4a124.81,124.81,0,0,1-11.2-20.2l2.4,5.7a107,107,0,0,1-7.7-28.3c.3,2.2.6,4.2.9,6.4a156.62,156.62,0,0,1,.1-38.7c-.3,2.2-.6,4.2-.9,6.4A139.94,139.94,0,0,1,507.2,92l-2.4,5.7a119.31,119.31,0,0,1,8.7-16.6c.6-1,1.4-2.1,2.1-3.1,1.1-1.6,5-5.8-.1-.2,1.9-2.1,3.6-4.3,5.6-6.4s4-3.8,6.1-5.7c4.7-4-3.6,2.4-.2.2,1-.6,1.9-1.4,2.9-2a88.24,88.24,0,0,1,15.5-8.2l-5.7,2.4a137.25,137.25,0,0,1,35.6-9.2l-6.4.9a190.22,190.22,0,0,1,50-.2l-6.4-.9a166.36,166.36,0,0,1,42,11.3l-5.7-2.4a163.62,163.62,0,0,1,25.4,13.7c1.9,1.3,3.8,2.6,5.7,4,1.4,1,4.5,3.7-1.7-1.4a36.12,36.12,0,0,1,3,2.5c3.5,2.9,6.9,6,10.1,9.2s6.3,6.5,9.2,10c.8,1,1.7,2,2.5,3,2.4,2.9-3.7-5-1.4-1.8,1.4,1.8,2.7,3.7,4,5.6a148.34,148.34,0,0,1,13.6,25.1l-2.4-5.7a156.41,156.41,0,0,1,10.7,39.1c-.3-2.2-.6-4.2-.9-6.4a174.26,174.26,0,0,1,.2,43.3c-.6,5.7,3.2,13.1,7,16.9,4.1,4.1,10.9,7.3,16.9,7,6.2-.2,12.6-2.3,16.9-7,4.5-4.9,6.2-10.3,7-16.9,4-33.6-1.8-67.4-15.8-98.1-13.1-28.8-35.2-53-61.4-70.4C669.7,11,636.6,1.62,603.6.22c-38-1.7-78.1,6.1-108.3,30.2-16.5,13.2-27.3,31.7-35.1,51-7.4,18.3-10.6,38.6-10.8,58.3-.1,18.1,2.6,36.6,9.4,53.4a146.47,146.47,0,0,0,30.4,47.2c25.1,26,60,42.1,96.1,43.6,36.8,1.6,74.8-13.6,94.9-45.5,19.7-31.4,15.3-72.7-6.9-101.6-12.4-16.3-28-29-47.5-35.7-18-6.1-39-4.4-55.3,5.7-9.8,6-17.1,14-23.8,23.3-3.4,4.8-3.9,13-2.4,18.4,1.5,5.6,5.8,11.6,11,14.3,12,6.4,24.7,2.3,32.4-8.6Z"/><path class="cls-2" d="M321.4,136.92c-33.5.1-66.9.2-100.4.2-8.2,0-16.4,0-24.7.1h-5.6c-1,0-4.1.5-5-.1,1,.6,2.6.3,3.7,1a9.26,9.26,0,0,1,2.7,2.5c0,.1,1.3,2.8.7,1.1s.1,3.1,0,.2c-.4-16.5-1.4-33.1-2.1-49.6-.8-18.8-1.5-37.5-2.3-56.4-.3-8.3-7.1-16.3-15.9-15.9-8.4.4-16.3,7-15.9,15.9.7,18,1.5,36,2.2,54,.7,17.5.9,35.2,2.2,52.6.9,11.6,6.1,22.3,18.2,25.7,8.5,2.3,18.7,1,27.4,1,18,0,36.1-.1,54.1-.1,20.2,0,40.3-.1,60.5-.1,8.4,0,16.3-7.3,15.9-15.9-.1-8.8-6.7-16.2-15.7-16.2Z"/><path class="cls-2" d="M291.6,267.82a1176.32,1176.32,0,0,0-6.2-182.9c-1-8.3-6.7-16.3-15.9-15.9-7.8.3-17,7.1-15.9,15.9a1164.11,1164.11,0,0,1,6.2,182.9c-.4,8.4,7.6,16.3,15.9,15.9a16.21,16.21,0,0,0,15.9-15.9Z"/><path class="cls-2" d="M1038.9,132c-55.9-1-111.8-2.2-167.7-3.2l15.9,15.9c2-40.3,3.9-80.7,5.9-120.9.4-8.4-7.7-16.3-15.9-15.9a16.21,16.21,0,0,0-15.9,15.9c-2,40.3-3.9,80.7-5.9,120.9-.4,8.7,7.7,15.8,15.9,15.9,55.9,1,111.8,2.2,167.7,3.2,8.4.2,16.3-7.4,15.9-15.9a16.14,16.14,0,0,0-15.9-15.9Z"/><path class="cls-2" d="M966.1,90.82q1.95,88.5,3.8,177c.2,8.4,7.2,16.3,15.9,15.9,8.5-.4,16.1-7,15.9-15.9q-2-88.5-3.8-177c-.2-8.4-7.2-16.3-15.9-15.9-8.5.3-16.2,7-15.9,15.9Z"/><path class="cls-2" d="M106.7,534v-21.3h12V379.22h-12v-21.3h39l20.2,63.9,11.8,51.4h.7L175.7,420v-40.9H163.8v-21.3H209v21.3H197v154.7H177.4l-21.6-67.5c-2.3-7.3-4.8-16.2-7.3-26.6l-9.7-39.6h-.7l1.8,53.6v59h11.8V534Z"/><path class="cls-2" d="M256.1,536.82c-11.4,0-19.7-5.3-25-15.8s-8-26.7-8-48.6c0-22.2,2.7-38.4,8.1-48.7s13.6-15.4,24.9-15.4c22.2,0,33.2,21.4,33.2,64.3C289.5,515.52,278.4,536.82,256.1,536.82Zm.1-108.1c-3.9,0-6.5,2.9-7.9,8.6s-2,17.4-2,35c0,12.8.3,22.4,1,28.6s1.6,10.4,2.9,12.4a6.63,6.63,0,0,0,6,3.1c4.5,0,7.3-3.3,8.4-10s1.7-18,1.7-33.9c0-17.5-.7-29.3-2.1-35.1S260.2,428.72,256.2,428.72Z"/><path class="cls-2" d="M382.7,534v-21.3h12.8V379.22H382.7v-21.3h51v21.3H420.3v133.5h21.5v-55.2h21.3V534Z"/><path class="cls-2" d="M552.8,513.62v20.3H521.2v-10.5h-.5c-4.9,8-11.6,11.9-19.9,11.9-7.7,0-14-3.5-18.9-10.4s-7.3-16-7.3-27.3c0-12.4,2.7-22,8.2-28.7a25.62,25.62,0,0,1,20.9-10c6.9,0,12.8,2.9,17.5,8.6v-21.1c0-8.1-1-13.2-2.9-15.5s-4.7-3.3-8.2-3.3c-7.3,0-11.2,5.3-12,15.8l-20.3-5.7c1.6-9.2,5.3-16.4,11.2-21.5s13.2-7.7,21.8-7.7c9.3,0,17.1,3,23.3,9.1s9.2,14.3,9.2,25v71.3l9.5-.3Zm-31.5-3.8v-26.9c-3.3-3.8-6.9-5.7-11-5.7-8.4,0-12.5,6.6-12.5,19.9,0,12.8,4.1,19.3,12.5,19.3C514.3,516.22,518,514,521.3,509.82Z"/><path class="cls-2" d="M562.4,534v-20.3h9.1v-82.1h-9.6v-20.4h31.6V421h.6c5-7.5,11.2-11.2,18.6-11.2a17.19,17.19,0,0,1,15.2,8c3.7,5.3,5.6,12.8,5.6,22.4v73.4h9.1v20.3H611.5v-90.3c0-4.9-.5-8.5-1.4-10.4s-2.8-2.9-5.4-2.9a9.86,9.86,0,0,0-7.7,4c-2.2,2.6-3.3,4.3-3.3,4.9v74.6h9.1v20.3l-40.4-.1Z"/><path class="cls-2" d="M733.4,534H701v-12.4h-.6a33.59,33.59,0,0,1-7.6,10.3c-2.7,2.3-6.3,3.5-10.8,3.5-8.9,0-15.8-5.3-20.6-15.8s-7.2-25.5-7.2-45c0-23.9,2.1-40.9,6.2-51s11.2-15.1,21-15.1c7.3,0,13.6,3.7,18.8,11h.6v-41.1H686.7v-20.3h36.1v155.7h10.5l.1,20.2Zm-32.5-58.5v-19.4c0-10-1-17.2-2.8-21.8s-4.9-6.9-9.3-6.9c-4.6,0-7.7,2.7-9.2,8.1s-2.3,15-2.3,28.7V492c0,15.2,3.8,22.9,11.5,22.9,4.9,0,8.2-2.5,9.7-7.5S700.9,491.92,700.9,475.52Z"/><path class="cls-2" d="M822.6,534v-20.3h9.1V378.32h-9.1V358h31.1v58.5c6.1-5.3,12-8.1,17.5-8.1,15,0,22.4,11.7,22.4,35.2v70.1h9.1V534H871.6v-92.6c0-8.4-2.4-12.6-7.3-12.6q-4.5,0-10.8,6v78.9h9.1V534Z"/><path class="cls-2" d="M961.5,496.92l19.4,7.1c-2.6,10.5-6.8,18.6-12.4,24.3s-12,8.5-19.3,8.5c-11.6,0-20.2-5-25.7-15.1s-8.2-26.1-8.2-48.1,2.7-38.4,8.2-49.2,14-16.1,25.4-16.1c9.5,0,17.3,4.4,23.3,13.2s9.1,21.6,9.1,38.3v18.7H938.4v5.3c0,11,.9,19.2,2.6,24.6s4.6,8.1,8.6,8.1C956.5,516.62,960.4,510,961.5,496.92Zm-22.9-35.7h20.9v-10.8c0-15.2-3.5-22.9-10.6-22.9-4,0-6.7,2.2-8.1,6.8s-2.2,11.7-2.2,21.6v5.3Z"/><path class="cls-2" d="M994.8,534v-20.3h11v-82.1h-11v-20.4h32.9v23.9h.5c4-10.2,7.9-17,11.8-20.3s9.4-5,16.7-5v23.3q-29,0-28.9,32.9v47.7h12.4V534Z"/><path class="cls-2" d="M1111,496.92l19.4,7.1c-2.6,10.5-6.8,18.6-12.4,24.3s-12,8.5-19.3,8.5c-11.6,0-20.2-5-25.7-15.1s-8.2-26.1-8.2-48.1,2.7-38.4,8.2-49.2,14-16.1,25.4-16.1c9.5,0,17.3,4.4,23.3,13.2s9.1,21.6,9.1,38.3v18.7h-42.9v5.3c0,11,.9,19.2,2.6,24.6s4.6,8.1,8.6,8.1C1106,516.62,1109.9,510,1111,496.92Zm-23-35.7h20.9v-10.8c0-15.2-3.5-22.9-10.6-22.9-4,0-6.7,2.2-8.1,6.8s-2.2,11.7-2.2,21.6v5.3Z"/><rect class="cls-3" x="5" y="315.12" width="1183.1" height="281.4"/></g></g></svg>