<?xml version="1.0" encoding="utf-8"?>
<!-- Generator: Adobe Illustrator 22.0.1, SVG Export Plug-In . SVG Version: 6.00 Build 0)  -->
<svg version="1.1" id="Layer_1" xmlns="http://www.w3.org/2000/svg" xmlns:xlink="http://www.w3.org/1999/xlink" x="0px" y="0px"
	 viewBox="0 0 340.1 378.1" enable-background="new 0 0 340.1 378.1" xml:space="preserve">
<path stroke="#000000" stroke-miterlimit="10" d="M45.6,0.5h-33c-0.8,0-5.5,0.1-9,4c-2.9,3.3-3,7-3,8c0,118.3,0,236.7,0,355
	c0,0.3-0.6,5,3,8c2.9,2.5,6.4,2.1,7,2c11.7,0,23.3,0,35,0"/>
<path stroke="#000000" stroke-miterlimit="10" d="M327.6,30.5h-15c0,22.3,0,44.7,0,67h15c6.6,0,12-5.4,12-12v-43
	C339.6,35.9,334.2,30.5,327.6,30.5z M331.9,56l0.6,2.4h-3.9V62h-1.9v-3.5h-7.3c-1.7,0-2.6,0.5-2.6,1.8c0,0.6,0.1,1.1,0.2,1.4
	l-1.8,0.1c-0.2-0.5-0.3-1.2-0.3-2.2c0-1.1,0.4-2.1,1-2.7c0.7-0.7,1.9-1,3.5-1h7.4v-2.1h1.9V56H331.9z M328,76.6c0.6,0.8,1,1.7,1,3
	c0,1.8-1.2,4.5-5.9,4.5h-8v-2.4h7.7c2.6,0,4.2-1,4.2-2.9c0-1.4-1-2.5-2.2-2.9c-0.3-0.1-0.8-0.2-1.2-0.2h-8.4v-2.4h8.1
	c2.2,0,3.7-1,3.7-2.8c0-1.5-1.2-2.7-2.5-3.1c-0.4-0.1-0.8-0.2-1.2-0.2h-8.2v-2.4h9.9c1.4,0,2.5,0,3.7-0.1v2.2l-2.2,0.1V67
	c1.3,0.8,2.5,2,2.5,4.3c0,1.8-1.1,3.2-2.7,3.8v0.1C327,75.5,327.5,76.1,328,76.6z M334.9,90.6h-19.9v-2.5h19.9V90.6z M334.9,42.5
	h-8.5v0.1c0.7,0.4,1.3,1,1.7,1.8c0.4,0.7,0.7,1.6,0.7,2.5c0,1.8-1.1,4.7-5.8,4.7h-8.1v-2.5h7.8c2.2,0,4-0.8,4-3.1
	c0-1.6-1.1-2.9-2.5-3.3c-0.3-0.1-0.7-0.2-1.2-0.2h-8.2V40h19.9V42.5z"/>
<path stroke="#000000" stroke-miterlimit="10" d="M327.6,99.5h-15c0,22.3,0,44.7,0,67h15c6.6,0,12-5.4,12-12v-43
	C339.6,104.9,334.2,99.5,327.6,99.5z M321.4,119.9c4.2,0,7.2,2.9,7.2,7.3c0,1.5-0.4,2.7-0.7,3.4l-1.9-0.6c0.3-0.6,0.6-1.5,0.6-2.9
	c0-3.1-2.3-4.8-5.1-4.8c-3.1,0-5.1,2-5.1,4.7c0,1.4,0.4,2.3,0.7,3l-1.8,0.4c-0.3-0.6-0.8-2.1-0.8-3.9
	C314.4,122.5,317.2,119.9,321.4,119.9z M315.4,132.4l1.9,0.6c-0.5,0.7-1,2-1,3.2c0,1.8,0.9,2.6,2,2.6c1.2,0,1.8-0.7,2.5-2.5
	c0.9-2.4,2.2-3.6,3.8-3.6c2.2,0,4,1.8,4,4.7c0,1.4-0.4,2.6-0.8,3.3l-1.8-0.6c0.3-0.5,0.8-1.5,0.8-2.8c0-1.5-0.8-2.3-1.8-2.3
	c-1.1,0-1.6,0.8-2.3,2.6c-0.9,2.4-2.1,3.6-4.1,3.6c-2.4,0-4.1-1.8-4.1-5.1C314.4,134.8,314.8,133.4,315.4,132.4z M327.7,151.9
	l-1.8-0.6c0.3-0.5,0.8-1.5,0.8-2.8c0-1.5-0.8-2.3-1.8-2.3c-1.1,0-1.6,0.8-2.3,2.6c-0.9,2.4-2.1,3.6-4.1,3.6c-2.4,0-4.1-1.8-4.1-5.1
	c0-1.5,0.4-2.9,0.9-3.8l1.9,0.6c-0.5,0.7-1,2-1,3.2c0,1.8,0.9,2.6,2,2.6c1.2,0,1.8-0.7,2.5-2.5c0.9-2.4,2.2-3.6,3.8-3.6
	c2.2,0,4,1.8,4,4.7C328.6,150,328.2,151.2,327.7,151.9z"/>
<path stroke="#000000" stroke-miterlimit="10" d="M327.6,168.5h-15c0,22.3,0,44.7,0,67h15c6.6,0,12-5.4,12-12v-43
	C339.6,173.9,334.2,168.5,327.6,168.5z M333.7,195.1c0.7,0,1.2,0.5,1.2,1.2c0,0.7-0.5,1.2-1.2,1.2c-0.6,0-1.2-0.4-1.2-1.2
	C332.5,195.6,333.1,195.1,333.7,195.1z M315.5,192.7l1.5-0.2c0.1,0.9,0.3,1.7,0.8,2.1c0.6,0.5,1.5,0.7,4,0.7h8.9v1.9H321
	c-2.1,0-3.4-0.3-4.4-1.3C315.8,195.2,315.5,193.7,315.5,192.7z M334.4,208.2l-1.6-0.5c0.3-0.5,0.7-1.5,0.7-2.8c0-2-1.2-2.8-2.2-2.8
	c-1.4,0-2.1,0.9-2.9,2.9c-1,2.5-2.2,3.8-4.4,3.8c-2.3,0-4.3-1.7-4.3-5.2c0-1.4,0.4-3,0.9-3.8l1.6,0.5c-0.5,0.9-1,2.1-1,3.4
	c0,2,1,3.1,2.5,3.1c1.4,0,2.2-0.8,2.9-2.8c0.9-2.4,2.1-3.9,4.2-3.9c2.3,0,4,1.9,4,4.8C335.1,206.4,334.8,207.5,334.4,208.2z"/>
<path stroke="#000000" stroke-miterlimit="10" d="M306.6,3.5c-2.8-2.8-6.2-3-7-3h-248v377c82.3,0,164.7,0,247,0c1.5-0.4,4.3-1.4,7-4
	c2.3-2.2,3.5-4.6,4-6c0-118.7,0-237.3,0-356C309.6,10.9,309.8,6.7,306.6,3.5z M262.6,105h-167c-4.1,0-7.5-3.4-7.5-7.5
	s3.4-7.5,7.5-7.5h167c4.1,0,7.5,3.4,7.5,7.5S266.7,105,262.6,105z M262.6,79h-167c-4.1,0-7.5-3.4-7.5-7.5s3.4-7.5,7.5-7.5h167
	c4.1,0,7.5,3.4,7.5,7.5S266.7,79,262.6,79z"/>
<g>
</g>
<g>
</g>
<g>
</g>
<g>
</g>
<g>
</g>
<g>
</g>
<g>
</g>
<g>
</g>
<g>
</g>
<g>
</g>
<g>
</g>
<g>
</g>
<g>
</g>
<g>
</g>
<g>
</g>
</svg>
