<?xml version="1.0" encoding="utf-8"?>
<!-- Generator: Adobe Illustrator 22.0.1, SVG Export Plug-In . SVG Version: 6.00 Build 0)  -->
<svg version="1.1" id="图层_1" xmlns="http://www.w3.org/2000/svg" xmlns:xlink="http://www.w3.org/1999/xlink" x="0px" y="0px"
	 viewBox="0 0 916.1 269.6" style="enable-background:new 0 0 916.1 269.6;" xml:space="preserve">
<style type="text/css">
	.st0{fill:#4AA29F;}
	.st1{fill:#FFCC70;stroke:#FFFFFF;stroke-width:5;stroke-miterlimit:10;}
	.st2{fill:#424242;}
</style>
<g>
	<path class="st0" d="M241.3,53.4c-15.8-4.6-38-9.2-64.8-9.2c-24.7,0-45.4,3.9-60.6,8c0-16.5,0.1-33.1,0.1-49.6
		c15,4.4,35.5,8.7,60.1,9.2c27,0.6,49.4-3.7,65.4-7.9C241.4,20.3,241.3,36.8,241.3,53.4z"/>
	<path class="st0" d="M140.6,153.5l-49.1-0.1c5.8-11.5,15.5-34.6,15.4-65.3c0-30.1-9.4-52.9-15.1-64.4c16.4,0,32.8,0.1,49.1,0.1
		c-5.6,12.9-13.6,36-13.5,65.8C127.5,118.4,135.2,140.7,140.6,153.5z"/>
	<path class="st0" d="M123.5,50.7c-9.7-11.8-19.3-23.6-29-35.4c-3.1,10.2-10.6,30.2-28.7,48.6C50.2,79.6,33.8,87.3,24.2,91
		c7.8,12.9,15.5,25.8,23.3,38.7c4.3-11.5,13.5-31,32.1-49.5C95.8,64,112.7,55.3,123.5,50.7z"/>
	<path class="st0" d="M51.7,244.9l-49.1-0.1c5.7-12.8,13.7-35.5,14-64.8c0.3-30.6-8-54.3-13.7-67.3c16.4,0,32.8,0.1,49.1,0.1
		c-5.8,12.7-14.6,36.4-14.5,67.2C37.7,209.6,46,232.3,51.7,244.9z"/>
	<path class="st0" d="M265.6,156.2l-49.1-0.1c5.7-11.1,15.4-33.7,15.4-63.9c0-29.9-9.5-52.4-15.1-63.5c16.4,0,32.8,0.1,49.1,0.1
		c-5.3,13-12.4,35-12.6,62.9C253.2,120.5,260.3,143.1,265.6,156.2z"/>
	<path class="st0" d="M240.7,178.6c-13.1-5.2-35.3-12.1-63.4-12.1c-27.4,0-49,6.7-62,11.8c0-16.5,0.1-33.1,0.1-49.6
		c11.4,5.5,33.4,14.3,62.5,14.5c29.3,0.1,51.6-8.7,63-14.1C240.8,145.5,240.8,162.1,240.7,178.6z"/>
	<path class="st0" d="M135.3,168.8c-12.5-10.5-25.1-21.1-37.6-31.6c-4.2,12.2-13.5,33.8-33.5,54.3c-21.4,22-44.5,31.8-56.9,36.1
		C19.9,238,32.4,248.3,45,258.7c4.5-12.3,14.1-33.5,34-53.8C100.2,183.3,122.8,173.3,135.3,168.8z"/>
	<path class="st0" d="M139,221.7c9,13.7,18.1,27.4,27.1,41.1c7.1-14.5,18.9-34.7,38.3-54.8c21.3-22.1,43.2-35.2,58.3-42.8
		c-14.9-6.6-29.9-13.1-44.8-19.7c-2.1,8.9-8.5,29.9-27.3,48.6C170.6,214.1,148,219.9,139,221.7z"/>
	<path class="st0" d="M153.7,267.1c-13.2-5.4-35.7-12.6-64.4-12.6c-28.2,0-50.4,7-63.5,12.2c0-16.5,0.1-33.1,0.1-49.6
		c12.4,5.5,34.5,13.3,62.9,13.5c29.5,0.3,52.3-7.7,64.9-13.2C153.8,234,153.7,250.6,153.7,267.1z"/>
	
		<ellipse transform="matrix(2.553455e-03 -1 1 2.553455e-03 88.3302 143.1562)" class="st1" cx="115.9" cy="27.3" rx="24.8" ry="24.5"/>
	
		<ellipse transform="matrix(2.553455e-03 -1 1 2.553455e-03 -88.7156 142.9673)" class="st1" cx="27.3" cy="116" rx="24.8" ry="24.5"/>
	
		<ellipse transform="matrix(2.540815e-03 -1 1 2.540815e-03 212.092 270.0823)" class="st1" cx="241.4" cy="28.7" rx="24.8" ry="24.5"/>
	
		<ellipse transform="matrix(2.553455e-03 -1 1 2.553455e-03 -37.5147 269.0573)" class="st1" cx="116.1" cy="153.3" rx="24.8" ry="24.5"/>
	
		<ellipse transform="matrix(2.540815e-03 -1 1 2.540815e-03 86.877 394.4735)" class="st1" cx="241.2" cy="153.7" rx="24.8" ry="24.5"/>
	
		<ellipse transform="matrix(2.553455e-03 -1 1 2.553455e-03 -215.0798 268.3937)" class="st1" cx="27" cy="242" rx="24.8" ry="24.5"/>
	
		<ellipse transform="matrix(2.553455e-03 -1 1 2.553455e-03 -90.1719 394.2829)" class="st1" cx="152.6" cy="242.3" rx="24.8" ry="24.5"/>
</g>
<g>
	<path class="st2" d="M318.6,131.9v41.2h9.2V188h-37.1v-14.9h10.4V79.3h-10.4V64.4h30.9c10.4,0,18.7,3.1,24.8,9.2
		c6.1,6.1,9.1,14.2,9.1,24.4c0,13.1-4.9,22.8-14.7,29.1l13.4,46h7.4V188h-20.9l-15.2-56.6C323.7,131.7,321.4,131.9,318.6,131.9z
		 M318.6,79.3V117c6.6,0,11.4-1.5,14.3-4.6c2.9-3,4.3-7.9,4.3-14.5c0-7-1.5-11.9-4.4-14.6C329.9,80.7,325.2,79.3,318.6,79.3z"/>
	<path class="st2" d="M367.2,188v-14.9h9.1V79.3h-9.1V64.4h56.9v36.1h-14.9V79.3h-15.4v37.5h12.6v14.9h-12.6v41.3h15.4V150h14.9v38
		H367.2z"/>
	<path class="st2" d="M437.7,188v-42.5h14.9v11.4c0,6.6,0.7,11.3,2.1,13.9c1.4,2.7,3.8,4,7.2,4c2.6,0,4.8-1.1,6.4-3.3
		c1.6-2.2,2.4-5.1,2.4-8.8c0-3.1-0.6-6.5-1.7-10.2c-1.1-3.7-2.5-6.7-4-9.1c-1.6-2.4-5.5-7.7-11.9-15.8c-6.6-8.3-11-15-13.2-20.1
		c-2.2-5.1-3.3-11-3.3-17.8c0-8.1,1.8-14.7,5.5-19.9c3.6-5.1,8.3-7.7,14-7.7c4.8,0,8.9,1.9,12.5,5.7v-3.7h14.9v36.9h-14.9v-9.4
		c0-5.1-0.7-8.8-2-11.1c-1.3-2.3-3.4-3.4-6.2-3.4c-4.8,0-7.2,3-7.2,9.1c0,3.5,0.7,7.1,2.2,10.8c1.4,3.7,3.9,7.7,7.5,12.1l7.7,9.5
		c11.6,14.5,17.4,28.2,17.4,41.4c0,8.6-2.1,15.7-6.3,21.3c-4.2,5.6-9.4,8.4-15.7,8.4c-5.1,0-9.5-2-13.2-5.9v3.9H437.7z"/>
	<path class="st2" d="M558.1,126.9c0,42.1-9.5,63.2-28.5,63.2c-9.8,0-17-5.2-21.7-15.7c-4.7-10.4-7-26.3-7-47.5
		c0-14.2,1.1-26.1,3.4-35.7c2.2-9.6,5.5-16.8,9.8-21.6c4.3-4.8,9.5-7.2,15.5-7.2c9.1,0,16.1,5.4,21.1,16.2
		C555.7,89.3,558.1,105.5,558.1,126.9z M520,127.5c0,17.9,0.7,30.1,2,36.5c1.3,6.5,3.9,9.7,7.6,9.7c3.6,0,6.1-3.2,7.4-9.7
		c1.3-6.5,2-18.6,2-36.3c0-19.4-0.6-32.4-1.9-39.1c-1.3-6.6-3.8-10-7.5-10c-4,0-6.6,3.7-7.8,11C520.6,96.9,520,109.6,520,127.5z"/>
	<path class="st2" d="M567.4,79.3V64.4h33.5v14.9h-6.6v79.3c0,6,0.8,10.2,2.3,12.6c1.5,2.4,4.1,3.7,7.8,3.7c3.8,0,6.4-1.2,7.9-3.7
		s2.2-6.6,2.2-12.6V79.3h-6.4V64.4h30.5v14.9h-9.2v78.6c0,11.2-2.5,19.4-7.5,24.5c-5,5.1-11.3,7.7-18.7,7.7
		c-8.1,0-14.6-2.5-19.3-7.4c-4.7-4.9-7.1-11.3-7.1-19V79.3H567.4z"/>
	<path class="st2" d="M672.1,131.9v41.2h9.2V188h-37.1v-14.9h10.4V79.3h-10.4V64.4h30.9c10.4,0,18.7,3.1,24.8,9.2
		c6.1,6.1,9.1,14.2,9.1,24.4c0,13.1-4.9,22.8-14.7,29.1l13.4,46h7.4V188h-20.9L679,131.4C677.2,131.7,674.9,131.9,672.1,131.9z
		 M672.1,79.3V117c6.6,0,11.4-1.5,14.3-4.6c2.9-3,4.3-7.9,4.3-14.5c0-7-1.5-11.9-4.4-14.6C683.4,80.7,678.7,79.3,672.1,79.3z"/>
	<path class="st2" d="M762.8,144l15.3,4.3c-0.1,13-2.5,23.2-7.1,30.6s-10.9,11.2-18.9,11.2c-9.8,0-17.1-5.2-21.9-15.5
		c-4.8-10.3-7.1-26-7.1-47c0-43.5,8.4-65.2,25.2-65.2c5.9,0,10.4,2.7,13.5,8h0.3v-6h14.9v40.1h-14.9c0-8.4-1-14.8-2.9-19.2
		c-1.9-4.4-4.6-6.6-8.2-6.6c-2.6,0-4.5,1.1-5.7,3.2c-1.2,2.1-2,6.4-2.4,12.7c-0.4,6.3-0.7,16.6-0.7,30.8c0,19.6,0.7,32.5,2,38.9
		c1.3,6.3,4.1,9.5,8.2,9.5c3.6,0,6.2-2.3,7.8-6.9S762.8,154.6,762.8,144z"/>
	<path class="st2" d="M788.8,188v-14.9h9.1V79.3h-9.1V64.4h56.9v36.1h-14.9V79.3h-15.4v37.5h12.6v14.9h-12.6v41.3h15.4V150h14.9v38
		H788.8z"/>
	<path class="st2" d="M859.4,188v-42.5h14.9v11.4c0,6.6,0.7,11.3,2.1,13.9c1.4,2.7,3.8,4,7.2,4c2.6,0,4.8-1.1,6.4-3.3
		c1.6-2.2,2.4-5.1,2.4-8.8c0-3.1-0.6-6.5-1.7-10.2c-1.1-3.7-2.5-6.7-4-9.1c-1.6-2.4-5.5-7.7-11.9-15.8c-6.6-8.3-11-15-13.2-20.1
		c-2.2-5.1-3.3-11-3.3-17.8c0-8.1,1.8-14.7,5.5-19.9c3.6-5.1,8.3-7.7,14-7.7c4.8,0,8.9,1.9,12.5,5.7v-3.7h14.9v36.9h-14.9v-9.4
		c0-5.1-0.7-8.8-2-11.1c-1.3-2.3-3.4-3.4-6.2-3.4c-4.8,0-7.2,3-7.2,9.1c0,3.5,0.7,7.1,2.2,10.8c1.4,3.7,3.9,7.7,7.5,12.1l7.7,9.5
		c11.6,14.5,17.4,28.2,17.4,41.4c0,8.6-2.1,15.7-6.3,21.3c-4.2,5.6-9.4,8.4-15.7,8.4c-5.1,0-9.5-2-13.2-5.9v3.9H859.4z"/>
</g>
</svg>
