<?xml version="1.0" encoding="utf-8"?>
<!-- Generator: Adobe Illustrator 22.0.1, SVG Export Plug-In . SVG Version: 6.00 Build 0)  -->
<svg version="1.1" id="图层_1" xmlns="http://www.w3.org/2000/svg" xmlns:xlink="http://www.w3.org/1999/xlink" x="0px" y="0px"
	 viewBox="0 0 1138.5 269.6" style="enable-background:new 0 0 1138.5 269.6;" xml:space="preserve">
<style type="text/css">
	.st0{fill:#4AA29F;}
	.st1{fill:#3E3A39;}
	.st2{fill:#FFCC70;}
	.st3{fill:#FFCC70;stroke:#FFFFFF;stroke-width:5;stroke-miterlimit:10;}
</style>
<g>
	<rect x="447.7" y="13.3" class="st0" width="486.9" height="198.3"/>
	<g>
		<path class="st1" d="M312.8,190.8V83.1h-11.6V66.1h35.2c12.4,0,21.8,4,28.7,11.6c6.9,7.7,10.4,18.6,10.4,32.4
			c0,13.6-3.2,24.3-9.9,31.9c-6.4,7.7-17.6,11.4-32.9,11.4v37.6h11.9v17.1h-43.6v-17.1h11.9V190.8z M332.8,83.1v53
			c4.5,0,8.2-0.5,11.1-1.5c3-1,5.4-3.5,7.4-7.2c2-3.7,3-9.7,3-17.8c0-10.4-1.7-17.3-5.4-21C345.4,84.9,340,83.1,332.8,83.1z"/>
		<path class="st1" d="M381.3,207.9v-17.1h10.4V83.1h-10.4V66.1h65.3v41.3h-17.1V83.1h-17.8v43.1h14.4v17.1h-14.4v47.5h17.8v-26.5
			h17.1v43.6H381.3z"/>
		<path class="st2" d="M488.5,143.5v47.3h10.6v17.1h-42.6v-17.1h11.9V83.1h-11.9V66.1h35.6c11.9,0,21.5,3.5,28.5,10.6
			c6.9,7.2,10.4,16.3,10.4,28c0,15.1-5.7,26.2-16.8,33.4l15.3,53h8.4v17.1h-24L496.4,143C494.5,143.3,491.7,143.5,488.5,143.5z
			 M488.5,83.1v43.3c7.7,0,13.1-1.7,16.3-5.2c3.2-3.5,5-8.9,5-16.6c0-8.2-1.7-13.6-5-16.8C501.6,84.6,496.2,83.1,488.5,83.1z"/>
		<path class="st2" d="M548.9,207.9v-48.8H566v13.1c0,7.7,0.7,12.9,2.5,16.1c1.5,3,4.2,4.7,8.2,4.7c3,0,5.4-1.2,7.4-3.7
			c2-2.5,2.7-5.9,2.7-10.1c0-3.5-0.7-7.4-2-11.6c-1.2-4.2-2.7-7.7-4.7-10.4c-1.7-2.7-6.4-8.9-13.6-18.1c-7.7-9.7-12.6-17.3-15.1-23
			s-3.7-12.6-3.7-20.3c0-9.4,2-16.8,6.2-22.8c4.2-5.9,9.7-8.9,16.1-8.9c5.4,0,10.1,2.2,14.4,6.7v-4.2h17.1v42.3h-17.1V97.5
			c0-5.9-0.7-10.1-2.2-12.9s-4-4-7.2-4c-5.4,0-8.4,3.5-8.4,10.4c0,4,0.7,8.2,2.5,12.4c1.7,4.2,4.5,8.9,8.7,13.9l8.9,10.9
			c13.4,16.6,20.1,32.4,20.1,47.5c0,9.9-2.5,18.1-7.2,24.5c-4.7,6.4-10.9,9.7-18.1,9.7c-5.9,0-10.9-2.2-15.1-6.7v4.5h-17.3V207.9z"
			/>
		<path class="st2" d="M630.6,190.8V83.1H619V66.1h35.2c12.4,0,21.8,4,28.7,11.6c6.9,7.7,10.4,18.6,10.4,32.4
			c0,13.6-3.2,24.3-9.9,31.9c-6.4,7.7-17.6,11.4-32.9,11.4v37.6h11.9v17.1h-43.6v-17.1h11.9V190.8z M650.7,83.1v53
			c4.5,0,8.2-0.5,11.1-1.5c3-1,5.4-3.5,7.4-7.2c2-3.7,3-9.7,3-17.8c0-10.4-1.7-17.3-5.4-21C663,84.9,657.8,83.1,650.7,83.1z"/>
		<path class="st2" d="M699.2,207.9v-17.1h10.4V83.1h-10.4V66.1h65.3v41.3h-17.1V83.1h-17.6v43.1h14.4v17.1h-14.4v47.5h17.8v-26.5
			h17.1v43.6H699.2z"/>
		<path class="st2" d="M824.2,157.4l17.6,5c-0.2,14.9-2.7,26.7-8.2,35.2c-5.4,8.4-12.6,12.9-21.8,12.9c-11.4,0-19.8-5.9-25.2-17.8
			c-5.4-11.9-8.2-30-8.2-54c0-50,9.7-75,29-75c6.7,0,11.9,3,15.3,9.2h0.5v-6.9h17.1v46h-17.1c0-9.7-1-17.1-3.2-22s-5.4-7.7-9.4-7.7
			c-3,0-5.2,1.2-6.4,3.7s-2.2,7.4-2.7,14.6c-0.5,7.2-0.7,19.1-0.7,35.4c0,22.5,0.7,37.4,2.2,44.8c1.5,7.2,4.7,10.9,9.4,10.9
			c4.2,0,7.2-2.7,8.9-7.9S824.2,169.5,824.2,157.4z"/>
		<path class="st2" d="M928.1,65.8v52H913V80.9h-12.1v109.9h11.1v17.1h-42.6v-17.1h11.1V80.9h-12.1v36.9h-15.1v-52
			C853.4,65.8,928.1,65.8,928.1,65.8z"/>
		<path class="st1" d="M936.3,207.9v-17.1h10.9V83.1h-10.9V66.1h41.8v17.1h-10.9v107.7h10.9v17.1H936.3z"/>
		<path class="st1" d="M1018,209.1l-23.8-126h-9.9V66.1h39.4v17.1h-9.7c7.7,37.6,11.9,66.6,12.4,87.1h0.5
			c0.5-18.3,4.5-47.5,12.1-87.1h-9.7V66.1h37.1v17.1h-10.1l-23,126H1018z"/>
		<path class="st1" d="M1073.2,207.9v-17.1h10.4V83.1h-10.4V66.1h65.3v41.3h-17.1V83.1h-17.8v43.1h14.4v17.1h-14.4v47.5h17.8v-26.5
			h17.1v43.6H1073.2z"/>
	</g>
</g>
<g>
	<path class="st0" d="M241.3,53.4c-15.8-4.6-38-9.2-64.8-9.2c-24.7,0-45.4,3.9-60.6,8c0-16.5,0.1-33.1,0.1-49.6
		c15,4.4,35.5,8.7,60.1,9.2c27,0.6,49.4-3.7,65.4-7.9C241.4,20.3,241.3,36.8,241.3,53.4z"/>
	<path class="st0" d="M140.6,153.5l-49.1-0.1c5.8-11.5,15.5-34.6,15.4-65.3c0-30.1-9.4-52.9-15.1-64.4c16.4,0,32.8,0.1,49.1,0.1
		c-5.6,12.9-13.6,36-13.5,65.8C127.5,118.4,135.2,140.7,140.6,153.5z"/>
	<path class="st0" d="M123.5,50.7c-9.7-11.8-19.3-23.6-29-35.4c-3.1,10.2-10.6,30.2-28.7,48.6C50.2,79.6,33.8,87.3,24.2,91
		c7.8,12.9,15.5,25.8,23.3,38.7c4.3-11.5,13.5-31,32.1-49.5C95.8,64,112.7,55.3,123.5,50.7z"/>
	<path class="st0" d="M51.7,244.9l-49.1-0.1c5.7-12.8,13.7-35.5,14-64.8c0.3-30.6-8-54.3-13.7-67.3c16.4,0,32.8,0.1,49.1,0.1
		c-5.8,12.7-14.6,36.4-14.5,67.2C37.7,209.6,46,232.3,51.7,244.9z"/>
	<path class="st0" d="M265.6,156.2l-49.1-0.1c5.7-11.1,15.4-33.7,15.4-63.9c0-29.9-9.5-52.4-15.1-63.5c16.4,0,32.8,0.1,49.1,0.1
		c-5.3,13-12.4,35-12.6,62.9C253.2,120.5,260.3,143.1,265.6,156.2z"/>
	<path class="st0" d="M240.7,178.6c-13.1-5.2-35.3-12.1-63.4-12.1c-27.4,0-49,6.7-62,11.8c0-16.5,0.1-33.1,0.1-49.6
		c11.4,5.5,33.4,14.3,62.5,14.5c29.3,0.1,51.6-8.7,63-14.1C240.8,145.5,240.8,162.1,240.7,178.6z"/>
	<path class="st0" d="M135.3,168.8c-12.5-10.5-25.1-21.1-37.6-31.6c-4.2,12.2-13.5,33.8-33.5,54.3c-21.4,22-44.5,31.8-56.9,36.1
		C19.9,238,32.4,248.3,45,258.7c4.5-12.3,14.1-33.5,34-53.8C100.2,183.3,122.8,173.3,135.3,168.8z"/>
	<path class="st0" d="M139,221.7c9,13.7,18.1,27.4,27.1,41.1c7.1-14.5,18.9-34.7,38.3-54.8c21.3-22.1,43.2-35.2,58.3-42.8
		c-14.9-6.6-29.9-13.1-44.8-19.7c-2.1,8.9-8.5,29.9-27.3,48.6C170.6,214.1,148,219.9,139,221.7z"/>
	<path class="st0" d="M153.7,267.1c-13.2-5.4-35.7-12.6-64.4-12.6c-28.2,0-50.4,7-63.5,12.2c0-16.5,0.1-33.1,0.1-49.6
		c12.4,5.5,34.5,13.3,62.9,13.5c29.5,0.3,52.3-7.7,64.9-13.2C153.8,234,153.7,250.6,153.7,267.1z"/>
	
		<ellipse transform="matrix(2.553471e-03 -1 1 2.553471e-03 88.3296 143.1155)" class="st3" cx="115.9" cy="27.3" rx="24.8" ry="24.5"/>
	
		<ellipse transform="matrix(2.553471e-03 -1 1 2.553471e-03 -88.6759 142.9755)" class="st3" cx="27.3" cy="115.9" rx="24.8" ry="24.5"/>
	
		<ellipse transform="matrix(2.553471e-03 -1 1 2.553471e-03 212.1243 270.0225)" class="st3" cx="241.4" cy="28.7" rx="24.8" ry="24.5"/>
	
		<ellipse transform="matrix(2.553471e-03 -1 1 2.553471e-03 -37.5097 269.0664)" class="st3" cx="116.1" cy="153.3" rx="24.8" ry="24.5"/>
	
		<ellipse transform="matrix(2.553471e-03 -1 1 2.553471e-03 86.8292 394.3615)" class="st3" cx="241.1" cy="153.7" rx="24.8" ry="24.5"/>
	
		<ellipse transform="matrix(2.553471e-03 -1 1 2.553471e-03 -215.0511 268.3864)" class="st3" cx="27" cy="242" rx="24.8" ry="24.5"/>
	
		<ellipse transform="matrix(2.553471e-03 -1 1 2.553471e-03 -90.1763 394.2215)" class="st3" cx="152.5" cy="242.3" rx="24.8" ry="24.5"/>
</g>
</svg>
