<?xml version="1.0" encoding="utf-8"?>
<!-- Generator: Adobe Illustrator 22.0.1, SVG Export Plug-In . SVG Version: 6.00 Build 0)  -->
<svg version="1.1" id="图层_1" xmlns="http://www.w3.org/2000/svg" xmlns:xlink="http://www.w3.org/1999/xlink" x="0px" y="0px"
	 viewBox="0 0 845.9 269.6" style="enable-background:new 0 0 845.9 269.6;" xml:space="preserve">
<style type="text/css">
	.st0{fill:#4AA29F;}
	.st1{fill:#FFCC70;stroke:#FFFFFF;stroke-width:5;stroke-miterlimit:10;}
	.st2{fill:#383838;}
</style>
<g>
	<path class="st0" d="M241.3,53.4c-15.8-4.6-38-9.2-64.8-9.2c-24.7,0-45.4,3.9-60.6,8c0-16.5,0.1-33.1,0.1-49.6
		c15,4.4,35.5,8.7,60.1,9.2c27,0.6,49.4-3.7,65.4-7.9C241.4,20.3,241.3,36.8,241.3,53.4z"/>
	<path class="st0" d="M140.6,153.5l-49.1-0.1c5.8-11.5,15.5-34.6,15.4-65.3c0-30.1-9.4-52.9-15.1-64.4c16.4,0,32.8,0.1,49.1,0.1
		c-5.6,12.9-13.6,36-13.5,65.8C127.5,118.4,135.2,140.7,140.6,153.5z"/>
	<path class="st0" d="M123.5,50.7c-9.7-11.8-19.3-23.6-29-35.4c-3.1,10.2-10.6,30.2-28.7,48.6C50.2,79.6,33.8,87.3,24.2,91
		c7.8,12.9,15.5,25.8,23.3,38.7c4.3-11.5,13.5-31,32.1-49.5C95.8,64,112.7,55.3,123.5,50.7z"/>
	<path class="st0" d="M51.7,244.9l-49.1-0.1c5.7-12.8,13.7-35.5,14-64.8c0.3-30.6-8-54.3-13.7-67.3c16.4,0,32.8,0.1,49.1,0.1
		c-5.8,12.7-14.6,36.4-14.5,67.2C37.7,209.6,46,232.3,51.7,244.9z"/>
	<path class="st0" d="M265.6,156.2l-49.1-0.1c5.7-11.1,15.4-33.7,15.4-63.9c0-29.9-9.5-52.4-15.1-63.5c16.4,0,32.8,0.1,49.1,0.1
		c-5.3,13-12.4,35-12.6,62.9C253.2,120.5,260.3,143.1,265.6,156.2z"/>
	<path class="st0" d="M240.7,178.6c-13.1-5.2-35.3-12.1-63.4-12.1c-27.4,0-49,6.7-62,11.8c0-16.5,0.1-33.1,0.1-49.6
		c11.4,5.5,33.4,14.3,62.5,14.5c29.3,0.1,51.6-8.7,63-14.1C240.8,145.5,240.8,162.1,240.7,178.6z"/>
	<path class="st0" d="M135.3,168.8c-12.5-10.5-25.1-21.1-37.6-31.6c-4.2,12.2-13.5,33.8-33.5,54.3c-21.4,22-44.5,31.8-56.9,36.1
		C19.9,238,32.4,248.3,45,258.7c4.5-12.3,14.1-33.5,34-53.8C100.2,183.3,122.8,173.3,135.3,168.8z"/>
	<path class="st0" d="M139,221.7c9,13.7,18.1,27.4,27.1,41.1c7.1-14.5,18.9-34.7,38.3-54.8c21.3-22.1,43.2-35.2,58.3-42.8
		c-14.9-6.6-29.9-13.1-44.8-19.7c-2.1,8.9-8.5,29.9-27.3,48.6C170.6,214.1,148,219.9,139,221.7z"/>
	<path class="st0" d="M153.7,267.1c-13.2-5.4-35.7-12.6-64.4-12.6c-28.2,0-50.4,7-63.5,12.2c0-16.5,0.1-33.1,0.1-49.6
		c12.4,5.5,34.5,13.3,62.9,13.5c29.5,0.3,52.3-7.7,64.9-13.2C153.8,234,153.7,250.6,153.7,267.1z"/>
	
		<ellipse transform="matrix(2.553455e-03 -1 1 2.553455e-03 88.3302 143.1562)" class="st1" cx="115.9" cy="27.3" rx="24.8" ry="24.5"/>
	
		<ellipse transform="matrix(2.553455e-03 -1 1 2.553455e-03 -88.7156 142.9673)" class="st1" cx="27.3" cy="116" rx="24.8" ry="24.5"/>
	
		<ellipse transform="matrix(2.540815e-03 -1 1 2.540815e-03 212.092 270.0823)" class="st1" cx="241.4" cy="28.7" rx="24.8" ry="24.5"/>
	
		<ellipse transform="matrix(2.553455e-03 -1 1 2.553455e-03 -37.5147 269.0573)" class="st1" cx="116.1" cy="153.3" rx="24.8" ry="24.5"/>
	
		<ellipse transform="matrix(2.540815e-03 -1 1 2.540815e-03 86.877 394.4735)" class="st1" cx="241.2" cy="153.7" rx="24.8" ry="24.5"/>
	
		<ellipse transform="matrix(2.553455e-03 -1 1 2.553455e-03 -215.0798 268.3937)" class="st1" cx="27" cy="242" rx="24.8" ry="24.5"/>
	
		<ellipse transform="matrix(2.553455e-03 -1 1 2.553455e-03 -90.1719 394.2829)" class="st1" cx="152.6" cy="242.3" rx="24.8" ry="24.5"/>
</g>
<g>
	<path class="st2" d="M318.3,137.7v36.8h8.2v13.3h-33.1v-13.3h9.3V90.7h-9.3V77.4H321c9.3,0,16.7,2.7,22.1,8.2
		c5.4,5.5,8.1,12.7,8.1,21.7c0,11.7-4.4,20.3-13.1,26l12,41.1h6.6v13.3h-18.7l-13.6-50.5C322.9,137.5,320.8,137.7,318.3,137.7z
		 M318.3,90.7v33.6c5.9,0,10.2-1.4,12.7-4.1c2.6-2.7,3.9-7,3.9-12.9c0-6.2-1.3-10.6-3.9-13C328.4,92,324.2,90.7,318.3,90.7z"/>
	<path class="st2" d="M361.7,187.8v-13.3h8.1V90.7h-8.1V77.4h50.8v32.2h-13.3V90.7h-13.8v33.5h11.2v13.3h-11.2v36.9h13.8v-20.6h13.3
		v33.9H361.7z"/>
	<path class="st2" d="M424.7,187.8v-37.9H438V160c0,5.9,0.6,10.1,1.8,12.5c1.2,2.4,3.4,3.6,6.4,3.6c2.4,0,4.3-1,5.7-2.9
		c1.4-2,2.2-4.6,2.2-7.8c0-2.8-0.5-5.8-1.5-9.1c-1-3.3-2.2-6-3.6-8.2c-1.4-2.1-5-6.8-10.6-14.1c-5.9-7.4-9.8-13.4-11.8-17.9
		c-2-4.5-2.9-9.8-2.9-15.9c0-7.2,1.6-13.1,4.9-17.7c3.2-4.6,7.4-6.9,12.5-6.9c4.2,0,8,1.7,11.1,5.1v-3.3h13.3v33h-13.3V102
		c0-4.6-0.6-7.9-1.8-9.9c-1.2-2-3-3-5.6-3c-4.3,0-6.4,2.7-6.4,8.1c0,3.1,0.6,6.3,1.9,9.6c1.3,3.3,3.5,6.9,6.7,10.8l6.9,8.5
		c10.4,12.9,15.6,25.2,15.6,36.9c0,7.7-1.9,14-5.6,19c-3.7,5-8.4,7.5-14,7.5c-4.6,0-8.5-1.8-11.8-5.3v3.4H424.7z"/>
	<path class="st2" d="M532.2,133.2c0,37.6-8.5,56.4-25.5,56.4c-8.7,0-15.2-4.7-19.4-14c-4.2-9.3-6.3-23.5-6.3-42.4
		c0-12.7,1-23.3,3-31.9c2-8.6,4.9-15,8.8-19.3c3.9-4.3,8.5-6.4,13.8-6.4c8.1,0,14.4,4.8,18.8,14.5C530,99.7,532.2,114.1,532.2,133.2
		z M498.1,133.8c0,16,0.6,26.8,1.8,32.6c1.2,5.8,3.5,8.6,6.8,8.6c3.2,0,5.4-2.9,6.6-8.6c1.2-5.8,1.8-16.6,1.8-32.4
		c0-17.3-0.6-29-1.7-34.9c-1.1-5.9-3.4-8.9-6.7-8.9c-3.6,0-5.9,3.3-7,9.8C498.7,106.5,498.1,117.7,498.1,133.8z"/>
	<path class="st2" d="M540.5,90.7V77.4h29.9v13.3h-5.9v70.8c0,5.3,0.7,9.1,2.1,11.2c1.4,2.2,3.7,3.3,7,3.3c3.4,0,5.7-1.1,7-3.3
		s2-5.9,2-11.2V90.7h-5.7V77.4h27.2v13.3h-8.2v70.2c0,10-2.2,17.3-6.7,21.9c-4.5,4.6-10.1,6.8-16.7,6.8c-7.3,0-13-2.2-17.2-6.6
		c-4.2-4.4-6.3-10.1-6.3-17V90.7H540.5z"/>
	<path class="st2" d="M633.9,137.7v36.8h8.2v13.3H609v-13.3h9.3V90.7H609V77.4h27.6c9.3,0,16.7,2.7,22.1,8.2
		c5.4,5.5,8.1,12.7,8.1,21.7c0,11.7-4.4,20.3-13.1,26l12,41.1h6.6v13.3h-18.7l-13.6-50.5C638.5,137.5,636.4,137.7,633.9,137.7z
		 M633.9,90.7v33.6c5.9,0,10.2-1.4,12.7-4.1c2.6-2.7,3.9-7,3.9-12.9c0-6.2-1.3-10.6-3.9-13C644,92,639.8,90.7,633.9,90.7z"/>
	<path class="st2" d="M714.9,148.5l13.7,3.8c-0.1,11.6-2.2,20.7-6.3,27.4s-9.7,10-16.8,10c-8.8,0-15.3-4.6-19.6-13.8
		c-4.2-9.2-6.4-23.2-6.4-42c0-38.8,7.5-58.2,22.5-58.2c5.3,0,9.3,2.4,12,7.2h0.3v-5.3h13.3v35.8h-13.3c0-7.5-0.9-13.2-2.6-17.1
		c-1.7-4-4.2-5.9-7.3-5.9c-2.3,0-4,1-5.1,2.9c-1.1,1.9-1.8,5.7-2.2,11.3c-0.4,5.6-0.6,14.8-0.6,27.5c0,17.5,0.6,29.1,1.8,34.7
		c1.2,5.7,3.7,8.5,7.4,8.5c3.2,0,5.5-2.1,7-6.2S714.9,158,714.9,148.5z"/>
	<path class="st2" d="M738.2,187.8v-13.3h8.1V90.7h-8.1V77.4H789v32.2h-13.3V90.7h-13.8v33.5h11.2v13.3h-11.2v36.9h13.8v-20.6H789
		v33.9H738.2z"/>
	<path class="st2" d="M801.2,187.8v-37.9h13.3V160c0,5.9,0.6,10.1,1.8,12.5c1.2,2.4,3.4,3.6,6.4,3.6c2.4,0,4.3-1,5.7-2.9
		c1.4-2,2.2-4.6,2.2-7.8c0-2.8-0.5-5.8-1.5-9.1c-1-3.3-2.2-6-3.6-8.2c-1.4-2.1-5-6.8-10.6-14.1c-5.9-7.4-9.8-13.4-11.8-17.9
		c-2-4.5-2.9-9.8-2.9-15.9c0-7.2,1.6-13.1,4.9-17.7c3.2-4.6,7.4-6.9,12.5-6.9c4.2,0,8,1.7,11.1,5.1v-3.3h13.3v33h-13.3V102
		c0-4.6-0.6-7.9-1.8-9.9c-1.2-2-3-3-5.6-3c-4.3,0-6.4,2.7-6.4,8.1c0,3.1,0.6,6.3,1.9,9.6c1.3,3.3,3.5,6.9,6.7,10.8l6.9,8.5
		c10.4,12.9,15.6,25.2,15.6,36.9c0,7.7-1.9,14-5.6,19c-3.7,5-8.4,7.5-14,7.5c-4.6,0-8.5-1.8-11.8-5.3v3.4H801.2z"/>
</g>
</svg>
