<?xml version="1.0" encoding="utf-8"?>
<!-- Generator: Adobe Illustrator 22.0.1, SVG Export Plug-In . SVG Version: 6.00 Build 0)  -->
<svg version="1.1" id="Layer_1" xmlns="http://www.w3.org/2000/svg" xmlns:xlink="http://www.w3.org/1999/xlink" x="0px" y="0px"
	 viewBox="0 0 268.4 269.6" enable-background="new 0 0 268.4 269.6" xml:space="preserve">
<g>
	<path fill="#FFF6A7" d="M241.3,53.4c-15.8-4.6-38-9.2-64.8-9.2c-24.7,0-45.4,3.9-60.6,8c0-16.5,0.1-33.1,0.1-49.6
		c15,4.4,35.5,8.7,60.1,9.2c27,0.6,49.4-3.7,65.4-7.9C241.4,20.3,241.3,36.8,241.3,53.4z"/>
	<path fill="#FFF6A7" d="M140.6,153.5l-49.1-0.1c5.8-11.5,15.5-34.6,15.4-65.3c0-30.1-9.4-52.9-15.1-64.4c16.4,0,32.8,0.1,49.1,0.1
		c-5.6,12.9-13.6,36-13.5,65.8C127.5,118.4,135.2,140.7,140.6,153.5z"/>
	<path fill="#FFF6A7" d="M123.5,50.7c-9.7-11.8-19.3-23.6-29-35.4c-3.1,10.2-10.6,30.2-28.7,48.6C50.2,79.6,33.8,87.3,24.2,91
		c7.8,12.9,15.5,25.8,23.3,38.7c4.3-11.5,13.5-31,32.1-49.5C95.8,64,112.7,55.3,123.5,50.7z"/>
	<path fill="#FFF6A7" d="M51.7,244.9l-49.1-0.1c5.7-12.8,13.7-35.5,14-64.8c0.3-30.6-8-54.3-13.7-67.3c16.4,0,32.8,0.1,49.1,0.1
		c-5.8,12.7-14.6,36.4-14.5,67.2C37.7,209.6,46,232.3,51.7,244.9z"/>
	<path fill="#FFF6A7" d="M265.6,156.2l-49.1-0.1c5.7-11.1,15.4-33.7,15.4-63.9c0-29.9-9.5-52.4-15.1-63.5c16.4,0,32.8,0.1,49.1,0.1
		c-5.3,13-12.4,35-12.6,62.9C253.2,120.5,260.3,143.1,265.6,156.2z"/>
	<path fill="#FFF6A7" d="M240.7,178.6c-13.1-5.2-35.3-12.1-63.4-12.1c-27.4,0-49,6.7-62,11.8c0-16.5,0.1-33.1,0.1-49.6
		c11.4,5.5,33.4,14.3,62.5,14.5c29.3,0.1,51.6-8.7,63-14.1C240.8,145.5,240.8,162.1,240.7,178.6z"/>
	<path fill="#FFF6A7" d="M135.3,168.8c-12.5-10.5-25.1-21.1-37.6-31.6c-4.2,12.2-13.5,33.8-33.5,54.3c-21.4,22-44.5,31.8-56.9,36.1
		C19.9,238,32.4,248.3,45,258.7c4.5-12.3,14.1-33.5,34-53.8C100.2,183.3,122.8,173.3,135.3,168.8z"/>
	<path fill="#FFF6A7" d="M139,221.7c9,13.7,18.1,27.4,27.1,41.1c7.1-14.5,18.9-34.7,38.3-54.8c21.3-22.1,43.2-35.2,58.3-42.8
		c-14.9-6.6-29.9-13.1-44.8-19.7c-2.1,8.9-8.5,29.9-27.3,48.6C170.6,214.1,148,219.9,139,221.7z"/>
	<path fill="#FFF6A7" d="M153.7,267.1c-13.2-5.4-35.7-12.6-64.4-12.6c-28.2,0-50.4,7-63.5,12.2c0-16.5,0.1-33.1,0.1-49.6
		c12.4,5.5,34.5,13.3,62.9,13.5c29.5,0.3,52.3-7.7,64.9-13.2C153.8,234,153.7,250.6,153.7,267.1z"/>
	
		<ellipse transform="matrix(2.553471e-03 -1 1 2.553471e-03 88.3296 143.1155)" fill="#C86C61" stroke="#FFFFFF" stroke-width="5" stroke-miterlimit="10" cx="115.9" cy="27.3" rx="24.8" ry="24.5"/>
	
		<ellipse transform="matrix(2.553471e-03 -1 1 2.553471e-03 -88.6759 142.9755)" fill="#C86C61" stroke="#FFFFFF" stroke-width="5" stroke-miterlimit="10" cx="27.3" cy="115.9" rx="24.8" ry="24.5"/>
	
		<ellipse transform="matrix(2.553471e-03 -1 1 2.553471e-03 212.1243 270.0225)" fill="#C86C61" stroke="#FFFFFF" stroke-width="5" stroke-miterlimit="10" cx="241.4" cy="28.7" rx="24.8" ry="24.5"/>
	
		<ellipse transform="matrix(2.553471e-03 -1 1 2.553471e-03 -37.5097 269.0664)" fill="#C86C61" stroke="#FFFFFF" stroke-width="5" stroke-miterlimit="10" cx="116.1" cy="153.3" rx="24.8" ry="24.5"/>
	
		<ellipse transform="matrix(2.553471e-03 -1 1 2.553471e-03 86.8292 394.3615)" fill="#C86C61" stroke="#FFFFFF" stroke-width="5" stroke-miterlimit="10" cx="241.1" cy="153.7" rx="24.8" ry="24.5"/>
	
		<ellipse transform="matrix(2.553471e-03 -1 1 2.553471e-03 -215.0511 268.3864)" fill="#C86C61" stroke="#FFFFFF" stroke-width="5" stroke-miterlimit="10" cx="27" cy="242" rx="24.8" ry="24.5"/>
	
		<ellipse transform="matrix(2.553471e-03 -1 1 2.553471e-03 -90.1763 394.2215)" fill="#C86C61" stroke="#FFFFFF" stroke-width="5" stroke-miterlimit="10" cx="152.5" cy="242.3" rx="24.8" ry="24.5"/>
</g>
<g>
</g>
<g>
</g>
<g>
</g>
<g>
</g>
<g>
</g>
<g>
</g>
<g>
</g>
<g>
</g>
<g>
</g>
<g>
</g>
<g>
</g>
<g>
</g>
<g>
</g>
<g>
</g>
<g>
</g>
</svg>
