<?xml version="1.0" encoding="utf-8"?>
<!-- Generator: Adobe Illustrator 22.0.1, SVG Export Plug-In . SVG Version: 6.00 Build 0)  -->
<svg version="1.1" id="图层_1" xmlns="http://www.w3.org/2000/svg" xmlns:xlink="http://www.w3.org/1999/xlink" x="0px" y="0px"
	 viewBox="0 0 937.8 269.6" style="enable-background:new 0 0 937.8 269.6;" xml:space="preserve">
<style type="text/css">
	.st0{fill:#4AA29F;}
	.st1{fill:#FFCC70;stroke:#FFFFFF;stroke-width:5;stroke-miterlimit:10;}
	.st2{fill:#424242;}
</style>
<g>
	<path class="st0" d="M241.3,53.4c-15.8-4.6-38-9.2-64.8-9.2c-24.7,0-45.4,3.9-60.6,8c0-16.5,0.1-33.1,0.1-49.6
		c15,4.4,35.5,8.7,60.1,9.2c27,0.6,49.4-3.7,65.4-7.9C241.4,20.3,241.3,36.8,241.3,53.4z"/>
	<path class="st0" d="M140.6,153.5l-49.1-0.1c5.8-11.5,15.5-34.6,15.4-65.3c0-30.1-9.4-52.9-15.1-64.4c16.4,0,32.8,0.1,49.1,0.1
		c-5.6,12.9-13.6,36-13.5,65.8C127.5,118.4,135.2,140.7,140.6,153.5z"/>
	<path class="st0" d="M123.5,50.7c-9.7-11.8-19.3-23.6-29-35.4c-3.1,10.2-10.6,30.2-28.7,48.6C50.2,79.6,33.8,87.3,24.2,91
		c7.8,12.9,15.5,25.8,23.3,38.7c4.3-11.5,13.5-31,32.1-49.5C95.8,64,112.7,55.3,123.5,50.7z"/>
	<path class="st0" d="M51.7,244.9l-49.1-0.1c5.7-12.8,13.7-35.5,14-64.8c0.3-30.6-8-54.3-13.7-67.3c16.4,0,32.8,0.1,49.1,0.1
		c-5.8,12.7-14.6,36.4-14.5,67.2C37.7,209.6,46,232.3,51.7,244.9z"/>
	<path class="st0" d="M265.6,156.2l-49.1-0.1c5.7-11.1,15.4-33.7,15.4-63.9c0-29.9-9.5-52.4-15.1-63.5c16.4,0,32.8,0.1,49.1,0.1
		c-5.3,13-12.4,35-12.6,62.9C253.2,120.5,260.3,143.1,265.6,156.2z"/>
	<path class="st0" d="M240.7,178.6c-13.1-5.2-35.3-12.1-63.4-12.1c-27.4,0-49,6.7-62,11.8c0-16.5,0.1-33.1,0.1-49.6
		c11.4,5.5,33.4,14.3,62.5,14.5c29.3,0.1,51.6-8.7,63-14.1C240.8,145.5,240.8,162.1,240.7,178.6z"/>
	<path class="st0" d="M135.3,168.8c-12.5-10.5-25.1-21.1-37.6-31.6c-4.2,12.2-13.5,33.8-33.5,54.3c-21.4,22-44.5,31.8-56.9,36.1
		C19.9,238,32.4,248.3,45,258.7c4.5-12.3,14.1-33.5,34-53.8C100.2,183.3,122.8,173.3,135.3,168.8z"/>
	<path class="st0" d="M139,221.7c9,13.7,18.1,27.4,27.1,41.1c7.1-14.5,18.9-34.7,38.3-54.8c21.3-22.1,43.2-35.2,58.3-42.8
		c-14.9-6.6-29.9-13.1-44.8-19.7c-2.1,8.9-8.5,29.9-27.3,48.6C170.6,214.1,148,219.9,139,221.7z"/>
	<path class="st0" d="M153.7,267.1c-13.2-5.4-35.7-12.6-64.4-12.6c-28.2,0-50.4,7-63.5,12.2c0-16.5,0.1-33.1,0.1-49.6
		c12.4,5.5,34.5,13.3,62.9,13.5c29.5,0.3,52.3-7.7,64.9-13.2C153.8,234,153.7,250.6,153.7,267.1z"/>
	
		<ellipse transform="matrix(2.553455e-03 -1 1 2.553455e-03 88.3302 143.1562)" class="st1" cx="115.9" cy="27.3" rx="24.8" ry="24.5"/>
	
		<ellipse transform="matrix(2.553455e-03 -1 1 2.553455e-03 -88.7156 142.9673)" class="st1" cx="27.3" cy="116" rx="24.8" ry="24.5"/>
	
		<ellipse transform="matrix(2.540815e-03 -1 1 2.540815e-03 212.092 270.0823)" class="st1" cx="241.4" cy="28.7" rx="24.8" ry="24.5"/>
	
		<ellipse transform="matrix(2.553455e-03 -1 1 2.553455e-03 -37.5147 269.0573)" class="st1" cx="116.1" cy="153.3" rx="24.8" ry="24.5"/>
	
		<ellipse transform="matrix(2.540815e-03 -1 1 2.540815e-03 86.877 394.4735)" class="st1" cx="241.2" cy="153.7" rx="24.8" ry="24.5"/>
	
		<ellipse transform="matrix(2.553455e-03 -1 1 2.553455e-03 -215.0798 268.3937)" class="st1" cx="27" cy="242" rx="24.8" ry="24.5"/>
	
		<ellipse transform="matrix(2.553455e-03 -1 1 2.553455e-03 -90.1719 394.2829)" class="st1" cx="152.6" cy="242.3" rx="24.8" ry="24.5"/>
</g>
<g>
	<path class="st2" d="M332.2,146.6l14.1,3.9c-0.1,11.9-2.3,21.2-6.5,28.1c-4.2,6.8-10,10.3-17.3,10.3c-9,0-15.7-4.7-20.1-14.2
		c-4.4-9.4-6.5-23.8-6.5-43.1c0-39.9,7.7-59.8,23.1-59.8c5.4,0,9.5,2.5,12.3,7.4h0.3v-5.5h13.7v36.8h-13.7c0-7.7-0.9-13.5-2.6-17.6
		c-1.8-4.1-4.3-6.1-7.5-6.1c-2.4,0-4.1,1-5.2,2.9c-1.1,2-1.8,5.8-2.2,11.6c-0.4,5.8-0.6,15.2-0.6,28.2c0,17.9,0.6,29.8,1.8,35.6
		c1.2,5.8,3.7,8.7,7.6,8.7c3.3,0,5.6-2.1,7.1-6.3S332.2,156.4,332.2,146.6z"/>
	<path class="st2" d="M410.9,131c0,38.6-8.7,57.9-26.2,57.9c-9,0-15.6-4.8-19.9-14.4c-4.3-9.6-6.4-24.1-6.4-43.5
		c0-13,1-23.9,3.1-32.7c2.1-8.8,5.1-15.4,9-19.8c4-4.4,8.7-6.6,14.2-6.6c8.3,0,14.8,5,19.3,14.9C408.6,96.5,410.9,111.3,410.9,131z
		 M375.9,131.6c0,16.4,0.6,27.5,1.8,33.5c1.2,5.9,3.5,8.9,7,8.9c3.3,0,5.6-3,6.8-8.9c1.2-5.9,1.8-17,1.8-33.3
		c0-17.8-0.6-29.7-1.7-35.8c-1.2-6.1-3.5-9.1-6.9-9.1c-3.7,0-6,3.3-7.1,10C376.4,103.5,375.9,115.1,375.9,131.6z"/>
	<path class="st2" d="M420.1,187v-13.7h8.5V87.4h-8.5V73.7h33.7l4.4,23.9c0.6,3.4,1.2,7.9,1.7,13.6l2,21.1h0.5l2.3-18.6
		c0.9-7.3,1.8-13.5,2.6-18.5l3.5-21.6h33.9v13.7h-8.5v85.9h8.6V187h-33.3v-13.7h8.5v-57.4l1.2-30.5h-1.5l-5.1,38.8L463.9,187h-4.8
		l-10.5-58.2l-5.7-43.5h-1.5l0.9,30.4v57.6h8.5V187H420.1z"/>
	<path class="st2" d="M521.2,173.3V87.4h-9.2V73.7h28c9.8,0,17.4,3.1,23,9.3c5.5,6.2,8.3,14.8,8.3,25.8c0,10.8-2.6,19.3-7.8,25.4
		c-5.2,6.1-14,9.2-26.2,9.2v29.9h9.4V187h-34.7v-13.7H521.2z M537.2,87.4v42.3c3.6,0,6.6-0.4,8.9-1.2c2.3-0.8,4.3-2.7,5.9-5.8
		c1.6-3.1,2.4-7.8,2.4-14.1c0-8.2-1.4-13.8-4.3-16.8C547.2,88.9,542.9,87.4,537.2,87.4z"/>
	<path class="st2" d="M593.3,147.6l-2.8,25.7h7.2V187h-30.3v-13.7h7.1L587,87.4h-7.9V73.7h42v13.7h-7.9l12.5,85.9h7.1V187h-30.3
		v-13.7h7.2l-2.8-25.7H593.3z M594.3,133.9h11.5L601,83.4h-1.8L594.3,133.9z"/>
	<path class="st2" d="M663.4,135.6v37.7h8.4V187h-34v-13.7h9.5V87.4h-9.5V73.7h28.3c9.6,0,17.1,2.8,22.7,8.4s8.3,13.1,8.3,22.3
		c0,12-4.5,20.9-13.5,26.7l12.3,42.2h6.8V187h-19.2l-13.9-51.9C668,135.4,665.9,135.6,663.4,135.6z M663.4,87.4v34.5
		c6.1,0,10.4-1.4,13.1-4.2c2.7-2.8,4-7.2,4-13.3c0-6.4-1.3-10.9-4-13.3S669.4,87.4,663.4,87.4z"/>
	<path class="st2" d="M707.7,187v-13.7h8.6V87.4h-8.6V73.7H741v13.7h-8.6v85.9h8.6V187H707.7z"/>
	<path class="st2" d="M751.6,187v-39h13.7v10.5c0,6.1,0.6,10.3,1.9,12.8c1.3,2.5,3.5,3.7,6.6,3.7c2.4,0,4.4-1,5.9-3
		c1.5-2,2.2-4.7,2.2-8c0-2.9-0.5-6-1.6-9.3c-1-3.4-2.3-6.2-3.7-8.4c-1.4-2.2-5.1-7-10.9-14.5c-6-7.6-10.1-13.8-12.1-18.4
		c-2-4.6-3-10.1-3-16.3c0-7.4,1.7-13.5,5-18.2c3.3-4.7,7.6-7.1,12.8-7.1c4.4,0,8.2,1.8,11.4,5.3v-3.4h13.7v33.8h-13.7v-8.6
		c0-4.7-0.6-8.1-1.8-10.2c-1.2-2.1-3.1-3.1-5.7-3.1c-4.4,0-6.6,2.8-6.6,8.3c0,3.2,0.7,6.5,2,9.9c1.3,3.4,3.6,7.1,6.9,11.1l7.1,8.7
		c10.7,13.2,16,25.9,16,37.9c0,7.9-1.9,14.4-5.8,19.6c-3.8,5.2-8.6,7.7-14.4,7.7c-4.7,0-8.7-1.8-12.1-5.4v3.5H751.6z"/>
	<path class="st2" d="M862,131c0,38.6-8.7,57.9-26.2,57.9c-9,0-15.6-4.8-19.9-14.4c-4.3-9.6-6.4-24.1-6.4-43.5c0-13,1-23.9,3.1-32.7
		c2.1-8.8,5.1-15.4,9-19.8c4-4.4,8.7-6.6,14.2-6.6c8.3,0,14.8,5,19.3,14.9C859.7,96.5,862,111.3,862,131z M827,131.6
		c0,16.4,0.6,27.5,1.8,33.5c1.2,5.9,3.5,8.9,7,8.9c3.3,0,5.6-3,6.8-8.9c1.2-5.9,1.8-17,1.8-33.3c0-17.8-0.6-29.7-1.7-35.8
		c-1.2-6.1-3.5-9.1-6.9-9.1c-3.7,0-6,3.3-7.1,10C827.5,103.5,827,115.1,827,131.6z"/>
	<path class="st2" d="M871.8,187v-13.7h7.7V87.4h-7.7V73.7h25.1l13,41.1l7.7,33.1h0.5l-1.7-34.2V87.4h-7.7V73.7h29.1v13.7H930V187
		h-12.6l-13.9-43.5c-1.5-4.7-3.1-10.4-4.7-17.1l-6.2-25.5H892l1.2,34.5v37.9h7.7V187H871.8z"/>
</g>
</svg>
