<?xml version="1.0" encoding="utf-8"?>
<!-- Generator: Adobe Illustrator 22.0.1, SVG Export Plug-In . SVG Version: 6.00 Build 0)  -->
<svg version="1.1" id="图层_1" xmlns="http://www.w3.org/2000/svg" xmlns:xlink="http://www.w3.org/1999/xlink" x="0px" y="0px"
	 viewBox="0 0 948.2 269.7" style="enable-background:new 0 0 948.2 269.7;" xml:space="preserve">
<style type="text/css">
	.st0{fill:#4AA29F;}
	.st1{fill:#FFCC70;stroke:#FFFFFF;stroke-width:5;stroke-miterlimit:10;}
	.st2{fill:#3B3B3B;}
</style>
<g>
	<path class="st0" d="M241.3,53.4c-15.8-4.6-38-9.2-64.8-9.2c-24.7,0-45.4,3.9-60.6,8c0-16.5,0.1-33.1,0.1-49.6
		c15,4.4,35.5,8.7,60.1,9.2c27,0.6,49.4-3.7,65.4-7.9C241.4,20.3,241.3,36.8,241.3,53.4z"/>
	<path class="st0" d="M140.6,153.5l-49.1-0.1c5.8-11.5,15.5-34.6,15.4-65.3c0-30.1-9.4-52.9-15.1-64.4c16.4,0,32.8,0.1,49.1,0.1
		c-5.6,12.9-13.6,36-13.5,65.8C127.5,118.4,135.2,140.7,140.6,153.5z"/>
	<path class="st0" d="M123.5,50.7c-9.7-11.8-19.3-23.6-29-35.4c-3.1,10.2-10.6,30.2-28.7,48.6C50.2,79.6,33.8,87.3,24.2,91
		c7.8,12.9,15.5,25.8,23.3,38.7c4.3-11.5,13.5-31,32.1-49.5C95.8,64,112.7,55.3,123.5,50.7z"/>
	<path class="st0" d="M51.7,244.9l-49.1-0.1c5.7-12.8,13.7-35.5,14-64.8c0.3-30.6-8-54.3-13.7-67.3c16.4,0,32.8,0.1,49.1,0.1
		c-5.8,12.7-14.6,36.4-14.5,67.2C37.7,209.6,46,232.3,51.7,244.9z"/>
	<path class="st0" d="M265.6,156.2l-49.1-0.1c5.7-11.1,15.4-33.7,15.4-63.9c0-29.9-9.5-52.4-15.1-63.5c16.4,0,32.8,0.1,49.1,0.1
		c-5.3,13-12.4,35-12.6,62.9C253.2,120.5,260.3,143.1,265.6,156.2z"/>
	<path class="st0" d="M240.7,178.6c-13.1-5.2-35.3-12.1-63.4-12.1c-27.4,0-49,6.7-62,11.8c0-16.5,0.1-33.1,0.1-49.6
		c11.4,5.5,33.4,14.3,62.5,14.5c29.3,0.1,51.6-8.7,63-14.1C240.8,145.5,240.8,162.1,240.7,178.6z"/>
	<path class="st0" d="M135.3,168.8c-12.5-10.5-25.1-21.1-37.6-31.6c-4.2,12.2-13.5,33.8-33.5,54.3c-21.4,22-44.5,31.8-56.9,36.1
		C19.9,238,32.4,248.3,45,258.7c4.5-12.3,14.1-33.5,34-53.8C100.2,183.3,122.8,173.3,135.3,168.8z"/>
	<path class="st0" d="M139,221.7c9,13.7,18.1,27.4,27.1,41.1c7.1-14.5,18.9-34.7,38.3-54.8c21.3-22.1,43.2-35.2,58.3-42.8
		c-14.9-6.6-29.9-13.1-44.8-19.7c-2.1,8.9-8.5,29.9-27.3,48.6C170.6,214.1,148,219.9,139,221.7z"/>
	<path class="st0" d="M153.7,267.1c-13.2-5.4-35.7-12.6-64.4-12.6c-28.2,0-50.4,7-63.5,12.2c0-16.5,0.1-33.1,0.1-49.6
		c12.4,5.5,34.5,13.3,62.9,13.5c29.5,0.3,52.3-7.7,64.9-13.2C153.8,234,153.7,250.6,153.7,267.1z"/>
	
		<ellipse transform="matrix(2.553463e-03 -1 1 2.553463e-03 88.3118 143.1378)" class="st1" cx="115.9" cy="27.3" rx="24.8" ry="24.5"/>
	
		<ellipse transform="matrix(2.553463e-03 -1 1 2.553463e-03 -88.7795 142.9661)" class="st1" cx="27.3" cy="116" rx="24.8" ry="24.5"/>
	
		<ellipse transform="matrix(2.547143e-03 -1 1 2.547143e-03 212.0974 270.0597)" class="st1" cx="241.4" cy="28.7" rx="24.8" ry="24.5"/>
	
		<ellipse transform="matrix(2.553463e-03 -1 1 2.553463e-03 -37.5996 269.0497)" class="st1" cx="116.1" cy="153.4" rx="24.8" ry="24.5"/>
	
		<ellipse transform="matrix(2.547143e-03 -1 1 2.547143e-03 86.8445 394.4037)" class="st1" cx="241.1" cy="153.7" rx="24.8" ry="24.5"/>
	
		<ellipse transform="matrix(2.553463e-03 -1 1 2.553463e-03 -215.0873 268.4012)" class="st1" cx="27" cy="242" rx="24.8" ry="24.5"/>
	
		<ellipse transform="matrix(2.553463e-03 -1 1 2.553463e-03 -90.2483 394.2311)" class="st1" cx="152.5" cy="242.4" rx="24.8" ry="24.5"/>
</g>
<g>
	<path class="st2" d="M348.5,157.8v-17.4h31v13.1c0,18.6-2.9,33.1-8.6,43.4c-5.7,10.3-13.7,15.5-24,15.5c-5,0-9.7-1.4-14-4.3
		c-4.3-2.8-7.9-7.2-10.9-13.1c-3-5.9-5-13.1-6.1-21.6c-1.1-8.5-1.6-20.1-1.6-34.5c0-26.2,2.3-45.3,7-57.4c4.7-12.1,12-18.1,22-18.1
		c5.6,0,10.8,2.6,15.5,7.8v-5.5h17.4v46.8h-17.4c0-20.1-3.9-30.1-11.6-30.1c-2.9,0-5.1,1.3-6.6,4c-1.4,2.6-2.5,7.8-3.1,15.3
		c-0.6,7.6-1,19.1-1,34.6c0,16.9,0.3,29.3,0.9,37c0.6,7.8,1.6,13.1,3.1,15.8c1.5,2.8,3.8,4.2,6.9,4.2c4.5,0,7.5-3,8.8-8.9
		c1.3-6,2-14.8,2-26.6H348.5z"/>
	<path class="st2" d="M391.2,209.9v-17.4h10.4V83.1h-10.4V65.7H433v17.4h-11v109.4h17.6v-45.3H457v62.7H391.2z"/>
	<path class="st2" d="M534.3,138.6c0,49.1-11.1,73.7-33.3,73.7c-11.4,0-19.9-6.1-25.3-18.3c-5.5-12.2-8.2-30.7-8.2-55.4
		c0-16.6,1.3-30.5,3.9-41.7c2.6-11.2,6.4-19.6,11.5-25.2c5-5.6,11.1-8.4,18.1-8.4c10.6,0,18.8,6.3,24.6,18.9
		C531.4,94.8,534.3,113.6,534.3,138.6z M489.8,139.4c0,20.9,0.8,35.1,2.3,42.6c1.6,7.5,4.5,11.3,8.9,11.3c4.2,0,7.1-3.8,8.7-11.3
		c1.6-7.5,2.3-21.7,2.3-42.4c0-22.6-0.7-37.9-2.2-45.6c-1.5-7.8-4.4-11.6-8.8-11.6c-4.7,0-7.7,4.3-9.1,12.8
		C490.5,103.6,489.8,118.4,489.8,139.4z"/>
	<path class="st2" d="M550.9,209.9v-49.6h17.4v13.3c0,7.7,0.8,13.1,2.4,16.3c1.6,3.1,4.4,4.7,8.4,4.7c3.1,0,5.6-1.3,7.4-3.8
		c1.9-2.5,2.8-6,2.8-10.2c0-3.6-0.7-7.6-2-11.9c-1.3-4.3-2.9-7.9-4.7-10.7c-1.8-2.8-6.5-8.9-13.9-18.4c-7.7-9.7-12.8-17.5-15.4-23.4
		c-2.6-5.9-3.8-12.8-3.8-20.7c0-9.4,2.1-17.2,6.4-23.2c4.2-6,9.7-9,16.3-9c5.6,0,10.4,2.2,14.5,6.7v-4.3h17.4v43.1h-17.4V97.8
		c0-6-0.8-10.3-2.3-13c-1.5-2.6-4-4-7.3-4c-5.6,0-8.4,3.5-8.4,10.6c0,4.1,0.8,8.3,2.5,12.6c1.7,4.3,4.6,9,8.7,14.1l9,11.1
		c13.6,16.9,20.4,32.9,20.4,48.3c0,10-2.4,18.3-7.3,24.9c-4.9,6.6-11,9.9-18.3,9.9c-5.9,0-11.1-2.3-15.4-6.9v4.5H550.9z"/>
	<path class="st2" d="M626.3,209.9v-49.6h17.4v13.3c0,7.7,0.8,13.1,2.4,16.3c1.6,3.1,4.4,4.7,8.4,4.7c3.1,0,5.6-1.3,7.4-3.8
		c1.9-2.5,2.8-6,2.8-10.2c0-3.6-0.7-7.6-2-11.9c-1.3-4.3-2.9-7.9-4.7-10.7c-1.8-2.8-6.5-8.9-13.9-18.4c-7.7-9.7-12.8-17.5-15.4-23.4
		c-2.6-5.9-3.8-12.8-3.8-20.7c0-9.4,2.1-17.2,6.4-23.2c4.2-6,9.7-9,16.3-9c5.6,0,10.4,2.2,14.5,6.7v-4.3h17.4v43.1h-17.4V97.8
		c0-6-0.8-10.3-2.3-13c-1.5-2.6-4-4-7.3-4c-5.6,0-8.4,3.5-8.4,10.6c0,4.1,0.8,8.3,2.5,12.6s4.6,9,8.7,14.1l9,11.1
		c13.6,16.9,20.4,32.9,20.4,48.3c0,10-2.4,18.3-7.3,24.9c-4.9,6.6-11,9.9-18.3,9.9c-5.9,0-11.1-2.3-15.4-6.9v4.5H626.3z"/>
	<path class="st2" d="M728.8,159.8l-3.5,32.7h9.2v17.4h-38.6v-17.4h9l15.9-109.4h-10V65.7h53.4v17.4h-10L770,192.5h9v17.4h-38.6
		v-17.4h9.2l-3.5-32.7H728.8z M730.1,142.3h14.6L738.6,78h-2.3L730.1,142.3z"/>
	<path class="st2" d="M818,144.5v48h10.7v17.4h-43.3v-17.4h12.2V83.1h-12.2V65.7h36.1c12.2,0,21.8,3.6,28.9,10.7
		c7.1,7.1,10.6,16.6,10.6,28.4c0,15.2-5.7,26.6-17.2,34l15.6,53.7h8.6v17.4h-24.4l-17.7-66C824,144.3,821.3,144.5,818,144.5z
		 M818,83.1V127c7.7,0,13.3-1.8,16.7-5.3c3.4-3.5,5.1-9.2,5.1-16.9c0-8.2-1.7-13.8-5.1-17C831.2,84.7,825.7,83.1,818,83.1z"/>
	<path class="st2" d="M885.9,209.9v-17.4H896v-46.3l-23.3-63.1h-9.3V65.7h39v17.4h-9.4l13.3,38.7h0.4l12.4-38.7H910V65.7h37v17.4
		h-9.3l-21.3,61.3v48h10.2v17.4H885.9z"/>
</g>
</svg>
