<?xml version="1.0" encoding="utf-8"?>
<!-- Generator: Adobe Illustrator 22.0.1, SVG Export Plug-In . SVG Version: 6.00 Build 0)  -->
<svg version="1.1" id="图层_1" xmlns="http://www.w3.org/2000/svg" xmlns:xlink="http://www.w3.org/1999/xlink" x="0px" y="0px"
	 viewBox="0 0 948.9 393.2" style="enable-background:new 0 0 948.9 393.2;" xml:space="preserve">
<style type="text/css">
	.st0{fill:#485059;}
	.st1{fill:#FBD451;}
	.st2{fill:#53667F;}
	.st3{opacity:0.3;fill:#231F20;enable-background:new    ;}
	.st4{fill:#758599;}
	.st5{fill:#F1F2F2;}
	.st6{fill:#3E4D5F;}
	.st7{fill:#E6E7E8;}
	.st8{fill:#87D37C;}
	.st9{fill:#414042;}
	.st10{fill:#6D6E71;}
	.st11{fill:#FFFFFF;}
	.st12{fill:#BCBEC0;}
	.st13{fill:#A7A9AC;}
	.st14{fill:#E0632F;}
	.st15{fill:#B4EBF7;}
	.st16{fill:#58595B;}
	.st17{fill:#FF7E55;}
	.st18{fill:#FDE597;}
	.st19{fill:#576877;}
	.st20{fill:#798692;}
	.st21{fill:#36C4D0;}
	.st22{fill:#FBDA73;}
	.st23{fill:#FDE9AB;}
	.st24{fill:#BAC2CC;}
	.st25{fill:#86DCE3;}
	.st26{fill:#FF9877;}
	.st27{fill:#FDEEB9;}
	.st28{opacity:0.2;fill:#231F20;enable-background:new    ;}
	.st29{fill:#BF5F40;}
	.st30{fill:#DDE0E5;}
	.st31{fill:#D1D3D4;}
	.st32{fill:#FCDD74;}
	.st33{fill:#E68259;}
	.st34{fill:#6D737A;}
	.st35{fill:#47D2E9;}
	.st36{fill:#595757;stroke:#000000;stroke-width:2;stroke-miterlimit:10;}
	.st37{fill:#595757;}
	.st38{fill:#595757;stroke:#595757;stroke-miterlimit:10;}
</style>
<g>
	<g>
		<g id="XMLID_814_">
			
				<rect id="XMLID_820_" x="137" y="3.9" transform="matrix(0.7071 -0.7071 0.7071 0.7071 -6.0001 120.6628)" class="st0" width="11.3" height="127.4"/>
		</g>
		<g id="XMLID_818_">
			<polygon id="XMLID_819_" class="st0" points="132.5,226.8 192.7,115.3 182.8,109.9 119.6,226.9 			"/>
		</g>
		<g id="XMLID_790_">
			<path id="XMLID_760_" class="st1" d="M27.4,66.3c-9,9-9,23.6,0,32.6s23.6,9,32.6,0s9-23.6,0-32.6C51.1,57.3,36.5,57.3,27.4,66.3z
				"/>
			<path id="XMLID_761_" class="st2" d="M77,12.2c9.9-9.9,25.9-9.9,35.7,0c9.9,9.9,9.9,25.9,0,35.7L77,12.2z"/>
			<path id="XMLID_766_" class="st3" d="M27.4,66.3c9-9,23.6-9,32.6,0s9,23.6,0,32.6c-0.8,0.8-1.7,1.5-2.6,2.2L25.3,68.9
				C26,68,26.6,67.1,27.4,66.3z"/>
			<polygon id="XMLID_759_" class="st2" points="5.3,44.1 81.5,120.3 113.5,70.8 54.1,11.4 			"/>
			<polygon id="XMLID_764_" class="st4" points="61.3,18.6 67.7,25 18.9,57.7 12.5,51.3 			"/>
			<g id="XMLID_789_">
				<g id="XMLID_806_">
					
						<rect id="XMLID_812_" x="13" y="62.9" transform="matrix(0.501 -0.8654 0.8654 0.501 -50.1596 46.384)" class="st5" width="4.2" height="7.6"/>
				</g>
				<g id="XMLID_805_">
					
						<rect id="XMLID_811_" x="6" y="65.8" transform="matrix(0.2585 -0.966 0.966 0.2585 -65.1047 62.4483)" class="st5" width="4.2" height="15.7"/>
				</g>
				<g id="XMLID_804_">
					<rect id="XMLID_810_" x="7.3" y="81" class="st5" width="7.6" height="4.2"/>
				</g>
				<g id="XMLID_803_">
					<polygon id="XMLID_809_" class="st5" points="1.6,96.7 16.6,92.7 15.5,88.6 0.5,92.6 					"/>
				</g>
				<g id="XMLID_802_">
					
						<rect id="XMLID_808_" x="11.9" y="97.3" transform="matrix(0.8665 -0.4991 0.4991 0.8665 -47.5088 21.0783)" class="st5" width="7.6" height="4.2"/>
				</g>
				<g id="XMLID_801_">
					
						<rect id="XMLID_807_" x="11" y="106.5" transform="matrix(0.7067 -0.7075 0.7075 0.7067 -71.4533 44.8744)" class="st5" width="14.7" height="4.2"/>
				</g>
				<g id="XMLID_800_">
					
						<rect id="XMLID_795_" x="24" y="109.1" transform="matrix(0.5007 -0.8656 0.8656 0.5007 -82.3121 79.6057)" class="st5" width="7.6" height="4.2"/>
				</g>
				<g id="XMLID_799_">
					
						<rect id="XMLID_794_" x="26.7" y="116.5" transform="matrix(0.2301 -0.9732 0.9732 0.2301 -88.5615 125.2245)" class="st5" width="16.3" height="4.2"/>
				</g>
				<g id="XMLID_798_">
					
						<rect id="XMLID_793_" x="40.4" y="113.2" transform="matrix(1.390622e-03 -1 1 1.390622e-03 -71.147 159.3811)" class="st5" width="7.6" height="4.2"/>
				</g>
				<g id="XMLID_797_">
					
						<rect id="XMLID_792_" x="52.1" y="110" transform="matrix(0.9486 -0.3164 0.3164 0.9486 -34.4381 23.19)" class="st5" width="4.2" height="15.2"/>
				</g>
				<g id="XMLID_796_">
					
						<rect id="XMLID_791_" x="58.5" y="106.9" transform="matrix(0.8669 -0.4985 0.4985 0.8669 -47.098 44.9172)" class="st5" width="4.2" height="7.6"/>
				</g>
			</g>
			
				<rect id="XMLID_813_" x="80.9" y="-6.6" transform="matrix(0.7071 -0.7071 0.7071 0.7071 0.9816 73.3627)" class="st6" width="16.3" height="84.1"/>
		</g>
		<path id="XMLID_815_" class="st2" d="M173.2,112.6c0,8,6.5,14.5,14.5,14.5s14.5-6.5,14.5-14.5s-6.5-14.5-14.5-14.5
			S173.2,104.6,173.2,112.6z"/>
		<path id="XMLID_816_" class="st5" d="M181.3,112.6c0,3.6,2.9,6.5,6.5,6.5s6.5-2.9,6.5-6.5s-2.9-6.5-6.5-6.5S181.3,109,181.3,112.6
			z"/>
	</g>
	<g id="XMLID_76_">
		<path id="XMLID_80_" class="st7" d="M858.8,389.8H747.5c-3.4,0-6.2-2.8-6.2-6.2V171.1c0-3.4,2.8-6.2,6.2-6.2h111.3
			c3.4,0,6.2,2.8,6.2,6.2v212.6C865,387,862.2,389.8,858.8,389.8z"/>
		<rect id="XMLID_79_" x="749.5" y="186.7" class="st8" width="107.5" height="177.7"/>
		<path id="XMLID_78_" class="st9" d="M828.4,175.4c0,0.8-0.6,1.4-1.4,1.4c-0.8,0-1.4-0.6-1.4-1.4c0-0.8,0.6-1.4,1.4-1.4
			C827.8,174,828.4,174.6,828.4,175.4z"/>
		<path id="XMLID_77_" class="st9" d="M818.3,176.2h-29c-0.5,0-0.9-0.4-0.9-0.9l0,0c0-0.5,0.4-0.9,0.9-0.9h29c0.5,0,0.9,0.4,0.9,0.9
			l0,0C819.1,175.8,818.7,176.2,818.3,176.2z"/>
	</g>
	<g id="XMLID_853_">
		<path id="XMLID_852_" class="st10" d="M498,357.5c0,8.8,0,16.1,0,16.1H114.9c0,0,0-7.2,0-16.1V167.9c0-8.9,6.8-16,15.1-16h352.9
			c8.3,0,15.1,7.2,15.1,16V357.5z"/>
		<rect id="XMLID_851_" x="133.2" y="167.3" class="st0" width="346.5" height="190.8"/>
		<path id="XMLID_845_" class="st11" d="M515.6,375.9c0-1.4-1.1-2.5-2.5-2.5H99.8c-1.4,0-2.5,1.1-2.5,2.5l0.1,5.7h418.1L515.6,375.9
			z"/>
		<path id="XMLID_844_" class="st12" d="M97.4,381.6l4.4,5.7c1.4,1.6,2.3,2.5,4.5,2.5h400.9c1.4,0,2.5-0.8,3.8-2.5l4.4-5.7H97.4z"/>
		<path id="XMLID_840_" class="st13" d="M242.2,373.3v2.9c0,0.8,1.3,1.4,2.8,1.4h110.6c1.6,0,2.8-0.6,2.8-1.4v-2.9H242.2z"/>
		<rect id="XMLID_218_" x="148.9" y="183.9" class="st14" width="6.5" height="6.5"/>
		<rect id="XMLID_232_" x="148.9" y="199.3" class="st14" width="6.5" height="6.5"/>
		<rect id="XMLID_233_" x="148.9" y="214.7" class="st14" width="6.5" height="6.5"/>
		<rect id="XMLID_234_" x="148.9" y="230.1" class="st14" width="6.5" height="6.5"/>
		<rect id="XMLID_235_" x="148.9" y="245.5" class="st14" width="6.5" height="6.5"/>
		<rect id="XMLID_236_" x="148.9" y="260.9" class="st14" width="6.5" height="6.5"/>
		<rect id="XMLID_237_" x="148.9" y="276.3" class="st14" width="6.5" height="6.5"/>
		<rect id="XMLID_243_" x="148.9" y="291.7" class="st14" width="6.5" height="6.5"/>
		<rect id="XMLID_244_" x="148.9" y="307.1" class="st14" width="6.5" height="6.5"/>
		<rect id="XMLID_271_" x="148.9" y="322.5" class="st14" width="6.5" height="6.5"/>
		<rect id="XMLID_277_" x="148.9" y="337.9" class="st14" width="6.5" height="6.5"/>
		<rect id="XMLID_278_" x="169.2" y="185.5" class="st11" width="53.5" height="3.2"/>
		<rect id="XMLID_295_" x="169.2" y="250.4" class="st11" width="53.5" height="3.2"/>
		<rect id="XMLID_296_" x="227.8" y="250.3" class="st15" width="11.1" height="3.2"/>
		<rect id="XMLID_279_" x="180.1" y="194.4" class="st15" width="29.6" height="3.2"/>
		<rect id="XMLID_280_" x="215.7" y="194.5" class="st11" width="36.1" height="3.2"/>
		<rect id="XMLID_297_" x="180.1" y="259.3" class="st1" width="36.1" height="3.2"/>
		<rect id="XMLID_309_" x="169.2" y="319.7" class="st11" width="53.5" height="3.2"/>
		<rect id="XMLID_308_" x="233.4" y="319.6" class="st1" width="25.3" height="3.2"/>
		<rect id="XMLID_307_" x="180.1" y="328.5" class="st15" width="20.1" height="3.2"/>
		<rect id="XMLID_310_" x="209.7" y="328.6" class="st11" width="65.2" height="3.2"/>
		<rect id="XMLID_311_" x="189.6" y="344.4" class="st11" width="153.6" height="3.2"/>
		<rect id="XMLID_38_" x="346.5" y="344.3" class="st1" width="15.4" height="3.2"/>
		<rect id="XMLID_313_" x="365.6" y="344.3" class="st11" width="78.3" height="3.2"/>
		<rect id="XMLID_281_" x="189" y="209.2" class="st11" width="53.2" height="3.2"/>
		<rect id="XMLID_298_" x="189" y="277.9" class="st11" width="53.2" height="3.2"/>
		<rect id="XMLID_302_" x="189.5" y="288.4" class="st11" width="101.2" height="3.2"/>
		<rect id="XMLID_303_" x="294.4" y="288.3" class="st11" width="26.1" height="3.2"/>
		<rect id="XMLID_304_" x="325.7" y="288.4" class="st11" width="74.8" height="3.2"/>
		<rect id="XMLID_305_" x="189.5" y="298.7" class="st15" width="26.6" height="3.2"/>
		<rect id="XMLID_306_" x="222.6" y="298.7" class="st11" width="34.3" height="3.2"/>
		<rect id="XMLID_299_" x="247.4" y="277.9" class="st11" width="31.5" height="3.2"/>
		<rect id="XMLID_300_" x="284.1" y="277.9" class="st11" width="15.1" height="3.2"/>
		<rect id="XMLID_301_" x="306.1" y="277.9" class="st1" width="28.8" height="3.2"/>
		<rect id="XMLID_314_" x="346.6" y="277.9" class="st11" width="99.3" height="3.2"/>
		<rect id="XMLID_290_" x="189.1" y="219.5" class="st11" width="94.4" height="3.2"/>
		<rect id="XMLID_291_" x="290.7" y="219.6" class="st11" width="52.3" height="3.2"/>
		<rect id="XMLID_282_" x="249.2" y="209.3" class="st1" width="9.6" height="3.2"/>
		<rect id="XMLID_283_" x="265.6" y="209.2" class="st11" width="60.8" height="3.2"/>
		<rect id="XMLID_292_" x="189.1" y="228.5" class="st11" width="33.6" height="3.2"/>
		<rect id="XMLID_293_" x="230.4" y="228.5" class="st1" width="40.5" height="3.2"/>
		<rect id="XMLID_294_" x="276.5" y="228.5" class="st11" width="98.9" height="3.2"/>
		<rect id="XMLID_288_" x="333.5" y="209.3" class="st11" width="54.3" height="3.2"/>
		<rect id="XMLID_289_" x="393" y="209.2" class="st15" width="43.1" height="3.2"/>
	</g>
	<path class="st3" d="M851,307.5v-29.1v-6.9V47.9h-59.5c-4.8,0-8.7,4.4-8.7,9.8v3.5V78v252.6h47.8C841.8,330.6,851,320.3,851,307.5z
		"/>
	<g>
		<path class="st3" d="M498,167.9c0-8.9-6.8-16-15.1-16H351.6v126.6v6.1v25.7c0,11.3,9.1,20.4,20.4,20.4h126V167.9z"/>
		<path class="st3" d="M511.1,387.3l4.4-5.7l0.1-5.7c0-1.4-1.1-2.5-2.5-2.5H498c0-1.1,0-7.8,0-15.8v-10.8l-8.9,25.7h-9.3v17.4h27.4
			C508.6,389.8,509.8,389,511.1,387.3z"/>
	</g>
	<g>
		<g id="XMLID_13_">
			<polygon id="XMLID_1519_" class="st5" points="706.2,372.4 498.2,372.4 524.9,294.9 680.4,294.9 			"/>
			<polygon id="XMLID_1516_" class="st12" points="501.9,362.2 698.1,349.4 681.4,299.1 523,299.1 			"/>
			<path id="XMLID_17_" class="st16" d="M843.7,41c0-4.2-3.4-7.6-7.6-7.6H368.3c-4.2,0-7.6,3.4-7.6,7.6v243.6c0,4.2,3.4,7.6,7.6,7.6
				h467.8c4.2,0,7.6-3.4,7.6-7.6L843.7,41L843.7,41z"/>
			<path id="XMLID_16_" class="st11" d="M843.7,278.4v31.8c0,11.3-9.1,20.4-20.4,20.4H381c-11.3,0-20.4-9.1-20.4-20.4v-31.8H843.7z"
				/>
			<rect id="XMLID_15_" x="378.5" y="50.9" class="st5" width="447.3" height="210.2"/>
			<rect id="XMLID_14_" x="488.9" y="372.4" class="st11" width="225.3" height="17.4"/>
		</g>
		<rect x="716.5" y="74.1" class="st17" width="71.6" height="71.6"/>
		<rect x="716.5" y="153" class="st7" width="71.6" height="71.6"/>
		<rect x="488.9" y="154.6" class="st7" width="217.3" height="8.1"/>
		<rect x="488.9" y="176.7" class="st7" width="217.3" height="8.1"/>
		<rect x="488.9" y="198.9" class="st7" width="217.3" height="8.1"/>
		<rect x="488.9" y="221" class="st7" width="111.1" height="8.1"/>
		<rect x="393.9" y="154.6" class="st7" width="68.4" height="8.1"/>
		<rect x="393.9" y="176.7" class="st7" width="68.4" height="8.1"/>
		<rect x="393.9" y="198.9" class="st7" width="68.4" height="8.1"/>
		<rect x="393.9" y="221" class="st7" width="68.4" height="8.1"/>
		<rect x="716.5" y="231.9" class="st15" width="71.6" height="27.4"/>
		<path class="st18" d="M462.3,109.8c0,17.3-14,31.2-31.2,31.2c-17.3,0-31.2-14-31.2-31.2c0-17.3,14-31.2,31.2-31.2
			S462.3,92.6,462.3,109.8z"/>
	</g>
	<path class="st3" d="M714.2,372.4h-8.1l-13.9-41.8h81V299c0.4,0.1,0.7,0.1,1.1,0.1c8.3,0,15,6.7,15,15v16.4H817v-16.4
		c0-8.3,6.7-15,15-15c4.2,0,7.6-3.4,7.6-7.6v-23.1v-1.7v-3.2v-4.4v-3.2v-4.4v-1.4v-1.9V247v-49.3h-2.7h-2.6h-2.7h-0.8H829h-2.7h-2.6
		H821h-2.6h-2.7h-2.6h-2.7h-2.6h-2.7h-2.6h-2.7h-2.6h-2.7h-0.9h-1.7h-0.8h-2h-2.6h-2.7h-2.6H778h-1h-1.6h-1.2v-5.9v-5.3L757.4,172
		v5.3v1.4h-1.6l0,0h-0.1h-1.2H740h-15.8v42.1l-9.7-17.1h-3.9l-0.4,42.2c0.9,0.4,4.1,1.8,4.8,2.5c3.2,3.1,3.2,8.2,0,11.4
		c-3.1,3.1-8.3,3.2-11.4,0c-3.2-3.1-3.2-8.3,0-11.4c0.7-0.7,3.1-2.2,3.9-2.6l1-42.1h-3.8l-25.6,43.8l12.4,38.7l2.5,7.8h-11.4v82.4
		h-0.2v-0.3c0-1.3-1.1-2.4-2.4-2.4c-1.3,0-2.4,1.1-2.4,2.4v0.3h-3.4v-0.3c0-1.3-1.1-2.4-2.4-2.4c-1.3,0-2.4,1.1-2.4,2.4v0.3H666
		v-0.3c0-1.3-1.1-2.4-2.4-2.4c-1.3,0-2.4,1.1-2.4,2.4v0.3h-7.8v7.1v6.4h60.5v-17.5H714.2z"/>
	<path class="st3" d="M842.2,371.5c0-0.9-0.2-1.7-0.6-2.4l23.5-76.5v-24.4l-6.8,22.2l-15.7,0.1v-1.2h-4.4v4.4h4.4v-1.4l15.1-0.1
		l-22.9,74.5c-2,0.8-3.3,2.8-3.3,5c0,1.2,0.4,2.3,1.1,3.2c-0.3,2.6-0.1,5,0.7,8.2l0,0c0,0.1,0,0.1,0.1,0.2c0.2,0.8,0.4,1.7,0.7,2.6
		c0,0.2,0.1,0.3,0.1,0.5c0.3,1.1,0.7,2.3,1.1,3.5l4.2-13.5C841,375.4,842.2,373.6,842.2,371.5z"/>
	<g>
		<g>
			<g>
				<polygon class="st7" points="939,291.5 846.6,292.3 846.6,290.5 938.9,289.7 				"/>
				
					<rect x="843.6" y="289.3" transform="matrix(1 -8.291419e-03 8.291419e-03 1 -2.3876 7.0229)" class="st19" width="4.4" height="4.4"/>
				<polygon class="st19" points="941,292.5 936.6,292.6 936.6,288.2 940.9,288.2 				"/>
				<path class="st11" d="M881.7,231.5l-42.8,139c-2,6.4-1.4,9.9,1.7,19.3l51.5-167.7C888.4,220.9,883.7,225.2,881.7,231.5z"/>
				<path class="st7" d="M887.8,222.8L838.6,383c0.5,1.9,1.1,4.1,2,6.8l51.5-167.7C890.7,221.6,889.2,222,887.8,222.8z"/>
				<path class="st11" d="M892.1,222.1l53.4,166.8c2.8-9.4,3.3-12.5,1.3-18.9l-44.2-138.6C900.5,225.1,895.8,220.9,892.1,222.1z"/>
				<path class="st7" d="M895.8,222.5c-1.3-0.6-2.5-0.8-3.7-0.4l53.4,166.8c0.7-2.3,1.3-4.3,1.7-6L895.8,222.5z"/>
				<path class="st20" d="M896.3,222.8c0,0.6-0.5,1.2-1.2,1.2l-6,0.1c-0.6,0-1.2-0.5-1.2-1.2l-0.2-26.5c0-0.6,0.5-1.2,1.2-1.2l6-0.1
					c0.6,0,1.2,0.5,1.2,1.2L896.3,222.8z"/>
				<path class="st19" d="M900.5,246.5c0,1.7-1.3,7.3-3.1,7.3l-10.2,0.1c-1.7,0-3.2-5.5-3.2-7.2l-0.3-28.1c0-1.7,1.3-6.9,3.1-6.9
					l10.2-0.1c1.7,0,3.2,5.2,3.2,6.9L900.5,246.5z"/>
				<path class="st11" d="M896,221.9c0,2.1-1.7,3.9-3.8,3.9s-3.9-1.7-3.9-3.8c0-2.2,1.7-3.9,3.9-3.9C894.2,218,896,219.7,896,221.9z
					"/>
				<path class="st11" d="M897.3,241.3c0,2.8-2.2,5.1-5,5.1s-5.1-2.2-5.1-5s2.2-5.1,5-5.1C895,236.2,897.3,238.5,897.3,241.3z"/>
				<path class="st19" d="M847.6,371.5c0,3-2.4,5.4-5.3,5.4c-3,0-5.4-2.4-5.4-5.3c0-3,2.4-5.4,5.3-5.4
					C845.2,366.2,847.6,368.6,847.6,371.5z"/>
				<path class="st11" d="M844,371.6c0,1-0.8,1.8-1.8,1.8s-1.8-0.8-1.8-1.8s0.8-1.8,1.7-1.8C843.2,369.8,844,370.6,844,371.6z"/>
				<path class="st19" d="M948.9,370.6c0,3-2.4,5.4-5.3,5.4c-3,0-5.4-2.4-5.4-5.3c0-3,2.3-5.4,5.3-5.4
					C946.5,365.2,948.9,367.6,948.9,370.6z"/>
				<path class="st11" d="M945.3,370.6c0,1-0.8,1.8-1.8,1.8s-1.8-0.8-1.8-1.8s0.8-1.8,1.8-1.8S945.3,369.6,945.3,370.6z"/>
				<polygon class="st19" points="895.8,310.3 890,310.4 889.6,270.6 895.5,270.6 				"/>
			</g>
		</g>
	</g>
	<g id="XMLID_19_">
		<g id="XMLID_483_">
			<path id="XMLID_464_" class="st21" d="M774.1,268.4v23.1c0,4.2,3.4,7.6,7.6,7.6c8.3,0,15,6.7,15,15v62.3
				c0,8.1,6.9,14.5,15.2,13.7c7.2-0.7,12.3-7.3,12.3-14.5v-61.5c0-8.3,6.7-15,15-15c4.2,0,7.6-3.4,7.6-7.6v-23.1H774.1z
				 M805.7,375.5c0-2.6,2.1-4.8,4.8-4.8c2.6,0,4.8,2.1,4.8,4.8c0,2.6-2.1,4.8-4.8,4.8C807.8,380.3,805.7,378.2,805.7,375.5z"/>
			<rect id="XMLID_467_" x="774" y="197.5" class="st22" width="72.8" height="52.5"/>
			<rect id="XMLID_468_" x="844.1" y="197.5" class="st23" width="2.7" height="52.5"/>
			<rect id="XMLID_470_" x="838.8" y="197.5" class="st23" width="2.7" height="52.5"/>
			<rect id="XMLID_471_" x="833.4" y="197.5" class="st23" width="2.7" height="52.5"/>
			<rect id="XMLID_472_" x="828.1" y="197.5" class="st23" width="2.7" height="52.5"/>
			<rect id="XMLID_473_" x="822.7" y="197.5" class="st23" width="2.7" height="52.5"/>
			<rect id="XMLID_474_" x="817.4" y="197.5" class="st23" width="2.7" height="52.5"/>
			<rect id="XMLID_54_" x="812" y="197.5" class="st23" width="2.7" height="52.5"/>
			<rect id="XMLID_53_" x="806.7" y="197.5" class="st23" width="2.7" height="52.5"/>
			<rect id="XMLID_52_" x="801.4" y="197.5" class="st23" width="2.7" height="52.5"/>
			<rect id="XMLID_51_" x="796" y="197.5" class="st23" width="2.7" height="52.5"/>
			<rect id="XMLID_50_" x="790.6" y="197.5" class="st23" width="2.7" height="52.5"/>
			<rect id="XMLID_480_" x="785.3" y="197.5" class="st23" width="2.7" height="52.5"/>
			<rect id="XMLID_481_" x="780" y="197.5" class="st23" width="2.7" height="52.5"/>
			<rect id="XMLID_482_" x="774.6" y="197.5" class="st23" width="2.7" height="52.5"/>
			<rect id="XMLID_457_" x="774" y="246.9" class="st24" width="72.8" height="21.5"/>
			<rect id="XMLID_458_" x="774" y="248.1" class="st4" width="72.8" height="3.2"/>
			<rect id="XMLID_462_" x="774" y="255.9" class="st4" width="72.8" height="3.2"/>
			<rect id="XMLID_466_" x="774" y="263.5" class="st4" width="72.8" height="3.2"/>
			<path id="XMLID_489_" class="st25" d="M810.5,268.4v102.3c-2.6,0-4.8,2.1-4.8,4.8c0,2.6,2.1,4.8,4.8,4.8v9.8
				c-7.6,0-13.8-6.1-13.8-13.7v-62.3c0-8.3-6.7-15-15-15c-4.2,0-7.6-3.4-7.6-7.6v-23.1L810.5,268.4L810.5,268.4z"/>
			<path id="XMLID_469_" class="st17" d="M838,214.1c0,3.8-3.1,6.9-6.9,6.9c-3.8,0-6.9-3.1-6.9-6.9c0,0,0-1.7,0-3.8
				s-2.5-3.8-5.6-3.8s-5.6,3.8-5.6,8.6v11.2c0,3.8-3.1,6.9-6.9,6.9H805c-3.8,0-6.9-3.1-6.9-6.9v-28.7h40L838,214.1L838,214.1z"/>
			<g id="XMLID_485_">
				<path id="XMLID_486_" class="st26" d="M821,203.4c3.1,0,5.6,1.7,5.6,3.8s0,3.8,0,3.8c0,3.8,3.1,6.9,6.9,6.9c1.5,0,2.8-0.6,4-1.4
					c-1,2.6-3.5,4.5-6.4,4.5c-3.8,0-6.9-3.1-6.9-6.9c0,0,0-1.7,0-3.8s-2.5-3.8-5.6-3.8c-0.7,0-1.4,0.2-2,0.6
					C817.5,205,819.1,203.4,821,203.4z"/>
				<path id="XMLID_487_" class="st26" d="M800.4,197.6v25.5c0,3.8,3.1,6.9,6.9,6.9h1.1c1.5,0,2.8-0.6,4-1.4c-1,2.6-3.5,4.5-6.5,4.5
					h-1.1c-3.8,0-6.9-3.1-6.9-6.9v-28.7L800.4,197.6L800.4,197.6z"/>
			</g>
		</g>
		<g id="XMLID_40_">
			<rect id="XMLID_407_" x="731.5" y="178.6" class="st1" width="31.5" height="211.6"/>
			<rect id="XMLID_406_" x="747.2" y="178.6" class="st22" width="20.3" height="211.6"/>
			<rect id="XMLID_405_" x="758.5" y="385.4" class="st9" width="9" height="2.3"/>
			<rect id="XMLID_404_" x="763.1" y="376" class="st9" width="4.5" height="2.3"/>
			<rect id="XMLID_403_" x="763.1" y="366.6" class="st9" width="4.5" height="2.3"/>
			<rect id="XMLID_49_" x="763.1" y="357.2" class="st9" width="4.5" height="2.3"/>
			<rect id="XMLID_401_" x="763.1" y="347.8" class="st9" width="4.5" height="2.3"/>
			<rect id="XMLID_400_" x="758.5" y="338.4" class="st9" width="9" height="2.3"/>
			<rect id="XMLID_399_" x="763.1" y="329" class="st9" width="4.5" height="2.3"/>
			<rect id="XMLID_398_" x="763.1" y="319.6" class="st9" width="4.5" height="2.3"/>
			<rect id="XMLID_397_" x="763.1" y="310.2" class="st9" width="4.5" height="2.3"/>
			<rect id="XMLID_396_" x="763.1" y="300.8" class="st9" width="4.5" height="2.3"/>
			<rect id="XMLID_395_" x="758.5" y="291.4" class="st9" width="9" height="2.3"/>
			<rect id="XMLID_394_" x="763.1" y="282" class="st9" width="4.5" height="2.3"/>
			<rect id="XMLID_393_" x="763.1" y="272.6" class="st9" width="4.5" height="2.3"/>
			<rect id="XMLID_392_" x="763.1" y="263.2" class="st9" width="4.5" height="2.3"/>
			<rect id="XMLID_391_" x="763.1" y="253.8" class="st9" width="4.5" height="2.3"/>
			<rect id="XMLID_48_" x="758.5" y="244.4" class="st9" width="9" height="2.3"/>
			<rect id="XMLID_47_" x="763.1" y="235" class="st9" width="4.5" height="2.3"/>
			<rect id="XMLID_46_" x="763.1" y="225.6" class="st9" width="4.5" height="2.3"/>
			<rect id="XMLID_45_" x="763.1" y="216.2" class="st9" width="4.5" height="2.3"/>
			<rect id="XMLID_44_" x="763.1" y="206.8" class="st9" width="4.5" height="2.3"/>
			<rect id="XMLID_43_" x="758.5" y="197.4" class="st9" width="9" height="2.3"/>
			<rect id="XMLID_42_" x="763.1" y="188" class="st9" width="4.5" height="2.3"/>
			<rect id="XMLID_41_" x="763.1" y="178.6" class="st9" width="4.5" height="2.3"/>
		</g>
		<polygon id="XMLID_437_" class="st3" points="734.4,293.9 749.7,247.6 731.9,216.4 731.9,390.2 746.1,390.2 746.1,293.9 		"/>
		<g id="XMLID_465_">
			<path id="XMLID_449_" class="st27" d="M716.3,303h0.2h12l18.3-55.4l-25-44.1h-3.9l-0.4,42.2c0.9,0.4,4.1,1.8,4.8,2.5
				c3.2,3.1,3.2,8.2,0,11.4c-3.1,3.1-8.3,3.2-11.4,0c-3.2-3.1-3.2-8.3,0-11.4c0.7-0.7,3.1-2.2,3.9-2.6l1-42.1H712l-25.6,43.8
				l17.9,55.5L716.3,303z"/>
			<polygon id="XMLID_39_" class="st28" points="704.2,302.9 716.3,303 716.6,303 728.5,303.1 734.1,286.1 698.8,286.1 			"/>
			<rect id="XMLID_440_" x="689.9" y="293.9" class="st4" width="53.3" height="96.3"/>
			<rect id="XMLID_21_" x="716.6" y="293.9" class="st2" width="26.7" height="96.3"/>
		</g>
		<path id="XMLID_490_" class="st3" d="M783.4,266.7h2.2v-28v-1.9v-16.4h-1.3l0,0v-22.8h-1.6H780h-2.6h-2.7h-0.5v49.3v1.2v1.9v1.3
			v4.4v3.2v4.4v3.2v1.7l0,0v23.1c0,4.2,3.4,7.6,7.6,7.6c0.6,0,1.2,0.1,1.8,0.2v-32.4H783.4z"/>
		<polygon id="XMLID_491_" class="st3" points="767.6,385.4 767.6,378.3 767.6,376 767.6,368.9 767.6,366.6 767.6,359.5 
			767.6,357.2 767.6,350.1 767.6,347.8 767.6,340.7 767.6,338.4 767.6,331.3 767.6,329 767.6,321.9 767.6,319.6 767.6,312.5 
			767.6,310.2 767.6,303.1 767.6,300.8 767.6,293.7 767.6,291.4 767.6,284.3 767.6,282 767.6,274.9 767.6,272.6 767.6,265.5 
			767.6,263.2 767.6,256.1 767.6,253.8 767.6,246.7 767.6,244.4 767.6,237.3 767.6,235 767.6,227.9 767.6,225.6 767.6,218.5 
			767.6,216.2 767.6,209.1 767.6,206.8 767.6,199.7 767.6,197.4 767.6,190.3 767.6,188 767.6,180.9 767.6,178.6 767.6,178.6 
			763.1,178.6 763.1,178.6 763,178.6 761.8,178.6 761.8,220.4 761.8,220.4 758.4,220.4 758.4,236.8 758.4,238.7 758.4,266.7 
			761.8,266.7 761.8,390.2 763,390.2 767.6,390.2 767.6,387.7 		"/>
		<g id="XMLID_484_">
			<rect id="XMLID_450_" x="764.6" y="264.5" class="st26" width="15.9" height="125.7"/>
			<rect id="XMLID_451_" x="772.6" y="264.5" class="st17" width="8" height="125.7"/>
			<rect id="XMLID_452_" x="761.3" y="236.8" class="st29" width="21.4" height="29.9"/>
			<rect id="XMLID_456_" x="761.3" y="236.8" class="st17" width="11.7" height="29.9"/>
			<rect id="XMLID_454_" x="761.3" y="236.8" class="st30" width="21.4" height="1.9"/>
			<rect id="XMLID_453_" x="761.3" y="220.4" class="st17" width="21.4" height="16.4"/>
			<polygon id="XMLID_455_" class="st31" points="781.4,186.5 764.6,171.9 764.6,220.4 781.4,220.4 			"/>
			<polygon id="XMLID_459_" class="st11" points="764.6,177.2 764.6,220.4 781.4,220.4 781.4,191.8 			"/>
			<polygon id="XMLID_460_" class="st7" points="773,220.4 781.4,220.4 781.4,191.8 773,184.5 			"/>
		</g>
		<g id="XMLID_20_">
			<polygon id="XMLID_448_" class="st5" points="852.5,376.3 871.3,383.4 852.5,390.5 848.8,390.5 848.8,376.3 			"/>
			<polygon id="XMLID_447_" class="st0" points="866.5,381.4 871.3,383.4 866.5,385.4 			"/>
			<polygon id="XMLID_446_" class="st1" points="687.2,385.8 687.2,390.5 852.8,390.5 858.6,388.1 852.8,385.8 			"/>
			<polygon id="XMLID_445_" class="st32" points="687.2,381 687.2,385.8 852.8,385.8 858.6,383.4 852.8,381 			"/>
			<polygon id="XMLID_444_" class="st27" points="687.2,376.3 687.2,381 852.8,381 858.6,378.7 852.8,376.3 			"/>
			<rect id="XMLID_443_" x="661" y="376.3" class="st33" width="16.2" height="14.1"/>
			<rect id="XMLID_442_" x="660.9" y="383.4" class="st14" width="16.2" height="7.1"/>
			<path id="XMLID_441_" class="st0" d="M676.8,376c0-1.3,1.1-2.4,2.4-2.4c1.3,0,2.4,1.1,2.4,2.4v0.3h3.4V376c0-1.3,1.1-2.4,2.4-2.4
				c1.3,0,2.4,1.1,2.4,2.4v14.8c0,1.3-1.1,2.4-2.4,2.4c-1.3,0-2.4-1.1-2.4-2.4v-0.3h-3.4v0.3c0,1.3-1.1,2.4-2.4,2.4
				c-1.3,0-2.4-1.1-2.4-2.4v-0.3h-3.4v0.3c0,1.3-1.1,2.4-2.4,2.4c-1.3,0-2.4-1.1-2.4-2.4V376c0-1.3,1.1-2.4,2.4-2.4
				c1.3,0,2.4,1.1,2.4,2.4v0.3h3.4V376z"/>
			<path id="XMLID_439_" class="st0" d="M689.7,390.8c0,1.3-1.1,2.4-2.4,2.4c-1.3,0-2.4-1.1-2.4-2.4v-0.3h-3.4v0.3
				c0,1.3-1.1,2.4-2.4,2.4c-1.3,0-2.4-1.1-2.4-2.4v-0.3h-3.4v0.3c0,1.3-1.1,2.4-2.4,2.4c-1.3,0-2.4-1.1-2.4-2.4v-7.4h20.9v7.4H689.7
				z"/>
			<path id="XMLID_438_" class="st34" d="M676.8,376c0-1.3,1.1-2.4,2.4-2.4c1.3,0,2.4,1.1,2.4,2.4v0.3h3.4V376
				c0-1.3,1.1-2.4,2.4-2.4c1.3,0,2.4,1.1,2.4,2.4v7.4h-20.9V376c0-1.3,1.1-2.4,2.4-2.4c1.3,0,2.4,1.1,2.4,2.4v0.3h3.4V376H676.8z"/>
		</g>
	</g>
	<polygon class="st3" points="360.4,345.3 304,345.3 304,389.8 360.4,389.8 513.5,389.8 513.5,345.3 	"/>
	<g>
		<g>
			<rect x="311.2" y="349.2" class="st11" width="209.5" height="40.7"/>
			<rect x="311.2" y="349.2" class="st35" width="56.4" height="40.7"/>
		</g>
		<path id="XMLID_882_" class="st11" d="M345.1,359.7c-4-4-10.5-4-14.5,0s-4,10.5,0,14.5c3.8,3.8,9.8,3.9,13.9,0.5l7.6,7.6l1.2-1.2
			l-7.6-7.6C349,369.5,348.9,363.5,345.1,359.7z M343.9,373c-3.3,3.3-8.8,3.4-12.1,0c-3.3-3.3-3.3-8.8,0-12.1
			c3.4-3.4,8.8-3.3,12.1,0C347.2,364.2,347.2,369.7,343.9,373z"/>
	</g>
	<g id="XMLID_1214_">
		<g id="XMLID_1263_">
			<path id="XMLID_94_" class="st35" d="M641.6,383.5c-11.5,9.7-28.7,8.1-38.3-3.4s-8.1-28.7,3.4-38.3c11.5-9.7,28.7-8.1,38.3,3.4
				C654.7,356.7,653.2,373.8,641.6,383.5z"/>
			<g id="XMLID_241_">
				<path id="XMLID_92_" class="st11" d="M618.9,345.2l1.2,1.4l-7.2,6.1c-2.9,2.4-4.9,1.7-6.5-0.1c-0.4-0.5-0.8-1.2-1-1.7l1.3-0.7
					c0.1,0.4,0.4,0.9,0.8,1.3c1.1,1.3,2.2,1.5,4.3-0.3L618.9,345.2z"/>
				<path id="XMLID_89_" class="st11" d="M616.1,356.9l-4.3,1.7l-1.2-1.4l13.9-5.4l1.4,1.7l-7.7,12.8l-1.3-1.5l2.4-4L616.1,356.9z
					 M620.2,359.5l2.2-3.7c0.5-0.8,1-1.5,1.5-2.2l0,0c-0.8,0.4-1.6,0.8-2.4,1.1l-4,1.6L620.2,359.5z"/>
				<path id="XMLID_87_" class="st11" d="M620.8,369.4l7.9-12.6l1.3,1.5l-3.9,6.1c-1.1,1.7-2,3.2-3.1,4.5l0,0
					c1.5-0.7,3.2-1.4,5.1-2.1l6.9-2.7l1.3,1.5l-14.1,5.2L620.8,369.4z"/>
				<path id="XMLID_84_" class="st11" d="M630.4,373.9l-4.3,1.7l-1.2-1.4l13.9-5.4l1.4,1.7l-7.7,12.8l-1.3-1.5l2.4-4L630.4,373.9z
					 M634.4,376.6l2.2-3.7c0.5-0.8,1-1.5,1.5-2.2l0,0c-0.8,0.4-1.6,0.8-2.4,1.1l-4,1.6L634.4,376.6z"/>
			</g>
		</g>
		<path id="XMLID_1262_" class="st3" d="M620.7,363.5c0-9-4-17-10.3-22.5c-1.3,0.8-2.6,1.6-3.7,2.6c-6.2,5.2-9.4,12.5-9.7,20
			c0.2,5.8,2.3,11.7,6.3,16.5c2,2.4,4.4,4.4,7,5.9C616.6,380.5,620.7,372.5,620.7,363.5z"/>
		<g id="XMLID_1251_">
			<path id="XMLID_240_" class="st14" d="M615.9,360c0,16.5-13.4,29.8-29.8,29.8c-16.5,0-29.8-13.4-29.8-29.8
				c0-16.5,13.4-29.8,29.8-29.8S615.9,343.5,615.9,360z"/>
			<g id="XMLID_201_">
				<path id="XMLID_83_" class="st11" d="M568.7,354.6v5.1h5.9v-5.1h1.6v12.3h-1.6v-5.8h-5.9v5.8h-1.6v-12.3H568.7z"/>
				<path id="XMLID_206_" class="st11" d="M581.3,356h-3.7v-1.3h9.1v1.3H583v10.9h-1.6L581.3,356L581.3,356z"/>
				<path id="XMLID_204_" class="st11" d="M598.4,361.5c-0.1-1.7-0.2-3.8-0.2-5.3h-0.1c-0.4,1.4-0.9,3-1.5,4.7l-2.2,5.9h-1.2l-2-5.8
					c-0.6-1.7-1.1-3.3-1.4-4.8l0,0c0,1.5-0.1,3.6-0.2,5.4l-0.3,5.3h-1.5l0.9-12.3h2l2.1,5.9c0.5,1.5,0.9,2.9,1.2,4.1h0.1
					c0.3-1.2,0.7-2.6,1.3-4.1l2.2-5.9h2l0.8,12.3h-1.5L598.4,361.5z"/>
				<path id="XMLID_202_" class="st11" d="M602.7,354.6h1.6v10.9h5.2v1.3h-6.8V354.6z"/>
			</g>
		</g>
		<path id="XMLID_1250_" class="st3" d="M574.6,335.9c-10.4,4.3-17.8,14.4-18.3,26.2c0.7,10.1,6.4,18.8,14.7,23.7
			c12.4-9.1,17-26,10.3-40.5C579.6,341.7,577.3,338.6,574.6,335.9z"/>
		<g id="XMLID_1241_">
			<path id="XMLID_200_" class="st1" d="M576.4,342.9c7.7,16.5,0.6,36.1-15.9,43.8c-16.5,7.7-36.1,0.6-43.8-15.9
				c-7.7-16.5-0.6-36.1,15.9-43.8C549.1,319.3,568.7,326.4,576.4,342.9z"/>
			<g id="XMLID_193_">
				<path id="XMLID_198_" class="st11" d="M541.9,368.5c-0.6,0.8-2,1.9-4,2.8c-4.7,2.2-9.6,0.9-12.1-4.6c-2.4-5.2-0.6-10.4,4.6-12.8
					c2.1-1,3.6-1.1,4.3-1.1l0.3,2c-1,0-2.3,0.2-3.7,0.9c-3.9,1.8-5.3,5.5-3.3,9.9c1.9,4.1,5.5,5.6,9.5,3.7c1.3-0.6,2.5-1.5,3.2-2.3
					L541.9,368.5z"/>
				<path id="XMLID_196_" class="st11" d="M545,351.8l2.7,5.8l5.6-2.6l0.7,1.5l-5.6,2.6l2.7,5.8l-1.6,0.7l-2.7-5.8l-5.6,2.6
					l-0.7-1.5l5.6-2.6l-2.7-5.8L545,351.8z"/>
				<path id="XMLID_194_" class="st11" d="M559.7,344.9l2.7,5.8l5.6-2.6l0.7,1.5l-5.6,2.6l2.7,5.8l-1.6,0.7l-2.7-5.8l-5.6,2.6
					l-0.7-1.5l5.6-2.6l-2.7-5.8L559.7,344.9z"/>
			</g>
		</g>
		<path id="XMLID_1240_" class="st3" d="M516.7,370.8c2.1,4.6,5.2,8.4,8.8,11.4c2-2.6,3.7-5.6,4.8-8.8c4.5-12.9,0.5-26.7-9.1-35.2
			c-4.8,5.7-7.4,13-7.6,20.4C513.9,362.7,514.9,366.9,516.7,370.8z"/>
		<g id="XMLID_1215_">
			<path id="XMLID_192_" class="st2" d="M523.9,368.1c-6,17-24.6,25.9-41.5,19.9c-17-6-25.9-24.6-19.9-41.5
				c6-17,24.6-25.9,41.5-19.9C521,332.5,529.9,351.1,523.9,368.1z"/>
			<g id="XMLID_81_">
				<path id="XMLID_189_" class="st11" d="M473.5,339.9c1.3,0.2,2.9,0.6,4.9,1.3c2.5,0.9,4.1,2.1,4.9,3.5c0.7,1.3,0.9,2.9,0.3,4.6
					c-0.6,1.8-1.6,3-3,3.6c-1.8,0.9-4.2,0.9-6.7,0c-0.7-0.3-1.4-0.5-2-0.9l-2.7,7.8l-2.5-0.9L473.5,339.9z M472.7,350.1
					c0.5,0.3,1.2,0.6,2,0.9c3,1.1,5.4,0.2,6.3-2.4s-0.5-4.4-3.2-5.4c-1.1-0.4-2-0.6-2.4-0.6L472.7,350.1z"/>
				<path id="XMLID_187_" class="st11" d="M491.4,345.9l-2.9,8.1l9.4,3.3l2.9-8.1l2.5,0.9l-6.8,19.4l-2.5-0.9l3.2-9.1l-9.4-3.3
					l-3.2,9.1l-2.5-0.9l6.8-19.4L491.4,345.9z"/>
				<path id="XMLID_184_" class="st11" d="M507.6,351.9c1.3,0.2,2.9,0.6,4.9,1.3c2.5,0.9,4.1,2.1,4.9,3.5c0.7,1.3,0.9,2.9,0.3,4.6
					c-0.6,1.8-1.6,3-3,3.6c-1.8,0.9-4.2,0.9-6.7,0c-0.7-0.3-1.4-0.5-2-0.9l-2.7,7.8l-2.5-0.9L507.6,351.9z M506.8,362.1
					c0.5,0.3,1.2,0.6,2,0.9c3,1.1,5.4,0.2,6.3-2.4c0.9-2.6-0.5-4.4-3.2-5.4c-1.1-0.4-2-0.6-2.4-0.6L506.8,362.1z"/>
			</g>
		</g>
	</g>
</g>
<path class="st36" d="M657.5,110.1"/>
<g>
	<g>
		<path class="st37" d="M656.7,102c-0.1,0.4-0.3,1-0.7,1.6c-1.3,2.3-3.6,3.2-4.7,3.6c-2,0.7-3.6,0.7-4.7,0.7c-1.1,0-3.3-0.1-5.7-1.3
			c-0.9-0.5-2.1-1.1-3-2.5c-0.5-0.8-0.8-1.6-0.9-2.1c0.1-0.3,0.4-1.1,1.1-1.5c0.2-0.1,0.4-0.2,0.6-0.3c5.4,0,10.9,0,16.3,0
			c0.2,0,0.4,0.1,0.7,0.3C656.3,100.9,656.6,101.7,656.7,102z"/>
		<path class="st37" d="M655.3,113.7c-5.7,0-11.4,0-17.1,0c-0.3-0.1-0.6-0.3-0.8-0.4c-0.7-0.6-1-1.4-1-1.7c-0.1-0.4-0.1-0.7-0.1-0.8
			c0.1-0.9,0.1-2.9,0-5.7c0.8,0.7,4.5,4.3,10.4,4.3c1.1,0,6.2-0.1,10.4-4.3c0,0,0,3.1-0.1,5.6c0,0.3,0,0.8-0.3,1.3
			c-0.3,0.6-0.7,1-0.8,1.1C655.8,113.5,655.5,113.6,655.3,113.7z"/>
	</g>
	<path class="st37" d="M644.2,99.1c0-0.1,0-0.5,0.3-0.8c0.3-0.4,0.7-0.5,0.9-0.5c1,0,1.9,0,2.9,0c0.1,0,0.5,0.1,0.8,0.5
		c0.3,0.3,0.3,0.7,0.3,0.8c0.7,0,1.4,0,2.1,0c0-0.3-0.1-1.4-1.1-2.4c-0.8-0.8-1.7-1-2-1c-1.1,0-2.1,0-3.2,0c-0.3,0-1.2,0.2-2,1
		c-0.9,0.9-1,2-1,2.3C642.8,99.1,643.5,99.1,644.2,99.1z"/>
</g>
<g>
	<path class="st37" d="M630.2,132.7c-3.5-4.6-8.9-4.6-9.6-4.6c-1.9,0-3.7,0-5.6,0c-1-14.6-1.9-29.1-2.9-43.7
		c-2.6,0.4-5.3,0.8-7.9,1.2c-1.1,14.2-2.2,28.3-3.3,42.5c-2.5,0-5.1,0-7.6,0c-0.8,0.1-4.8,0.7-7.6,4.2c-3.1,4-2.3,8.6-2.2,9.3h48.8
		C632.6,140.9,633.2,136.6,630.2,132.7z"/>
	<path class="st37" d="M650.4,68c-10,1.6-19.9,3.1-29.9,4.7c-1.4-0.1-3.2-0.4-4.4-1.7c-1.7-1.8-0.7-3.7-2.3-5.9
		c-1.3-1.8-3.6-2.9-5.9-2.9c-2.7,0.1-5.2,1.9-6.2,4.1c-1.2,2.7,0.4,4.5-0.9,7.1c-0.9,1.7-2.5,2.7-3.6,3.2c-11,1.9-22,3.8-32.9,5.7
		c-2.2,0.8-3.2,3.2-2.5,5.1c0.5,1.4,2.1,2.4,3.8,2.4c27.8-4.6,55.5-9.3,83.3-13.9c1-0.2,1.9-0.3,2.9-0.5c1.8-0.5,3.1-2.1,3-3.8
		C654.6,69.6,652.7,67.8,650.4,68z M607.8,72.1c-2,0-3.7-1.7-3.7-3.7s1.7-3.7,3.7-3.7s3.7,1.7,3.7,3.7
		C611.6,70.4,609.9,72.1,607.8,72.1z"/>
</g>
<path class="st38" d="M656.1,97.2L647,79.5l0,0c-0.1-0.2-0.2-0.4-0.4-0.5c-0.4-0.2-0.8,0-1,0.4l-8.4,18c-0.2,0.4,0,0.8,0.4,1
	s0.8,0,1-0.4l7.7-16.6l8.4,16.4c0.2,0.4,0.7,0.5,1,0.3C656.1,98,656.3,97.6,656.1,97.2z"/>
<path class="st37" d="M584.4,122.7"/>
<g>
	<path class="st37" d="M581.9,114.5c-0.1,0.4-0.3,1-0.7,1.6c-1.3,2.3-3.6,3.2-4.7,3.6c-2,0.7-3.6,0.7-4.7,0.7
		c-1.1,0-3.3-0.1-5.7-1.3c-0.9-0.5-2.1-1.1-3-2.5c-0.5-0.8-0.8-1.6-0.9-2.1c0.1-0.3,0.4-1.1,1.1-1.5c0.2-0.1,0.4-0.2,0.6-0.3
		c5.4,0,10.9,0,16.3,0c0.2,0,0.4,0.1,0.7,0.3C581.6,113.5,581.8,114.3,581.9,114.5z"/>
	<path class="st37" d="M580.6,126.3c-5.7,0-11.4,0-17.1,0c-0.3-0.1-0.6-0.3-0.8-0.4c-0.7-0.6-1-1.4-1-1.7c-0.1-0.4-0.1-0.7-0.1-0.8
		c0.1-0.9,0.1-2.9,0-5.7c0.8,0.7,4.5,4.3,10.4,4.3c1.1,0,6.2-0.1,10.4-4.3c0,0,0,3.1-0.1,5.6c0,0.3,0,0.8-0.3,1.3
		c-0.3,0.6-0.7,1-0.8,1.1C581.1,126.1,580.8,126.2,580.6,126.3z"/>
	<path class="st37" d="M569.4,111.7c0-0.1,0-0.5,0.3-0.8c0.3-0.4,0.7-0.5,0.9-0.5c1,0,1.9,0,2.9,0c0.1,0,0.5,0.1,0.8,0.5
		c0.3,0.3,0.3,0.7,0.3,0.8c0.7,0,1.4,0,2.1,0c0-0.3-0.1-1.4-1.1-2.4c-0.8-0.8-1.7-1-2-1c-1.1,0-2.1,0-3.2,0c-0.3,0-1.2,0.2-2,1
		c-0.9,0.9-1,2-1,2.3C568.1,111.7,568.8,111.7,569.4,111.7z"/>
</g>
<path class="st38" d="M581.3,109.3l-9.1-17.7l0,0c-0.1-0.2-0.2-0.4-0.4-0.5c-0.4-0.2-0.8,0-1,0.4l-8.4,18c-0.2,0.4,0,0.8,0.4,1
	s0.8,0,1-0.4l7.7-16.6l8.4,16.4c0.2,0.4,0.7,0.5,1,0.3C581.4,110.1,581.5,109.7,581.3,109.3z"/>
</svg>
