<?xml version="1.0" encoding="utf-8"?>
<!-- Generator: Adobe Illustrator 22.0.1, SVG Export Plug-In . SVG Version: 6.00 Build 0)  -->
<svg version="1.1" id="图层_1" xmlns="http://www.w3.org/2000/svg" xmlns:xlink="http://www.w3.org/1999/xlink" x="0px" y="0px"
	 viewBox="0 0 824.8 466.1" style="enable-background:new 0 0 824.8 466.1;" xml:space="preserve">
<style type="text/css">
	.st0{fill:#E6E7E8;}
	.st1{fill:#87D37C;}
	.st2{fill:#414042;}
	.st3{fill:#6D6E71;}
	.st4{fill:#485059;}
	.st5{fill:#FFFFFF;}
	.st6{fill:#BCBEC0;}
	.st7{fill:#A7A9AC;}
	.st8{fill:#E0632F;}
	.st9{fill:#B4EBF7;}
	.st10{fill:#FBD451;}
	.st11{opacity:0.3;fill:#231F20;}
	.st12{fill:#F1F2F2;}
	.st13{fill:#58595B;}
	.st14{fill:#FF7E55;}
	.st15{fill:#FDE597;}
	.st16{fill:#47D2E9;}
	.st17{fill:#53667F;}
	.st18{fill:#D1D3D4;}
	.st19{opacity:0.2;fill:#231F20;}
	.st20{fill:#808080;}
</style>
<g>
	<g id="XMLID_76_">
		<path id="XMLID_80_" class="st0" d="M818.6,466.1H707.3c-3.4,0-6.2-2.8-6.2-6.2V247.4c0-3.4,2.8-6.2,6.2-6.2h111.3
			c3.4,0,6.2,2.8,6.2,6.2v212.6C824.8,463.3,822,466.1,818.6,466.1z"/>
		<rect id="XMLID_79_" x="709.3" y="263" class="st1" width="107.5" height="177.7"/>
		<path id="XMLID_78_" class="st2" d="M788.1,251.6c0,0.8-0.6,1.4-1.4,1.4c-0.8,0-1.4-0.6-1.4-1.4c0-0.8,0.6-1.4,1.4-1.4
			C787.5,250.2,788.1,250.9,788.1,251.6z"/>
		<path id="XMLID_77_" class="st2" d="M778,252.5h-29c-0.5,0-0.9-0.4-0.9-0.9l0,0c0-0.5,0.4-0.9,0.9-0.9h29c0.5,0,0.9,0.4,0.9,0.9
			l0,0C778.9,252.1,778.5,252.5,778,252.5z"/>
	</g>
	<g id="XMLID_853_">
		<path id="XMLID_852_" class="st3" d="M400.7,433.8c0,8.8,0,16.1,0,16.1H17.7c0,0,0-7.2,0-16.1V244.1c0-8.9,6.8-16,15.1-16h352.9
			c8.3,0,15.1,7.2,15.1,16V433.8z"/>
		<rect id="XMLID_851_" x="36" y="243.5" class="st4" width="346.5" height="190.8"/>
		<path id="XMLID_845_" class="st5" d="M418.4,452.1c0-1.4-1.1-2.5-2.5-2.5H2.5c-1.4,0-2.5,1.1-2.5,2.5l0.1,5.7h418.1L418.4,452.1z"
			/>
		<path id="XMLID_844_" class="st6" d="M0.1,457.9l4.4,5.7c1.4,1.6,2.3,2.5,4.5,2.5H410c1.4,0,2.5-0.8,3.8-2.5l4.4-5.7H0.1z"/>
		<path id="XMLID_840_" class="st7" d="M145,449.6v2.9c0,0.8,1.3,1.4,2.8,1.4h110.6c1.6,0,2.8-0.6,2.8-1.4v-2.9H145z"/>
		<rect id="XMLID_218_" x="51.7" y="260.2" class="st8" width="6.5" height="6.5"/>
		<rect id="XMLID_232_" x="51.7" y="275.6" class="st8" width="6.5" height="6.5"/>
		<rect id="XMLID_233_" x="51.7" y="291" class="st8" width="6.5" height="6.5"/>
		<rect id="XMLID_234_" x="51.7" y="306.4" class="st8" width="6.5" height="6.5"/>
		<rect id="XMLID_235_" x="51.7" y="321.8" class="st8" width="6.5" height="6.5"/>
		<rect id="XMLID_236_" x="51.7" y="337.2" class="st8" width="6.5" height="6.5"/>
		<rect id="XMLID_237_" x="51.7" y="352.6" class="st8" width="6.5" height="6.5"/>
		<rect id="XMLID_243_" x="51.7" y="368" class="st8" width="6.5" height="6.5"/>
		<rect id="XMLID_244_" x="51.7" y="383.4" class="st8" width="6.5" height="6.5"/>
		<rect id="XMLID_271_" x="51.7" y="398.8" class="st8" width="6.5" height="6.5"/>
		<rect id="XMLID_277_" x="51.7" y="414.2" class="st8" width="6.5" height="6.5"/>
		<rect id="XMLID_278_" x="71.9" y="261.8" class="st5" width="53.5" height="3.2"/>
		<rect id="XMLID_295_" x="71.9" y="326.6" class="st5" width="53.5" height="3.2"/>
		
			<rect id="XMLID_296_" x="130.6" y="326.6" transform="matrix(-1 -1.224647e-16 1.224647e-16 -1 272.3594 656.5117)" class="st9" width="11.1" height="3.2"/>
		<rect id="XMLID_279_" x="82.9" y="270.7" class="st9" width="29.6" height="3.2"/>
		
			<rect id="XMLID_280_" x="118.5" y="270.7" transform="matrix(-1 -1.224647e-16 1.224647e-16 -1 273.1246 544.6699)" class="st5" width="36.1" height="3.2"/>
		
			<rect id="XMLID_297_" x="82.9" y="335.5" transform="matrix(-1 -1.224647e-16 1.224647e-16 -1 201.8042 674.3398)" class="st10" width="36.1" height="3.2"/>
		<rect id="XMLID_309_" x="71.9" y="395.9" class="st5" width="53.5" height="3.2"/>
		
			<rect id="XMLID_308_" x="136.2" y="395.9" transform="matrix(-1 -1.224647e-16 1.224647e-16 -1 297.7335 795.0976)" class="st10" width="25.3" height="3.2"/>
		
			<rect id="XMLID_307_" x="82.9" y="404.8" transform="matrix(-1 -1.224647e-16 1.224647e-16 -1 185.8604 812.9278)" class="st9" width="20.1" height="3.2"/>
		<rect id="XMLID_310_" x="112.4" y="404.8" class="st5" width="65.2" height="3.2"/>
		<rect id="XMLID_311_" x="92.3" y="420.6" class="st5" width="153.6" height="3.2"/>
		
			<rect id="XMLID_38_" x="249.4" y="420.6" transform="matrix(-1 -1.224647e-16 1.224647e-16 -1 514.0703 844.5352)" class="st10" width="15.4" height="3.2"/>
		
			<rect id="XMLID_313_" x="268.4" y="420.6" transform="matrix(-1 -1.224647e-16 1.224647e-16 -1 615.0537 844.5352)" class="st5" width="78.3" height="3.2"/>
		
			<rect id="XMLID_281_" x="91.8" y="285.5" transform="matrix(-1 -1.224647e-16 1.224647e-16 -1 236.7652 574.2862)" class="st5" width="53.2" height="3.2"/>
		
			<rect id="XMLID_298_" x="91.8" y="354.2" transform="matrix(-1 -1.224647e-16 1.224647e-16 -1 236.7652 711.6211)" class="st5" width="53.2" height="3.2"/>
		
			<rect id="XMLID_302_" x="92.3" y="364.6" transform="matrix(-1 -1.224647e-16 1.224647e-16 -1 285.8321 732.4766)" class="st5" width="101.2" height="3.2"/>
		<rect id="XMLID_303_" x="197.1" y="364.6" class="st5" width="26.1" height="3.2"/>
		
			<rect id="XMLID_304_" x="228.5" y="364.6" transform="matrix(-1 -1.224647e-16 1.224647e-16 -1 531.6968 732.4766)" class="st5" width="74.8" height="3.2"/>
		
			<rect id="XMLID_305_" x="92.3" y="375" transform="matrix(-1 -1.224647e-16 1.224647e-16 -1 211.2691 753.33)" class="st9" width="26.6" height="3.2"/>
		
			<rect id="XMLID_306_" x="125.4" y="375" transform="matrix(-1 -1.224647e-16 1.224647e-16 -1 285.1343 753.33)" class="st5" width="34.3" height="3.2"/>
		<rect id="XMLID_299_" x="150.2" y="354.2" class="st5" width="31.5" height="3.2"/>
		
			<rect id="XMLID_300_" x="186.9" y="354.2" transform="matrix(-1 -1.224647e-16 1.224647e-16 -1 388.7847 711.6211)" class="st5" width="15.1" height="3.2"/>
		<rect id="XMLID_301_" x="208.8" y="354.2" class="st10" width="28.8" height="3.2"/>
		
			<rect id="XMLID_314_" x="249.4" y="354.2" transform="matrix(-1 -1.224647e-16 1.224647e-16 -1 598.0464 711.6211)" class="st5" width="99.3" height="3.2"/>
		
			<rect id="XMLID_290_" x="91.8" y="295.8" transform="matrix(-1 -1.224647e-16 1.224647e-16 -1 277.9849 594.916)" class="st5" width="94.4" height="3.2"/>
		<rect id="XMLID_291_" x="193.5" y="295.8" class="st5" width="52.3" height="3.2"/>
		<rect id="XMLID_282_" x="151.9" y="285.5" class="st10" width="9.6" height="3.2"/>
		
			<rect id="XMLID_283_" x="168.4" y="285.5" transform="matrix(-1 -1.224647e-16 1.224647e-16 -1 397.5264 574.2862)" class="st5" width="60.8" height="3.2"/>
		
			<rect id="XMLID_292_" x="91.8" y="304.8" transform="matrix(-1 -1.224647e-16 1.224647e-16 -1 217.2017 612.748)" class="st5" width="33.6" height="3.2"/>
		<rect id="XMLID_293_" x="133.1" y="304.8" class="st10" width="40.5" height="3.2"/>
		
			<rect id="XMLID_294_" x="179.3" y="304.8" transform="matrix(-1 -1.224647e-16 1.224647e-16 -1 457.4985 612.748)" class="st5" width="98.9" height="3.2"/>
		<rect id="XMLID_288_" x="236.3" y="285.5" class="st5" width="54.3" height="3.2"/>
		
			<rect id="XMLID_289_" x="295.8" y="285.5" transform="matrix(-1 -1.224647e-16 1.224647e-16 -1 634.6451 574.2862)" class="st9" width="43.1" height="3.2"/>
	</g>
	<path class="st11" d="M753.7,386.5v-25.7v-6.1V157.3h-59.5c-4.8,0-8.7,3.9-8.7,8.7v3.1v14.8v223h47.8
		C744.6,406.9,753.7,397.8,753.7,386.5z"/>
	<g>
		<path class="st11" d="M400.7,244.1c0-8.9-6.8-16-15.1-16H254.3v126.6v6.1v25.7c0,11.3,9.1,20.4,20.4,20.4h126V244.1z"/>
		<path class="st11" d="M413.9,463.6l4.4-5.7l0.1-5.7c0-1.4-1.1-2.5-2.5-2.5h-15.1c0-1.1,0-7.8,0-15.8V423l-8.9,25.7h-9.3v17.4H410
			C411.4,466.1,412.5,465.3,413.9,463.6z"/>
	</g>
	<g>
		<g id="XMLID_13_">
			<polygon id="XMLID_1519_" class="st12" points="608.9,448.7 400.9,448.7 427.6,371.2 583.1,371.2 			"/>
			<polygon id="XMLID_1516_" class="st6" points="404.6,438.5 600.8,425.6 584.1,375.4 425.7,375.4 			"/>
			<path id="XMLID_17_" class="st13" d="M746.5,117.2c0-4.2-3.4-7.6-7.6-7.6H271c-4.2,0-7.6,3.4-7.6,7.6v243.6
				c0,4.2,3.4,7.6,7.6,7.6h467.8c4.2,0,7.6-3.4,7.6-7.6V117.2z"/>
			<path id="XMLID_16_" class="st5" d="M746.5,354.7v31.8c0,11.3-9.1,20.4-20.4,20.4H283.8c-11.3,0-20.4-9.1-20.4-20.4v-31.8H746.5z
				"/>
			<rect id="XMLID_15_" x="281.3" y="127.2" class="st12" width="447.3" height="210.2"/>
			<rect id="XMLID_14_" x="391.6" y="448.7" class="st5" width="225.3" height="17.4"/>
		</g>
		<rect x="619.3" y="150.3" class="st14" width="71.6" height="71.6"/>
		<rect x="619.3" y="229.3" class="st0" width="71.6" height="71.6"/>
		<rect x="391.6" y="230.9" class="st0" width="217.3" height="8.1"/>
		<rect x="391.6" y="253" class="st0" width="217.3" height="8.1"/>
		<rect x="391.6" y="275.1" class="st0" width="217.3" height="8.1"/>
		<rect x="391.6" y="297.2" class="st0" width="111.1" height="8.1"/>
		<rect x="296.7" y="230.9" class="st0" width="68.4" height="8.1"/>
		<rect x="296.7" y="253" class="st0" width="68.4" height="8.1"/>
		<rect x="296.7" y="275.1" class="st0" width="68.4" height="8.1"/>
		<rect x="296.7" y="297.2" class="st0" width="68.4" height="8.1"/>
		<rect x="619.3" y="308.2" class="st9" width="71.6" height="27.4"/>
		<path class="st15" d="M365,186.1c0,17.3-14,31.2-31.2,31.2c-17.3,0-31.2-14-31.2-31.2c0-17.3,14-31.2,31.2-31.2
			C351,154.9,365,168.9,365,186.1z"/>
	</g>
	<polygon class="st11" points="203.1,421.5 146.7,421.5 146.7,466.1 203.1,466.1 356.2,466.1 356.2,421.5 	"/>
	<g>
		<g>
			<rect x="148" y="425.4" class="st5" width="209.5" height="40.7"/>
			<rect x="148" y="425.4" class="st16" width="56.4" height="40.7"/>
		</g>
		<path id="XMLID_882_" class="st5" d="M181.9,435.9c-4-4-10.5-4-14.5,0c-4,4-4,10.5,0,14.5c3.8,3.8,9.8,3.9,13.9,0.5l7.6,7.6
			l1.2-1.2l-7.6-7.6C185.8,445.8,185.7,439.8,181.9,435.9z M180.6,449.3c-3.3,3.3-8.8,3.4-12.1,0c-3.3-3.3-3.3-8.8,0-12.1
			c3.4-3.4,8.8-3.3,12.1,0C184,440.5,184,445.9,180.6,449.3z"/>
	</g>
	<g>
		<g id="XMLID_826_">
			
				<rect id="XMLID_817_" x="202.7" y="372.7" transform="matrix(-1 -1.224647e-16 1.224647e-16 -1 564.1085 776.7763)" class="st9" width="158.7" height="31.4"/>
			
				<rect id="XMLID_821_" x="213.9" y="383.3" transform="matrix(-1 -1.224647e-16 1.224647e-16 -1 562.6622 776.7734)" class="st17" width="134.9" height="10.2"/>
		</g>
		<g id="XMLID_824_">
			<path id="XMLID_822_" class="st12" d="M226.8,441.7h117.8c7.6,0,13.8-6.2,13.8-13.8v-7c0-7.6-6.2-13.8-13.8-13.8H226.8V441.7z"/>
			<g id="XMLID_823_">
				<path id="XMLID_825_" class="st8" d="M218.2,444.8h126.3c9.3,0,16.9-7.6,16.9-16.9v-7c0-9.3-7.6-16.9-16.9-16.9H218.2v6.1h126.3
					c5.9,0,10.8,4.8,10.8,10.8v7c0,5.9-4.8,10.8-10.8,10.8H218.2V444.8z"/>
			</g>
		</g>
		<g id="XMLID_839_">
			
				<rect id="XMLID_827_" x="226.8" y="444.8" transform="matrix(-1 -1.224647e-16 1.224647e-16 -1 600.3647 910.8545)" class="st10" width="146.8" height="21.3"/>
			
				<rect id="XMLID_828_" x="350.7" y="451.7" transform="matrix(-1 -1.224647e-16 1.224647e-16 -1 708.7833 910.8535)" class="st17" width="7.4" height="7.4"/>
			
				<rect id="XMLID_829_" x="339.8" y="451.7" transform="matrix(-1 -1.224647e-16 1.224647e-16 -1 687.0436 910.8535)" class="st17" width="7.4" height="7.4"/>
			
				<rect id="XMLID_830_" x="328.9" y="451.7" transform="matrix(-1 -1.224647e-16 1.224647e-16 -1 665.3062 910.8535)" class="st17" width="7.4" height="7.4"/>
			
				<rect id="XMLID_831_" x="318.1" y="451.7" transform="matrix(-1 -1.224647e-16 1.224647e-16 -1 643.5684 910.8535)" class="st17" width="7.4" height="7.4"/>
			
				<rect id="XMLID_832_" x="307.2" y="451.7" transform="matrix(-1 -1.224647e-16 1.224647e-16 -1 621.8286 910.8535)" class="st17" width="7.4" height="7.4"/>
			
				<rect id="XMLID_833_" x="296.3" y="451.7" transform="matrix(-1 -1.224647e-16 1.224647e-16 -1 600.0889 910.8535)" class="st17" width="7.4" height="7.4"/>
			
				<rect id="XMLID_834_" x="285.5" y="451.7" transform="matrix(-1 -1.224647e-16 1.224647e-16 -1 578.3492 910.8535)" class="st17" width="7.4" height="7.4"/>
			
				<rect id="XMLID_835_" x="274.6" y="451.7" transform="matrix(-1 -1.224647e-16 1.224647e-16 -1 556.6109 910.8535)" class="st17" width="7.4" height="7.4"/>
			
				<rect id="XMLID_836_" x="263.7" y="451.7" transform="matrix(-1 -1.224647e-16 1.224647e-16 -1 534.8741 910.8535)" class="st17" width="7.4" height="7.4"/>
			
				<rect id="XMLID_837_" x="252.9" y="451.7" transform="matrix(-1 -1.224647e-16 1.224647e-16 -1 513.1344 910.8535)" class="st17" width="7.4" height="7.4"/>
			
				<rect id="XMLID_838_" x="242" y="451.7" transform="matrix(-1 -1.224647e-16 1.224647e-16 -1 491.3941 910.8535)" class="st17" width="7.4" height="7.4"/>
		</g>
		<path id="XMLID_846_" class="st11" d="M344.5,404.1c9.3,0,16.9,7.6,16.9,16.9v7c0,9.3-7.6,16.9-16.9,16.9h-79.4l-38.4-33.3v-1.3
			h-1.5l-7-6.1H344.5z"/>
		<polygon id="XMLID_843_" class="st11" points="373.6,444.8 373.6,466.1 251.3,466.1 226.8,444.8 226.9,444.8 		"/>
	</g>
	<g id="XMLID_58_">
		
			<rect id="XMLID_75_" x="211.6" y="312.3" transform="matrix(0.3064 -0.9519 0.9519 0.3064 -156.402 429.3467)" class="st12" width="9.6" height="19.4"/>
		
			<rect id="XMLID_74_" x="220.1" y="299.2" transform="matrix(0.7429 -0.6694 0.6694 0.7429 -148.9205 229.9808)" class="st12" width="9.6" height="19.4"/>
		
			<rect id="XMLID_73_" x="234.1" y="292.1" transform="matrix(0.9786 -0.2057 0.2057 0.9786 -56.9635 55.5913)" class="st12" width="9.6" height="19.4"/>
		
			<rect id="XMLID_72_" x="249.7" y="293" transform="matrix(0.9494 0.3141 -0.3141 0.9494 107.9336 -64.625)" class="st12" width="9.6" height="19.4"/>
		
			<rect id="XMLID_71_" x="262.8" y="301.6" transform="matrix(0.6635 0.7482 -0.7482 0.6635 322.9276 -95.4708)" class="st12" width="9.6" height="19.4"/>
		
			<rect id="XMLID_70_" x="269.8" y="315.6" transform="matrix(0.1981 0.9802 -0.9802 0.1981 539.0132 -8.3013)" class="st12" width="9.6" height="19.4"/>
		
			<rect id="XMLID_69_" x="268.8" y="331.2" transform="matrix(-0.3213 0.947 -0.947 -0.3213 684.3002 191.3464)" class="st12" width="9.6" height="19.4"/>
		
			<rect id="XMLID_68_" x="260.1" y="344.2" transform="matrix(-0.7533 0.6576 -0.6576 -0.7533 697.144 446.3223)" class="st12" width="9.6" height="19.4"/>
		
			<rect id="XMLID_67_" x="246" y="351.1" transform="matrix(-0.9817 0.1904 -0.1904 -0.9817 565.7249 667.1907)" class="st12" width="9.6" height="19.4"/>
		
			<rect id="XMLID_66_" x="230.4" y="350" transform="matrix(-0.9445 -0.3284 0.3284 -0.9445 339.2115 776.6101)" class="st12" width="9.6" height="19.4"/>
		
			<rect id="XMLID_65_" x="217.4" y="341.2" transform="matrix(-0.652 -0.7582 0.7582 -0.652 101.1243 748.1136)" class="st12" width="9.6" height="19.4"/>
		
			<rect id="XMLID_268_" x="210.7" y="327" transform="matrix(-0.183 -0.9831 0.9831 -0.183 -76.1457 610.1816)" class="st12" width="9.6" height="19.4"/>
		<path id="XMLID_62_" class="st12" d="M213.9,321.2c-5.6,17.2,3.9,35.7,21.2,41.3c17.2,5.6,35.7-3.9,41.3-21.2
			c5.5-17.2-3.9-35.7-21.2-41.3C237.9,294.4,219.4,303.9,213.9,321.2z M263.7,337.2c-3.3,10.3-14.3,15.9-24.6,12.6
			c-10.3-3.3-15.9-14.3-12.6-24.6c3.3-10.3,14.3-15.9,24.6-12.6C261.3,315.9,267,326.9,263.7,337.2z"/>
		<path id="XMLID_59_" class="st18" d="M222.1,323.8c-4.1,12.7,2.9,26.3,15.6,30.4c12.7,4.1,26.3-2.9,30.4-15.6
			c4.1-12.7-2.9-26.3-15.6-30.4C239.8,304.2,226.2,311.1,222.1,323.8z M263.7,337.2c-3.3,10.3-14.3,15.9-24.6,12.6
			c-10.3-3.3-15.9-14.3-12.6-24.6c3.3-10.3,14.3-15.9,24.6-12.6C261.3,315.9,267,326.9,263.7,337.2z"/>
	</g>
	<g id="XMLID_1276_">
		<g id="XMLID_1313_">
			<path id="XMLID_1764_" class="st4" d="M733.2,427.8c0,20.8-16.8,37.6-37.6,37.6c-20.8,0-37.6-16.8-37.6-37.6
				c0-20.8,16.8-37.6,37.6-37.6C716.4,390.1,733.2,407,733.2,427.8z"/>
			<g id="XMLID_1314_">
				<polygon id="XMLID_1763_" class="st5" points="692.1,439.5 679.9,427.3 684.2,423 692.1,430.9 707,416 711.3,420.3 				"/>
			</g>
		</g>
		<path id="XMLID_1312_" class="st11" d="M658,427.8c0,11.9,5.6,22.5,14.2,29.4c4.1-3.4,7.5-7.7,10-12.8c7.8-16.2,3.3-35.1-9.9-46.1
			C663.6,405.2,658,415.8,658,427.8z"/>
		<g id="XMLID_1303_">
			<path id="XMLID_1311_" class="st16" d="M675.1,444.4c-9.2,19.1-32.2,27.1-51.3,17.8c-19.1-9.2-27.1-32.2-17.8-51.3
				c9.2-19.1,32.2-27.1,51.3-17.9C676.4,402.4,684.4,425.3,675.1,444.4z"/>
			<g id="XMLID_1304_">
				<g>
					<path id="XMLID_25_" class="st5" d="M638.6,422.8l4.1-8.4l6.8,3.3l-4.1,8.4l8.4,4.1l-3,6.3l-8.4-4.1l-4.1,8.5l-6.8-3.3l4.1-8.5
						l-8.3-4l3-6.3L638.6,422.8z"/>
				</g>
			</g>
		</g>
		<path id="XMLID_1302_" class="st11" d="M621.7,394.3c-6.6,3.7-12.2,9.4-15.7,16.7c-8.7,17.9-2.2,39.3,14.5,49.5
			c11.3-6.9,18.9-19.2,18.9-33.4C639.4,413.3,632.4,401.2,621.7,394.3z"/>
		<g id="XMLID_1277_">
			<path id="XMLID_1301_" class="st10" d="M634.1,427c0,21.6-17.5,39.1-39.1,39.1c-21.6,0-39.1-17.5-39.1-39.1
				c0-21.6,17.5-39.1,39.1-39.1C616.6,387.9,634.1,405.4,634.1,427z"/>
			<g id="XMLID_1278_">
				<g>
					<path id="XMLID_123_" class="st5" d="M582.5,435v0.3l-3.6,3.5l-10.4-10.3v-0.7l10.4-10.3l3.6,3.5v0.3l-7.1,6.8L582.5,435z"/>
					<path id="XMLID_121_" class="st5" d="M605.4,407.9l-15,38.2h-5.7l15-38.2H605.4z"/>
					<path id="XMLID_119_" class="st5" d="M614.6,428.2l-7.1-6.8v-0.3l3.6-3.5l10.4,10.3v0.7L611,438.8l-3.6-3.5V435L614.6,428.2z"
						/>
				</g>
			</g>
		</g>
	</g>
	<path class="st11" d="M746.5,117.2c0-4.2-3.4-7.6-7.6-7.6h-30.4v81.3h38V117.2z"/>
	<rect x="746.5" y="157.3" class="st11" width="74.4" height="33.5"/>
	<g>
		<g>
			<g>
				<path class="st2" d="M761.5,79.9c-0.3,0-0.5-0.1-0.7-0.4l-30.1-38.8c-0.3-0.4-0.2-1,0.2-1.3c0.4-0.3,1-0.2,1.3,0.2l30.1,38.8
					c0.3,0.4,0.2,1-0.2,1.3C761.9,79.8,761.7,79.9,761.5,79.9z"/>
			</g>
			<g>
				<path class="st2" d="M765.6,79.9c-0.4,0-0.7-0.2-0.9-0.6l-16.4-40.1c-0.2-0.5,0-1,0.5-1.2c0.5-0.2,1,0,1.2,0.5l16.4,40.2
					c0.2,0.5,0,1-0.5,1.2C765.8,79.8,765.7,79.9,765.6,79.9z"/>
			</g>
			<g>
				<path class="st2" d="M773.8,79.9c-0.1,0-0.2,0-0.3-0.1c-0.5-0.2-0.7-0.7-0.5-1.2l15.8-39.7c0.2-0.5,0.7-0.7,1.2-0.5
					c0.5,0.2,0.7,0.7,0.5,1.2l-15.8,39.7C774.5,79.6,774.2,79.9,773.8,79.9z"/>
			</g>
			<g>
				<path class="st2" d="M778,79.9c-0.2,0-0.4-0.1-0.6-0.2c-0.4-0.3-0.5-0.9-0.2-1.3l29.9-38.5c0.3-0.4,0.9-0.5,1.3-0.2
					c0.4,0.3,0.5,0.9,0.2,1.3l-29.9,38.5C778.5,79.7,778.3,79.9,778,79.9z"/>
			</g>
			<g>
				<path class="st2" d="M769.7,79.9c-0.5,0-0.9-0.4-0.9-0.9V40.8c0-0.5,0.4-0.9,0.9-0.9c0.5,0,0.9,0.4,0.9,0.9v38.1
					C770.6,79.4,770.2,79.9,769.7,79.9z"/>
			</g>
			<path class="st19" d="M769.2,1.2C769.2,1.3,769.2,1.3,769.2,1.2C769.2,1.3,769.2,1.3,769.2,1.2c-0.3,0-0.5,0-0.8,0
				c-0.2,0-0.4,0-0.6,0c-0.4,0-0.8,0-1.2,0c-20.8,1.1-37.3,20.6-37.3,41.6l9.7-4.6l0.1-0.1l9.7,5.1l9.7-5.1l0.2,0.1l9.5,5l9.7-5.1
				l0.5,0.3l9.2,4.9l9.7-5.1l0.4,0.2l9.9,4.5C807.6,21.6,790.5,1.7,769.2,1.2z"/>
			<g>
				<path class="st5" d="M767.9,0c-5.1,3.3-22.8,15.9-27.7,37.1l0.1-0.1l9.7,5.1l9.7-5.1l0.2,0.1c0.7-9.6,2.9-25.9,9.1-37.2
					C768.7,0,768.3,0,767.9,0z"/>
				<path class="st16" d="M770.4,0L770.4,0c5.2,3.2,23.5,15.9,28.4,37.2l9.9,4.5C808.8,20.3,791.7,0.5,770.4,0z"/>
				<path class="st5" d="M770.4,0c6.3,11.3,8.4,27.7,9.2,37.3l9.2,4.9l9.7-5.1l0.4,0.2C794,16,775.6,3.2,770.4,0z"/>
				<path class="st16" d="M770.4,0c-0.3,0-0.5,0-0.8,0c-0.2,0-0.4,0-0.6,0c-6.3,11.2-8.4,27.5-9.1,37.2l9.5,5l9.7-5.1l0.5,0.3
					C778.9,27.7,776.7,11.3,770.4,0L770.4,0z"/>
				<path class="st16" d="M767.9,0c-20.8,1.1-37.3,20.6-37.3,41.6l9.7-4.6C745.1,16,762.8,3.3,767.9,0z"/>
			</g>
		</g>
		<g>
			<rect x="713.9" y="78.4" class="st5" width="107" height="106.9"/>
			<rect x="718.9" y="94.3" class="st4" width="97.3" height="86.7"/>
			<rect x="713.9" y="78.4" class="st16" width="107" height="11.5"/>
			<g>
				<path class="st5" d="M730.3,136.9l13.1-6.8v2l-11.1,5.5v0.1l11.1,5.5v2l-13.1-6.8V136.9z"/>
				<path class="st5" d="M804.5,138.5l-13.1,6.7v-2l11.1-5.5v-0.1l-11.1-5.5v-2l13.1,6.7V138.5z"/>
			</g>
			<g>
				<path class="st5" d="M782.1,143.2l-2.4-2l0.5-3.1l2.9-1.1l0,0c0-1.2-0.2-2.4-0.6-3.6l0,0.1l-3.1-0.2l-1.4-2.8l1.7-2.6h0.1
					c-0.4-0.5-0.8-0.9-1.2-1.4c-0.4-0.4-0.9-0.8-1.4-1.2l0,0l-2.6,1.7l-2.8-1.4l-0.2-3.1l0,0c-1.2-0.3-2.4-0.5-3.6-0.6l0,0l-1.1,2.9
					l-3.1,0.5l-2-2.4l0-0.1c-1.1,0.4-2.1,0.9-3.2,1.6l0.1,0l0.8,3l-2.2,2.2l-3-0.8l0,0c-0.7,1-1.2,2.1-1.7,3.2l0,0l2.4,2l-0.5,3.1
					l-2.9,1.1l0,0c0.1,1.2,0.2,2.4,0.6,3.6l0,0l3.1,0.2l1.4,2.8l-1.7,2.6h0c0.4,0.5,0.8,1,1.3,1.4c0.4,0.4,0.9,0.8,1.3,1.2v0
					l2.6-1.7l2.8,1.4l0.2,3.1l0,0c1.2,0.3,2.4,0.5,3.6,0.6l0-0.1l1.1-2.9l3.1-0.5l2,2.4l0,0c1.1-0.4,2.2-1,3.3-1.7l-0.1,0l-0.8-3
					l2.2-2.2l3,0.8l0,0C781.1,145.4,781.7,144.3,782.1,143.2L782.1,143.2z M760.8,144.3c-3.6-3.6-3.7-9.5,0-13.2
					c3.6-3.6,9.5-3.7,13.2,0c3.7,3.6,3.7,9.5,0,13.2C770.3,147.9,764.4,147.9,760.8,144.3z"/>
				<path class="st20" d="M769.3,127.8c-5.5-1.1-10.7,2.5-11.8,7.9c-1.1,5.5,2.5,10.7,7.9,11.8c5.5,1.1,10.7-2.5,11.8-7.9
					C778.3,134.2,774.7,128.9,769.3,127.8z M766,144.4c-3.7-0.7-6.1-4.3-5.4-8c0.7-3.7,4.3-6.1,8-5.4c3.7,0.7,6.1,4.3,5.4,8
					C773.3,142.7,769.7,145.1,766,144.4z"/>
			</g>
			<path class="st5" d="M723,84.2c0,0.8-0.6,1.4-1.4,1.4c-0.8,0-1.4-0.6-1.4-1.4c0-0.8,0.6-1.4,1.4-1.4
				C722.3,82.7,723,83.4,723,84.2z"/>
			<path class="st5" d="M728.9,84.2c0,0.8-0.6,1.4-1.4,1.4c-0.8,0-1.4-0.6-1.4-1.4c0-0.8,0.6-1.4,1.4-1.4
				C728.3,82.7,728.9,83.4,728.9,84.2z"/>
			<path class="st5" d="M734.9,84.2c0,0.8-0.6,1.4-1.4,1.4c-0.8,0-1.4-0.6-1.4-1.4c0-0.8,0.6-1.4,1.4-1.4
				C734.3,82.7,734.9,83.4,734.9,84.2z"/>
		</g>
	</g>
	<g id="XMLID_1214_">
		<g id="XMLID_1263_">
			<path id="XMLID_94_" class="st16" d="M544.4,459.7c-11.5,9.7-28.7,8.1-38.3-3.4c-9.6-11.5-8.1-28.7,3.4-38.3
				c11.5-9.7,28.7-8.1,38.3,3.4C557.4,432.9,555.9,450.1,544.4,459.7z"/>
			<g id="XMLID_241_">
				<path id="XMLID_92_" class="st5" d="M521.7,421.5l1.2,1.4l-7.2,6.1c-2.9,2.4-4.9,1.7-6.5-0.1c-0.4-0.5-0.8-1.2-1-1.7l1.3-0.7
					c0.1,0.4,0.4,0.9,0.8,1.3c1.1,1.3,2.2,1.5,4.3-0.3L521.7,421.5z"/>
				<path id="XMLID_89_" class="st5" d="M518.9,433.2l-4.3,1.7l-1.2-1.4l13.9-5.4l1.4,1.7l-7.7,12.8l-1.3-1.5l2.4-4L518.9,433.2z
					 M522.9,435.8l2.2-3.7c0.5-0.8,1-1.5,1.5-2.2l0,0c-0.8,0.4-1.6,0.8-2.4,1.1l-4,1.6L522.9,435.8z"/>
				<path id="XMLID_87_" class="st5" d="M523.5,445.6l7.9-12.6l1.3,1.5l-3.9,6.1c-1.1,1.7-2,3.2-3.1,4.5l0,0
					c1.5-0.7,3.2-1.4,5.1-2.1l6.9-2.7l1.3,1.5l-14.1,5.2L523.5,445.6z"/>
				<path id="XMLID_84_" class="st5" d="M533.1,450.2l-4.3,1.7l-1.2-1.4l13.9-5.4l1.4,1.7l-7.7,12.8l-1.3-1.5l2.4-4L533.1,450.2z
					 M537.2,452.8l2.2-3.7c0.5-0.8,1-1.5,1.5-2.2l0,0c-0.8,0.4-1.6,0.8-2.4,1.1l-4,1.6L537.2,452.8z"/>
			</g>
		</g>
		<path id="XMLID_1262_" class="st11" d="M523.4,439.7c0-9-4-17-10.3-22.5c-1.3,0.8-2.6,1.6-3.7,2.6c-6.2,5.2-9.4,12.5-9.7,20
			c0.2,5.8,2.3,11.7,6.3,16.5c2,2.4,4.4,4.4,7,5.9C519.4,456.8,523.4,448.8,523.4,439.7z"/>
		<g id="XMLID_1251_">
			<path id="XMLID_240_" class="st8" d="M518.6,436.3c0,16.5-13.4,29.8-29.8,29.8c-16.5,0-29.8-13.4-29.8-29.8
				c0-16.5,13.4-29.8,29.8-29.8C505.3,406.4,518.6,419.8,518.6,436.3z"/>
			<g id="XMLID_201_">
				<path id="XMLID_83_" class="st5" d="M471.4,430.9v5.1h5.9v-5.1h1.6v12.3h-1.6v-5.8h-5.9v5.8h-1.6v-12.3H471.4z"/>
				<path id="XMLID_206_" class="st5" d="M484,432.3h-3.7v-1.3h9.1v1.3h-3.7v10.9H484V432.3z"/>
				<path id="XMLID_204_" class="st5" d="M501.1,437.8c-0.1-1.7-0.2-3.8-0.2-5.3h-0.1c-0.4,1.4-0.9,3-1.5,4.7l-2.2,5.9h-1.2l-2-5.8
					c-0.6-1.7-1.1-3.3-1.4-4.8h0c0,1.5-0.1,3.6-0.2,5.4l-0.3,5.3h-1.5l0.9-12.3h2l2.1,5.9c0.5,1.5,0.9,2.9,1.2,4.1h0.1
					c0.3-1.2,0.7-2.6,1.3-4.1l2.2-5.9h2l0.8,12.3h-1.5L501.1,437.8z"/>
				<path id="XMLID_202_" class="st5" d="M505.4,430.9h1.6v10.9h5.2v1.3h-6.8V430.9z"/>
			</g>
		</g>
		<path id="XMLID_1250_" class="st11" d="M477.4,412.2c-10.4,4.3-17.8,14.4-18.3,26.2c0.7,10.1,6.4,18.8,14.7,23.7
			c12.4-9.1,17-26,10.3-40.5C482.3,417.9,480,414.8,477.4,412.2z"/>
		<g id="XMLID_1241_">
			<path id="XMLID_200_" class="st10" d="M479.2,419.2c7.7,16.5,0.6,36.1-15.9,43.8c-16.5,7.7-36.1,0.6-43.8-15.9
				c-7.7-16.5-0.6-36.1,15.9-43.8C451.8,395.6,471.4,402.7,479.2,419.2z"/>
			<g id="XMLID_193_">
				<path id="XMLID_198_" class="st5" d="M444.7,444.8c-0.6,0.8-2,1.9-4,2.8c-4.7,2.2-9.6,0.9-12.1-4.6c-2.4-5.2-0.6-10.4,4.6-12.8
					c2.1-1,3.6-1.1,4.3-1.1l0.3,2c-1,0-2.3,0.2-3.7,0.9c-3.9,1.8-5.3,5.5-3.3,9.9c1.9,4.1,5.5,5.6,9.5,3.7c1.3-0.6,2.5-1.5,3.2-2.3
					L444.7,444.8z"/>
				<path id="XMLID_196_" class="st5" d="M447.7,428l2.7,5.8l5.6-2.6l0.7,1.5l-5.6,2.6l2.7,5.8l-1.6,0.7l-2.7-5.8l-5.6,2.6l-0.7-1.5
					l5.6-2.6l-2.7-5.8L447.7,428z"/>
				<path id="XMLID_194_" class="st5" d="M462.4,421.2l2.7,5.8l5.6-2.6l0.7,1.5l-5.6,2.6l2.7,5.8L467,435l-2.7-5.8l-5.6,2.6
					l-0.7-1.5l5.6-2.6l-2.7-5.8L462.4,421.2z"/>
			</g>
		</g>
		<path id="XMLID_1240_" class="st11" d="M419.5,447.1c2.1,4.6,5.2,8.4,8.8,11.4c2-2.6,3.7-5.6,4.8-8.8c4.5-12.9,0.5-26.7-9.1-35.2
			c-4.8,5.7-7.4,13-7.6,20.4C416.6,439,417.6,443.1,419.5,447.1z"/>
		<g id="XMLID_1215_">
			<path id="XMLID_192_" class="st17" d="M426.7,444.3c-6,17-24.6,25.9-41.5,19.9c-17-6-25.9-24.6-19.9-41.5
				c6-17,24.6-25.9,41.5-19.9C423.8,408.8,432.7,427.4,426.7,444.3z"/>
			<g id="XMLID_81_">
				<path id="XMLID_189_" class="st5" d="M376.3,416.1c1.3,0.2,2.9,0.6,4.9,1.3c2.5,0.9,4.1,2.1,4.9,3.5c0.7,1.3,0.9,2.9,0.3,4.6
					c-0.6,1.8-1.6,3-3,3.6c-1.8,0.9-4.2,0.9-6.7,0c-0.7-0.3-1.4-0.5-2-0.9l-2.7,7.8l-2.5-0.9L376.3,416.1z M375.5,426.4
					c0.5,0.3,1.2,0.6,2,0.9c3,1.1,5.4,0.2,6.3-2.4c0.9-2.6-0.5-4.4-3.2-5.4c-1.1-0.4-2-0.6-2.4-0.6L375.5,426.4z"/>
				<path id="XMLID_187_" class="st5" d="M394.1,422.2l-2.9,8.1l9.4,3.3l2.9-8.1l2.5,0.9l-6.8,19.4l-2.5-0.9l3.2-9.1l-9.4-3.3
					l-3.2,9.1l-2.5-0.9l6.8-19.4L394.1,422.2z"/>
				<path id="XMLID_184_" class="st5" d="M410.3,428.1c1.3,0.2,2.9,0.6,4.9,1.3c2.5,0.9,4.1,2.1,4.9,3.5c0.7,1.3,0.9,2.9,0.3,4.6
					c-0.6,1.8-1.6,3-3,3.6c-1.8,0.9-4.2,0.9-6.7,0c-0.7-0.3-1.4-0.5-2-0.9l-2.7,7.8l-2.5-0.9L410.3,428.1z M409.5,438.4
					c0.5,0.3,1.2,0.6,2,0.9c3,1.1,5.4,0.2,6.3-2.4c0.9-2.6-0.5-4.4-3.2-5.4c-1.1-0.4-2-0.6-2.4-0.6L409.5,438.4z"/>
			</g>
		</g>
	</g>
</g>
</svg>
