<?xml version="1.0" encoding="utf-8"?>
<!-- Generator: Adobe Illustrator 22.0.1, SVG Export Plug-In . SVG Version: 6.00 Build 0)  -->
<svg version="1.1" id="图层_1" xmlns="http://www.w3.org/2000/svg" xmlns:xlink="http://www.w3.org/1999/xlink" x="0px" y="0px"
	 viewBox="0 0 955.1 393.2" style="enable-background:new 0 0 955.1 393.2;" xml:space="preserve">
<style type="text/css">
	.st0{fill:#485059;}
	.st1{fill:#FBD451;}
	.st2{fill:#53667F;}
	.st3{opacity:0.3;fill:#231F20;enable-background:new    ;}
	.st4{fill:#758599;}
	.st5{fill:#F1F2F2;}
	.st6{fill:#3E4D5F;}
	.st7{fill:#B4EBF7;}
	.st8{fill:#E0632F;}
	.st9{fill:#E6E7E8;}
	.st10{fill:#87D37C;}
	.st11{fill:#414042;}
	.st12{fill:#6D6E71;}
	.st13{fill:#FFFFFF;}
	.st14{fill:#BCBEC0;}
	.st15{fill:#A7A9AC;}
	.st16{fill:#58595B;}
	.st17{fill:#FF7E55;}
	.st18{fill:#FDE597;}
	.st19{fill:#36C4D0;}
	.st20{fill:#FBDA73;}
	.st21{fill:#FDE9AB;}
	.st22{fill:#BAC2CC;}
	.st23{fill:#86DCE3;}
	.st24{fill:#FF9877;}
	.st25{fill:#FDEEB9;}
	.st26{opacity:0.2;fill:#231F20;enable-background:new    ;}
	.st27{fill:#BF5F40;}
	.st28{fill:#DDE0E5;}
	.st29{fill:#D1D3D4;}
	.st30{fill:#FCDD74;}
	.st31{fill:#E68259;}
	.st32{fill:#6D737A;}
	.st33{fill:#47D2E9;}
</style>
<g>
	<g>
		<g id="XMLID_814_">
			
				<rect id="XMLID_820_" x="172.1" y="3.9" transform="matrix(0.7071 -0.7071 0.7071 0.7071 4.2617 145.4631)" class="st0" width="11.3" height="127.4"/>
		</g>
		<g id="XMLID_818_">
			<polygon id="XMLID_819_" class="st0" points="167.6,226.9 227.8,115.3 217.8,110 154.7,227 			"/>
		</g>
		<g id="XMLID_790_">
			<path id="XMLID_760_" class="st1" d="M62.5,66.3c-9,9-9,23.6,0,32.6s23.6,9,32.6,0s9-23.6,0-32.6S71.5,57.3,62.5,66.3z"/>
			<path id="XMLID_761_" class="st2" d="M112,12.2c9.9-9.9,25.9-9.9,35.7,0c9.9,9.9,9.9,25.9,0,35.7L112,12.2z"/>
			<path id="XMLID_766_" class="st3" d="M62.5,66.3c9-9,23.6-9,32.6,0s9,23.6,0,32.6c-0.8,0.8-1.7,1.5-2.6,2.2L60.4,69
				C61,68,61.7,67.1,62.5,66.3z"/>
			<polygon id="XMLID_759_" class="st2" points="40.4,44.2 116.6,120.3 148.5,70.8 89.1,11.4 			"/>
			<polygon id="XMLID_764_" class="st4" points="96.3,18.6 102.7,25 54,57.8 47.6,51.4 			"/>
			<g id="XMLID_789_">
				<g id="XMLID_806_">
					
						<rect id="XMLID_812_" x="48.2" y="62.9" transform="matrix(0.501 -0.8654 0.8654 0.501 -32.6796 76.8151)" class="st5" width="4.2" height="7.6"/>
				</g>
				<g id="XMLID_805_">
					
						<rect id="XMLID_811_" x="41.1" y="65.8" transform="matrix(0.2585 -0.966 0.966 0.2585 -39.1208 96.2855)" class="st5" width="4.2" height="15.7"/>
				</g>
				<g id="XMLID_804_">
					<rect id="XMLID_810_" x="42.4" y="81.1" class="st5" width="7.6" height="4.2"/>
				</g>
				<g id="XMLID_803_">
					<polygon id="XMLID_809_" class="st5" points="36.7,96.7 51.6,92.7 50.5,88.6 35.6,92.6 					"/>
				</g>
				<g id="XMLID_802_">
					
						<rect id="XMLID_808_" x="46.9" y="97.3" transform="matrix(0.8665 -0.4991 0.4991 0.8665 -42.8288 38.5799)" class="st5" width="7.6" height="4.2"/>
				</g>
				<g id="XMLID_801_">
					
						<rect id="XMLID_807_" x="46.2" y="106.6" transform="matrix(0.7067 -0.7075 0.7075 0.7067 -61.2034 69.7572)" class="st5" width="14.7" height="4.2"/>
				</g>
				<g id="XMLID_800_">
					
						<rect id="XMLID_795_" x="59.1" y="109.1" transform="matrix(0.5007 -0.8656 0.8656 0.5007 -64.8124 109.9458)" class="st5" width="7.6" height="4.2"/>
				</g>
				<g id="XMLID_799_">
					
						<rect id="XMLID_794_" x="61.8" y="116.6" transform="matrix(0.2301 -0.9732 0.9732 0.2301 -61.6276 159.5076)" class="st5" width="16.3" height="4.2"/>
				</g>
				<g id="XMLID_798_">
					
						<rect id="XMLID_793_" x="75.6" y="113.2" transform="matrix(1.390622e-03 -1 1 1.390622e-03 -36.0654 194.5184)" class="st5" width="7.6" height="4.2"/>
				</g>
				<g id="XMLID_797_">
					
						<rect id="XMLID_792_" x="87.1" y="110.1" transform="matrix(0.9486 -0.3164 0.3164 0.9486 -32.6523 34.261)" class="st5" width="4.2" height="15.2"/>
				</g>
				<g id="XMLID_796_">
					
						<rect id="XMLID_791_" x="93.5" y="107" transform="matrix(0.8669 -0.4985 0.4985 0.8669 -42.5019 62.4061)" class="st5" width="4.2" height="7.6"/>
				</g>
			</g>
			
				<rect id="XMLID_813_" x="116" y="-6.6" transform="matrix(0.7071 -0.7071 0.7071 0.7071 11.2658 98.1909)" class="st6" width="16.3" height="84.1"/>
		</g>
		<path id="XMLID_815_" class="st2" d="M208.3,112.6c0,8,6.5,14.5,14.5,14.5s14.5-6.5,14.5-14.5s-6.5-14.5-14.5-14.5
			C214.8,98.2,208.3,104.6,208.3,112.6z"/>
		<path id="XMLID_816_" class="st5" d="M216.3,112.6c0,3.6,2.9,6.5,6.5,6.5c3.6,0,6.5-2.9,6.5-6.5s-2.9-6.5-6.5-6.5
			C219.2,106.2,216.3,109.1,216.3,112.6z"/>
	</g>
	<g>
		<g id="XMLID_826_">
			<rect id="XMLID_817_" y="296.5" class="st7" width="158.7" height="31.4"/>
			<rect id="XMLID_821_" x="11.2" y="306.9" class="st2" width="134.9" height="10.2"/>
		</g>
		<g id="XMLID_824_">
			<path id="XMLID_822_" class="st5" d="M24.1,365.5h117.8c7.6,0,13.8-6.2,13.8-13.8v-7c0-7.6-6.2-13.8-13.8-13.8H24.1V365.5z"/>
			<g id="XMLID_823_">
				<path id="XMLID_825_" class="st8" d="M15.5,368.5h126.3c9.3,0,16.9-7.6,16.9-16.9v-7c0-9.3-7.6-16.9-16.9-16.9H15.5v6.1h126.3
					c5.9,0,10.8,4.8,10.8,10.8v7c0,5.9-4.8,10.8-10.8,10.8H15.5V368.5z"/>
			</g>
		</g>
		<g id="XMLID_839_">
			<rect id="XMLID_827_" x="24.1" y="368.5" class="st1" width="146.8" height="21.3"/>
			<rect id="XMLID_828_" x="148" y="375.4" class="st2" width="7.4" height="7.4"/>
			<rect id="XMLID_829_" x="137.1" y="375.4" class="st2" width="7.4" height="7.4"/>
			<rect id="XMLID_830_" x="126.2" y="375.4" class="st2" width="7.4" height="7.4"/>
			<rect id="XMLID_831_" x="115.4" y="375.4" class="st2" width="7.4" height="7.4"/>
			<rect id="XMLID_832_" x="104.5" y="375.4" class="st2" width="7.4" height="7.4"/>
			<rect id="XMLID_833_" x="93.7" y="375.4" class="st2" width="7.4" height="7.4"/>
			<rect id="XMLID_834_" x="82.7" y="375.4" class="st2" width="7.4" height="7.4"/>
			<rect id="XMLID_835_" x="71.9" y="375.4" class="st2" width="7.4" height="7.4"/>
			<rect id="XMLID_836_" x="61.1" y="375.4" class="st2" width="7.4" height="7.4"/>
			<rect id="XMLID_837_" x="50.1" y="375.4" class="st2" width="7.4" height="7.4"/>
			<rect id="XMLID_838_" x="39.3" y="375.4" class="st2" width="7.4" height="7.4"/>
		</g>
		<path id="XMLID_846_" class="st3" d="M141.8,327.8c9.3,0,16.9,7.6,16.9,16.9v7c0,9.3-7.6,16.9-16.9,16.9H62.4L24,335.3V334h-1.5
			l-7-6.1h126.3V327.8z"/>
		<polygon id="XMLID_843_" class="st3" points="170.9,368.5 170.9,389.9 48.6,389.9 24.1,368.5 24.2,368.5 		"/>
	</g>
	<g id="XMLID_76_">
		<path id="XMLID_80_" class="st9" d="M948.9,389.9H837.6c-3.4,0-6.2-2.8-6.2-6.2V171.1c0-3.4,2.8-6.2,6.2-6.2h111.3
			c3.4,0,6.2,2.8,6.2,6.2v212.6C955.1,387.1,952.3,389.9,948.9,389.9z"/>
		<rect id="XMLID_79_" x="839.6" y="186.8" class="st10" width="107.5" height="177.7"/>
		<path id="XMLID_78_" class="st11" d="M918.4,175.4c0,0.8-0.6,1.4-1.4,1.4s-1.4-0.6-1.4-1.4s0.6-1.4,1.4-1.4
			S918.4,174.6,918.4,175.4z"/>
		<path id="XMLID_77_" class="st11" d="M908.3,176.2h-29c-0.5,0-0.9-0.4-0.9-0.9l0,0c0-0.5,0.4-0.9,0.9-0.9h29
			c0.5,0,0.9,0.4,0.9,0.9l0,0C909.2,175.9,908.8,176.2,908.3,176.2z"/>
	</g>
	<g id="XMLID_853_">
		<path id="XMLID_852_" class="st12" d="M533,357.5c0,8.8,0,16.1,0,16.1H150c0,0,0-7.2,0-16.1V167.9c0-8.9,6.8-16,15.1-16H518
			c8.3,0,15.1,7.2,15.1,16L533,357.5L533,357.5z"/>
		<rect id="XMLID_851_" x="168.3" y="167.3" class="st0" width="346.5" height="190.8"/>
		<path id="XMLID_845_" class="st13" d="M550.7,375.9c0-1.4-1.1-2.5-2.5-2.5H134.9c-1.4,0-2.5,1.1-2.5,2.5l0.1,5.7h418.1
			L550.7,375.9z"/>
		<path id="XMLID_844_" class="st14" d="M132.4,381.6l4.4,5.7c1.4,1.6,2.3,2.5,4.5,2.5h400.9c1.4,0,2.5-0.8,3.8-2.5l4.4-5.7H132.4z"
			/>
		<path id="XMLID_840_" class="st15" d="M277.3,373.3v2.9c0,0.8,1.3,1.4,2.8,1.4h110.6c1.6,0,2.8-0.6,2.8-1.4v-2.9H277.3z"/>
		<rect id="XMLID_218_" x="184" y="183.9" class="st8" width="6.5" height="6.5"/>
		<rect id="XMLID_232_" x="184" y="199.3" class="st8" width="6.5" height="6.5"/>
		<rect id="XMLID_233_" x="184" y="214.7" class="st8" width="6.5" height="6.5"/>
		<rect id="XMLID_234_" x="184" y="230.1" class="st8" width="6.5" height="6.5"/>
		<rect id="XMLID_235_" x="184" y="245.5" class="st8" width="6.5" height="6.5"/>
		<rect id="XMLID_236_" x="184" y="260.9" class="st8" width="6.5" height="6.5"/>
		<rect id="XMLID_237_" x="184" y="276.3" class="st8" width="6.5" height="6.5"/>
		<rect id="XMLID_243_" x="184" y="291.7" class="st8" width="6.5" height="6.5"/>
		<rect id="XMLID_244_" x="184" y="307.1" class="st8" width="6.5" height="6.5"/>
		<rect id="XMLID_271_" x="184" y="322.5" class="st8" width="6.5" height="6.5"/>
		<rect id="XMLID_277_" x="184" y="337.9" class="st8" width="6.5" height="6.5"/>
		<rect id="XMLID_278_" x="204.2" y="185.6" class="st13" width="53.5" height="3.2"/>
		<rect id="XMLID_295_" x="204.2" y="250.4" class="st13" width="53.5" height="3.2"/>
		<rect id="XMLID_296_" x="263" y="250.4" class="st7" width="11.1" height="3.2"/>
		<rect id="XMLID_279_" x="215.2" y="194.5" class="st7" width="29.6" height="3.2"/>
		<rect id="XMLID_280_" x="250.8" y="194.4" class="st13" width="36.1" height="3.2"/>
		<rect id="XMLID_297_" x="215.1" y="259.3" class="st1" width="36.1" height="3.2"/>
		<rect id="XMLID_309_" x="204.2" y="319.7" class="st13" width="53.5" height="3.2"/>
		<rect id="XMLID_308_" x="268.5" y="319.7" class="st1" width="25.3" height="3.2"/>
		<rect id="XMLID_307_" x="215.2" y="328.6" class="st7" width="20.1" height="3.2"/>
		<rect id="XMLID_310_" x="244.8" y="328.6" class="st13" width="65.2" height="3.2"/>
		<rect id="XMLID_311_" x="224.6" y="344.4" class="st13" width="153.6" height="3.2"/>
		<rect id="XMLID_38_" x="381.6" y="344.4" class="st1" width="15.4" height="3.2"/>
		<rect id="XMLID_313_" x="400.6" y="344.4" class="st13" width="78.3" height="3.2"/>
		<rect id="XMLID_281_" x="224.1" y="209.3" class="st13" width="53.2" height="3.2"/>
		<rect id="XMLID_298_" x="224.1" y="278" class="st13" width="53.2" height="3.2"/>
		<rect id="XMLID_302_" x="224.6" y="288.4" class="st13" width="101.2" height="3.2"/>
		<rect id="XMLID_303_" x="329.5" y="288.4" class="st13" width="26.1" height="3.2"/>
		<rect id="XMLID_304_" x="360.7" y="288.4" class="st13" width="74.8" height="3.2"/>
		<rect id="XMLID_305_" x="224.7" y="298.8" class="st7" width="26.6" height="3.2"/>
		<rect id="XMLID_306_" x="257.7" y="298.8" class="st13" width="34.3" height="3.2"/>
		<rect id="XMLID_299_" x="282.5" y="277.9" class="st13" width="31.5" height="3.2"/>
		<rect id="XMLID_300_" x="319.1" y="278" class="st13" width="15.1" height="3.2"/>
		<rect id="XMLID_301_" x="341.2" y="277.9" class="st1" width="28.8" height="3.2"/>
		<rect id="XMLID_314_" x="381.6" y="278" class="st13" width="99.3" height="3.2"/>
		<rect id="XMLID_290_" x="224.1" y="219.6" class="st13" width="94.4" height="3.2"/>
		<rect id="XMLID_291_" x="325.8" y="219.6" class="st13" width="52.3" height="3.2"/>
		<rect id="XMLID_282_" x="284.2" y="209.3" class="st1" width="9.6" height="3.2"/>
		<rect id="XMLID_283_" x="300.6" y="209.3" class="st13" width="60.8" height="3.2"/>
		<rect id="XMLID_292_" x="224.1" y="228.5" class="st13" width="33.6" height="3.2"/>
		<rect id="XMLID_293_" x="265.4" y="228.5" class="st1" width="40.5" height="3.2"/>
		<rect id="XMLID_294_" x="311.6" y="228.5" class="st13" width="98.9" height="3.2"/>
		<rect id="XMLID_288_" x="368.6" y="209.3" class="st13" width="54.3" height="3.2"/>
		<rect id="XMLID_289_" x="428" y="209.3" class="st7" width="43.1" height="3.2"/>
	</g>
	<path class="st3" d="M886,306.3v-30.6v-7.2c0-72.9,0-145.8,0-218.7c0-0.4,0.2-3.4,0-7.6c-0.2-3-0.2-4.5-0.4-5.1
		c-2.3-6-21.3-3.8-41.2-3.8c-9.6,0-14.5,0-14.5,0c-0.5-0.1-1.7-0.2-3.4,0c-0.9,0.1-4,0.5-6.1,3c-1.6,1.9-2.5,4.5-2.5,7.3v3.7V65
		v265.6h47.8C876.9,330.6,886,319.8,886,306.3z"/>
	<g>
		<path class="st3" d="M533,167.9c0-8.9-6.8-16-15.1-16H386.6v126.6v6.1v25.7c0,11.3,9.1,20.4,20.4,20.4h126V167.9z"/>
		<path class="st3" d="M546.2,387.3l4.4-5.7l0.1-5.7c0-1.4-1.1-2.5-2.5-2.5H533c0-1.1,0-7.8,0-15.8v-10.8l-8.9,25.7h-9.3v17.4h27.4
			C543.7,389.9,544.8,389.1,546.2,387.3z"/>
	</g>
	<g>
		<g id="XMLID_13_">
			<polygon id="XMLID_1519_" class="st5" points="741.2,372.5 533.2,372.5 559.9,294.9 715.5,294.9 			"/>
			<polygon id="XMLID_1516_" class="st14" points="536.9,362.2 733.1,349.4 716.4,299.2 558,299.2 			"/>
			<path id="XMLID_17_" class="st16" d="M878.8,41c0-4.2-3.4-7.6-7.6-7.6H403.3c-4.2,0-7.6,3.4-7.6,7.6v243.6c0,4.2,3.4,7.6,7.6,7.6
				h467.8c4.2,0,7.6-3.4,7.6-7.6V41H878.8z"/>
			<path id="XMLID_16_" class="st13" d="M878.8,278.5v31.8c0,11.3-9.1,20.4-20.4,20.4H416.1c-11.3,0-20.4-9.1-20.4-20.4v-31.8H878.8
				z"/>
			<rect id="XMLID_15_" x="413.6" y="50.9" class="st5" width="447.3" height="210.2"/>
			<rect id="XMLID_14_" x="523.9" y="372.5" class="st13" width="225.3" height="17.4"/>
		</g>
		<rect x="751.6" y="74.1" class="st17" width="71.6" height="71.6"/>
		<rect x="751.6" y="153" class="st9" width="71.6" height="71.6"/>
		<rect x="523.9" y="154.6" class="st9" width="217.3" height="8.1"/>
		<rect x="523.9" y="176.8" class="st9" width="217.3" height="8.1"/>
		<rect x="523.9" y="198.9" class="st9" width="217.3" height="8.1"/>
		<rect x="523.9" y="221" class="st9" width="111.1" height="8.1"/>
		<rect x="429" y="154.6" class="st9" width="68.4" height="8.1"/>
		<rect x="429" y="176.8" class="st9" width="68.4" height="8.1"/>
		<rect x="429" y="198.9" class="st9" width="68.4" height="8.1"/>
		<rect x="429" y="221" class="st9" width="68.4" height="8.1"/>
		<rect x="751.6" y="231.9" class="st7" width="71.6" height="27.4"/>
		<path class="st18" d="M497.3,109.9c0,17.3-14,31.2-31.2,31.2c-17.3,0-31.2-14-31.2-31.2c0-17.3,14-31.2,31.2-31.2
			C483.4,78.6,497.3,92.6,497.3,109.9z"/>
	</g>
	<polygon id="XMLID_18_" class="st3" points="733.6,144.5 516.5,104.2 534.2,34.4 751.3,74.7 	"/>
	
		<rect id="XMLID_1531_" x="601.3" y="-25.6" transform="matrix(0.247 -0.969 0.969 0.247 399.2902 679.8358)" class="st19" width="71.6" height="217.3"/>
	<path class="st3" d="M749.3,372.5h-8.1l-13.9-41.8h81v-31.6c0.4,0.1,0.7,0.1,1.1,0.1c8.3,0,15,6.7,15,15v16.4h27.5v-16.4
		c0-8.3,6.7-15,15-15c4.2,0,7.6-3.4,7.6-7.6v-23.1v-1.7v-3.2v-4.4V256v-4.4v-1.3v-1.9v-1.2v-49.3h-2.7h-2.6h-2.7h-0.8h-1.8h-2.7
		h-2.6h-2.7h-2.6h-2.7H848h-2.7h-2.6H840h-2.6h-2.7h-2.6h-2.7h-0.9h-1.7H826h-2h-2.6h-2.7h-2.6h-2.7h-1h-1.6h-1.2V192v-5.3
		l-16.8-14.5v5.3v1.4h-1.6l0,0h-0.1h-1.2h-14.5h-15.8V221l-9.7-17.1H746l-0.4,42.2c0.9,0.4,4.1,1.8,4.8,2.5c3.2,3.1,3.2,8.2,0,11.4
		c-3.1,3.1-8.3,3.2-11.4,0c-3.2-3.1-3.2-8.3,0-11.4c0.7-0.7,3.1-2.2,3.9-2.6l1-42.1h-3.8l-25.6,43.8l12.4,38.7l2.5,7.8H718v82.4
		h-0.2v-0.3c0-1.3-1.1-2.4-2.4-2.4c-1.3,0-2.4,1.1-2.4,2.4v0.3h-3.4v-0.3c0-1.3-1.1-2.4-2.4-2.4c-1.3,0-2.4,1.1-2.4,2.4v0.3h-3.4
		v-0.3c0-1.3-1.1-2.4-2.4-2.4c-1.3,0-2.4,1.1-2.4,2.4v0.3h-7.8v7.1v6.4h60.5L749.3,372.5L749.3,372.5z"/>
	<g id="XMLID_19_">
		<g id="XMLID_483_">
			<path id="XMLID_464_" class="st19" d="M809.1,268.5v23.1c0,4.2,3.4,7.6,7.6,7.6c8.3,0,15,6.7,15,15v62.3
				c0,8.1,6.9,14.5,15.2,13.7c7.2-0.7,12.3-7.3,12.3-14.5v-61.5c0-8.3,6.7-15,15-15c4.2,0,7.6-3.4,7.6-7.6v-23.1H809.1z
				 M840.8,375.6c0-2.6,2.1-4.8,4.8-4.8c2.6,0,4.8,2.1,4.8,4.8c0,2.6-2.1,4.8-4.8,4.8C842.9,380.3,840.8,378.2,840.8,375.6z"/>
			<rect id="XMLID_467_" x="809.1" y="197.6" class="st20" width="72.8" height="52.5"/>
			<rect id="XMLID_468_" x="879.2" y="197.6" class="st21" width="2.7" height="52.5"/>
			<rect id="XMLID_470_" x="873.8" y="197.6" class="st21" width="2.7" height="52.5"/>
			<rect id="XMLID_471_" x="868.5" y="197.6" class="st21" width="2.7" height="52.5"/>
			<rect id="XMLID_472_" x="863.1" y="197.6" class="st21" width="2.7" height="52.5"/>
			<rect id="XMLID_473_" x="857.8" y="197.6" class="st21" width="2.7" height="52.5"/>
			<rect id="XMLID_474_" x="852.4" y="197.6" class="st21" width="2.7" height="52.5"/>
			<rect id="XMLID_54_" x="847.1" y="197.6" class="st21" width="2.7" height="52.5"/>
			<rect id="XMLID_53_" x="841.7" y="197.6" class="st21" width="2.7" height="52.5"/>
			<rect id="XMLID_52_" x="836.4" y="197.6" class="st21" width="2.7" height="52.5"/>
			<rect id="XMLID_51_" x="831" y="197.6" class="st21" width="2.7" height="52.5"/>
			<rect id="XMLID_50_" x="825.7" y="197.6" class="st21" width="2.7" height="52.5"/>
			<rect id="XMLID_480_" x="820.3" y="197.6" class="st21" width="2.7" height="52.5"/>
			<rect id="XMLID_481_" x="815" y="197.6" class="st21" width="2.7" height="52.5"/>
			<rect id="XMLID_482_" x="809.6" y="197.6" class="st21" width="2.7" height="52.5"/>
			<rect id="XMLID_457_" x="809.1" y="246.9" class="st22" width="72.8" height="21.5"/>
			<rect id="XMLID_458_" x="809.1" y="248.2" class="st4" width="72.8" height="3.2"/>
			<rect id="XMLID_462_" x="809.1" y="255.8" class="st4" width="72.8" height="3.2"/>
			<rect id="XMLID_466_" x="809.1" y="263.6" class="st4" width="72.8" height="3.2"/>
			<path id="XMLID_489_" class="st23" d="M845.5,268.5v102.3c-2.6,0-4.8,2.1-4.8,4.8c0,2.6,2.1,4.8,4.8,4.8v9.8
				c-7.6,0-13.8-6.1-13.8-13.7v-62.3c0-8.3-6.7-15-15-15c-4.2,0-7.6-3.4-7.6-7.6v-23.1L845.5,268.5L845.5,268.5z"/>
			<path id="XMLID_469_" class="st17" d="M873.1,214.1c0,3.8-3.1,6.9-6.9,6.9s-6.9-3.1-6.9-6.9c0,0,0-1.7,0-3.8
				c0-2.1-2.5-3.8-5.6-3.8s-5.6,3.8-5.6,8.6v11.2c0,3.8-3.1,6.9-6.9,6.9h-1.1c-3.8,0-6.9-3.1-6.9-6.9v-28.7h40L873.1,214.1
				L873.1,214.1z"/>
			<g id="XMLID_485_">
				<path id="XMLID_486_" class="st24" d="M856.1,203.4c3.1,0,5.6,1.7,5.6,3.8c0,2.1,0,3.8,0,3.8c0,3.8,3.1,6.9,6.9,6.9
					c1.5,0,2.8-0.6,4-1.4c-1,2.6-3.5,4.5-6.4,4.5c-3.8,0-6.9-3.1-6.9-6.9c0,0,0-1.7,0-3.8c0-2.1-2.5-3.8-5.6-3.8
					c-0.7,0-1.4,0.2-2,0.6C852.6,205,854.2,203.4,856.1,203.4z"/>
				<path id="XMLID_487_" class="st24" d="M835.5,197.6v25.5c0,3.8,3.1,6.9,6.9,6.9h1.1c1.5,0,2.8-0.6,4-1.4c-1,2.6-3.5,4.5-6.5,4.5
					h-1.1c-3.8,0-6.9-3.1-6.9-6.9v-28.7h2.5V197.6z"/>
			</g>
		</g>
		<g id="XMLID_40_">
			<rect id="XMLID_407_" x="766.5" y="178.6" class="st1" width="31.5" height="211.6"/>
			<rect id="XMLID_406_" x="782.3" y="178.6" class="st20" width="20.3" height="211.6"/>
			<rect id="XMLID_405_" x="793.6" y="385.4" class="st11" width="9" height="2.3"/>
			<rect id="XMLID_404_" x="798.1" y="376" class="st11" width="4.5" height="2.3"/>
			<rect id="XMLID_403_" x="798.1" y="366.6" class="st11" width="4.5" height="2.3"/>
			<rect id="XMLID_49_" x="798.1" y="357.2" class="st11" width="4.5" height="2.3"/>
			<rect id="XMLID_401_" x="798.1" y="347.8" class="st11" width="4.5" height="2.3"/>
			<rect id="XMLID_400_" x="793.6" y="338.4" class="st11" width="9" height="2.3"/>
			<rect id="XMLID_399_" x="798.1" y="329" class="st11" width="4.5" height="2.3"/>
			<rect id="XMLID_398_" x="798.1" y="319.6" class="st11" width="4.5" height="2.3"/>
			<rect id="XMLID_397_" x="798.1" y="310.2" class="st11" width="4.5" height="2.3"/>
			<rect id="XMLID_396_" x="798.1" y="300.8" class="st11" width="4.5" height="2.3"/>
			<rect id="XMLID_395_" x="793.6" y="291.4" class="st11" width="9" height="2.3"/>
			<rect id="XMLID_394_" x="798.1" y="282" class="st11" width="4.5" height="2.3"/>
			<rect id="XMLID_393_" x="798.1" y="272.6" class="st11" width="4.5" height="2.3"/>
			<rect id="XMLID_392_" x="798.1" y="263.2" class="st11" width="4.5" height="2.3"/>
			<rect id="XMLID_391_" x="798.1" y="253.8" class="st11" width="4.5" height="2.3"/>
			<rect id="XMLID_48_" x="793.6" y="244.4" class="st11" width="9" height="2.3"/>
			<rect id="XMLID_47_" x="798.1" y="235" class="st11" width="4.5" height="2.3"/>
			<rect id="XMLID_46_" x="798.1" y="225.6" class="st11" width="4.5" height="2.3"/>
			<rect id="XMLID_45_" x="798.1" y="216.2" class="st11" width="4.5" height="2.3"/>
			<rect id="XMLID_44_" x="798.1" y="206.8" class="st11" width="4.5" height="2.3"/>
			<rect id="XMLID_43_" x="793.6" y="197.4" class="st11" width="9" height="2.3"/>
			<rect id="XMLID_42_" x="798.1" y="188" class="st11" width="4.5" height="2.3"/>
			<rect id="XMLID_41_" x="798.1" y="178.6" class="st11" width="4.5" height="2.3"/>
		</g>
		<polygon id="XMLID_437_" class="st3" points="769.4,293.9 784.7,247.7 767,216.4 767,390.2 781.2,390.2 781.2,293.9 		"/>
		<g id="XMLID_465_">
			<path id="XMLID_449_" class="st25" d="M751.3,303h0.2h12l18.3-55.4l-25-44.1h-3.9l-0.4,42.2c0.9,0.4,4.1,1.8,4.8,2.5
				c3.2,3.1,3.2,8.2,0,11.4c-3.1,3.1-8.3,3.2-11.4,0c-3.2-3.1-3.2-8.3,0-11.4c0.7-0.7,3.1-2.2,3.9-2.6l1-42.1H747l-25.6,43.8
				l17.9,55.5L751.3,303z"/>
			<polygon id="XMLID_39_" class="st26" points="739.3,302.9 751.4,303 751.6,303 763.5,303.1 769.1,286.1 733.8,286.1 			"/>
			<rect id="XMLID_440_" x="724.9" y="293.9" class="st4" width="53.3" height="96.3"/>
			<rect id="XMLID_21_" x="751.6" y="293.9" class="st2" width="26.7" height="96.3"/>
		</g>
		<path id="XMLID_490_" class="st3" d="M818.5,266.7h2.2v-28v-1.9v-16.4h-1.3l0,0v-22.8h-1.6h-2.7h-2.6h-2.7h-0.5v49.3v1.2v1.9v1.3
			v4.4v3.2v4.4v3.2v1.7l0,0v23.1c0,4.2,3.4,7.6,7.6,7.6c0.6,0,1.2,0.1,1.8,0.2v-32.4H818.5z"/>
		<polygon id="XMLID_491_" class="st3" points="802.6,385.4 802.6,378.4 802.6,376 802.6,369 802.6,366.6 802.6,359.6 802.6,357.2 
			802.6,350.2 802.6,347.8 802.6,340.8 802.6,338.4 802.6,331.4 802.6,329 802.6,322 802.6,319.6 802.6,312.6 802.6,310.2 
			802.6,303.2 802.6,300.8 802.6,293.8 802.6,291.4 802.6,284.4 802.6,282 802.6,275 802.6,272.6 802.6,265.6 802.6,263.2 
			802.6,256.2 802.6,253.8 802.6,246.8 802.6,244.4 802.6,237.4 802.6,235 802.6,228 802.6,225.6 802.6,218.6 802.6,216.2 
			802.6,209.2 802.6,206.8 802.6,199.8 802.6,197.4 802.6,190.4 802.6,188 802.6,181 802.6,178.6 802.6,178.6 798.1,178.6 
			798.1,178.6 798.1,178.6 796.8,178.6 796.8,220.5 796.8,220.5 793.5,220.5 793.5,236.8 793.5,238.8 793.5,266.7 796.8,266.7 
			796.8,390.2 798.1,390.2 802.6,390.2 802.6,387.8 		"/>
		<g id="XMLID_484_">
			<rect id="XMLID_450_" x="799.7" y="264.5" class="st24" width="15.9" height="125.7"/>
			<rect id="XMLID_451_" x="807.7" y="264.5" class="st17" width="8" height="125.7"/>
			<rect id="XMLID_452_" x="796.4" y="236.8" class="st27" width="21.4" height="29.9"/>
			<rect id="XMLID_456_" x="796.4" y="236.8" class="st17" width="11.7" height="29.9"/>
			<rect id="XMLID_454_" x="796.4" y="236.8" class="st28" width="21.4" height="1.9"/>
			<rect id="XMLID_453_" x="796.4" y="220.5" class="st17" width="21.4" height="16.4"/>
			<polygon id="XMLID_455_" class="st29" points="816.5,186.5 799.7,171.9 799.7,220.5 816.5,220.5 			"/>
			<polygon id="XMLID_459_" class="st13" points="799.7,177.3 799.7,220.5 816.5,220.5 816.5,191.8 			"/>
			<polygon id="XMLID_460_" class="st9" points="808.1,220.5 816.5,220.5 816.5,191.8 808.1,184.5 			"/>
		</g>
		<g id="XMLID_20_">
			<polygon id="XMLID_448_" class="st5" points="887.6,376.4 906.3,383.4 887.6,390.5 883.9,390.5 883.9,376.4 			"/>
			<polygon id="XMLID_447_" class="st0" points="901.5,381.5 906.3,383.4 901.5,385.4 			"/>
			<polygon id="XMLID_446_" class="st1" points="722.3,385.8 722.3,390.5 887.8,390.5 893.6,388.1 887.8,385.8 			"/>
			<polygon id="XMLID_445_" class="st30" points="722.3,381.1 722.3,385.8 887.8,385.8 893.6,383.4 887.8,381.1 			"/>
			<polygon id="XMLID_444_" class="st25" points="722.3,376.4 722.3,381.1 887.8,381.1 893.6,378.7 887.8,376.4 			"/>
			<rect id="XMLID_443_" x="696" y="376.3" class="st31" width="16.2" height="14.1"/>
			<rect id="XMLID_442_" x="696.1" y="383.4" class="st8" width="16.2" height="7.1"/>
			<path id="XMLID_441_" class="st0" d="M711.9,376c0-1.3,1.1-2.4,2.4-2.4c1.3,0,2.4,1.1,2.4,2.4v0.3h3.4V376c0-1.3,1.1-2.4,2.4-2.4
				c1.3,0,2.4,1.1,2.4,2.4v14.8c0,1.3-1.1,2.4-2.4,2.4c-1.3,0-2.4-1.1-2.4-2.4v-0.3h-3.4v0.3c0,1.3-1.1,2.4-2.4,2.4
				c-1.3,0-2.4-1.1-2.4-2.4v-0.3h-3.4v0.3c0,1.3-1.1,2.4-2.4,2.4c-1.3,0-2.4-1.1-2.4-2.4V376c0-1.3,1.1-2.4,2.4-2.4
				c1.3,0,2.4,1.1,2.4,2.4v0.3h3.4V376z"/>
			<path id="XMLID_439_" class="st0" d="M724.7,390.8c0,1.3-1.1,2.4-2.4,2.4c-1.3,0-2.4-1.1-2.4-2.4v-0.3h-3.4v0.3
				c0,1.3-1.1,2.4-2.4,2.4c-1.3,0-2.4-1.1-2.4-2.4v-0.3h-3.4v0.3c0,1.3-1.1,2.4-2.4,2.4c-1.3,0-2.4-1.1-2.4-2.4v-7.4h20.9v7.4H724.7
				z"/>
			<path id="XMLID_438_" class="st32" d="M711.9,376c0-1.3,1.1-2.4,2.4-2.4c1.3,0,2.4,1.1,2.4,2.4v0.3h3.4V376
				c0-1.3,1.1-2.4,2.4-2.4c1.3,0,2.4,1.1,2.4,2.4v7.4H704V376c0-1.3,1.1-2.4,2.4-2.4c1.3,0,2.4,1.1,2.4,2.4v0.3h3.4V376H711.9z"/>
		</g>
	</g>
	<polygon class="st3" points="395.4,345.3 339,345.3 339,389.9 395.4,389.9 548.6,389.9 548.6,345.3 	"/>
	<g>
		<g>
			<rect x="346.3" y="349.2" class="st13" width="209.5" height="40.7"/>
			<rect x="346.3" y="349.2" class="st33" width="56.4" height="40.7"/>
		</g>
		<path id="XMLID_882_" class="st13" d="M380.2,359.7c-4-4-10.5-4-14.5,0s-4,10.5,0,14.5c3.8,3.8,9.8,3.9,13.9,0.5l7.6,7.6l1.2-1.2
			l-7.6-7.6C384.1,369.5,384,363.5,380.2,359.7z M379,373c-3.3,3.3-8.8,3.4-12.1,0c-3.3-3.3-3.3-8.8,0-12.1c3.4-3.4,8.8-3.3,12.1,0
			C382.3,364.3,382.3,369.7,379,373z"/>
	</g>
</g>
</svg>
