<?xml version="1.0" encoding="utf-8"?>
<!-- Generator: Adobe Illustrator 22.0.1, SVG Export Plug-In . SVG Version: 6.00 Build 0)  -->
<svg version="1.1" id="图层_1" xmlns="http://www.w3.org/2000/svg" xmlns:xlink="http://www.w3.org/1999/xlink" x="0px" y="0px"
	 viewBox="0 0 658 389.7" style="enable-background:new 0 0 658 389.7;" xml:space="preserve">
<style type="text/css">
	.st0{fill:#485059;}
	.st1{fill:#FBD451;}
	.st2{fill:#53667F;}
	.st3{opacity:0.3;fill:#231F20;}
	.st4{fill:#758599;}
	.st5{fill:#F1F2F2;}
	.st6{fill:#3E4D5F;}
	.st7{fill:#BCBEC0;}
	.st8{fill:#58595B;}
	.st9{fill:#FFFFFF;}
	.st10{fill:#FF7E55;}
	.st11{fill:#E6E7E8;}
	.st12{fill:#B4EBF7;}
	.st13{fill:#FDE597;}
	.st14{fill:#E0632F;}
</style>
<g>
	<g>
		<g id="XMLID_814_">
			
				<rect id="XMLID_820_" x="137" y="102.8" transform="matrix(0.7071 -0.7071 0.7071 0.7071 -75.9249 149.6593)" class="st0" width="11.3" height="127.4"/>
		</g>
		<g id="XMLID_818_">
			<polygon id="XMLID_819_" class="st0" points="207.5,325.7 192.7,214.2 182.8,208.8 194.6,325.8 			"/>
		</g>
		<g id="XMLID_790_">
			<path id="XMLID_760_" class="st1" d="M27.4,165.2c-9,9-9,23.6,0,32.6c9,9,23.6,9,32.6,0c9-9,9-23.6,0-32.6
				C51.1,156.2,36.5,156.2,27.4,165.2z"/>
			<path id="XMLID_761_" class="st2" d="M77,111.1c9.9-9.9,25.9-9.9,35.7,0c9.9,9.9,9.9,25.9,0,35.7L77,111.1z"/>
			<path id="XMLID_766_" class="st3" d="M27.4,165.2c9-9,23.6-9,32.6,0c9,9,9,23.6,0,32.6c-0.8,0.8-1.7,1.5-2.6,2.2l-32.1-32.1
				C26,166.9,26.6,166,27.4,165.2z"/>
			<polygon id="XMLID_759_" class="st2" points="5.3,143 81.5,219.2 113.5,169.7 54.1,110.3 			"/>
			<polygon id="XMLID_764_" class="st4" points="61.3,117.5 67.7,123.9 18.9,156.6 12.5,150.2 			"/>
			<g id="XMLID_789_">
				<g id="XMLID_806_">
					
						<rect id="XMLID_812_" x="13.1" y="161.8" transform="matrix(0.501 -0.8654 0.8654 0.501 -135.7594 95.8254)" class="st5" width="4.2" height="7.6"/>
				</g>
				<g id="XMLID_805_">
					
						<rect id="XMLID_811_" x="6" y="164.7" transform="matrix(0.2585 -0.966 0.966 0.2585 -160.6264 135.7978)" class="st5" width="4.2" height="15.7"/>
				</g>
				<g id="XMLID_804_">
					<rect id="XMLID_810_" x="7.3" y="179.9" class="st5" width="7.6" height="4.2"/>
				</g>
				<g id="XMLID_803_">
					<polygon id="XMLID_809_" class="st5" points="1.6,195.6 16.6,191.6 15.5,187.5 0.5,191.5 					"/>
				</g>
				<g id="XMLID_802_">
					
						<rect id="XMLID_808_" x="11.9" y="196.2" transform="matrix(0.8665 -0.4991 0.4991 0.8665 -96.893 34.3254)" class="st5" width="7.6" height="4.2"/>
				</g>
				<g id="XMLID_801_">
					
						<rect id="XMLID_807_" x="11.1" y="205.4" transform="matrix(0.7067 -0.7075 0.7075 0.7067 -141.4236 73.9817)" class="st5" width="14.7" height="4.2"/>
				</g>
				<g id="XMLID_800_">
					
						<rect id="XMLID_795_" x="24.1" y="208" transform="matrix(0.5007 -0.8656 0.8656 0.5007 -167.9587 129.0546)" class="st5" width="7.6" height="4.2"/>
				</g>
				<g id="XMLID_799_">
					
						<rect id="XMLID_794_" x="26.8" y="215.4" transform="matrix(0.2301 -0.9732 0.9732 0.2301 -184.8239 201.5014)" class="st5" width="16.3" height="4.2"/>
				</g>
				<g id="XMLID_798_">
					
						<rect id="XMLID_793_" x="40.5" y="212.1" transform="matrix(1.390623e-03 -1 1 1.390623e-03 -170.0086 258.2636)" class="st5" width="7.6" height="4.2"/>
				</g>
				<g id="XMLID_797_">
					
						<rect id="XMLID_792_" x="52.1" y="209" transform="matrix(0.9486 -0.3164 0.3164 0.9486 -65.7313 28.2674)" class="st5" width="4.2" height="15.2"/>
				</g>
				<g id="XMLID_796_">
					
						<rect id="XMLID_791_" x="58.5" y="205.8" transform="matrix(0.8669 -0.4985 0.4985 0.8669 -96.4336 58.1059)" class="st5" width="4.2" height="7.6"/>
				</g>
			</g>
			
				<rect id="XMLID_813_" x="81" y="92.5" transform="matrix(-0.7071 0.7071 -0.7071 -0.7071 247.2544 166.5443)" class="st6" width="16.3" height="84.1"/>
		</g>
		<path id="XMLID_815_" class="st2" d="M173.2,211.5c0,8,6.5,14.5,14.5,14.5c8,0,14.5-6.5,14.5-14.5c0-8-6.5-14.5-14.5-14.5
			C179.7,197,173.2,203.5,173.2,211.5z"/>
		<path id="XMLID_816_" class="st5" d="M181.3,211.5c0,3.6,2.9,6.5,6.5,6.5c3.6,0,6.5-2.9,6.5-6.5c0-3.6-2.9-6.5-6.5-6.5
			C184.2,205,181.3,207.9,181.3,211.5z"/>
	</g>
	<path class="st3" d="M658,306.2v-30.6v-7.2c-0.2-152.5-0.1-215.8,0-219.2c0.1-2-0.1-3.9,0-5.9c0.1-2,0.2-3.4-0.4-5.1
		c-0.4-1.3-1-2.3-1.5-3c-0.5-0.3-1.2-0.8-2.3-1.2c-1.6-0.6-2.7-0.5-5.6-0.6c-2.3-0.1-2.2-0.1-3.6-0.2c-3.4-0.1-21.5-0.1-46.1,0
		c-0.8,0.1-3.9,0.4-6.1,3c-1.6,1.9-2.5,4.5-2.5,7.3v3.7v17.7v265.6h47.8C648.8,330.5,658,319.6,658,306.2z"/>
	<g>
		<path class="st3" d="M305,59.8c0-14.7-6.6-26.6-14.7-26.6c-66.8,0.4-112.5,0.6-116.5,0c-0.5-0.1-3.1-0.5-6,0.5
			c-1.6,0.6-2.8,1.5-3.5,2.1c-0.7,1-1.5,2.4-2.2,4.3c-1.2,3.2-1.1,6-1.1,6.7c0.1,4.6,0.5,85.6,1.1,196.9c0,3.4,0,6.7,0,10.1v42.7
			c0,18.7,8.9,33.9,19.9,33.9h123V59.8z"/>
	</g>
	<g>
		<g id="XMLID_13_">
			<polygon id="XMLID_1519_" class="st5" points="513.2,372.3 305.2,372.3 331.9,294.8 487.4,294.8 			"/>
			<polygon id="XMLID_1516_" class="st7" points="308.9,362.1 505.1,349.3 488.4,299 330,299 			"/>
			<path id="XMLID_17_" class="st8" d="M650.7,40.9c0-4.2-3.4-7.6-7.6-7.6H175.3c-4.2,0-7.6,3.4-7.6,7.6v243.6
				c0,4.2,3.4,7.6,7.6,7.6h467.8c4.2,0,7.6-3.4,7.6-7.6V40.9z"/>
			<path id="XMLID_16_" class="st9" d="M650.7,278.3v31.8c0,11.3-9.1,20.4-20.4,20.4H188c-11.3,0-20.4-9.1-20.4-20.4v-31.8H650.7z"
				/>
			<rect id="XMLID_15_" x="185.5" y="50.8" class="st5" width="447.3" height="210.2"/>
			<rect id="XMLID_14_" x="295.9" y="372.3" class="st9" width="225.3" height="17.4"/>
		</g>
		<rect x="523.5" y="74" class="st10" width="71.6" height="71.6"/>
		<rect x="523.5" y="152.9" class="st11" width="71.6" height="71.6"/>
		<rect x="295.9" y="154.5" class="st11" width="217.3" height="8.1"/>
		<rect x="295.9" y="176.6" class="st11" width="217.3" height="8.1"/>
		<rect x="295.9" y="198.8" class="st11" width="217.3" height="8.1"/>
		<rect x="295.9" y="220.9" class="st11" width="111.1" height="8.1"/>
		<rect x="200.9" y="154.5" class="st11" width="68.4" height="8.1"/>
		<rect x="200.9" y="176.6" class="st11" width="68.4" height="8.1"/>
		<rect x="200.9" y="198.8" class="st11" width="68.4" height="8.1"/>
		<rect x="200.9" y="220.9" class="st11" width="68.4" height="8.1"/>
		<rect x="523.5" y="231.8" class="st12" width="71.6" height="27.4"/>
		<path class="st13" d="M269.3,109.7c0,17.3-14,31.2-31.2,31.2c-17.3,0-31.2-14-31.2-31.2c0-17.3,14-31.2,31.2-31.2
			C255.3,78.5,269.3,92.5,269.3,109.7z"/>
	</g>
	<g>
		<g id="XMLID_826_">
			
				<rect id="XMLID_817_" x="78.9" y="296.3" transform="matrix(-1 -1.224647e-16 1.224647e-16 -1 316.6105 624.0351)" class="st12" width="158.7" height="31.4"/>
			
				<rect id="XMLID_821_" x="90.2" y="306.9" transform="matrix(-1 -1.224647e-16 1.224647e-16 -1 315.1642 624.0322)" class="st2" width="134.9" height="10.2"/>
		</g>
		<g id="XMLID_824_">
			<path id="XMLID_822_" class="st5" d="M103,365.3h117.8c7.6,0,13.8-6.2,13.8-13.8v-7c0-7.6-6.2-13.8-13.8-13.8H103V365.3z"/>
			<g id="XMLID_823_">
				<path id="XMLID_825_" class="st14" d="M94.5,368.4h126.3c9.3,0,16.9-7.6,16.9-16.9v-7c0-9.3-7.6-16.9-16.9-16.9H94.5v6.1h126.3
					c5.9,0,10.8,4.8,10.8,10.8v7c0,5.9-4.8,10.8-10.8,10.8H94.5V368.4z"/>
			</g>
		</g>
		<g id="XMLID_839_">
			
				<rect id="XMLID_827_" x="103" y="368.4" transform="matrix(-1 -1.224647e-16 1.224647e-16 -1 352.8667 758.1133)" class="st1" width="146.8" height="21.3"/>
			
				<rect id="XMLID_828_" x="226.9" y="375.3" transform="matrix(-1 -1.224647e-16 1.224647e-16 -1 461.2853 758.1123)" class="st2" width="7.4" height="7.4"/>
			
				<rect id="XMLID_829_" x="216.1" y="375.3" transform="matrix(-1 -1.224647e-16 1.224647e-16 -1 439.5456 758.1123)" class="st2" width="7.4" height="7.4"/>
			
				<rect id="XMLID_830_" x="205.2" y="375.3" transform="matrix(-1 -1.224647e-16 1.224647e-16 -1 417.8082 758.1123)" class="st2" width="7.4" height="7.4"/>
			
				<rect id="XMLID_831_" x="194.3" y="375.3" transform="matrix(-1 -1.224647e-16 1.224647e-16 -1 396.0704 758.1123)" class="st2" width="7.4" height="7.4"/>
			
				<rect id="XMLID_832_" x="183.5" y="375.3" transform="matrix(-1 -1.224647e-16 1.224647e-16 -1 374.3306 758.1123)" class="st2" width="7.4" height="7.4"/>
			
				<rect id="XMLID_833_" x="172.6" y="375.3" transform="matrix(-1 -1.224647e-16 1.224647e-16 -1 352.5909 758.1123)" class="st2" width="7.4" height="7.4"/>
			
				<rect id="XMLID_834_" x="161.7" y="375.3" transform="matrix(-1 -1.224647e-16 1.224647e-16 -1 330.8512 758.1123)" class="st2" width="7.4" height="7.4"/>
			
				<rect id="XMLID_835_" x="150.8" y="375.3" transform="matrix(-1 -1.224647e-16 1.224647e-16 -1 309.1129 758.1123)" class="st2" width="7.4" height="7.4"/>
			
				<rect id="XMLID_836_" x="140" y="375.3" transform="matrix(-1 -1.224647e-16 1.224647e-16 -1 287.3761 758.1123)" class="st2" width="7.4" height="7.4"/>
			
				<rect id="XMLID_837_" x="129.1" y="375.3" transform="matrix(-1 -1.224647e-16 1.224647e-16 -1 265.6364 758.1123)" class="st2" width="7.4" height="7.4"/>
			
				<rect id="XMLID_838_" x="118.2" y="375.3" transform="matrix(-1 -1.224647e-16 1.224647e-16 -1 243.8961 758.1123)" class="st2" width="7.4" height="7.4"/>
		</g>
		<path id="XMLID_846_" class="st3" d="M220.8,327.7c9.3,0,16.9,7.6,16.9,16.9v7c0,9.3-7.6,16.9-16.9,16.9h-79.4L103,335.1v-1.3
			h-1.5l-7-6.1H220.8z"/>
		<polygon id="XMLID_843_" class="st3" points="249.9,368.4 249.9,389.7 127.6,389.7 103,368.4 103.2,368.4 		"/>
	</g>
</g>
</svg>
