<?xml version="1.0" encoding="utf-8"?>
<!-- Generator: Adobe Illustrator 22.0.1, SVG Export Plug-In . SVG Version: 6.00 Build 0)  -->
<svg version="1.1" id="图层_1" xmlns="http://www.w3.org/2000/svg" xmlns:xlink="http://www.w3.org/1999/xlink" x="0px" y="0px"
	 viewBox="0 0 973.1 603.9" style="enable-background:new 0 0 973.1 603.9;" xml:space="preserve">
<style type="text/css">
	.st0{fill:#FFFFFF;}
	.st1{fill:#BCBEC0;}
	.st2{fill:#FF7E55;}
	.st3{fill:#B4EBF7;}
	.st4{fill:#E6E7E8;}
	.st5{fill:#E0632F;}
	.st6{fill:#FBD451;}
	.st7{fill:#53667F;}
	.st8{fill:#F1F2F2;}
	.st9{fill:#485059;}
	.st10{opacity:0.3;fill:#231F20;}
	.st11{fill:#758599;}
	.st12{fill:#3E4D5F;}
	.st13{fill:#87D37C;}
	.st14{fill:#414042;}
	.st15{fill:#6D6E71;}
	.st16{fill:#A7A9AC;}
	.st17{fill:#58595B;}
	.st18{fill:#FDE597;}
	.st19{fill:#D1D3D4;}
	.st20{fill:#6D737A;}
	.st21{fill:#CCF6FF;}
	.st22{fill:#36C4D0;}
	.st23{fill:#FBDA73;}
	.st24{fill:#FDE9AB;}
	.st25{fill:#BAC2CC;}
	.st26{fill:#86DCE3;}
	.st27{fill:#FF9877;}
	.st28{fill:#FDEEB9;}
	.st29{opacity:0.2;fill:#231F20;}
	.st30{fill:#BF5F40;}
	.st31{fill:#DDE0E5;}
	.st32{fill:#FCDD74;}
	.st33{fill:#E68259;}
	.st34{fill:#359EAF;}
	.st35{fill:#47D2E9;}
	.st36{fill:#808080;}
	.st37{fill:#576877;}
	.st38{fill:#798692;}
</style>
<g>
	<g id="XMLID_207_">
		<path id="XMLID_260_" class="st0" d="M973.1,600.1H722.9v-297c0-2.4,1.9-4.3,4.3-4.3h241.6c2.4,0,4.3,1.9,4.3,4.3V600.1z"/>
		<path id="XMLID_259_" class="st1" d="M973.1,317.9V300c0-4.8-3.9-8.7-8.7-8.7H731.6c-4.8,0-8.7,3.9-8.7,8.7v17.9H973.1z"/>
		<rect id="XMLID_258_" x="759" y="343.4" class="st2" width="179.5" height="76.1"/>
		<rect id="XMLID_257_" x="759" y="426.3" class="st3" width="85.9" height="39.9"/>
		
			<rect id="XMLID_256_" x="851.5" y="426.3" transform="matrix(-1 -1.224647e-16 1.224647e-16 -1 1789.9803 892.5753)" class="st4" width="86.9" height="39.9"/>
		<g id="XMLID_254_">
			<rect id="XMLID_255_" x="776.5" y="475.4" class="st4" width="150.1" height="7.4"/>
		</g>
		<g id="XMLID_252_">
			<rect id="XMLID_253_" x="776.1" y="518.1" class="st4" width="150.1" height="7.4"/>
		</g>
		<g id="XMLID_250_">
			<rect id="XMLID_251_" x="776.1" y="529.7" class="st4" width="150.1" height="7.4"/>
		</g>
		<g id="XMLID_248_">
			<rect id="XMLID_249_" x="776.1" y="541.3" class="st4" width="150.1" height="7.4"/>
		</g>
		<g id="XMLID_246_">
			<rect id="XMLID_247_" x="818" y="489.6" class="st4" width="66.3" height="7.4"/>
		</g>
		<path id="XMLID_245_" class="st5" d="M748.1,304.5c0,1.6-1.3,2.9-2.9,2.9c-1.6,0-2.9-1.3-2.9-2.9c0-1.6,1.3-2.9,2.9-2.9
			C746.8,301.5,748.1,302.8,748.1,304.5z"/>
		<path id="XMLID_231_" class="st6" d="M765.1,304.5c0,1.6-1.3,2.9-2.9,2.9c-1.6,0-2.9-1.3-2.9-2.9c0-1.6,1.3-2.9,2.9-2.9
			C763.8,301.5,765.1,302.8,765.1,304.5z"/>
		<path id="XMLID_261_" class="st7" d="M780.6,304.5c0,1.6-1.3,2.9-2.9,2.9c-1.6,0-2.9-1.3-2.9-2.9c0-1.6,1.3-2.9,2.9-2.9
			C779.3,301.5,780.6,302.8,780.6,304.5z"/>
		<rect id="XMLID_262_" x="788.6" y="300.8" class="st8" width="163.8" height="7.6"/>
		<rect id="XMLID_263_" x="767.8" y="561.1" class="st4" width="30.9" height="30.9"/>
		<rect id="XMLID_264_" x="810.7" y="561.1" class="st4" width="30.9" height="30.9"/>
		<rect id="XMLID_265_" x="853.7" y="561.1" class="st4" width="30.9" height="30.9"/>
		<rect id="XMLID_266_" x="896.6" y="561.1" class="st4" width="30.9" height="30.9"/>
	</g>
	<g>
		<g id="XMLID_814_">
			
				<rect id="XMLID_820_" x="172.1" y="214.6" transform="matrix(0.7071 -0.7071 0.7071 0.7071 -144.7276 207.205)" class="st9" width="11.3" height="127.4"/>
		</g>
		<g id="XMLID_818_">
			<polygon id="XMLID_819_" class="st9" points="167.6,437.6 227.8,326 217.8,320.7 154.7,437.7 			"/>
		</g>
		<g id="XMLID_790_">
			<path id="XMLID_760_" class="st6" d="M62.5,277c-9,9-9,23.6,0,32.6c9,9,23.6,9,32.6,0c9-9,9-23.6,0-32.6
				C86.1,268,71.5,268,62.5,277z"/>
			<path id="XMLID_761_" class="st7" d="M112,222.9c9.9-9.9,25.9-9.9,35.7,0c9.9,9.9,9.9,25.9,0,35.7L112,222.9z"/>
			<path id="XMLID_766_" class="st10" d="M62.5,277c9-9,23.6-9,32.6,0c9,9,9,23.6,0,32.6c-0.8,0.8-1.7,1.5-2.6,2.2l-32.1-32.1
				C61,278.7,61.7,277.8,62.5,277z"/>
			<polygon id="XMLID_759_" class="st7" points="40.4,254.9 116.6,331 148.5,281.5 89.1,222.1 			"/>
			<polygon id="XMLID_764_" class="st11" points="96.3,229.3 102.7,235.7 54,268.5 47.6,262.1 			"/>
			<g id="XMLID_789_">
				<g id="XMLID_806_">
					
						<rect id="XMLID_812_" x="48.2" y="273.7" transform="matrix(0.501 -0.8654 0.8654 0.501 -215.0397 181.9641)" class="st8" width="4.2" height="7.6"/>
				</g>
				<g id="XMLID_805_">
					
						<rect id="XMLID_811_" x="41.1" y="276.5" transform="matrix(0.2585 -0.966 0.966 0.2585 -242.6506 252.5769)" class="st8" width="4.2" height="15.7"/>
				</g>
				<g id="XMLID_804_">
					<rect id="XMLID_810_" x="42.4" y="291.8" class="st8" width="7.6" height="4.2"/>
				</g>
				<g id="XMLID_803_">
					<polygon id="XMLID_809_" class="st8" points="36.7,307.4 51.6,303.4 50.5,299.3 35.6,303.3 					"/>
				</g>
				<g id="XMLID_802_">
					
						<rect id="XMLID_808_" x="47" y="308" transform="matrix(0.8665 -0.4991 0.4991 0.8665 -148.0249 66.7476)" class="st8" width="7.6" height="4.2"/>
				</g>
				<g id="XMLID_801_">
					
						<rect id="XMLID_807_" x="46.2" y="317.3" transform="matrix(0.7067 -0.7075 0.7075 0.7067 -210.2561 131.5848)" class="st8" width="14.7" height="4.2"/>
				</g>
				<g id="XMLID_800_">
					
						<rect id="XMLID_795_" x="59.2" y="319.8" transform="matrix(0.5007 -0.8656 0.8656 0.5007 -247.248 215.2337)" class="st8" width="7.6" height="4.2"/>
				</g>
				<g id="XMLID_799_">
					
						<rect id="XMLID_794_" x="61.8" y="327.3" transform="matrix(0.2301 -0.9732 0.9732 0.2301 -266.6521 321.7154)" class="st8" width="16.3" height="4.2"/>
				</g>
				<g id="XMLID_798_">
					
						<rect id="XMLID_793_" x="75.6" y="324" transform="matrix(1.390623e-03 -1 1 1.390623e-03 -246.8191 404.9889)" class="st8" width="7.6" height="4.2"/>
				</g>
				<g id="XMLID_797_">
					
						<rect id="XMLID_792_" x="87.1" y="320.8" transform="matrix(0.9486 -0.3164 0.3164 0.9486 -99.3102 45.1047)" class="st8" width="4.2" height="15.2"/>
				</g>
				<g id="XMLID_796_">
					
						<rect id="XMLID_791_" x="93.5" y="317.7" transform="matrix(0.8669 -0.4985 0.4985 0.8669 -147.5085 90.4662)" class="st8" width="4.2" height="7.6"/>
				</g>
			</g>
			
				<rect id="XMLID_813_" x="116" y="204.3" transform="matrix(-0.7071 0.7071 -0.7071 -0.7071 386.1767 332.6399)" class="st12" width="16.3" height="84.1"/>
		</g>
		<path id="XMLID_815_" class="st7" d="M208.3,323.3c0,8,6.5,14.5,14.5,14.5c8,0,14.5-6.5,14.5-14.5s-6.5-14.5-14.5-14.5
			C214.8,308.9,208.3,315.3,208.3,323.3z"/>
		<path id="XMLID_816_" class="st8" d="M216.3,323.3c0,3.6,2.9,6.5,6.5,6.5c3.6,0,6.5-2.9,6.5-6.5c0-3.6-2.9-6.5-6.5-6.5
			C219.2,316.9,216.3,319.8,216.3,323.3z"/>
	</g>
	<g>
		<g id="XMLID_826_">
			
				<rect id="XMLID_817_" y="507.1" transform="matrix(-1 -1.224647e-16 1.224647e-16 -1 158.7295 1045.6777)" class="st3" width="158.7" height="31.4"/>
			
				<rect id="XMLID_821_" x="11.2" y="517.8" transform="matrix(-1 -1.224647e-16 1.224647e-16 -1 157.2832 1045.6748)" class="st7" width="134.9" height="10.2"/>
		</g>
		<g id="XMLID_824_">
			<path id="XMLID_822_" class="st8" d="M24.1,576.2h117.8c7.6,0,13.8-6.2,13.8-13.8v-7c0-7.6-6.2-13.8-13.8-13.8H24.1V576.2z"/>
			<g id="XMLID_823_">
				<path id="XMLID_825_" class="st5" d="M15.5,579.2h126.3c9.3,0,16.9-7.6,16.9-16.9v-7c0-9.3-7.6-16.9-16.9-16.9H15.5v6.1h126.3
					c5.9,0,10.8,4.8,10.8,10.8v7c0,5.9-4.8,10.8-10.8,10.8H15.5V579.2z"/>
			</g>
		</g>
		<g id="XMLID_839_">
			
				<rect id="XMLID_827_" x="24.1" y="579.2" transform="matrix(-1 -1.224647e-16 1.224647e-16 -1 194.9857 1179.7559)" class="st6" width="146.8" height="21.3"/>
			
				<rect id="XMLID_828_" x="148" y="586.2" transform="matrix(-1 -1.224647e-16 1.224647e-16 -1 303.4043 1179.7549)" class="st7" width="7.4" height="7.4"/>
			
				<rect id="XMLID_829_" x="137.1" y="586.2" transform="matrix(-1 -1.224647e-16 1.224647e-16 -1 281.6646 1179.7549)" class="st7" width="7.4" height="7.4"/>
			
				<rect id="XMLID_830_" x="126.3" y="586.2" transform="matrix(-1 -1.224647e-16 1.224647e-16 -1 259.9272 1179.7549)" class="st7" width="7.4" height="7.4"/>
			
				<rect id="XMLID_831_" x="115.4" y="586.2" transform="matrix(-1 -1.224647e-16 1.224647e-16 -1 238.1894 1179.7549)" class="st7" width="7.4" height="7.4"/>
			
				<rect id="XMLID_832_" x="104.5" y="586.2" transform="matrix(-1 -1.224647e-16 1.224647e-16 -1 216.4496 1179.7549)" class="st7" width="7.4" height="7.4"/>
			
				<rect id="XMLID_833_" x="93.6" y="586.2" transform="matrix(-1 -1.224647e-16 1.224647e-16 -1 194.7099 1179.7549)" class="st7" width="7.4" height="7.4"/>
			
				<rect id="XMLID_834_" x="82.8" y="586.2" transform="matrix(-1 -1.224647e-16 1.224647e-16 -1 172.9702 1179.7549)" class="st7" width="7.4" height="7.4"/>
			
				<rect id="XMLID_835_" x="71.9" y="586.2" transform="matrix(-1 -1.224647e-16 1.224647e-16 -1 151.2319 1179.7549)" class="st7" width="7.4" height="7.4"/>
			
				<rect id="XMLID_836_" x="61" y="586.2" transform="matrix(-1 -1.224647e-16 1.224647e-16 -1 129.4951 1179.7549)" class="st7" width="7.4" height="7.4"/>
			
				<rect id="XMLID_837_" x="50.2" y="586.2" transform="matrix(-1 -1.224647e-16 1.224647e-16 -1 107.7554 1179.7549)" class="st7" width="7.4" height="7.4"/>
			
				<rect id="XMLID_838_" x="39.3" y="586.2" transform="matrix(-1 -1.224647e-16 1.224647e-16 -1 86.0151 1179.7549)" class="st7" width="7.4" height="7.4"/>
		</g>
		<path id="XMLID_846_" class="st10" d="M141.8,538.5c9.3,0,16.9,7.6,16.9,16.9v7c0,9.3-7.6,16.9-16.9,16.9H62.5l-38.4-33.3v-1.3
			h-1.5l-7-6.1H141.8z"/>
		<polygon id="XMLID_843_" class="st10" points="170.9,579.2 170.9,600.6 48.6,600.6 24.1,579.2 24.2,579.2 		"/>
	</g>
	<g id="XMLID_76_">
		<path id="XMLID_80_" class="st4" d="M824.9,600.6H713.6c-3.4,0-6.2-2.8-6.2-6.2V381.8c0-3.4,2.8-6.2,6.2-6.2h111.3
			c3.4,0,6.2,2.8,6.2,6.2v212.6C831.1,597.8,828.3,600.6,824.9,600.6z"/>
		<rect id="XMLID_79_" x="715.6" y="397.5" class="st13" width="107.5" height="177.7"/>
		<path id="XMLID_78_" class="st14" d="M794.4,386.1c0,0.8-0.6,1.4-1.4,1.4c-0.8,0-1.4-0.6-1.4-1.4c0-0.8,0.6-1.4,1.4-1.4
			C793.8,384.7,794.4,385.3,794.4,386.1z"/>
		<path id="XMLID_77_" class="st14" d="M784.3,386.9h-29c-0.5,0-0.9-0.4-0.9-0.9l0,0c0-0.5,0.4-0.9,0.9-0.9h29
			c0.5,0,0.9,0.4,0.9,0.9l0,0C785.2,386.6,784.8,386.9,784.3,386.9z"/>
	</g>
	<g id="XMLID_853_">
		<path id="XMLID_852_" class="st15" d="M533,568.2c0,8.8,0,16.1,0,16.1H150c0,0,0-7.2,0-16.1V378.6c0-8.9,6.8-16,15.1-16h352.9
			c8.3,0,15.1,7.2,15.1,16V568.2z"/>
		<rect id="XMLID_851_" x="168.3" y="378" class="st9" width="346.5" height="190.8"/>
		<path id="XMLID_845_" class="st0" d="M550.7,586.6c0-1.4-1.1-2.5-2.5-2.5H134.9c-1.4,0-2.5,1.1-2.5,2.5l0.1,5.7h418.1L550.7,586.6
			z"/>
		<path id="XMLID_844_" class="st1" d="M132.4,592.3l4.4,5.7c1.4,1.6,2.3,2.5,4.5,2.5h400.9c1.4,0,2.5-0.8,3.8-2.5l4.4-5.7H132.4z"
			/>
		<path id="XMLID_840_" class="st16" d="M277.3,584v2.9c0,0.8,1.3,1.4,2.8,1.4h110.6c1.6,0,2.8-0.6,2.8-1.4V584H277.3z"/>
		<rect id="XMLID_218_" x="184" y="394.6" class="st5" width="6.5" height="6.5"/>
		<rect id="XMLID_232_" x="184" y="410" class="st5" width="6.5" height="6.5"/>
		<rect id="XMLID_233_" x="184" y="425.4" class="st5" width="6.5" height="6.5"/>
		<rect id="XMLID_234_" x="184" y="440.8" class="st5" width="6.5" height="6.5"/>
		<rect id="XMLID_235_" x="184" y="456.2" class="st5" width="6.5" height="6.5"/>
		<rect id="XMLID_236_" x="184" y="471.6" class="st5" width="6.5" height="6.5"/>
		<rect id="XMLID_237_" x="184" y="487" class="st5" width="6.5" height="6.5"/>
		<rect id="XMLID_243_" x="184" y="502.4" class="st5" width="6.5" height="6.5"/>
		<rect id="XMLID_244_" x="184" y="517.8" class="st5" width="6.5" height="6.5"/>
		<rect id="XMLID_271_" x="184" y="533.2" class="st5" width="6.5" height="6.5"/>
		<rect id="XMLID_277_" x="184" y="548.6" class="st5" width="6.5" height="6.5"/>
		<rect id="XMLID_278_" x="204.2" y="396.3" class="st0" width="53.5" height="3.2"/>
		<rect id="XMLID_295_" x="204.2" y="461.1" class="st0" width="53.5" height="3.2"/>
		
			<rect id="XMLID_296_" x="262.9" y="461.1" transform="matrix(-1 -1.224647e-16 1.224647e-16 -1 536.9804 925.4131)" class="st3" width="11.1" height="3.2"/>
		<rect id="XMLID_279_" x="215.2" y="405.2" class="st3" width="29.6" height="3.2"/>
		
			<rect id="XMLID_280_" x="250.8" y="405.2" transform="matrix(-1 -1.224647e-16 1.224647e-16 -1 537.7456 813.5713)" class="st0" width="36.1" height="3.2"/>
		
			<rect id="XMLID_297_" x="215.2" y="470" transform="matrix(-1 -1.224647e-16 1.224647e-16 -1 466.4252 943.2412)" class="st6" width="36.1" height="3.2"/>
		<rect id="XMLID_309_" x="204.2" y="530.4" class="st0" width="53.5" height="3.2"/>
		
			<rect id="XMLID_308_" x="268.5" y="530.4" transform="matrix(-1 -1.224647e-16 1.224647e-16 -1 562.3545 1063.999)" class="st6" width="25.3" height="3.2"/>
		
			<rect id="XMLID_307_" x="215.2" y="539.3" transform="matrix(-1 -1.224647e-16 1.224647e-16 -1 450.4814 1081.8292)" class="st3" width="20.1" height="3.2"/>
		<rect id="XMLID_310_" x="244.8" y="539.3" class="st0" width="65.2" height="3.2"/>
		<rect id="XMLID_311_" x="224.6" y="555.1" class="st0" width="153.6" height="3.2"/>
		
			<rect id="XMLID_38_" x="381.7" y="555.1" transform="matrix(-1 -1.224647e-16 1.224647e-16 -1 778.6913 1113.4366)" class="st6" width="15.4" height="3.2"/>
		
			<rect id="XMLID_313_" x="400.7" y="555.1" transform="matrix(-1 -1.224647e-16 1.224647e-16 -1 879.6747 1113.4366)" class="st0" width="78.3" height="3.2"/>
		
			<rect id="XMLID_281_" x="224.1" y="420" transform="matrix(-1 -1.224647e-16 1.224647e-16 -1 501.3862 843.1876)" class="st0" width="53.2" height="3.2"/>
		
			<rect id="XMLID_298_" x="224.1" y="488.6" transform="matrix(-1 -1.224647e-16 1.224647e-16 -1 501.3862 980.5225)" class="st0" width="53.2" height="3.2"/>
		
			<rect id="XMLID_302_" x="224.6" y="499.1" transform="matrix(-1 -1.224647e-16 1.224647e-16 -1 550.4531 1001.378)" class="st0" width="101.2" height="3.2"/>
		<rect id="XMLID_303_" x="329.5" y="499.1" class="st0" width="26.1" height="3.2"/>
		
			<rect id="XMLID_304_" x="360.8" y="499.1" transform="matrix(-1 -1.224647e-16 1.224647e-16 -1 796.3178 1001.378)" class="st0" width="74.8" height="3.2"/>
		
			<rect id="XMLID_305_" x="224.6" y="509.5" transform="matrix(-1 -1.224647e-16 1.224647e-16 -1 475.8901 1022.2314)" class="st3" width="26.6" height="3.2"/>
		
			<rect id="XMLID_306_" x="257.7" y="509.5" transform="matrix(-1 -1.224647e-16 1.224647e-16 -1 549.7553 1022.2314)" class="st0" width="34.3" height="3.2"/>
		<rect id="XMLID_299_" x="282.5" y="488.6" class="st0" width="31.5" height="3.2"/>
		
			<rect id="XMLID_300_" x="319.2" y="488.6" transform="matrix(-1 -1.224647e-16 1.224647e-16 -1 653.4056 980.5225)" class="st0" width="15.1" height="3.2"/>
		<rect id="XMLID_301_" x="341.2" y="488.6" class="st6" width="28.8" height="3.2"/>
		
			<rect id="XMLID_314_" x="381.7" y="488.6" transform="matrix(-1 -1.224647e-16 1.224647e-16 -1 862.6674 980.5225)" class="st0" width="99.3" height="3.2"/>
		
			<rect id="XMLID_290_" x="224.1" y="430.3" transform="matrix(-1 -1.224647e-16 1.224647e-16 -1 542.6059 863.8174)" class="st0" width="94.4" height="3.2"/>
		<rect id="XMLID_291_" x="325.8" y="430.3" class="st0" width="52.3" height="3.2"/>
		<rect id="XMLID_282_" x="284.2" y="420" class="st6" width="9.6" height="3.2"/>
		
			<rect id="XMLID_283_" x="300.7" y="420" transform="matrix(-1 -1.224647e-16 1.224647e-16 -1 662.1474 843.1876)" class="st0" width="60.8" height="3.2"/>
		
			<rect id="XMLID_292_" x="224.1" y="439.2" transform="matrix(-1 -1.224647e-16 1.224647e-16 -1 481.8227 881.6494)" class="st0" width="33.6" height="3.2"/>
		<rect id="XMLID_293_" x="265.4" y="439.2" class="st6" width="40.5" height="3.2"/>
		
			<rect id="XMLID_294_" x="311.6" y="439.2" transform="matrix(-1 -1.224647e-16 1.224647e-16 -1 722.1195 881.6494)" class="st0" width="98.9" height="3.2"/>
		<rect id="XMLID_288_" x="368.6" y="420" class="st0" width="54.3" height="3.2"/>
		
			<rect id="XMLID_289_" x="428.1" y="420" transform="matrix(-1 -1.224647e-16 1.224647e-16 -1 899.2661 843.1876)" class="st3" width="43.1" height="3.2"/>
	</g>
	<path class="st10" d="M753,520.9v-25.7v-6.1V291.8h-59.5c-4.8,0-8.7,3.9-8.7,8.7v3.1v14.8v223h47.8
		C743.9,541.3,753,532.2,753,520.9z"/>
	<g>
		<path class="st10" d="M400,378.6c0-8.9-6.8-16-15.1-16H253.6v126.6v6.1v25.7c0,11.3,9.1,20.4,20.4,20.4h126V378.6z"/>
		<path class="st10" d="M413.2,598l4.4-5.7l0.1-5.7c0-1.4-1.1-2.5-2.5-2.5H400c0-1.1,0-7.8,0-15.8v-10.8l-8.9,25.7h-9.3v17.4h27.4
			C410.7,600.6,411.8,599.8,413.2,598z"/>
	</g>
	<g>
		<g id="XMLID_13_">
			<polygon id="XMLID_1519_" class="st8" points="608.2,583.2 400.2,583.2 426.9,505.6 582.5,505.6 			"/>
			<polygon id="XMLID_1516_" class="st1" points="403.9,572.9 600.1,560.1 583.4,509.9 425,509.9 			"/>
			<path id="XMLID_17_" class="st17" d="M745.8,251.7c0-4.2-3.4-7.6-7.6-7.6H270.3c-4.2,0-7.6,3.4-7.6,7.6v243.6
				c0,4.2,3.4,7.6,7.6,7.6h467.8c4.2,0,7.6-3.4,7.6-7.6V251.7z"/>
			<path id="XMLID_16_" class="st0" d="M745.8,489.2v31.8c0,11.3-9.1,20.4-20.4,20.4H283.1c-11.3,0-20.4-9.1-20.4-20.4v-31.8H745.8z
				"/>
			<rect id="XMLID_15_" x="280.6" y="261.6" class="st8" width="447.3" height="210.2"/>
			<rect id="XMLID_14_" x="390.9" y="583.2" class="st0" width="225.3" height="17.4"/>
		</g>
		<rect x="618.6" y="284.8" class="st2" width="71.6" height="71.6"/>
		<rect x="618.6" y="363.7" class="st4" width="71.6" height="71.6"/>
		<rect x="390.9" y="365.3" class="st4" width="217.3" height="8.1"/>
		<rect x="390.9" y="387.5" class="st4" width="217.3" height="8.1"/>
		<rect x="390.9" y="409.6" class="st4" width="217.3" height="8.1"/>
		<rect x="390.9" y="431.7" class="st4" width="111.1" height="8.1"/>
		<rect x="296" y="365.3" class="st4" width="68.4" height="8.1"/>
		<rect x="296" y="387.5" class="st4" width="68.4" height="8.1"/>
		<rect x="296" y="409.6" class="st4" width="68.4" height="8.1"/>
		<rect x="296" y="431.7" class="st4" width="68.4" height="8.1"/>
		<rect x="618.6" y="442.6" class="st3" width="71.6" height="27.4"/>
		<path class="st18" d="M364.3,320.6c0,17.3-14,31.2-31.2,31.2c-17.3,0-31.2-14-31.2-31.2c0-17.3,14-31.2,31.2-31.2
			C350.4,289.3,364.3,303.3,364.3,320.6z"/>
	</g>
	<path class="st10" d="M422.3,579.1h-14.7l-3.3-22.4l-1-6.9l-3.2-21.9h-3.4h-14.5h-13.3l-0.4-165.2h-3.6l0,5l-5-5h-3.4l8.1,8.1
		l-14,14l-13.2-13.2l0-1.4l7.4-7.4h-3.4l-4,4l0-4h-3.6l0.4,132.5l0,0l0,0l0,1.7l0,0l0,0l0.1,29.5l-0.1,0.1l0.1,0.1l0,1.3H325h-14
		h-1.9l-0.3,2.2l0,0l-2.4,16.4l-2.5,17l-2.3,15.6l0,0h-16.1v14.4v7.1h136.9v-7.1V579.1z M365.2,493.2l-13-13l12.9-12.9L365.2,493.2z
		 M365.1,461.8l-12.9-12.9l12.8-12.8L365.1,461.8z M365,430.4l-12.8-12.8l12.7-12.7L365,430.4z M364.9,373.7L365,399l-12.7-12.7
		L364.9,373.7z M337.3,374.8l11.5,11.5l-11.5,11.5L337.3,374.8z M337.4,401.2l13.2-13.2l14,14l-14,14l-13.2-13.2L337.4,401.2z
		 M337.4,406.2l11.5,11.4L337.5,429L337.4,406.2z M337.5,432.4l13.1-13.1l14,14l-14,14l-13.1-13.1L337.5,432.4z M337.5,437.6
		l11.4,11.4l-11.3,11.3L337.5,437.6z M337.6,463.6l13-13l14,14l-14,14l-13-13L337.6,463.6z M337.6,469l11.3,11.3l-11.2,11.2
		L337.6,469z M337.7,494.8l12.9-12.9l14,14l-14,14L337.7,497L337.7,494.8z M337.7,500.4l11.2,11.2l-11.1,11.1L337.7,500.4z
		 M363.9,527.8h-10.3h-14h-1.8l0-1.7l12.8-12.8l14,14L363.9,527.8z M352.3,511.6l13-13l0.1,26L352.3,511.6z"/>
	<g>
		<path class="st14" d="M512.8,273.3l0.1,12.8l0.8-0.8c-2,0-3.9,0.6-5.5,1.7c-0.8,0.5-1.6,1.3-2.1,2c-0.6,0.8-1.1,1.6-1.5,2.5
			c-0.4,0.9-0.6,1.9-0.7,2.8c-0.1,1,0,1.9,0.2,2.9c0.4,1.9,1.3,3.6,2.8,5c0.6,0.6,1.5,1.2,2.3,1.7c0.9,0.4,1.8,0.7,2.7,0.9
			c0.9,0.2,1.9,0.2,2.8,0.1c1-0.1,1.9-0.4,2.8-0.7c1.7-0.7,3.2-2,4.3-3.6c1-1.6,1.6-3.5,1.6-5.3h-0.7c0,1.7-0.6,3.4-1.5,4.9
			c-1,1.4-2.4,2.5-4,3.2c-0.8,0.3-1.6,0.5-2.5,0.6c-0.9,0.1-1.7,0-2.6-0.2c-1.7-0.4-3.2-1.2-4.4-2.4c-1.1-1.2-2-2.8-2.3-4.4
			c-0.1-0.8-0.2-1.7-0.1-2.5c0.1-0.8,0.3-1.6,0.6-2.4c0.3-0.8,0.8-1.5,1.3-2.1c0.6-0.7,1.2-1.2,1.9-1.7c1.4-0.9,3-1.4,4.7-1.4l0.8,0
			l0-0.8l0.1-12.8H512.8z"/>
		<g>
			<rect x="265.7" y="124.4" class="st14" width="1.9" height="74"/>
			<rect x="221" y="124.4" class="st14" width="1.9" height="74"/>
			<g>
				<polygon class="st14" points="243.4,104.2 356.1,14.9 513.4,98.1 513.9,97 355.9,13.5 355.6,13.7 242.7,103.3 				"/>
			</g>
			<polygon class="st4" points="372.6,248.8 399.1,194.5 397.2,190.8 370.6,245.1 			"/>
			<g>
				<polygon class="st4" points="339.2,248.8 341.2,245.1 314.7,190.8 312.7,194.5 				"/>
			</g>
			<g>
				<polygon class="st0" points="339.8,600.6 343.4,600.5 342,98.5 369.6,98.5 370.9,600.6 374.5,600.5 373.2,94.9 338.4,94.9 				
					"/>
			</g>
			<g>
				<path class="st0" d="M338.4,95.2l456.5-1.1h0.7l36.1,35.5l-493.3,0.2V95.2z M794.2,97.7L342,98.8v27.4L823,126L794.2,97.7z"/>
			</g>
			<g>
				<path class="st0" d="M343.4,27.6h25.1l5.1,71h-35.2L343.4,27.6z M365.1,31.1h-18.4l-4.6,63.8h27.5L365.1,31.1z"/>
			</g>
			<g>
				
					<rect x="354.8" y="301.5" transform="matrix(0.7072 -0.707 0.707 0.7072 -124.6112 346.4657)" class="st0" width="2.4" height="44.3"/>
			</g>
			<g>
				
					<rect x="333.9" y="322.5" transform="matrix(0.7072 -0.707 0.707 0.7072 -124.6102 346.4884)" class="st0" width="44.3" height="2.4"/>
			</g>
			<g>
				
					<rect x="354.8" y="332.9" transform="matrix(0.7066 -0.7076 0.7076 0.7066 -146.7492 356.0794)" class="st0" width="2.4" height="44.3"/>
			</g>
			<g>
				
					<rect x="333.9" y="353.8" transform="matrix(0.7071 -0.7071 0.7071 0.7071 -146.7498 355.7122)" class="st0" width="44.3" height="2.4"/>
			</g>
			<g>
				
					<rect x="354.8" y="364.2" transform="matrix(0.7068 -0.7074 0.7074 0.7068 -168.902 365.0974)" class="st0" width="2.4" height="44.3"/>
			</g>
			<g>
				
					<rect x="333.9" y="385.1" transform="matrix(0.7071 -0.7071 0.7071 0.7071 -168.8923 364.8593)" class="st0" width="44.3" height="2.4"/>
			</g>
			<g>
				
					<rect x="354.8" y="395.5" transform="matrix(0.707 -0.7072 0.7072 0.707 -191.0402 374.132)" class="st0" width="2.4" height="44.3"/>
			</g>
			<g>
				
					<rect x="333.9" y="416.4" transform="matrix(0.7072 -0.707 0.707 0.7072 -191.0273 373.97)" class="st0" width="44.3" height="2.4"/>
			</g>
			<g>
				
					<rect x="354.8" y="426.8" transform="matrix(0.7072 -0.707 0.707 0.7072 -213.1633 383.1375)" class="st0" width="2.4" height="44.3"/>
			</g>
			<g>
				
					<rect x="333.9" y="447.7" transform="matrix(0.7072 -0.707 0.707 0.7072 -213.1664 383.1643)" class="st0" width="44.3" height="2.4"/>
			</g>
			<g>
				
					<rect x="354.8" y="458.1" transform="matrix(0.7054 -0.7088 0.7088 0.7054 -235.5278 393.8401)" class="st0" width="2.4" height="44.3"/>
			</g>
			<g>
				
					<rect x="333.9" y="479" transform="matrix(0.7071 -0.7071 0.7071 0.7071 -235.318 392.4156)" class="st0" width="44.3" height="2.4"/>
			</g>
			<g>
				
					<rect x="354.8" y="489.4" transform="matrix(0.7076 -0.7066 0.7066 0.7076 -257.3772 401.1118)" class="st0" width="2.4" height="44.3"/>
			</g>
			<g>
				
					<rect x="333.9" y="510.4" transform="matrix(0.7072 -0.7071 0.7071 0.7072 -257.4509 401.5222)" class="st0" width="44.3" height="2.4"/>
			</g>
			<g>
				
					<rect x="354.8" y="520.7" transform="matrix(0.7068 -0.7074 0.7074 0.7068 -279.659 411.0184)" class="st0" width="2.4" height="44.3"/>
			</g>
			<g>
				
					<rect x="333.9" y="541.7" transform="matrix(0.7072 -0.707 0.707 0.7072 -279.5872 410.6728)" class="st0" width="44.3" height="2.4"/>
			</g>
			<g>
				
					<rect x="354.8" y="552" transform="matrix(0.7078 -0.7064 0.7064 0.7078 -301.5854 419.2462)" class="st0" width="2.4" height="44.3"/>
			</g>
			<g>
				
					<rect x="333.9" y="573" transform="matrix(0.7072 -0.707 0.707 0.7072 -301.7276 419.8509)" class="st0" width="44.3" height="2.4"/>
			</g>
			<g>
				
					<rect x="354.8" y="270.2" transform="matrix(0.7075 -0.7067 0.7067 0.7075 -102.4917 337.1053)" class="st0" width="2.4" height="44.3"/>
			</g>
			<g>
				
					<rect x="333.9" y="291.2" transform="matrix(0.7071 -0.7072 0.7072 0.7071 -102.4634 337.3948)" class="st0" width="44.3" height="2.4"/>
			</g>
			<g>
				
					<rect x="354.8" y="238.9" transform="matrix(0.7069 -0.7073 0.7073 0.7069 -80.305 328.3199)" class="st0" width="2.4" height="44.3"/>
			</g>
			<g>
				
					<rect x="333.9" y="259.9" transform="matrix(0.7071 -0.7071 0.7071 0.7071 -80.3253 328.1877)" class="st0" width="44.3" height="2.4"/>
			</g>
			<g>
				
					<rect x="354.8" y="207.6" transform="matrix(0.7073 -0.7069 0.7069 0.7073 -58.2086 318.9105)" class="st0" width="2.4" height="44.3"/>
			</g>
			<g>
				
					<rect x="333.9" y="228.5" transform="matrix(0.7071 -0.7071 0.7071 0.7071 -58.184 319.0244)" class="st0" width="44.3" height="2.4"/>
			</g>
			<g>
				
					<rect x="354.8" y="176.3" transform="matrix(0.7068 -0.7074 0.7074 0.7068 -35.994 310.0129)" class="st0" width="2.4" height="44.3"/>
			</g>
			<g>
				
					<rect x="333.9" y="197.2" transform="matrix(0.707 -0.7072 0.7072 0.707 -36.0307 309.8839)" class="st0" width="44.3" height="2.4"/>
			</g>
			<g>
				
					<rect x="355.4" y="82.4" transform="matrix(0.7081 -0.7061 0.7061 0.7081 30.3156 282.3141)" class="st0" width="2.4" height="44.3"/>
			</g>
			<g>
				
					<rect x="334.8" y="104.1" transform="matrix(0.707 -0.7072 0.7072 0.707 29.768 282.4674)" class="st0" width="42" height="2.4"/>
			</g>
			<g>
				
					<rect x="356" y="50.6" transform="matrix(0.7809 -0.6247 0.6247 0.7809 32.6701 239.1147)" class="st0" width="2.4" height="44.8"/>
			</g>
			<g>
				
					<rect x="334.6" y="71" transform="matrix(0.7037 -0.7105 0.7105 0.7037 53.8016 273.3794)" class="st0" width="40.2" height="2.4"/>
			</g>
			<g>
				
					<rect x="356" y="25.5" transform="matrix(0.7717 -0.636 0.636 0.7717 53.7103 237.179)" class="st0" width="2.4" height="36.6"/>
			</g>
			<g>
				
					<rect x="337.4" y="41.2" transform="matrix(0.67 -0.7423 0.7423 0.67 85.6296 277.5113)" class="st0" width="35.2" height="2.4"/>
			</g>
			<g>
				
					<rect x="387.2" y="90.2" transform="matrix(0.7061 -0.7081 0.7081 0.7061 34.6034 308.0933)" class="st0" width="2.4" height="44.3"/>
			</g>
			<g>
				
					<rect x="366.3" y="111.2" transform="matrix(0.7071 -0.7072 0.7072 0.7071 34.3359 307.6089)" class="st0" width="44.3" height="2.4"/>
			</g>
			<g>
				
					<rect x="418.5" y="90.2" transform="matrix(0.7061 -0.7081 0.7081 0.7061 43.8105 330.2713)" class="st0" width="2.4" height="44.3"/>
			</g>
			<g>
				
					<rect x="397.6" y="111.2" transform="matrix(0.7071 -0.7071 0.7071 0.7071 43.493 329.7227)" class="st0" width="44.3" height="2.4"/>
			</g>
			<g>
				
					<rect x="449.9" y="90.2" transform="matrix(0.7061 -0.7081 0.7081 0.7061 53.0115 352.4381)" class="st0" width="2.4" height="44.3"/>
			</g>
			<g>
				
					<rect x="428.9" y="111.2" transform="matrix(0.7072 -0.7071 0.7071 0.7072 52.6427 351.8257)" class="st0" width="44.3" height="2.4"/>
			</g>
			<g>
				
					<rect x="481.2" y="90.2" transform="matrix(0.7061 -0.7081 0.7081 0.7061 62.2039 374.5908)" class="st0" width="2.4" height="44.3"/>
			</g>
			<g>
				
					<rect x="460.2" y="111.2" transform="matrix(0.7071 -0.7072 0.7072 0.7071 61.8417 374.0096)" class="st0" width="44.3" height="2.4"/>
			</g>
			<g>
				
					<rect x="512.5" y="90.2" transform="matrix(0.7061 -0.7081 0.7081 0.7061 71.4062 396.7618)" class="st0" width="2.4" height="44.3"/>
			</g>
			<g>
				
					<rect x="491.5" y="111.2" transform="matrix(0.7071 -0.7071 0.7071 0.7071 71.0088 396.1429)" class="st0" width="44.3" height="2.4"/>
			</g>
			<g>
				
					<rect x="543.8" y="90.2" transform="matrix(0.7061 -0.7081 0.7081 0.7061 80.6071 418.9294)" class="st0" width="2.4" height="44.3"/>
			</g>
			<g>
				
					<rect x="522.8" y="111.2" transform="matrix(0.7071 -0.7071 0.7071 0.7071 80.1738 418.2721)" class="st0" width="44.3" height="2.4"/>
			</g>
			<g>
				
					<rect x="575.1" y="90.2" transform="matrix(0.7059 -0.7083 0.7083 0.7059 89.9028 441.2351)" class="st0" width="2.4" height="44.3"/>
			</g>
			<g>
				
					<rect x="554.1" y="111.2" transform="matrix(0.7071 -0.7071 0.7071 0.7071 89.3233 440.3764)" class="st0" width="44.3" height="2.4"/>
			</g>
			<g>
				
					<rect x="606.4" y="90.2" transform="matrix(0.7059 -0.7083 0.7083 0.7059 99.114 463.4182)" class="st0" width="2.4" height="44.3"/>
			</g>
			<g>
				
					<rect x="585.4" y="111.2" transform="matrix(0.7071 -0.7071 0.7071 0.7071 98.4925 462.5164)" class="st0" width="44.3" height="2.4"/>
			</g>
			<g>
				
					<rect x="637.7" y="90.2" transform="matrix(0.7058 -0.7084 0.7084 0.7058 108.3694 485.6644)" class="st0" width="2.4" height="44.3"/>
			</g>
			<g>
				
					<rect x="616.8" y="111.2" transform="matrix(0.7071 -0.7071 0.7071 0.7071 107.6557 484.6479)" class="st0" width="44.3" height="2.4"/>
			</g>
			<g>
				
					<rect x="669" y="90.2" transform="matrix(0.706 -0.7082 0.7082 0.706 117.4796 507.7057)" class="st0" width="2.4" height="44.3"/>
			</g>
			<g>
				
					<rect x="648.1" y="111.2" transform="matrix(0.7072 -0.7071 0.7071 0.7072 116.8218 506.7844)" class="st0" width="44.3" height="2.4"/>
			</g>
			<g>
				
					<rect x="700.3" y="90.2" transform="matrix(0.7066 -0.7076 0.7076 0.7066 126.3171 529.3753)" class="st0" width="2.4" height="44.3"/>
			</g>
			<g>
				
					<rect x="679.4" y="111.2" transform="matrix(0.7071 -0.7071 0.7071 0.7071 125.999 528.9362)" class="st0" width="44.3" height="2.4"/>
			</g>
			<g>
				
					<rect x="731.7" y="90.2" transform="matrix(0.7058 -0.7084 0.7084 0.7058 136.0243 552.2404)" class="st0" width="2.4" height="44.3"/>
			</g>
			<g>
				
					<rect x="710.7" y="111.2" transform="matrix(0.7071 -0.7071 0.7071 0.7071 135.1982 551.1174)" class="st0" width="44.3" height="2.4"/>
			</g>
			<g>
				
					<rect x="763" y="90.2" transform="matrix(0.7062 -0.708 0.708 0.7062 144.9797 574.0797)" class="st0" width="2.4" height="44.3"/>
			</g>
			<g>
				
					<rect x="742" y="111.2" transform="matrix(0.7072 -0.707 0.707 0.7072 144.3278 573.2042)" class="st0" width="44.3" height="2.4"/>
			</g>
			<g>
				
					<rect x="794.3" y="88.8" transform="matrix(0.7071 -0.7071 0.7071 0.7071 154.5909 594.9874)" class="st0" width="2.4" height="44.3"/>
			</g>
			<g>
				
					<rect x="775.7" y="114.5" transform="matrix(0.707 -0.7072 0.7072 0.707 150.0961 593.7558)" class="st0" width="31.9" height="2.4"/>
			</g>
			<polygon class="st9" points="496.7,137.8 538.3,137.8 550.3,128 484.7,128 			"/>
			<rect x="508.8" y="265.1" class="st17" width="9.9" height="12.8"/>
			<g>
				<polygon class="st17" points="514.3,272.2 538.9,137.8 537.7,137.7 513.8,268.3 497.3,137.7 496.1,137.8 513.1,272.2 				"/>
			</g>
			<g>
				<polygon class="st19" points="338.6,139.4 342.1,139.4 342.3,200.4 338.7,200.4 				"/>
				<polygon class="st19" points="373.5,200.4 369.9,200.4 369.7,139.4 373.3,139.4 				"/>
			</g>
			<polygon class="st19" points="341.2,181.9 356,196.7 370.8,181.9 372.5,183.6 357.7,198.4 359.7,200.4 356.3,200.4 356,200.1 
				355.7,200.4 352.3,200.4 354.3,198.4 339.5,183.6 			"/>
			<path class="st0" d="M407.3,196.5h-99.7c-2.1,0-3.9-1.7-3.9-3.9v-53.3c0-2.1,1.7-3.9,3.9-3.9h81.8c2.1,0,4.7,1.5,5.8,3.3l14,23.8
				c1.1,1.8,2,5.1,2,7.2v22.8C411.2,194.8,409.4,196.5,407.3,196.5z"/>
			<path class="st4" d="M314.7,191.9c-2.1,0-3.9-1.7-3.9-3.9v-52.5h-3.2c-2.1,0-3.9,1.7-3.9,3.9v53.3c0,2.1,1.7,3.9,3.9,3.9h99.7
				c2.1,0,3.9-1.7,3.9-3.9v-0.8H314.7z"/>
			<polygon class="st3" points="407,172.6 407,166.3 391,138.7 340.1,138.7 340.1,172.6 			"/>
			<rect x="338.3" y="94.7" class="st9" width="35" height="30.8"/>
			<g>
				<path class="st0" d="M231.1,97.9H288v13.3h-56.9V97.9z M285.5,100.1h-51.9v9h51.9V100.1z"/>
			</g>
			<rect x="230.9" y="97.7" class="st9" width="23.3" height="23"/>
			<rect x="285.3" y="95.9" class="st20" width="53.2" height="15.8"/>
			<polygon class="st9" points="344.3,0 357.6,0 368.5,27.6 343.4,27.6 			"/>
			<rect x="320.1" y="122.5" class="st20" width="67.3" height="13.1"/>
			<rect x="209.8" y="120.7" class="st7" width="68.5" height="7.4"/>
			<rect x="209.8" y="130" class="st7" width="68.5" height="7.4"/>
			<rect x="209.8" y="139.2" class="st7" width="68.5" height="7.4"/>
			<rect x="209.8" y="148.4" class="st7" width="68.5" height="7.4"/>
			<rect x="209.8" y="157.6" class="st7" width="68.5" height="7.4"/>
			<rect x="209.8" y="166.9" class="st7" width="68.5" height="7.4"/>
			<rect x="209.8" y="176.1" class="st7" width="68.5" height="7.4"/>
			<rect x="209.8" y="185.3" class="st7" width="68.5" height="7.4"/>
			<polygon class="st21" points="349.6,138.7 365.6,138.7 399.3,172.4 399.2,172.6 383.5,172.6 			"/>
			<polygon class="st21" points="371,172.6 340.1,141.6 340.1,138.7 346.5,138.7 380.4,172.6 			"/>
		</g>
		<rect x="290.9" y="579.1" class="st20" width="136.9" height="21.5"/>
		<rect x="290.9" y="593.5" class="st9" width="136.9" height="7.1"/>
		<polygon class="st6" points="413,579.1 307,579.1 314.5,527.8 405.6,527.8 		"/>
		<polygon class="st7" points="311.8,546.5 330.5,527.8 316.4,527.8 314.2,530.1 		"/>
		<polygon class="st7" points="345,527.8 309.3,563.5 307,579.1 307.8,579.1 359,527.8 		"/>
		<polygon class="st7" points="322.3,579.1 336.3,579.1 387.6,527.8 373.6,527.8 		"/>
		<polygon class="st7" points="364.9,579.1 406.9,537.1 405.6,527.8 402.1,527.8 350.8,579.1 		"/>
		<polygon class="st7" points="393.4,579.1 410.5,562 408.8,549.7 379.4,579.1 		"/>
	</g>
	<polygon id="XMLID_18_" class="st10" points="600.6,355.2 383.5,314.9 401.2,245.1 618.3,285.4 	"/>
	
		<rect id="XMLID_1531_" x="395.5" y="257.9" transform="matrix(0.969 0.247 -0.247 0.969 88.1409 -115.4132)" class="st22" width="217.3" height="71.6"/>
	<path class="st10" d="M612.3,583.2h-8.1l-13.9-41.8h81v-31.6c0.4,0.1,0.7,0.1,1.1,0.1c8.3,0,15,6.7,15,15v16.4H715v-16.4
		c0-8.3,6.7-15,15-15c4.2,0,7.6-3.4,7.6-7.6v-23.1v-1.7v-3.2v-4.4v-3.2v-4.4v-1.3v-1.9v-1.2v-49.3H735h-2.6h-2.7h-0.8H727h-2.7h-2.6
		h-2.7h-2.6h-2.7h-2.6h-2.7h-2.6h-2.7h-2.6h-2.7h-2.6h-2.7h-0.9h-1.7h-0.8h-2h-2.6h-2.7h-2.6h-2.7h-1h-1.6h-1.2v-5.9v-5.3
		l-16.8-14.5v5.3v1.4h-1.6v0h-0.1h-1.2h-14.5h-15.8v42.1l-9.7-17.1h-3.9l-0.4,42.2c0.9,0.4,4.1,1.8,4.8,2.5c3.2,3.1,3.2,8.2,0,11.4
		c-3.1,3.1-8.3,3.2-11.4,0c-3.2-3.1-3.2-8.3,0-11.4c0.7-0.7,3.1-2.2,3.9-2.6l1-42.1h-3.8l-25.6,43.8l12.4,38.7l2.5,7.8h-11.4v82.4
		h-0.2v-0.3c0-1.3-1.1-2.4-2.4-2.4c-1.3,0-2.4,1.1-2.4,2.4v0.3h-3.4v-0.3c0-1.3-1.1-2.4-2.4-2.4c-1.3,0-2.4,1.1-2.4,2.4v0.3h-3.4
		v-0.3c0-1.3-1.1-2.4-2.4-2.4c-1.3,0-2.4,1.1-2.4,2.4v0.3h-7.8v7.1v6.4h60.5V583.2z"/>
	<g id="XMLID_19_">
		<g id="XMLID_483_">
			<path id="XMLID_464_" class="st22" d="M672.1,479.2v23.1c0,4.2,3.4,7.6,7.6,7.6c8.3,0,15,6.7,15,15v62.3
				c0,8.1,6.9,14.5,15.2,13.7c7.2-0.7,12.3-7.3,12.3-14.5v-61.5c0-8.3,6.7-15,15-15c4.2,0,7.6-3.4,7.6-7.6v-23.1H672.1z
				 M703.8,586.3c0-2.6,2.1-4.8,4.8-4.8c2.6,0,4.8,2.1,4.8,4.8c0,2.6-2.1,4.8-4.8,4.8C705.9,591,703.8,588.9,703.8,586.3z"/>
			
				<rect id="XMLID_467_" x="672.1" y="408.3" transform="matrix(-1 -1.224647e-16 1.224647e-16 -1 1417.077 869.1358)" class="st23" width="72.8" height="52.5"/>
			
				<rect id="XMLID_468_" x="742.2" y="408.3" transform="matrix(-1 -1.224647e-16 1.224647e-16 -1 1487.1455 869.1358)" class="st24" width="2.7" height="52.5"/>
			
				<rect id="XMLID_470_" x="736.9" y="408.3" transform="matrix(-1 -1.224647e-16 1.224647e-16 -1 1476.4471 869.1358)" class="st24" width="2.7" height="52.5"/>
			
				<rect id="XMLID_471_" x="731.5" y="408.3" transform="matrix(-1 -1.224647e-16 1.224647e-16 -1 1465.7461 869.1358)" class="st24" width="2.7" height="52.5"/>
			
				<rect id="XMLID_472_" x="726.2" y="408.3" transform="matrix(-1 -1.224647e-16 1.224647e-16 -1 1455.0449 869.1358)" class="st24" width="2.7" height="52.5"/>
			
				<rect id="XMLID_473_" x="720.8" y="408.3" transform="matrix(-1 -1.224647e-16 1.224647e-16 -1 1444.3456 869.1358)" class="st24" width="2.7" height="52.5"/>
			
				<rect id="XMLID_474_" x="715.5" y="408.3" transform="matrix(-1 -1.224647e-16 1.224647e-16 -1 1433.6445 869.1358)" class="st24" width="2.7" height="52.5"/>
			
				<rect id="XMLID_54_" x="710.1" y="408.3" transform="matrix(-1 -1.224647e-16 1.224647e-16 -1 1422.9432 869.1358)" class="st24" width="2.7" height="52.5"/>
			
				<rect id="XMLID_53_" x="704.8" y="408.3" transform="matrix(-1 -1.224647e-16 1.224647e-16 -1 1412.2422 869.1358)" class="st24" width="2.7" height="52.5"/>
			
				<rect id="XMLID_52_" x="699.4" y="408.3" transform="matrix(-1 -1.224647e-16 1.224647e-16 -1 1401.5389 869.1358)" class="st24" width="2.7" height="52.5"/>
			
				<rect id="XMLID_51_" x="694.1" y="408.3" transform="matrix(-1 -1.224647e-16 1.224647e-16 -1 1390.8417 869.1358)" class="st24" width="2.7" height="52.5"/>
			
				<rect id="XMLID_50_" x="688.7" y="408.3" transform="matrix(-1 -1.224647e-16 1.224647e-16 -1 1380.1406 869.1358)" class="st24" width="2.7" height="52.5"/>
			
				<rect id="XMLID_480_" x="683.4" y="408.3" transform="matrix(-1 -1.224647e-16 1.224647e-16 -1 1369.4413 869.1358)" class="st24" width="2.7" height="52.5"/>
			
				<rect id="XMLID_481_" x="678" y="408.3" transform="matrix(-1 -1.224647e-16 1.224647e-16 -1 1358.7402 869.1358)" class="st24" width="2.7" height="52.5"/>
			
				<rect id="XMLID_482_" x="672.7" y="408.3" transform="matrix(-1 -1.224647e-16 1.224647e-16 -1 1348.0389 869.1358)" class="st24" width="2.7" height="52.5"/>
			
				<rect id="XMLID_457_" x="672.1" y="457.7" transform="matrix(-1 -1.224647e-16 1.224647e-16 -1 1417.077 936.8301)" class="st25" width="72.8" height="21.5"/>
			
				<rect id="XMLID_458_" x="672.1" y="458.9" transform="matrix(-1 -1.224647e-16 1.224647e-16 -1 1417.077 921.0186)" class="st11" width="72.8" height="3.2"/>
			
				<rect id="XMLID_462_" x="672.1" y="466.6" transform="matrix(-1 -1.224647e-16 1.224647e-16 -1 1417.077 936.3506)" class="st11" width="72.8" height="3.2"/>
			
				<rect id="XMLID_466_" x="672.1" y="474.2" transform="matrix(-1 -1.224647e-16 1.224647e-16 -1 1417.077 951.6787)" class="st11" width="72.8" height="3.2"/>
			<path id="XMLID_489_" class="st26" d="M708.5,479.2v102.3c-2.6,0-4.8,2.1-4.8,4.8c0,2.6,2.1,4.8,4.8,4.8v9.8
				c-7.6,0-13.8-6.1-13.8-13.7v-62.3c0-8.3-6.7-15-15-15c-4.2,0-7.6-3.4-7.6-7.6v-23.1H708.5z"/>
			<path id="XMLID_469_" class="st2" d="M736.1,424.8c0,3.8-3.1,6.9-6.9,6.9c-3.8,0-6.9-3.1-6.9-6.9c0,0,0-1.7,0-3.8
				c0-2.1-2.5-3.8-5.6-3.8c-3.1,0-5.6,3.8-5.6,8.6V437c0,3.8-3.1,6.9-6.9,6.9h-1.1c-3.8,0-6.9-3.1-6.9-6.9v-28.7h40V424.8z"/>
			<g id="XMLID_485_">
				<path id="XMLID_486_" class="st27" d="M719.1,414.1c3.1,0,5.6,1.7,5.6,3.8c0,2.1,0,3.8,0,3.8c0,3.8,3.1,6.9,6.9,6.9
					c1.5,0,2.8-0.6,4-1.4c-1,2.6-3.5,4.5-6.4,4.5c-3.8,0-6.9-3.1-6.9-6.9c0,0,0-1.7,0-3.8c0-2.1-2.5-3.8-5.6-3.8
					c-0.7,0-1.4,0.2-2,0.6C715.6,415.7,717.2,414.1,719.1,414.1z"/>
				<path id="XMLID_487_" class="st27" d="M698.5,408.3v25.5c0,3.8,3.1,6.9,6.9,6.9h1.1c1.5,0,2.8-0.6,4-1.4c-1,2.6-3.5,4.5-6.5,4.5
					h-1.1c-3.8,0-6.9-3.1-6.9-6.9v-28.7H698.5z"/>
			</g>
		</g>
		<g id="XMLID_40_">
			<rect id="XMLID_407_" x="629.5" y="389.3" class="st6" width="31.5" height="211.6"/>
			<rect id="XMLID_406_" x="645.3" y="389.3" class="st23" width="20.3" height="211.6"/>
			<rect id="XMLID_405_" x="656.6" y="596.1" class="st14" width="9" height="2.3"/>
			<rect id="XMLID_404_" x="661.1" y="586.7" class="st14" width="4.5" height="2.3"/>
			<rect id="XMLID_403_" x="661.1" y="577.3" class="st14" width="4.5" height="2.3"/>
			<rect id="XMLID_49_" x="661.1" y="567.9" class="st14" width="4.5" height="2.3"/>
			<rect id="XMLID_401_" x="661.1" y="558.5" class="st14" width="4.5" height="2.3"/>
			<rect id="XMLID_400_" x="656.6" y="549.1" class="st14" width="9" height="2.3"/>
			<rect id="XMLID_399_" x="661.1" y="539.7" class="st14" width="4.5" height="2.3"/>
			<rect id="XMLID_398_" x="661.1" y="530.3" class="st14" width="4.5" height="2.3"/>
			<rect id="XMLID_397_" x="661.1" y="520.9" class="st14" width="4.5" height="2.3"/>
			<rect id="XMLID_396_" x="661.1" y="511.5" class="st14" width="4.5" height="2.3"/>
			<rect id="XMLID_395_" x="656.6" y="502.1" class="st14" width="9" height="2.3"/>
			<rect id="XMLID_394_" x="661.1" y="492.7" class="st14" width="4.5" height="2.3"/>
			<rect id="XMLID_393_" x="661.1" y="483.3" class="st14" width="4.5" height="2.3"/>
			<rect id="XMLID_392_" x="661.1" y="473.9" class="st14" width="4.5" height="2.3"/>
			<rect id="XMLID_391_" x="661.1" y="464.5" class="st14" width="4.5" height="2.3"/>
			<rect id="XMLID_48_" x="656.6" y="455.1" class="st14" width="9" height="2.3"/>
			<rect id="XMLID_47_" x="661.1" y="445.7" class="st14" width="4.5" height="2.3"/>
			<rect id="XMLID_46_" x="661.1" y="436.3" class="st14" width="4.5" height="2.3"/>
			<rect id="XMLID_45_" x="661.1" y="426.9" class="st14" width="4.5" height="2.3"/>
			<rect id="XMLID_44_" x="661.1" y="417.5" class="st14" width="4.5" height="2.3"/>
			<rect id="XMLID_43_" x="656.6" y="408.1" class="st14" width="9" height="2.3"/>
			<rect id="XMLID_42_" x="661.1" y="398.7" class="st14" width="4.5" height="2.3"/>
			<rect id="XMLID_41_" x="661.1" y="389.3" class="st14" width="4.5" height="2.3"/>
		</g>
		<polygon id="XMLID_437_" class="st10" points="632.4,504.6 647.7,458.4 630,427.1 630,600.9 644.2,600.9 644.2,504.6 		"/>
		<g id="XMLID_465_">
			<path id="XMLID_449_" class="st28" d="M614.3,513.7l0.2,0l12,0l18.3-55.4l-25-44.1h-3.9l-0.4,42.2c0.9,0.4,4.1,1.8,4.8,2.5
				c3.2,3.1,3.2,8.2,0,11.4c-3.1,3.1-8.3,3.2-11.4,0c-3.2-3.1-3.2-8.3,0-11.4c0.7-0.7,3.1-2.2,3.9-2.6l1-42.1H610l-25.6,43.8
				l17.9,55.5L614.3,513.7z"/>
			<polygon id="XMLID_39_" class="st29" points="602.3,513.6 614.4,513.7 614.6,513.7 626.5,513.8 632.1,496.8 596.8,496.8 			"/>
			<rect id="XMLID_440_" x="587.9" y="504.6" class="st11" width="53.3" height="96.3"/>
			<rect id="XMLID_21_" x="614.6" y="504.6" class="st7" width="26.7" height="96.3"/>
		</g>
		<path id="XMLID_490_" class="st10" d="M681.5,477.4h2.2v-28v-1.9v-16.4h-1.3l0,0v-22.8h-1.6H678h-2.6h-2.7h-0.5v49.3v1.2v1.9v1.3
			v4.4v3.2v4.4v3.2v1.7l0,0v23.1c0,4.2,3.4,7.6,7.6,7.6c0.6,0,1.2,0.1,1.8,0.2V477.4z"/>
		<polygon id="XMLID_491_" class="st10" points="665.6,596.1 665.6,589.1 665.6,586.7 665.6,579.7 665.6,577.3 665.6,570.3 
			665.6,567.9 665.6,560.9 665.6,558.5 665.6,551.5 665.6,549.1 665.6,542.1 665.6,539.7 665.6,532.7 665.6,530.3 665.6,523.3 
			665.6,520.9 665.6,513.9 665.6,511.5 665.6,504.5 665.6,502.1 665.6,495.1 665.6,492.7 665.6,485.7 665.6,483.3 665.6,476.3 
			665.6,473.9 665.6,466.9 665.6,464.5 665.6,457.5 665.6,455.1 665.6,448.1 665.6,445.7 665.6,438.7 665.6,436.3 665.6,429.3 
			665.6,426.9 665.6,419.9 665.6,417.5 665.6,410.5 665.6,408.1 665.6,401.1 665.6,398.7 665.6,391.7 665.6,389.3 665.6,389.3 
			661.1,389.3 661.1,389.3 661.1,389.3 659.8,389.3 659.8,431.2 659.8,431.2 656.5,431.2 656.5,447.5 656.5,449.5 656.5,477.4 
			659.8,477.4 659.8,600.9 661.1,600.9 665.6,600.9 665.6,598.5 		"/>
		<g id="XMLID_484_">
			<rect id="XMLID_450_" x="662.7" y="475.2" class="st27" width="15.9" height="125.7"/>
			<rect id="XMLID_451_" x="670.7" y="475.2" class="st2" width="8" height="125.7"/>
			<rect id="XMLID_452_" x="659.4" y="447.5" class="st30" width="21.4" height="29.9"/>
			<rect id="XMLID_456_" x="659.4" y="447.5" class="st2" width="11.7" height="29.9"/>
			<rect id="XMLID_454_" x="659.4" y="447.5" class="st31" width="21.4" height="1.9"/>
			<rect id="XMLID_453_" x="659.4" y="431.2" class="st2" width="21.4" height="16.4"/>
			<polygon id="XMLID_455_" class="st19" points="679.5,397.2 662.7,382.6 662.7,431.2 679.5,431.2 			"/>
			<polygon id="XMLID_459_" class="st0" points="662.7,388 662.7,431.2 679.5,431.2 679.5,402.5 			"/>
			<polygon id="XMLID_460_" class="st4" points="671.1,431.2 679.5,431.2 679.5,402.5 671.1,395.2 			"/>
		</g>
		<g id="XMLID_20_">
			<polygon id="XMLID_448_" class="st8" points="750.6,587.1 769.3,594.1 750.6,601.2 746.9,601.2 746.9,587.1 			"/>
			<polygon id="XMLID_447_" class="st9" points="764.5,592.2 769.3,594.1 764.5,596.1 			"/>
			<polygon id="XMLID_446_" class="st6" points="585.3,596.5 585.3,601.2 750.8,601.2 756.6,598.8 750.8,596.5 			"/>
			<polygon id="XMLID_445_" class="st32" points="585.3,591.8 585.3,596.5 750.8,596.5 756.6,594.1 750.8,591.8 			"/>
			<polygon id="XMLID_444_" class="st28" points="585.3,587.1 585.3,591.8 750.8,591.8 756.6,589.4 750.8,587.1 			"/>
			
				<rect id="XMLID_443_" x="560.1" y="586" transform="matrix(6.123234e-17 -1 1 6.123234e-17 -26.9829 1161.2632)" class="st33" width="14.1" height="16.2"/>
			
				<rect id="XMLID_442_" x="563.6" y="589.6" transform="matrix(6.123234e-17 -1 1 6.123234e-17 -30.5171 1164.7974)" class="st5" width="7.1" height="16.2"/>
			<path id="XMLID_441_" class="st9" d="M574.9,586.7c0-1.3,1.1-2.4,2.4-2.4c1.3,0,2.4,1.1,2.4,2.4v0.3h3.4v-0.3
				c0-1.3,1.1-2.4,2.4-2.4c1.3,0,2.4,1.1,2.4,2.4v14.8c0,1.3-1.1,2.4-2.4,2.4c-1.3,0-2.4-1.1-2.4-2.4v-0.3h-3.4v0.3
				c0,1.3-1.1,2.4-2.4,2.4c-1.3,0-2.4-1.1-2.4-2.4v-0.3h-3.4v0.3c0,1.3-1.1,2.4-2.4,2.4c-1.3,0-2.4-1.1-2.4-2.4v-14.8
				c0-1.3,1.1-2.4,2.4-2.4c1.3,0,2.4,1.1,2.4,2.4v0.3h3.4V586.7z"/>
			<path id="XMLID_439_" class="st9" d="M587.7,601.5c0,1.3-1.1,2.4-2.4,2.4c-1.3,0-2.4-1.1-2.4-2.4v-0.3h-3.4v0.3
				c0,1.3-1.1,2.4-2.4,2.4c-1.3,0-2.4-1.1-2.4-2.4v-0.3h-3.4v0.3c0,1.3-1.1,2.4-2.4,2.4c-1.3,0-2.4-1.1-2.4-2.4v-7.4h20.9V601.5z"/>
			<path id="XMLID_438_" class="st20" d="M574.9,586.7c0-1.3,1.1-2.4,2.4-2.4c1.3,0,2.4,1.1,2.4,2.4v0.3h3.4v-0.3
				c0-1.3,1.1-2.4,2.4-2.4c1.3,0,2.4,1.1,2.4,2.4v7.4h-20.9v-7.4c0-1.3,1.1-2.4,2.4-2.4c1.3,0,2.4,1.1,2.4,2.4v0.3h3.4V586.7z"/>
		</g>
	</g>
	<path class="st10" d="M169.8,600.3v-37.2v-4l19.3,9.8c1.8,0.9,3.8-0.6,3.4-2.6l-7.3-39.4c-0.1-0.8,0.1-1.6,0.7-2.1l28.3-28.3
		c1.4-1.4,0.6-3.8-1.4-4l-39.7-5.2c-0.8-0.1-1.5-0.6-1.8-1.3l-18.2-35.7c-0.6-1.2-2-1.5-3.1-1v119c0,8,0,14.7,0,15.8h-15.1
		c-0.2,0-0.4,0.1-0.6,0.1v10.5l2.6,3.4c0.3,0.3,0.5,0.6,0.8,0.9L152,593L169.8,600.3z"/>
	<g id="XMLID_267_">
		<polygon id="XMLID_751_" class="st34" points="164.4,600.3 146.6,593 128.8,600.3 128.8,544.7 164.4,544.7 		"/>
		<polygon id="XMLID_57_" class="st35" points="146.6,593 146.6,593 164.4,600.3 164.4,544.7 146.6,544.7 		"/>
		<path id="XMLID_56_" class="st10" d="M164.4,544.7h-17.8h-17.8v19.1l16.9-9.2c0.7-0.4,1.5-0.4,2.2,0l16.5,8.4V544.7z"/>
		<path id="XMLID_715_" class="st6" d="M183.6,568.9l-35.7-18.2c-0.7-0.4-1.5-0.3-2.2,0l-35.2,19.1c-1.7,0.9-3.8-0.5-3.5-2.5
			l6.3-39.6c0.1-0.8-0.1-1.6-0.7-2.1l-29.1-27.6c-1.4-1.4-0.7-3.8,1.3-4.1l39.6-6.3c0.8-0.1,1.4-0.6,1.8-1.3l17.3-36.2
			c0.8-1.8,3.4-1.8,4.3-0.1l18.2,35.7c0.4,0.7,1,1.2,1.8,1.3l39.7,5.2c2,0.3,2.8,2.6,1.4,4l-28.3,28.3c-0.6,0.6-0.8,1.3-0.7,2.1
			l7.3,39.4C187.4,568.3,185.4,569.8,183.6,568.9z"/>
		<path id="XMLID_55_" class="st23" d="M175.5,517.9c0,16-13,28.9-28.9,28.9c-16,0-28.9-13-28.9-28.9c0-16,13-28.9,28.9-28.9
			C162.6,489,175.5,501.9,175.5,517.9z"/>
	</g>
	<g id="XMLID_58_">
		
			<rect id="XMLID_75_" x="8.9" y="446.8" transform="matrix(0.3064 -0.9519 0.9519 0.3064 -424.971 329.6608)" class="st8" width="9.6" height="19.4"/>
		
			<rect id="XMLID_74_" x="17.4" y="433.6" transform="matrix(0.7429 -0.6694 0.6694 0.7429 -291.0381 128.8661)" class="st8" width="9.6" height="19.4"/>
		
			<rect id="XMLID_73_" x="31.4" y="426.5" transform="matrix(0.9786 -0.2057 0.2057 0.9786 -88.954 16.7738)" class="st8" width="9.6" height="19.4"/>
		
			<rect id="XMLID_72_" x="47" y="427.4" transform="matrix(0.9494 0.3141 -0.3141 0.9494 139.9052 5.8398)" class="st8" width="9.6" height="19.4"/>
		
			<rect id="XMLID_71_" x="60.1" y="436" transform="matrix(0.6635 0.7482 -0.7482 0.6635 355.3138 101.4253)" class="st8" width="9.6" height="19.4"/>
		
			<rect id="XMLID_70_" x="67.1" y="450" transform="matrix(0.1981 0.9802 -0.9802 0.1981 508.2572 298.1927)" class="st8" width="9.6" height="19.4"/>
		
			<rect id="XMLID_69_" x="66.1" y="465.7" transform="matrix(-0.3213 0.947 -0.947 -0.3213 543.8043 560.9396)" class="st8" width="9.6" height="19.4"/>
		
			<rect id="XMLID_68_" x="57.4" y="478.7" transform="matrix(-0.7533 0.6576 -0.6576 -0.7533 430.176 815.3541)" class="st8" width="9.6" height="19.4"/>
		
			<rect id="XMLID_67_" x="43.3" y="485.5" transform="matrix(-0.9817 0.1904 -0.1904 -0.9817 189.6566 972.2282)" class="st8" width="9.6" height="19.4"/>
		
			<rect id="XMLID_66_" x="27.7" y="484.4" transform="matrix(-0.9445 -0.3284 0.3284 -0.9445 -99.0818 971.4833)" class="st8" width="9.6" height="19.4"/>
		
			<rect id="XMLID_65_" x="14.8" y="475.6" transform="matrix(-0.652 -0.7582 0.7582 -0.652 -335.6609 816.5396)" class="st8" width="9.6" height="19.4"/>
		
			<rect id="XMLID_268_" x="8" y="461.5" transform="matrix(-0.183 -0.9831 0.9831 -0.183 -448.1008 569.9636)" class="st8" width="9.6" height="19.4"/>
		<path id="XMLID_62_" class="st8" d="M11.2,455.6c-5.6,17.2,3.9,35.7,21.2,41.3c17.2,5.6,35.7-3.9,41.3-21.2
			c5.5-17.2-3.9-35.7-21.2-41.3C35.2,428.9,16.7,438.4,11.2,455.6z M61,471.7c-3.3,10.3-14.3,15.9-24.6,12.6
			C26.1,481,20.4,470,23.8,459.7c3.3-10.3,14.3-15.9,24.6-12.6C58.7,450.4,64.3,461.4,61,471.7z"/>
		<path id="XMLID_59_" class="st19" d="M19.4,458.3c-4.1,12.7,2.9,26.3,15.6,30.4c12.7,4.1,26.3-2.9,30.4-15.6
			c4.1-12.7-2.9-26.3-15.6-30.4C37.1,438.6,23.5,445.6,19.4,458.3z M61,471.7c-3.3,10.3-14.3,15.9-24.6,12.6
			C26.1,481,20.4,470,23.8,459.7c3.3-10.3,14.3-15.9,24.6-12.6C58.7,450.4,64.3,461.4,61,471.7z"/>
	</g>
	<polygon class="st10" points="771.7,407.6 771.7,432.7 771.7,439.2 771.7,450.6 771.7,457.1 771.7,468.5 771.7,475 771.7,486.4 
		771.7,492.9 771.7,504.3 771.7,510.8 771.7,522.2 771.7,528.8 771.7,540.1 771.7,546.7 771.7,558.1 771.7,564.6 771.7,576 
		771.7,582.5 771.7,600.6 795,600.6 795,431 	"/>
	<path class="st10" d="M880.9,600.6c3.4,0,6.2-2.8,6.2-6.2v-11.8h-82.9V475.9l82.9,82.9V523L778.9,414.9v25.1v6.5v11.4v6.5v11.4v6.5
		v11.4v6.5v11.4v6.5v11.4v6.5v11.4v6.5v11.4v6.5v11.4v6.5v10.8H880.9z"/>
	<g id="XMLID_718_">
		<g id="XMLID_752_">
			<path id="XMLID_753_" class="st6" d="M778.9,407.6l192.9,192.9H778.9V407.6z M804.2,468.6v106.7h106.7L804.2,468.6z"/>
		</g>
		<g id="XMLID_747_">
			<rect id="XMLID_631_" x="778.9" y="432.7" class="st7" width="13.2" height="6.5"/>
		</g>
		<g id="XMLID_746_">
			<rect id="XMLID_630_" x="778.9" y="450.6" class="st7" width="13.2" height="6.5"/>
		</g>
		<g id="XMLID_745_">
			<rect id="XMLID_629_" x="778.9" y="468.5" class="st7" width="13.2" height="6.5"/>
		</g>
		<g id="XMLID_744_">
			<rect id="XMLID_100_" x="778.9" y="486.4" class="st7" width="13.2" height="6.5"/>
		</g>
		<g id="XMLID_743_">
			<rect id="XMLID_627_" x="778.9" y="504.3" class="st7" width="13.2" height="6.5"/>
		</g>
		<g id="XMLID_742_">
			<rect id="XMLID_99_" x="778.9" y="522.2" class="st7" width="13.2" height="6.5"/>
		</g>
		<g id="XMLID_741_">
			<rect id="XMLID_625_" x="778.9" y="540.1" class="st7" width="13.2" height="6.5"/>
		</g>
		<g id="XMLID_740_">
			<rect id="XMLID_624_" x="778.9" y="558.1" class="st7" width="13.2" height="6.5"/>
		</g>
		<g id="XMLID_739_">
			<rect id="XMLID_98_" x="778.9" y="576" class="st7" width="13.2" height="6.5"/>
		</g>
		<g id="XMLID_738_">
			<rect id="XMLID_622_" x="937.5" y="586.3" class="st7" width="6.5" height="13.2"/>
		</g>
		<g id="XMLID_737_">
			<rect id="XMLID_97_" x="919.6" y="586.3" class="st7" width="6.5" height="13.2"/>
		</g>
		<g id="XMLID_725_">
			<rect id="XMLID_620_" x="901.7" y="586.3" class="st7" width="6.5" height="13.2"/>
		</g>
		<g id="XMLID_724_">
			<rect id="XMLID_96_" x="883.8" y="586.3" class="st7" width="6.5" height="13.2"/>
		</g>
		<g id="XMLID_723_">
			<rect id="XMLID_618_" x="865.9" y="586.3" class="st7" width="6.5" height="13.2"/>
		</g>
		<g id="XMLID_722_">
			<rect id="XMLID_95_" x="848" y="586.3" class="st7" width="6.5" height="13.2"/>
		</g>
		<g id="XMLID_721_">
			<rect id="XMLID_616_" x="830.1" y="586.3" class="st7" width="6.5" height="13.2"/>
		</g>
		<g id="XMLID_720_">
			<rect id="XMLID_615_" x="812.2" y="586.3" class="st7" width="6.5" height="13.2"/>
		</g>
		<g id="XMLID_719_">
			<rect id="XMLID_613_" x="794.2" y="586.3" class="st7" width="6.5" height="13.2"/>
		</g>
	</g>
	<path class="st10" d="M741.8,251.7c0-4.2-3.4-7.6-7.6-7.6h-30.4v81.3h38V251.7z"/>
	<rect x="741.7" y="291.8" class="st10" width="69.8" height="33.5"/>
	<g>
		<g>
			<g>
				<path class="st14" d="M756.8,214.3c-0.3,0-0.5-0.1-0.7-0.4L726,175.2c-0.3-0.4-0.2-1,0.2-1.3c0.4-0.3,1-0.2,1.3,0.2l30.1,38.8
					c0.3,0.4,0.2,1-0.2,1.3C757.2,214.2,757,214.3,756.8,214.3z"/>
			</g>
			<g>
				<path class="st14" d="M760.9,214.3c-0.4,0-0.7-0.2-0.9-0.6l-16.4-40.1c-0.2-0.5,0-1,0.5-1.2c0.5-0.2,1,0,1.2,0.5l16.4,40.2
					c0.2,0.5,0,1-0.5,1.2C761.1,214.3,761,214.3,760.9,214.3z"/>
			</g>
			<g>
				<path class="st14" d="M769.1,214.3c-0.1,0-0.2,0-0.3-0.1c-0.5-0.2-0.7-0.7-0.5-1.2l15.8-39.7c0.2-0.5,0.7-0.7,1.2-0.5
					c0.5,0.2,0.7,0.7,0.5,1.2L770,213.7C769.9,214.1,769.5,214.3,769.1,214.3z"/>
			</g>
			<g>
				<path class="st14" d="M773.3,214.3c-0.2,0-0.4-0.1-0.6-0.2c-0.4-0.3-0.5-0.9-0.2-1.3l29.9-38.5c0.3-0.4,0.9-0.5,1.3-0.2
					c0.4,0.3,0.5,0.9,0.2,1.3L774,214C773.8,214.2,773.6,214.3,773.3,214.3z"/>
			</g>
			<g>
				<path class="st14" d="M765,214.3c-0.5,0-0.9-0.4-0.9-0.9v-38.1c0-0.5,0.4-0.9,0.9-0.9c0.5,0,0.9,0.4,0.9,0.9v38.1
					C765.9,213.9,765.5,214.3,765,214.3z"/>
			</g>
			<path class="st29" d="M764.5,135.7C764.5,135.7,764.5,135.7,764.5,135.7C764.5,135.7,764.5,135.7,764.5,135.7c-0.3,0-0.5,0-0.8,0
				c-0.2,0-0.4,0-0.6,0c-0.4,0-0.8,0-1.2,0c-20.8,1.1-37.3,20.6-37.3,41.6l9.7-4.6l0.1-0.1l9.7,5.1l9.7-5.1l0.2,0.1l9.5,5l9.7-5.1
				l0.5,0.3l9.2,4.9l9.7-5.1l0.4,0.2l9.9,4.5C802.9,156,785.8,136.2,764.5,135.7z"/>
			<g>
				<path class="st0" d="M763.2,134.5c-5.1,3.3-22.8,15.9-27.7,37.1l0.1-0.1l9.7,5.1l9.7-5.1l0.2,0.1c0.7-9.6,2.9-25.9,9.1-37.2
					C764,134.5,763.6,134.5,763.2,134.5z"/>
				<path class="st35" d="M765.8,134.5L765.8,134.5c5.2,3.2,23.5,15.9,28.4,37.2l9.9,4.5C804.1,154.8,787,134.9,765.8,134.5z"/>
				<path class="st0" d="M765.8,134.5c6.3,11.3,8.4,27.7,9.2,37.3l9.2,4.9l9.7-5.1l0.4,0.2C789.3,150.4,770.9,137.7,765.8,134.5z"/>
				<path class="st35" d="M765.8,134.5c-0.3,0-0.5,0-0.8,0c-0.2,0-0.4,0-0.6,0c-6.3,11.2-8.4,27.5-9.1,37.2l9.5,5l9.7-5.1l0.5,0.3
					C774.2,162.1,772,145.8,765.8,134.5L765.8,134.5z"/>
				<path class="st35" d="M763.2,134.5c-20.8,1.1-37.3,20.6-37.3,41.6l9.7-4.6C740.4,150.4,758.1,137.8,763.2,134.5z"/>
			</g>
		</g>
		<g>
			<rect x="709.2" y="212.9" class="st0" width="107" height="106.9"/>
			<rect x="714.2" y="228.8" class="st9" width="97.3" height="86.7"/>
			<rect x="709.2" y="212.9" class="st35" width="107" height="11.5"/>
			<g>
				<path class="st0" d="M725.6,271.4l13.1-6.8v2l-11.1,5.5v0.1l11.1,5.5v2l-13.1-6.8V271.4z"/>
				<path class="st0" d="M799.8,272.9l-13.1,6.7v-2l11.1-5.5v-0.1l-11.1-5.5v-2l13.1,6.7V272.9z"/>
			</g>
			<g>
				<path class="st0" d="M777.4,277.6l-2.4-2l0.5-3.1l2.9-1.1l0,0c0-1.2-0.2-2.4-0.6-3.6l0,0.1l-3.1-0.2l-1.4-2.8l1.7-2.6h0.1
					c-0.4-0.5-0.8-0.9-1.2-1.4c-0.4-0.4-0.9-0.8-1.4-1.2l0,0l-2.6,1.7l-2.8-1.4l-0.2-3.1l0,0c-1.2-0.3-2.4-0.5-3.6-0.6l0,0l-1.1,2.9
					l-3.1,0.5l-2-2.4l0-0.1c-1.1,0.4-2.1,0.9-3.2,1.6l0.1,0l0.8,3l-2.2,2.2l-3-0.8l0,0c-0.7,1-1.2,2.1-1.7,3.2l0,0l2.4,2l-0.5,3.1
					l-2.9,1.1l0,0c0.1,1.2,0.2,2.4,0.6,3.6l0,0l3.1,0.2l1.4,2.8l-1.7,2.6h0c0.4,0.5,0.8,1,1.3,1.4c0.4,0.4,0.9,0.8,1.3,1.2v0
					l2.6-1.7l2.8,1.4l0.2,3.1l0,0c1.2,0.3,2.4,0.5,3.6,0.6l0-0.1l1.1-2.9l3.1-0.5l2,2.4l0,0c1.1-0.4,2.2-1,3.3-1.7l-0.1,0l-0.8-3
					l2.2-2.2l3,0.8l0,0C776.4,279.8,777,278.7,777.4,277.6L777.4,277.6z M756.1,278.7c-3.6-3.6-3.7-9.5,0-13.2
					c3.6-3.6,9.5-3.7,13.2,0c3.7,3.6,3.7,9.5,0,13.2C765.6,282.3,759.7,282.3,756.1,278.7z"/>
				<path class="st36" d="M764.6,262.2c-5.5-1.1-10.7,2.5-11.8,7.9c-1.1,5.5,2.5,10.7,7.9,11.8c5.5,1.1,10.7-2.5,11.8-7.9
					C773.6,268.6,770,263.3,764.6,262.2z M761.3,278.8c-3.7-0.7-6.1-4.3-5.4-8c0.7-3.7,4.3-6.1,8-5.4c3.7,0.7,6.1,4.3,5.4,8
					C768.6,277.1,765,279.6,761.3,278.8z"/>
			</g>
			<path class="st0" d="M718.3,218.6c0,0.8-0.6,1.4-1.4,1.4c-0.8,0-1.4-0.6-1.4-1.4c0-0.8,0.6-1.4,1.4-1.4
				C717.6,217.2,718.3,217.8,718.3,218.6z"/>
			<path class="st0" d="M724.2,218.6c0,0.8-0.6,1.4-1.4,1.4c-0.8,0-1.4-0.6-1.4-1.4c0-0.8,0.6-1.4,1.4-1.4
				C723.6,217.2,724.2,217.8,724.2,218.6z"/>
			<path class="st0" d="M730.2,218.6c0,0.8-0.6,1.4-1.4,1.4c-0.8,0-1.4-0.6-1.4-1.4c0-0.8,0.6-1.4,1.4-1.4
				C729.6,217.2,730.2,217.8,730.2,218.6z"/>
		</g>
	</g>
	<path class="st10" d="M864.2,582.3c0-0.9-0.2-1.7-0.6-2.4l23.5-76.5v-24.4l-6.8,22.2l-15.7,0.1l0-1.2l-4.4,0l0,4.4l4.4,0l0-1.4
		l15.1-0.1l-22.9,74.5c-2,0.8-3.3,2.8-3.3,5c0,1.2,0.4,2.3,1.1,3.2c-0.3,2.6-0.1,5,0.7,8.2l0,0c0,0.1,0,0.1,0.1,0.2
		c0.2,0.8,0.4,1.7,0.7,2.6c0,0.2,0.1,0.3,0.1,0.5c0.3,1.1,0.7,2.3,1.1,3.5l4.2-13.5C863.1,586.1,864.2,584.3,864.2,582.3z"/>
	<g>
		<g>
			<g>
				<polygon class="st4" points="961,502.2 868.6,503 868.6,501.3 961,500.4 				"/>
				
					<rect x="865.6" y="500.1" transform="matrix(1 -8.291704e-03 8.291704e-03 1 -4.1346 7.2129)" class="st37" width="4.4" height="4.4"/>
				<polygon class="st37" points="963,503.2 958.7,503.3 958.6,498.9 963,498.9 				"/>
				<path class="st0" d="M903.8,442.3l-42.8,139c-2,6.4-1.4,9.9,1.7,19.3l51.5-167.8C910.4,431.6,905.8,435.9,903.8,442.3z"/>
				<path class="st4" d="M909.9,433.6l-49.2,160.2c0.5,1.9,1.1,4.1,2,6.8l51.5-167.8C912.8,432.4,911.3,432.7,909.9,433.6z"/>
				<path class="st0" d="M914.1,432.8l53.4,166.8c2.8-9.4,3.3-12.5,1.3-18.9l-44.2-138.6C922.6,435.8,917.9,431.6,914.1,432.8z"/>
				<path class="st4" d="M917.9,433.2c-1.3-0.6-2.5-0.8-3.7-0.4l53.4,166.8c0.7-2.3,1.3-4.3,1.7-6L917.9,433.2z"/>
				<path class="st38" d="M918.4,433.5c0,0.6-0.5,1.2-1.2,1.2l-6,0.1c-0.6,0-1.2-0.5-1.2-1.2l-0.2-26.5c0-0.6,0.5-1.2,1.2-1.2l6-0.1
					c0.6,0,1.2,0.5,1.2,1.2L918.4,433.5z"/>
				<path class="st37" d="M922.6,457.2c0,1.7-1.3,7.3-3.1,7.3l-10.2,0.1c-1.7,0-3.2-5.5-3.2-7.2l-0.3-28.1c0-1.7,1.3-6.9,3.1-6.9
					l10.2-0.1c1.7,0,3.2,5.2,3.2,6.9L922.6,457.2z"/>
				<path class="st0" d="M918,432.6c0,2.1-1.7,3.9-3.8,3.9c-2.1,0-3.9-1.7-3.9-3.8c0-2.2,1.7-3.9,3.9-3.9
					C916.3,428.7,918,430.5,918,432.6z"/>
				<path class="st0" d="M919.4,452c0,2.8-2.2,5.1-5,5.1c-2.8,0-5.1-2.2-5.1-5c0-2.8,2.2-5.1,5-5.1C917.1,447,919.4,449.2,919.4,452
					z"/>
				<path class="st37" d="M869.7,582.3c0,3-2.4,5.4-5.3,5.4c-3,0-5.4-2.4-5.4-5.3c0-3,2.4-5.4,5.3-5.4
					C867.2,576.9,869.6,579.3,869.7,582.3z"/>
				<path class="st0" d="M866.1,582.3c0,1-0.8,1.8-1.8,1.8c-1,0-1.8-0.8-1.8-1.8c0-1,0.8-1.8,1.7-1.8
					C865.3,580.5,866.1,581.3,866.1,582.3z"/>
				<path class="st37" d="M971,581.3c0,3-2.4,5.4-5.3,5.4c-3,0-5.4-2.4-5.4-5.3c0-3,2.3-5.4,5.3-5.4
					C968.5,575.9,970.9,578.3,971,581.3z"/>
				<path class="st0" d="M967.4,581.3c0,1-0.8,1.8-1.8,1.8c-1,0-1.8-0.8-1.8-1.8c0-1,0.8-1.8,1.8-1.8
					C966.6,579.5,967.4,580.3,967.4,581.3z"/>
				<polygon class="st37" points="917.9,521.1 912.1,521.1 911.7,481.3 917.5,481.3 				"/>
			</g>
		</g>
	</g>
	<polygon class="st10" points="395.4,556 339,556 339,600.6 395.4,600.6 548.6,600.6 548.6,556 	"/>
	<g>
		<g>
			<rect x="346.3" y="559.9" class="st0" width="209.5" height="40.7"/>
			<rect x="346.3" y="559.9" class="st35" width="56.4" height="40.7"/>
		</g>
		<path id="XMLID_882_" class="st0" d="M380.2,570.4c-4-4-10.5-4-14.5,0c-4,4-4,10.5,0,14.5c3.8,3.8,9.8,3.9,13.9,0.5l7.6,7.6
			l1.2-1.2l-7.6-7.6C384.1,580.2,384,574.2,380.2,570.4z M379,583.7c-3.3,3.3-8.8,3.4-12.1,0c-3.3-3.3-3.3-8.8,0-12.1
			c3.4-3.4,8.8-3.3,12.1,0C382.3,575,382.3,580.4,379,583.7z"/>
	</g>
</g>
</svg>
