<?xml version="1.0" encoding="utf-8"?>
<!-- Generator: Adobe Illustrator 22.0.1, SVG Export Plug-In . SVG Version: 6.00 Build 0)  -->
<svg version="1.1" id="图层_1" xmlns="http://www.w3.org/2000/svg" xmlns:xlink="http://www.w3.org/1999/xlink" x="0px" y="0px"
	 viewBox="0 0 985.1 603.9" style="enable-background:new 0 0 985.1 603.9;" xml:space="preserve">
<style type="text/css">
	.st0{fill:#485059;}
	.st1{fill:#FBD451;}
	.st2{fill:#53667F;}
	.st3{opacity:0.3;fill:#231F20;}
	.st4{fill:#758599;}
	.st5{fill:#F1F2F2;}
	.st6{fill:#3E4D5F;}
	.st7{fill:#B4EBF7;}
	.st8{fill:#E0632F;}
	.st9{fill:#E6E7E8;}
	.st10{fill:#87D37C;}
	.st11{fill:#414042;}
	.st12{fill:#6D6E71;}
	.st13{fill:#FFFFFF;}
	.st14{fill:#BCBEC0;}
	.st15{fill:#A7A9AC;}
	.st16{fill:#58595B;}
	.st17{fill:#FF7E55;}
	.st18{fill:#FDE597;}
	.st19{fill:#3E3A39;}
	.st20{fill:#D1D3D4;}
	.st21{fill:#6D737A;}
	.st22{fill:#CCF6FF;}
	.st23{fill:#36C4D0;}
	.st24{fill:#FBDA73;}
	.st25{fill:#FDE9AB;}
	.st26{fill:#BAC2CC;}
	.st27{fill:#86DCE3;}
	.st28{fill:#FF9877;}
	.st29{fill:#FDEEB9;}
	.st30{opacity:0.2;fill:#231F20;}
	.st31{fill:#BF5F40;}
	.st32{fill:#DDE0E5;}
	.st33{fill:#FCDD74;}
	.st34{fill:#E68259;}
	.st35{fill:#47D2E9;}
	.st36{fill:#808080;}
</style>
<g>
	<g>
		<g id="XMLID_814_">
			
				<rect id="XMLID_820_" x="172.1" y="214.6" transform="matrix(0.7071 -0.7071 0.7071 0.7071 -144.7276 207.205)" class="st0" width="11.3" height="127.4"/>
		</g>
		<g id="XMLID_818_">
			<polygon id="XMLID_819_" class="st0" points="167.6,437.6 227.8,326 217.8,320.7 154.7,437.7 			"/>
		</g>
		<g id="XMLID_790_">
			<path id="XMLID_760_" class="st1" d="M62.5,277c-9,9-9,23.6,0,32.6c9,9,23.6,9,32.6,0c9-9,9-23.6,0-32.6
				C86.1,268,71.5,268,62.5,277z"/>
			<path id="XMLID_761_" class="st2" d="M112,222.9c9.9-9.9,25.9-9.9,35.7,0c9.9,9.9,9.9,25.9,0,35.7L112,222.9z"/>
			<path id="XMLID_766_" class="st3" d="M62.5,277c9-9,23.6-9,32.6,0c9,9,9,23.6,0,32.6c-0.8,0.8-1.7,1.5-2.6,2.2l-32.1-32.1
				C61,278.7,61.7,277.8,62.5,277z"/>
			<polygon id="XMLID_759_" class="st2" points="40.4,254.9 116.6,331 148.5,281.5 89.1,222.1 			"/>
			<polygon id="XMLID_764_" class="st4" points="96.3,229.3 102.7,235.7 54,268.5 47.6,262.1 			"/>
			<g id="XMLID_789_">
				<g id="XMLID_806_">
					
						<rect id="XMLID_812_" x="48.2" y="273.7" transform="matrix(0.501 -0.8654 0.8654 0.501 -215.0397 181.9641)" class="st5" width="4.2" height="7.6"/>
				</g>
				<g id="XMLID_805_">
					
						<rect id="XMLID_811_" x="41.1" y="276.5" transform="matrix(0.2585 -0.966 0.966 0.2585 -242.6506 252.5769)" class="st5" width="4.2" height="15.7"/>
				</g>
				<g id="XMLID_804_">
					<rect id="XMLID_810_" x="42.4" y="291.8" class="st5" width="7.6" height="4.2"/>
				</g>
				<g id="XMLID_803_">
					<polygon id="XMLID_809_" class="st5" points="36.7,307.4 51.6,303.4 50.5,299.3 35.6,303.3 					"/>
				</g>
				<g id="XMLID_802_">
					
						<rect id="XMLID_808_" x="47" y="308" transform="matrix(0.8665 -0.4991 0.4991 0.8665 -148.0249 66.7476)" class="st5" width="7.6" height="4.2"/>
				</g>
				<g id="XMLID_801_">
					
						<rect id="XMLID_807_" x="46.2" y="317.3" transform="matrix(0.7067 -0.7075 0.7075 0.7067 -210.2561 131.5848)" class="st5" width="14.7" height="4.2"/>
				</g>
				<g id="XMLID_800_">
					
						<rect id="XMLID_795_" x="59.2" y="319.8" transform="matrix(0.5007 -0.8656 0.8656 0.5007 -247.248 215.2337)" class="st5" width="7.6" height="4.2"/>
				</g>
				<g id="XMLID_799_">
					
						<rect id="XMLID_794_" x="61.8" y="327.3" transform="matrix(0.2301 -0.9732 0.9732 0.2301 -266.6521 321.7154)" class="st5" width="16.3" height="4.2"/>
				</g>
				<g id="XMLID_798_">
					
						<rect id="XMLID_793_" x="75.6" y="324" transform="matrix(1.390623e-03 -1 1 1.390623e-03 -246.8191 404.9889)" class="st5" width="7.6" height="4.2"/>
				</g>
				<g id="XMLID_797_">
					
						<rect id="XMLID_792_" x="87.1" y="320.8" transform="matrix(0.9486 -0.3164 0.3164 0.9486 -99.3102 45.1047)" class="st5" width="4.2" height="15.2"/>
				</g>
				<g id="XMLID_796_">
					
						<rect id="XMLID_791_" x="93.5" y="317.7" transform="matrix(0.8669 -0.4985 0.4985 0.8669 -147.5085 90.4662)" class="st5" width="4.2" height="7.6"/>
				</g>
			</g>
			
				<rect id="XMLID_813_" x="116" y="204.3" transform="matrix(-0.7071 0.7071 -0.7071 -0.7071 386.1767 332.6399)" class="st6" width="16.3" height="84.1"/>
		</g>
		<path id="XMLID_815_" class="st2" d="M208.3,323.3c0,8,6.5,14.5,14.5,14.5c8,0,14.5-6.5,14.5-14.5s-6.5-14.5-14.5-14.5
			C214.8,308.9,208.3,315.3,208.3,323.3z"/>
		<path id="XMLID_816_" class="st5" d="M216.3,323.3c0,3.6,2.9,6.5,6.5,6.5c3.6,0,6.5-2.9,6.5-6.5c0-3.6-2.9-6.5-6.5-6.5
			C219.2,316.9,216.3,319.8,216.3,323.3z"/>
	</g>
	<g>
		<g id="XMLID_826_">
			
				<rect id="XMLID_817_" y="507.1" transform="matrix(-1 -1.224647e-16 1.224647e-16 -1 158.7295 1045.6777)" class="st7" width="158.7" height="31.4"/>
			
				<rect id="XMLID_821_" x="11.2" y="517.8" transform="matrix(-1 -1.224647e-16 1.224647e-16 -1 157.2832 1045.6748)" class="st2" width="134.9" height="10.2"/>
		</g>
		<g id="XMLID_824_">
			<path id="XMLID_822_" class="st5" d="M24.1,576.2h117.8c7.6,0,13.8-6.2,13.8-13.8v-7c0-7.6-6.2-13.8-13.8-13.8H24.1V576.2z"/>
			<g id="XMLID_823_">
				<path id="XMLID_825_" class="st8" d="M15.5,579.2h126.3c9.3,0,16.9-7.6,16.9-16.9v-7c0-9.3-7.6-16.9-16.9-16.9H15.5v6.1h126.3
					c5.9,0,10.8,4.8,10.8,10.8v7c0,5.9-4.8,10.8-10.8,10.8H15.5V579.2z"/>
			</g>
		</g>
		<g id="XMLID_839_">
			
				<rect id="XMLID_827_" x="24.1" y="579.2" transform="matrix(-1 -1.224647e-16 1.224647e-16 -1 194.9857 1179.7559)" class="st1" width="146.8" height="21.3"/>
			
				<rect id="XMLID_828_" x="148" y="586.2" transform="matrix(-1 -1.224647e-16 1.224647e-16 -1 303.4043 1179.7549)" class="st2" width="7.4" height="7.4"/>
			
				<rect id="XMLID_829_" x="137.1" y="586.2" transform="matrix(-1 -1.224647e-16 1.224647e-16 -1 281.6646 1179.7549)" class="st2" width="7.4" height="7.4"/>
			
				<rect id="XMLID_830_" x="126.3" y="586.2" transform="matrix(-1 -1.224647e-16 1.224647e-16 -1 259.9272 1179.7549)" class="st2" width="7.4" height="7.4"/>
			
				<rect id="XMLID_831_" x="115.4" y="586.2" transform="matrix(-1 -1.224647e-16 1.224647e-16 -1 238.1894 1179.7549)" class="st2" width="7.4" height="7.4"/>
			
				<rect id="XMLID_832_" x="104.5" y="586.2" transform="matrix(-1 -1.224647e-16 1.224647e-16 -1 216.4496 1179.7549)" class="st2" width="7.4" height="7.4"/>
			
				<rect id="XMLID_833_" x="93.6" y="586.2" transform="matrix(-1 -1.224647e-16 1.224647e-16 -1 194.7099 1179.7549)" class="st2" width="7.4" height="7.4"/>
			
				<rect id="XMLID_834_" x="82.8" y="586.2" transform="matrix(-1 -1.224647e-16 1.224647e-16 -1 172.9702 1179.7549)" class="st2" width="7.4" height="7.4"/>
			
				<rect id="XMLID_835_" x="71.9" y="586.2" transform="matrix(-1 -1.224647e-16 1.224647e-16 -1 151.2319 1179.7549)" class="st2" width="7.4" height="7.4"/>
			
				<rect id="XMLID_836_" x="61" y="586.2" transform="matrix(-1 -1.224647e-16 1.224647e-16 -1 129.4951 1179.7549)" class="st2" width="7.4" height="7.4"/>
			
				<rect id="XMLID_837_" x="50.2" y="586.2" transform="matrix(-1 -1.224647e-16 1.224647e-16 -1 107.7554 1179.7549)" class="st2" width="7.4" height="7.4"/>
			
				<rect id="XMLID_838_" x="39.3" y="586.2" transform="matrix(-1 -1.224647e-16 1.224647e-16 -1 86.0151 1179.7549)" class="st2" width="7.4" height="7.4"/>
		</g>
		<path id="XMLID_846_" class="st3" d="M141.8,538.5c9.3,0,16.9,7.6,16.9,16.9v7c0,9.3-7.6,16.9-16.9,16.9H62.5l-38.4-33.3v-1.3
			h-1.5l-7-6.1H141.8z"/>
		<polygon id="XMLID_843_" class="st3" points="170.9,579.2 170.9,600.6 48.6,600.6 24.1,579.2 24.2,579.2 		"/>
	</g>
	<g id="XMLID_76_">
		<path id="XMLID_80_" class="st9" d="M978.9,600.6H867.6c-3.4,0-6.2-2.8-6.2-6.2V381.8c0-3.4,2.8-6.2,6.2-6.2h111.3
			c3.4,0,6.2,2.8,6.2,6.2v212.6C985.1,597.8,982.3,600.6,978.9,600.6z"/>
		<rect id="XMLID_79_" x="869.6" y="397.5" class="st10" width="107.5" height="177.7"/>
		<path id="XMLID_78_" class="st11" d="M948.4,386.1c0,0.8-0.6,1.4-1.4,1.4c-0.8,0-1.4-0.6-1.4-1.4c0-0.8,0.6-1.4,1.4-1.4
			C947.8,384.7,948.4,385.3,948.4,386.1z"/>
		<path id="XMLID_77_" class="st11" d="M938.3,386.9h-29c-0.5,0-0.9-0.4-0.9-0.9l0,0c0-0.5,0.4-0.9,0.9-0.9h29
			c0.5,0,0.9,0.4,0.9,0.9l0,0C939.2,386.6,938.8,386.9,938.3,386.9z"/>
	</g>
	<g id="XMLID_853_">
		<path id="XMLID_852_" class="st12" d="M533,568.2c0,8.8,0,16.1,0,16.1H150c0,0,0-7.2,0-16.1V378.6c0-8.9,6.8-16,15.1-16h352.9
			c8.3,0,15.1,7.2,15.1,16V568.2z"/>
		<rect id="XMLID_851_" x="168.3" y="378" class="st0" width="346.5" height="190.8"/>
		<path id="XMLID_845_" class="st13" d="M550.7,586.6c0-1.4-1.1-2.5-2.5-2.5H134.9c-1.4,0-2.5,1.1-2.5,2.5l0.1,5.7h418.1
			L550.7,586.6z"/>
		<path id="XMLID_844_" class="st14" d="M132.4,592.3l4.4,5.7c1.4,1.6,2.3,2.5,4.5,2.5h400.9c1.4,0,2.5-0.8,3.8-2.5l4.4-5.7H132.4z"
			/>
		<path id="XMLID_840_" class="st15" d="M277.3,584v2.9c0,0.8,1.3,1.4,2.8,1.4h110.6c1.6,0,2.8-0.6,2.8-1.4V584H277.3z"/>
		<rect id="XMLID_218_" x="184" y="394.6" class="st8" width="6.5" height="6.5"/>
		<rect id="XMLID_232_" x="184" y="410" class="st8" width="6.5" height="6.5"/>
		<rect id="XMLID_233_" x="184" y="425.4" class="st8" width="6.5" height="6.5"/>
		<rect id="XMLID_234_" x="184" y="440.8" class="st8" width="6.5" height="6.5"/>
		<rect id="XMLID_235_" x="184" y="456.2" class="st8" width="6.5" height="6.5"/>
		<rect id="XMLID_236_" x="184" y="471.6" class="st8" width="6.5" height="6.5"/>
		<rect id="XMLID_237_" x="184" y="487" class="st8" width="6.5" height="6.5"/>
		<rect id="XMLID_243_" x="184" y="502.4" class="st8" width="6.5" height="6.5"/>
		<rect id="XMLID_244_" x="184" y="517.8" class="st8" width="6.5" height="6.5"/>
		<rect id="XMLID_271_" x="184" y="533.2" class="st8" width="6.5" height="6.5"/>
		<rect id="XMLID_277_" x="184" y="548.6" class="st8" width="6.5" height="6.5"/>
		<rect id="XMLID_278_" x="204.2" y="396.3" class="st13" width="53.5" height="3.2"/>
		<rect id="XMLID_295_" x="204.2" y="461.1" class="st13" width="53.5" height="3.2"/>
		
			<rect id="XMLID_296_" x="262.9" y="461.1" transform="matrix(-1 -1.224647e-16 1.224647e-16 -1 536.9804 925.4131)" class="st7" width="11.1" height="3.2"/>
		<rect id="XMLID_279_" x="215.2" y="405.2" class="st7" width="29.6" height="3.2"/>
		
			<rect id="XMLID_280_" x="250.8" y="405.2" transform="matrix(-1 -1.224647e-16 1.224647e-16 -1 537.7456 813.5713)" class="st13" width="36.1" height="3.2"/>
		
			<rect id="XMLID_297_" x="215.2" y="470" transform="matrix(-1 -1.224647e-16 1.224647e-16 -1 466.4252 943.2412)" class="st1" width="36.1" height="3.2"/>
		<rect id="XMLID_309_" x="204.2" y="530.4" class="st13" width="53.5" height="3.2"/>
		
			<rect id="XMLID_308_" x="268.5" y="530.4" transform="matrix(-1 -1.224647e-16 1.224647e-16 -1 562.3545 1063.999)" class="st1" width="25.3" height="3.2"/>
		
			<rect id="XMLID_307_" x="215.2" y="539.3" transform="matrix(-1 -1.224647e-16 1.224647e-16 -1 450.4814 1081.8292)" class="st7" width="20.1" height="3.2"/>
		<rect id="XMLID_310_" x="244.8" y="539.3" class="st13" width="65.2" height="3.2"/>
		<rect id="XMLID_311_" x="224.6" y="555.1" class="st13" width="153.6" height="3.2"/>
		
			<rect id="XMLID_38_" x="381.7" y="555.1" transform="matrix(-1 -1.224647e-16 1.224647e-16 -1 778.6913 1113.4366)" class="st1" width="15.4" height="3.2"/>
		
			<rect id="XMLID_313_" x="400.7" y="555.1" transform="matrix(-1 -1.224647e-16 1.224647e-16 -1 879.6747 1113.4366)" class="st13" width="78.3" height="3.2"/>
		
			<rect id="XMLID_281_" x="224.1" y="420" transform="matrix(-1 -1.224647e-16 1.224647e-16 -1 501.3862 843.1876)" class="st13" width="53.2" height="3.2"/>
		
			<rect id="XMLID_298_" x="224.1" y="488.6" transform="matrix(-1 -1.224647e-16 1.224647e-16 -1 501.3862 980.5225)" class="st13" width="53.2" height="3.2"/>
		
			<rect id="XMLID_302_" x="224.6" y="499.1" transform="matrix(-1 -1.224647e-16 1.224647e-16 -1 550.4531 1001.378)" class="st13" width="101.2" height="3.2"/>
		<rect id="XMLID_303_" x="329.5" y="499.1" class="st13" width="26.1" height="3.2"/>
		
			<rect id="XMLID_304_" x="360.8" y="499.1" transform="matrix(-1 -1.224647e-16 1.224647e-16 -1 796.3178 1001.378)" class="st13" width="74.8" height="3.2"/>
		
			<rect id="XMLID_305_" x="224.6" y="509.5" transform="matrix(-1 -1.224647e-16 1.224647e-16 -1 475.8901 1022.2314)" class="st7" width="26.6" height="3.2"/>
		
			<rect id="XMLID_306_" x="257.7" y="509.5" transform="matrix(-1 -1.224647e-16 1.224647e-16 -1 549.7553 1022.2314)" class="st13" width="34.3" height="3.2"/>
		<rect id="XMLID_299_" x="282.5" y="488.6" class="st13" width="31.5" height="3.2"/>
		
			<rect id="XMLID_300_" x="319.2" y="488.6" transform="matrix(-1 -1.224647e-16 1.224647e-16 -1 653.4056 980.5225)" class="st13" width="15.1" height="3.2"/>
		<rect id="XMLID_301_" x="341.2" y="488.6" class="st1" width="28.8" height="3.2"/>
		
			<rect id="XMLID_314_" x="381.7" y="488.6" transform="matrix(-1 -1.224647e-16 1.224647e-16 -1 862.6674 980.5225)" class="st13" width="99.3" height="3.2"/>
		
			<rect id="XMLID_290_" x="224.1" y="430.3" transform="matrix(-1 -1.224647e-16 1.224647e-16 -1 542.6059 863.8174)" class="st13" width="94.4" height="3.2"/>
		<rect id="XMLID_291_" x="325.8" y="430.3" class="st13" width="52.3" height="3.2"/>
		<rect id="XMLID_282_" x="284.2" y="420" class="st1" width="9.6" height="3.2"/>
		
			<rect id="XMLID_283_" x="300.7" y="420" transform="matrix(-1 -1.224647e-16 1.224647e-16 -1 662.1474 843.1876)" class="st13" width="60.8" height="3.2"/>
		
			<rect id="XMLID_292_" x="224.1" y="439.2" transform="matrix(-1 -1.224647e-16 1.224647e-16 -1 481.8227 881.6494)" class="st13" width="33.6" height="3.2"/>
		<rect id="XMLID_293_" x="265.4" y="439.2" class="st1" width="40.5" height="3.2"/>
		
			<rect id="XMLID_294_" x="311.6" y="439.2" transform="matrix(-1 -1.224647e-16 1.224647e-16 -1 722.1195 881.6494)" class="st13" width="98.9" height="3.2"/>
		<rect id="XMLID_288_" x="368.6" y="420" class="st13" width="54.3" height="3.2"/>
		
			<rect id="XMLID_289_" x="428.1" y="420" transform="matrix(-1 -1.224647e-16 1.224647e-16 -1 899.2661 843.1876)" class="st7" width="43.1" height="3.2"/>
	</g>
	<path class="st3" d="M886,520.9v-25.7v-6.1V291.8h-59.5c-4.8,0-8.7,3.9-8.7,8.7v3.1v14.8v223h47.8C876.9,541.3,886,532.2,886,520.9
		z"/>
	<g>
		<path class="st3" d="M533,378.6c0-8.9-6.8-16-15.1-16H386.6v126.6v6.1v25.7c0,11.3,9.1,20.4,20.4,20.4h126V378.6z"/>
		<path class="st3" d="M546.2,598l4.4-5.7l0.1-5.7c0-1.4-1.1-2.5-2.5-2.5H533c0-1.1,0-7.8,0-15.8v-10.8l-8.9,25.7h-9.3v17.4h27.4
			C543.7,600.6,544.8,599.8,546.2,598z"/>
	</g>
	<g>
		<g id="XMLID_13_">
			<polygon id="XMLID_1519_" class="st5" points="741.2,583.2 533.2,583.2 559.9,505.6 715.5,505.6 			"/>
			<polygon id="XMLID_1516_" class="st14" points="536.9,572.9 733.1,560.1 716.4,509.9 558,509.9 			"/>
			<path id="XMLID_17_" class="st16" d="M878.8,251.7c0-4.2-3.4-7.6-7.6-7.6H403.3c-4.2,0-7.6,3.4-7.6,7.6v243.6
				c0,4.2,3.4,7.6,7.6,7.6h467.8c4.2,0,7.6-3.4,7.6-7.6V251.7z"/>
			<path id="XMLID_16_" class="st13" d="M878.8,489.2v31.8c0,11.3-9.1,20.4-20.4,20.4H416.1c-11.3,0-20.4-9.1-20.4-20.4v-31.8H878.8
				z"/>
			<rect id="XMLID_15_" x="413.6" y="261.6" class="st5" width="447.3" height="210.2"/>
			<rect id="XMLID_14_" x="523.9" y="583.2" class="st13" width="225.3" height="17.4"/>
		</g>
		<rect x="751.6" y="284.8" class="st17" width="71.6" height="71.6"/>
		<rect x="751.6" y="363.7" class="st9" width="71.6" height="71.6"/>
		<rect x="523.9" y="365.3" class="st9" width="217.3" height="8.1"/>
		<rect x="523.9" y="387.5" class="st9" width="217.3" height="8.1"/>
		<rect x="523.9" y="409.6" class="st9" width="217.3" height="8.1"/>
		<rect x="523.9" y="431.7" class="st9" width="111.1" height="8.1"/>
		<rect x="429" y="365.3" class="st9" width="68.4" height="8.1"/>
		<rect x="429" y="387.5" class="st9" width="68.4" height="8.1"/>
		<rect x="429" y="409.6" class="st9" width="68.4" height="8.1"/>
		<rect x="429" y="431.7" class="st9" width="68.4" height="8.1"/>
		<rect x="751.6" y="442.6" class="st7" width="71.6" height="27.4"/>
		<path class="st18" d="M497.3,320.6c0,17.3-14,31.2-31.2,31.2c-17.3,0-31.2-14-31.2-31.2c0-17.3,14-31.2,31.2-31.2
			C483.4,289.3,497.3,303.3,497.3,320.6z"/>
	</g>
	<g id="XMLID_58_">
		
			<rect id="XMLID_75_" x="595.6" y="293.7" transform="matrix(0.3064 -0.9519 0.9519 0.3064 127.589 781.9518)" class="st19" width="9.6" height="19.4"/>
		
			<rect id="XMLID_74_" x="604.1" y="280.6" transform="matrix(0.7429 -0.6694 0.6694 0.7429 -37.7671 482.2313)" class="st19" width="9.6" height="19.4"/>
		
			<rect id="XMLID_73_" x="618" y="273.5" transform="matrix(0.9786 -0.2057 0.2057 0.9786 -44.9323 134.1727)" class="st19" width="9.6" height="19.4"/>
		
			<rect id="XMLID_72_" x="633.7" y="274.4" transform="matrix(0.9494 0.3141 -0.3141 0.9494 121.5296 -186.1583)" class="st19" width="9.6" height="19.4"/>
		
			<rect id="XMLID_71_" x="646.7" y="283" transform="matrix(0.6635 0.7482 -0.7482 0.6635 438.2391 -388.994)" class="st19" width="9.6" height="19.4"/>
		
			<rect id="XMLID_70_" x="653.7" y="297" transform="matrix(0.1981 0.9802 -0.9802 0.1981 828.7131 -399.5445)" class="st19" width="9.6" height="19.4"/>
		
			<rect id="XMLID_69_" x="652.7" y="312.6" transform="matrix(-0.3213 0.947 -0.947 -0.3213 1174.0378 -196.7903)" class="st19" width="9.6" height="19.4"/>
		
			<rect id="XMLID_68_" x="644" y="325.6" transform="matrix(-0.7533 0.6576 -0.6576 -0.7533 1358.1372 161.2592)" class="st19" width="9.6" height="19.4"/>
		
			<rect id="XMLID_67_" x="630" y="332.5" transform="matrix(-0.9817 0.1904 -0.1904 -0.9817 1323.0732 557.2703)" class="st19" width="9.6" height="19.4"/>
		
			<rect id="XMLID_66_" x="614.3" y="331.4" transform="matrix(-0.9445 -0.3284 0.3284 -0.9445 1091.9232 866.5966)" class="st19" width="9.6" height="19.4"/>
		
			<rect id="XMLID_65_" x="601.4" y="322.6" transform="matrix(-0.652 -0.7582 0.7582 -0.652 749.4971 1008.5561)" class="st19" width="9.6" height="19.4"/>
		
			<rect id="XMLID_268_" x="594.6" y="308.5" transform="matrix(-0.183 -0.9831 0.9831 -0.183 396.3189 965.6837)" class="st19" width="9.6" height="19.4"/>
		<path id="XMLID_62_" class="st19" d="M597.8,302.6c-5.6,17.2,3.9,35.7,21.2,41.3c17.2,5.6,35.7-3.9,41.3-21.2
			c5.5-17.2-3.9-35.7-21.2-41.3C621.8,275.9,603.4,285.3,597.8,302.6z M647.6,318.6c-3.3,10.3-14.3,15.9-24.6,12.6
			c-10.3-3.3-15.9-14.3-12.6-24.6c3.3-10.3,14.3-15.9,24.6-12.6C645.3,297.3,651,308.4,647.6,318.6z"/>
		<path id="XMLID_59_" class="st19" d="M606.1,305.2c-4.1,12.7,2.9,26.3,15.6,30.4c12.7,4.1,26.3-2.9,30.4-15.6
			c4.1-12.7-2.9-26.3-15.6-30.4C623.7,285.6,610.1,292.6,606.1,305.2z M647.6,318.6c-3.3,10.3-14.3,15.9-24.6,12.6
			c-10.3-3.3-15.9-14.3-12.6-24.6c3.3-10.3,14.3-15.9,24.6-12.6C645.3,297.3,651,308.4,647.6,318.6z"/>
	</g>
	<path class="st3" d="M422.3,579.1h-14.7l-3.3-22.4l-1-6.9l-3.2-21.9h-3.4h-14.5h-13.3l-0.4-165.2h-3.6l0,5l-5-5h-3.4l8.1,8.1
		l-14,14l-13.2-13.2l0-1.4l7.4-7.4h-3.4l-4,4l0-4h-3.6l0.4,132.5l0,0l0,0l0,1.7l0,0l0,0l0.1,29.5l-0.1,0.1l0.1,0.1l0,1.3H325h-14
		h-1.9l-0.3,2.2l0,0l-2.4,16.4l-2.5,17l-2.3,15.6l0,0h-16.1v14.4v7.1h136.9v-7.1V579.1z M365.2,493.2l-13-13l12.9-12.9L365.2,493.2z
		 M365.1,461.8l-12.9-12.9l12.8-12.8L365.1,461.8z M365,430.4l-12.8-12.8l12.7-12.7L365,430.4z M364.9,373.7L365,399l-12.7-12.7
		L364.9,373.7z M337.3,374.8l11.5,11.5l-11.5,11.5L337.3,374.8z M337.4,401.2l13.2-13.2l14,14l-14,14l-13.2-13.2L337.4,401.2z
		 M337.4,406.2l11.5,11.4L337.5,429L337.4,406.2z M337.5,432.4l13.1-13.1l14,14l-14,14l-13.1-13.1L337.5,432.4z M337.5,437.6
		l11.4,11.4l-11.3,11.3L337.5,437.6z M337.6,463.6l13-13l14,14l-14,14l-13-13L337.6,463.6z M337.6,469l11.3,11.3l-11.2,11.2
		L337.6,469z M337.7,494.8l12.9-12.9l14,14l-14,14L337.7,497L337.7,494.8z M337.7,500.4l11.2,11.2l-11.1,11.1L337.7,500.4z
		 M363.9,527.8h-10.3h-14h-1.8l0-1.7l12.8-12.8l14,14L363.9,527.8z M352.3,511.6l13-13l0.1,26L352.3,511.6z"/>
	<g>
		<path class="st11" d="M512.8,273.3l0.1,12.8l0.8-0.8c-2,0-3.9,0.6-5.5,1.7c-0.8,0.5-1.6,1.3-2.1,2c-0.6,0.8-1.1,1.6-1.5,2.5
			c-0.4,0.9-0.6,1.9-0.7,2.8c-0.1,1,0,1.9,0.2,2.9c0.4,1.9,1.3,3.6,2.8,5c0.6,0.6,1.5,1.2,2.3,1.7c0.9,0.4,1.8,0.7,2.7,0.9
			c0.9,0.2,1.9,0.2,2.8,0.1c1-0.1,1.9-0.4,2.8-0.7c1.7-0.7,3.2-2,4.3-3.6c1-1.6,1.6-3.5,1.6-5.3h-0.7c0,1.7-0.6,3.4-1.5,4.9
			c-1,1.4-2.4,2.5-4,3.2c-0.8,0.3-1.6,0.5-2.5,0.6c-0.9,0.1-1.7,0-2.6-0.2c-1.7-0.4-3.2-1.2-4.4-2.4c-1.1-1.2-2-2.8-2.3-4.4
			c-0.1-0.8-0.2-1.7-0.1-2.5c0.1-0.8,0.3-1.6,0.6-2.4c0.3-0.8,0.8-1.5,1.3-2.1c0.6-0.7,1.2-1.2,1.9-1.7c1.4-0.9,3-1.4,4.7-1.4l0.8,0
			l0-0.8l0.1-12.8H512.8z"/>
		<g>
			<rect x="265.7" y="124.4" class="st11" width="1.9" height="74"/>
			<rect x="221" y="124.4" class="st11" width="1.9" height="74"/>
			<g>
				<polygon class="st11" points="243.4,104.2 356.1,14.9 513.4,98.1 513.9,97 355.9,13.5 355.6,13.7 242.7,103.3 				"/>
			</g>
			<polygon class="st9" points="372.6,248.8 399.1,194.5 397.2,190.8 370.6,245.1 			"/>
			<g>
				<polygon class="st9" points="339.2,248.8 341.2,245.1 314.7,190.8 312.7,194.5 				"/>
			</g>
			<g>
				<polygon class="st13" points="339.8,600.6 343.4,600.5 342,98.5 369.6,98.5 370.9,600.6 374.5,600.5 373.2,94.9 338.4,94.9 				
					"/>
			</g>
			<g>
				<path class="st13" d="M338.4,95.2l456.5-1.1h0.7l36.1,35.5l-493.3,0.2V95.2z M794.2,97.7L342,98.8v27.4L823,126L794.2,97.7z"/>
			</g>
			<g>
				<path class="st13" d="M343.4,27.6h25.1l5.1,71h-35.2L343.4,27.6z M365.1,31.1h-18.4l-4.6,63.8h27.5L365.1,31.1z"/>
			</g>
			<g>
				
					<rect x="354.8" y="301.5" transform="matrix(0.7072 -0.707 0.707 0.7072 -124.6112 346.4657)" class="st13" width="2.4" height="44.3"/>
			</g>
			<g>
				
					<rect x="333.9" y="322.5" transform="matrix(0.7072 -0.707 0.707 0.7072 -124.6102 346.4884)" class="st13" width="44.3" height="2.4"/>
			</g>
			<g>
				
					<rect x="354.8" y="332.9" transform="matrix(0.7066 -0.7076 0.7076 0.7066 -146.7492 356.0794)" class="st13" width="2.4" height="44.3"/>
			</g>
			<g>
				
					<rect x="333.9" y="353.8" transform="matrix(0.7071 -0.7071 0.7071 0.7071 -146.7498 355.7122)" class="st13" width="44.3" height="2.4"/>
			</g>
			<g>
				
					<rect x="354.8" y="364.2" transform="matrix(0.7068 -0.7074 0.7074 0.7068 -168.902 365.0974)" class="st13" width="2.4" height="44.3"/>
			</g>
			<g>
				
					<rect x="333.9" y="385.1" transform="matrix(0.7071 -0.7071 0.7071 0.7071 -168.8923 364.8593)" class="st13" width="44.3" height="2.4"/>
			</g>
			<g>
				
					<rect x="354.8" y="395.5" transform="matrix(0.707 -0.7072 0.7072 0.707 -191.0402 374.132)" class="st13" width="2.4" height="44.3"/>
			</g>
			<g>
				
					<rect x="333.9" y="416.4" transform="matrix(0.7072 -0.707 0.707 0.7072 -191.0273 373.97)" class="st13" width="44.3" height="2.4"/>
			</g>
			<g>
				
					<rect x="354.8" y="426.8" transform="matrix(0.7072 -0.707 0.707 0.7072 -213.1633 383.1375)" class="st13" width="2.4" height="44.3"/>
			</g>
			<g>
				
					<rect x="333.9" y="447.7" transform="matrix(0.7072 -0.707 0.707 0.7072 -213.1664 383.1643)" class="st13" width="44.3" height="2.4"/>
			</g>
			<g>
				
					<rect x="354.8" y="458.1" transform="matrix(0.7054 -0.7088 0.7088 0.7054 -235.5278 393.8401)" class="st13" width="2.4" height="44.3"/>
			</g>
			<g>
				
					<rect x="333.9" y="479" transform="matrix(0.7071 -0.7071 0.7071 0.7071 -235.318 392.4156)" class="st13" width="44.3" height="2.4"/>
			</g>
			<g>
				
					<rect x="354.8" y="489.4" transform="matrix(0.7076 -0.7066 0.7066 0.7076 -257.3772 401.1118)" class="st13" width="2.4" height="44.3"/>
			</g>
			<g>
				
					<rect x="333.9" y="510.4" transform="matrix(0.7072 -0.7071 0.7071 0.7072 -257.4509 401.5222)" class="st13" width="44.3" height="2.4"/>
			</g>
			<g>
				
					<rect x="354.8" y="520.7" transform="matrix(0.7068 -0.7074 0.7074 0.7068 -279.659 411.0184)" class="st13" width="2.4" height="44.3"/>
			</g>
			<g>
				
					<rect x="333.9" y="541.7" transform="matrix(0.7072 -0.707 0.707 0.7072 -279.5872 410.6728)" class="st13" width="44.3" height="2.4"/>
			</g>
			<g>
				
					<rect x="354.8" y="552" transform="matrix(0.7078 -0.7064 0.7064 0.7078 -301.5854 419.2462)" class="st13" width="2.4" height="44.3"/>
			</g>
			<g>
				
					<rect x="333.9" y="573" transform="matrix(0.7072 -0.707 0.707 0.7072 -301.7276 419.8509)" class="st13" width="44.3" height="2.4"/>
			</g>
			<g>
				
					<rect x="354.8" y="270.2" transform="matrix(0.7075 -0.7067 0.7067 0.7075 -102.4917 337.1053)" class="st13" width="2.4" height="44.3"/>
			</g>
			<g>
				
					<rect x="333.9" y="291.2" transform="matrix(0.7071 -0.7072 0.7072 0.7071 -102.4634 337.3948)" class="st13" width="44.3" height="2.4"/>
			</g>
			<g>
				
					<rect x="354.8" y="238.9" transform="matrix(0.7069 -0.7073 0.7073 0.7069 -80.305 328.3199)" class="st13" width="2.4" height="44.3"/>
			</g>
			<g>
				
					<rect x="333.9" y="259.9" transform="matrix(0.7071 -0.7071 0.7071 0.7071 -80.3253 328.1877)" class="st13" width="44.3" height="2.4"/>
			</g>
			<g>
				
					<rect x="354.8" y="207.6" transform="matrix(0.7073 -0.7069 0.7069 0.7073 -58.2086 318.9105)" class="st13" width="2.4" height="44.3"/>
			</g>
			<g>
				
					<rect x="333.9" y="228.5" transform="matrix(0.7071 -0.7071 0.7071 0.7071 -58.184 319.0244)" class="st13" width="44.3" height="2.4"/>
			</g>
			<g>
				
					<rect x="354.8" y="176.3" transform="matrix(0.7068 -0.7074 0.7074 0.7068 -35.994 310.0129)" class="st13" width="2.4" height="44.3"/>
			</g>
			<g>
				
					<rect x="333.9" y="197.2" transform="matrix(0.707 -0.7072 0.7072 0.707 -36.0307 309.8839)" class="st13" width="44.3" height="2.4"/>
			</g>
			<g>
				
					<rect x="355.4" y="82.4" transform="matrix(0.7081 -0.7061 0.7061 0.7081 30.3156 282.3141)" class="st13" width="2.4" height="44.3"/>
			</g>
			<g>
				
					<rect x="334.8" y="104.1" transform="matrix(0.707 -0.7072 0.7072 0.707 29.768 282.4674)" class="st13" width="42" height="2.4"/>
			</g>
			<g>
				
					<rect x="356" y="50.6" transform="matrix(0.7809 -0.6247 0.6247 0.7809 32.6701 239.1147)" class="st13" width="2.4" height="44.8"/>
			</g>
			<g>
				
					<rect x="334.6" y="71" transform="matrix(0.7037 -0.7105 0.7105 0.7037 53.8016 273.3794)" class="st13" width="40.2" height="2.4"/>
			</g>
			<g>
				
					<rect x="356" y="25.5" transform="matrix(0.7717 -0.636 0.636 0.7717 53.7103 237.179)" class="st13" width="2.4" height="36.6"/>
			</g>
			<g>
				
					<rect x="337.4" y="41.2" transform="matrix(0.67 -0.7423 0.7423 0.67 85.6296 277.5113)" class="st13" width="35.2" height="2.4"/>
			</g>
			<g>
				
					<rect x="387.2" y="90.2" transform="matrix(0.7061 -0.7081 0.7081 0.7061 34.6034 308.0933)" class="st13" width="2.4" height="44.3"/>
			</g>
			<g>
				
					<rect x="366.3" y="111.2" transform="matrix(0.7071 -0.7072 0.7072 0.7071 34.3359 307.6089)" class="st13" width="44.3" height="2.4"/>
			</g>
			<g>
				
					<rect x="418.5" y="90.2" transform="matrix(0.7061 -0.7081 0.7081 0.7061 43.8105 330.2713)" class="st13" width="2.4" height="44.3"/>
			</g>
			<g>
				
					<rect x="397.6" y="111.2" transform="matrix(0.7071 -0.7071 0.7071 0.7071 43.493 329.7227)" class="st13" width="44.3" height="2.4"/>
			</g>
			<g>
				
					<rect x="449.9" y="90.2" transform="matrix(0.7061 -0.7081 0.7081 0.7061 53.0115 352.4381)" class="st13" width="2.4" height="44.3"/>
			</g>
			<g>
				
					<rect x="428.9" y="111.2" transform="matrix(0.7072 -0.7071 0.7071 0.7072 52.6427 351.8257)" class="st13" width="44.3" height="2.4"/>
			</g>
			<g>
				
					<rect x="481.2" y="90.2" transform="matrix(0.7061 -0.7081 0.7081 0.7061 62.2039 374.5908)" class="st13" width="2.4" height="44.3"/>
			</g>
			<g>
				
					<rect x="460.2" y="111.2" transform="matrix(0.7071 -0.7072 0.7072 0.7071 61.8417 374.0096)" class="st13" width="44.3" height="2.4"/>
			</g>
			<g>
				
					<rect x="512.5" y="90.2" transform="matrix(0.7061 -0.7081 0.7081 0.7061 71.4062 396.7618)" class="st13" width="2.4" height="44.3"/>
			</g>
			<g>
				
					<rect x="491.5" y="111.2" transform="matrix(0.7071 -0.7071 0.7071 0.7071 71.0088 396.1429)" class="st13" width="44.3" height="2.4"/>
			</g>
			<g>
				
					<rect x="543.8" y="90.2" transform="matrix(0.7061 -0.7081 0.7081 0.7061 80.6071 418.9294)" class="st13" width="2.4" height="44.3"/>
			</g>
			<g>
				
					<rect x="522.8" y="111.2" transform="matrix(0.7071 -0.7071 0.7071 0.7071 80.1738 418.2721)" class="st13" width="44.3" height="2.4"/>
			</g>
			<g>
				
					<rect x="575.1" y="90.2" transform="matrix(0.7059 -0.7083 0.7083 0.7059 89.9028 441.2351)" class="st13" width="2.4" height="44.3"/>
			</g>
			<g>
				
					<rect x="554.1" y="111.2" transform="matrix(0.7071 -0.7071 0.7071 0.7071 89.3233 440.3764)" class="st13" width="44.3" height="2.4"/>
			</g>
			<g>
				
					<rect x="606.4" y="90.2" transform="matrix(0.7059 -0.7083 0.7083 0.7059 99.114 463.4182)" class="st13" width="2.4" height="44.3"/>
			</g>
			<g>
				
					<rect x="585.4" y="111.2" transform="matrix(0.7071 -0.7071 0.7071 0.7071 98.4925 462.5164)" class="st13" width="44.3" height="2.4"/>
			</g>
			<g>
				
					<rect x="637.7" y="90.2" transform="matrix(0.7058 -0.7084 0.7084 0.7058 108.3694 485.6644)" class="st13" width="2.4" height="44.3"/>
			</g>
			<g>
				
					<rect x="616.8" y="111.2" transform="matrix(0.7071 -0.7071 0.7071 0.7071 107.6557 484.6479)" class="st13" width="44.3" height="2.4"/>
			</g>
			<g>
				
					<rect x="669" y="90.2" transform="matrix(0.706 -0.7082 0.7082 0.706 117.4796 507.7057)" class="st13" width="2.4" height="44.3"/>
			</g>
			<g>
				
					<rect x="648.1" y="111.2" transform="matrix(0.7072 -0.7071 0.7071 0.7072 116.8218 506.7844)" class="st13" width="44.3" height="2.4"/>
			</g>
			<g>
				
					<rect x="700.3" y="90.2" transform="matrix(0.7066 -0.7076 0.7076 0.7066 126.3171 529.3753)" class="st13" width="2.4" height="44.3"/>
			</g>
			<g>
				
					<rect x="679.4" y="111.2" transform="matrix(0.7071 -0.7071 0.7071 0.7071 125.999 528.9362)" class="st13" width="44.3" height="2.4"/>
			</g>
			<g>
				
					<rect x="731.7" y="90.2" transform="matrix(0.7058 -0.7084 0.7084 0.7058 136.0243 552.2404)" class="st13" width="2.4" height="44.3"/>
			</g>
			<g>
				
					<rect x="710.7" y="111.2" transform="matrix(0.7071 -0.7071 0.7071 0.7071 135.1982 551.1174)" class="st13" width="44.3" height="2.4"/>
			</g>
			<g>
				
					<rect x="763" y="90.2" transform="matrix(0.7062 -0.708 0.708 0.7062 144.9797 574.0797)" class="st13" width="2.4" height="44.3"/>
			</g>
			<g>
				
					<rect x="742" y="111.2" transform="matrix(0.7072 -0.707 0.707 0.7072 144.3278 573.2042)" class="st13" width="44.3" height="2.4"/>
			</g>
			<g>
				
					<rect x="794.3" y="88.8" transform="matrix(0.7071 -0.7071 0.7071 0.7071 154.5909 594.9874)" class="st13" width="2.4" height="44.3"/>
			</g>
			<g>
				
					<rect x="775.7" y="114.5" transform="matrix(0.707 -0.7072 0.7072 0.707 150.0961 593.7558)" class="st13" width="31.9" height="2.4"/>
			</g>
			<polygon class="st0" points="496.7,137.8 538.3,137.8 550.3,128 484.7,128 			"/>
			<rect x="508.8" y="265.1" class="st16" width="9.9" height="12.8"/>
			<g>
				<polygon class="st16" points="514.3,272.2 538.9,137.8 537.7,137.7 513.8,268.3 497.3,137.7 496.1,137.8 513.1,272.2 				"/>
			</g>
			<g>
				<polygon class="st20" points="338.6,139.4 342.1,139.4 342.3,200.4 338.7,200.4 				"/>
				<polygon class="st20" points="373.5,200.4 369.9,200.4 369.7,139.4 373.3,139.4 				"/>
			</g>
			<polygon class="st20" points="341.2,181.9 356,196.7 370.8,181.9 372.5,183.6 357.7,198.4 359.7,200.4 356.3,200.4 356,200.1 
				355.7,200.4 352.3,200.4 354.3,198.4 339.5,183.6 			"/>
			<path class="st13" d="M407.3,196.5h-99.7c-2.1,0-3.9-1.7-3.9-3.9v-53.3c0-2.1,1.7-3.9,3.9-3.9h81.8c2.1,0,4.7,1.5,5.8,3.3
				l14,23.8c1.1,1.8,2,5.1,2,7.2v22.8C411.2,194.8,409.4,196.5,407.3,196.5z"/>
			<path class="st9" d="M314.7,191.9c-2.1,0-3.9-1.7-3.9-3.9v-52.5h-3.2c-2.1,0-3.9,1.7-3.9,3.9v53.3c0,2.1,1.7,3.9,3.9,3.9h99.7
				c2.1,0,3.9-1.7,3.9-3.9v-0.8H314.7z"/>
			<polygon class="st7" points="407,172.6 407,166.3 391,138.7 340.1,138.7 340.1,172.6 			"/>
			<rect x="338.3" y="94.7" class="st0" width="35" height="30.8"/>
			<g>
				<path class="st13" d="M231.1,97.9H288v13.3h-56.9V97.9z M285.5,100.1h-51.9v9h51.9V100.1z"/>
			</g>
			<rect x="230.9" y="97.7" class="st0" width="23.3" height="23"/>
			<rect x="285.3" y="95.9" class="st21" width="53.2" height="15.8"/>
			<polygon class="st0" points="344.3,0 357.6,0 368.5,27.6 343.4,27.6 			"/>
			<rect x="320.1" y="122.5" class="st21" width="67.3" height="13.1"/>
			<rect x="209.8" y="120.7" class="st2" width="68.5" height="7.4"/>
			<rect x="209.8" y="130" class="st2" width="68.5" height="7.4"/>
			<rect x="209.8" y="139.2" class="st2" width="68.5" height="7.4"/>
			<rect x="209.8" y="148.4" class="st2" width="68.5" height="7.4"/>
			<rect x="209.8" y="157.6" class="st2" width="68.5" height="7.4"/>
			<rect x="209.8" y="166.9" class="st2" width="68.5" height="7.4"/>
			<rect x="209.8" y="176.1" class="st2" width="68.5" height="7.4"/>
			<rect x="209.8" y="185.3" class="st2" width="68.5" height="7.4"/>
			<polygon class="st22" points="349.6,138.7 365.6,138.7 399.3,172.4 399.2,172.6 383.5,172.6 			"/>
			<polygon class="st22" points="371,172.6 340.1,141.6 340.1,138.7 346.5,138.7 380.4,172.6 			"/>
		</g>
		<rect x="290.9" y="579.1" class="st21" width="136.9" height="21.5"/>
		<rect x="290.9" y="593.5" class="st0" width="136.9" height="7.1"/>
		<polygon class="st1" points="413,579.1 307,579.1 314.5,527.8 405.6,527.8 		"/>
		<polygon class="st2" points="311.8,546.5 330.5,527.8 316.4,527.8 314.2,530.1 		"/>
		<polygon class="st2" points="345,527.8 309.3,563.5 307,579.1 307.8,579.1 359,527.8 		"/>
		<polygon class="st2" points="322.3,579.1 336.3,579.1 387.6,527.8 373.6,527.8 		"/>
		<polygon class="st2" points="364.9,579.1 406.9,537.1 405.6,527.8 402.1,527.8 350.8,579.1 		"/>
		<polygon class="st2" points="393.4,579.1 410.5,562 408.8,549.7 379.4,579.1 		"/>
	</g>
	<path class="st3" d="M749.3,583.2h-8.1l-13.9-41.8h81v-31.6c0.4,0.1,0.7,0.1,1.1,0.1c8.3,0,15,6.7,15,15v16.4H852v-16.4
		c0-8.3,6.7-15,15-15c4.2,0,7.6-3.4,7.6-7.6v-23.1v-1.7v-3.2v-4.4v-3.2v-4.4v-1.3v-1.9v-1.2v-49.3H872h-2.6h-2.7h-0.8H864h-2.7h-2.6
		h-2.7h-2.6h-2.7h-2.6h-2.7h-2.6h-2.7h-2.6h-2.7h-2.6h-2.7h-0.9h-1.7h-0.8h-2h-2.6h-2.7h-2.6h-2.7h-1h-1.6h-1.2v-5.9v-5.3
		l-16.8-14.5v5.3v1.4h-1.6v0h-0.1h-1.2h-14.5h-15.8v42.1l-9.7-17.1h-3.9l-0.4,42.2c0.9,0.4,4.1,1.8,4.8,2.5c3.2,3.1,3.2,8.2,0,11.4
		c-3.1,3.1-8.3,3.2-11.4,0c-3.2-3.1-3.2-8.3,0-11.4c0.7-0.7,3.1-2.2,3.9-2.6l1-42.1h-3.8l-25.6,43.8l12.4,38.7l2.5,7.8h-11.4v82.4
		h-0.2v-0.3c0-1.3-1.1-2.4-2.4-2.4c-1.3,0-2.4,1.1-2.4,2.4v0.3h-3.4v-0.3c0-1.3-1.1-2.4-2.4-2.4c-1.3,0-2.4,1.1-2.4,2.4v0.3h-3.4
		v-0.3c0-1.3-1.1-2.4-2.4-2.4c-1.3,0-2.4,1.1-2.4,2.4v0.3h-7.8v7.1v6.4h60.5V583.2z"/>
	<g id="XMLID_19_">
		<g id="XMLID_483_">
			<path id="XMLID_464_" class="st23" d="M809.1,479.2v23.1c0,4.2,3.4,7.6,7.6,7.6c8.3,0,15,6.7,15,15v62.3
				c0,8.1,6.9,14.5,15.2,13.7c7.2-0.7,12.3-7.3,12.3-14.5v-61.5c0-8.3,6.7-15,15-15c4.2,0,7.6-3.4,7.6-7.6v-23.1H809.1z
				 M840.8,586.3c0-2.6,2.1-4.8,4.8-4.8c2.6,0,4.8,2.1,4.8,4.8c0,2.6-2.1,4.8-4.8,4.8C842.9,591,840.8,588.9,840.8,586.3z"/>
			
				<rect id="XMLID_467_" x="809.1" y="408.3" transform="matrix(-1 -1.224647e-16 1.224647e-16 -1 1691.077 869.1358)" class="st24" width="72.8" height="52.5"/>
			
				<rect id="XMLID_468_" x="879.2" y="408.3" transform="matrix(-1 -1.224647e-16 1.224647e-16 -1 1761.1455 869.1358)" class="st25" width="2.7" height="52.5"/>
			
				<rect id="XMLID_470_" x="873.9" y="408.3" transform="matrix(-1 -1.224647e-16 1.224647e-16 -1 1750.4471 869.1358)" class="st25" width="2.7" height="52.5"/>
			
				<rect id="XMLID_471_" x="868.5" y="408.3" transform="matrix(-1 -1.224647e-16 1.224647e-16 -1 1739.7461 869.1358)" class="st25" width="2.7" height="52.5"/>
			
				<rect id="XMLID_472_" x="863.2" y="408.3" transform="matrix(-1 -1.224647e-16 1.224647e-16 -1 1729.0449 869.1358)" class="st25" width="2.7" height="52.5"/>
			
				<rect id="XMLID_473_" x="857.8" y="408.3" transform="matrix(-1 -1.224647e-16 1.224647e-16 -1 1718.3456 869.1358)" class="st25" width="2.7" height="52.5"/>
			
				<rect id="XMLID_474_" x="852.5" y="408.3" transform="matrix(-1 -1.224647e-16 1.224647e-16 -1 1707.6445 869.1358)" class="st25" width="2.7" height="52.5"/>
			
				<rect id="XMLID_54_" x="847.1" y="408.3" transform="matrix(-1 -1.224647e-16 1.224647e-16 -1 1696.9432 869.1358)" class="st25" width="2.7" height="52.5"/>
			
				<rect id="XMLID_53_" x="841.8" y="408.3" transform="matrix(-1 -1.224647e-16 1.224647e-16 -1 1686.2422 869.1358)" class="st25" width="2.7" height="52.5"/>
			
				<rect id="XMLID_52_" x="836.4" y="408.3" transform="matrix(-1 -1.224647e-16 1.224647e-16 -1 1675.5389 869.1358)" class="st25" width="2.7" height="52.5"/>
			
				<rect id="XMLID_51_" x="831.1" y="408.3" transform="matrix(-1 -1.224647e-16 1.224647e-16 -1 1664.8417 869.1358)" class="st25" width="2.7" height="52.5"/>
			
				<rect id="XMLID_50_" x="825.7" y="408.3" transform="matrix(-1 -1.224647e-16 1.224647e-16 -1 1654.1406 869.1358)" class="st25" width="2.7" height="52.5"/>
			
				<rect id="XMLID_480_" x="820.4" y="408.3" transform="matrix(-1 -1.224647e-16 1.224647e-16 -1 1643.4413 869.1358)" class="st25" width="2.7" height="52.5"/>
			
				<rect id="XMLID_481_" x="815" y="408.3" transform="matrix(-1 -1.224647e-16 1.224647e-16 -1 1632.7402 869.1358)" class="st25" width="2.7" height="52.5"/>
			
				<rect id="XMLID_482_" x="809.7" y="408.3" transform="matrix(-1 -1.224647e-16 1.224647e-16 -1 1622.0389 869.1358)" class="st25" width="2.7" height="52.5"/>
			
				<rect id="XMLID_457_" x="809.1" y="457.7" transform="matrix(-1 -1.224647e-16 1.224647e-16 -1 1691.077 936.8301)" class="st26" width="72.8" height="21.5"/>
			
				<rect id="XMLID_458_" x="809.1" y="458.9" transform="matrix(-1 -1.224647e-16 1.224647e-16 -1 1691.077 921.0186)" class="st4" width="72.8" height="3.2"/>
			
				<rect id="XMLID_462_" x="809.1" y="466.6" transform="matrix(-1 -1.224647e-16 1.224647e-16 -1 1691.077 936.3506)" class="st4" width="72.8" height="3.2"/>
			
				<rect id="XMLID_466_" x="809.1" y="474.2" transform="matrix(-1 -1.224647e-16 1.224647e-16 -1 1691.077 951.6787)" class="st4" width="72.8" height="3.2"/>
			<path id="XMLID_489_" class="st27" d="M845.5,479.2v102.3c-2.6,0-4.8,2.1-4.8,4.8c0,2.6,2.1,4.8,4.8,4.8v9.8
				c-7.6,0-13.8-6.1-13.8-13.7v-62.3c0-8.3-6.7-15-15-15c-4.2,0-7.6-3.4-7.6-7.6v-23.1H845.5z"/>
			<path id="XMLID_469_" class="st17" d="M873.1,424.8c0,3.8-3.1,6.9-6.9,6.9c-3.8,0-6.9-3.1-6.9-6.9c0,0,0-1.7,0-3.8
				c0-2.1-2.5-3.8-5.6-3.8c-3.1,0-5.6,3.8-5.6,8.6V437c0,3.8-3.1,6.9-6.9,6.9h-1.1c-3.8,0-6.9-3.1-6.9-6.9v-28.7h40V424.8z"/>
			<g id="XMLID_485_">
				<path id="XMLID_486_" class="st28" d="M856.1,414.1c3.1,0,5.6,1.7,5.6,3.8c0,2.1,0,3.8,0,3.8c0,3.8,3.1,6.9,6.9,6.9
					c1.5,0,2.8-0.6,4-1.4c-1,2.6-3.5,4.5-6.4,4.5c-3.8,0-6.9-3.1-6.9-6.9c0,0,0-1.7,0-3.8c0-2.1-2.5-3.8-5.6-3.8
					c-0.7,0-1.4,0.2-2,0.6C852.6,415.7,854.2,414.1,856.1,414.1z"/>
				<path id="XMLID_487_" class="st28" d="M835.5,408.3v25.5c0,3.8,3.1,6.9,6.9,6.9h1.1c1.5,0,2.8-0.6,4-1.4c-1,2.6-3.5,4.5-6.5,4.5
					h-1.1c-3.8,0-6.9-3.1-6.9-6.9v-28.7H835.5z"/>
			</g>
		</g>
		<g id="XMLID_40_">
			<rect id="XMLID_407_" x="766.5" y="389.3" class="st1" width="31.5" height="211.6"/>
			<rect id="XMLID_406_" x="782.3" y="389.3" class="st24" width="20.3" height="211.6"/>
			<rect id="XMLID_405_" x="793.6" y="596.1" class="st11" width="9" height="2.3"/>
			<rect id="XMLID_404_" x="798.1" y="586.7" class="st11" width="4.5" height="2.3"/>
			<rect id="XMLID_403_" x="798.1" y="577.3" class="st11" width="4.5" height="2.3"/>
			<rect id="XMLID_49_" x="798.1" y="567.9" class="st11" width="4.5" height="2.3"/>
			<rect id="XMLID_401_" x="798.1" y="558.5" class="st11" width="4.5" height="2.3"/>
			<rect id="XMLID_400_" x="793.6" y="549.1" class="st11" width="9" height="2.3"/>
			<rect id="XMLID_399_" x="798.1" y="539.7" class="st11" width="4.5" height="2.3"/>
			<rect id="XMLID_398_" x="798.1" y="530.3" class="st11" width="4.5" height="2.3"/>
			<rect id="XMLID_397_" x="798.1" y="520.9" class="st11" width="4.5" height="2.3"/>
			<rect id="XMLID_396_" x="798.1" y="511.5" class="st11" width="4.5" height="2.3"/>
			<rect id="XMLID_395_" x="793.6" y="502.1" class="st11" width="9" height="2.3"/>
			<rect id="XMLID_394_" x="798.1" y="492.7" class="st11" width="4.5" height="2.3"/>
			<rect id="XMLID_393_" x="798.1" y="483.3" class="st11" width="4.5" height="2.3"/>
			<rect id="XMLID_392_" x="798.1" y="473.9" class="st11" width="4.5" height="2.3"/>
			<rect id="XMLID_391_" x="798.1" y="464.5" class="st11" width="4.5" height="2.3"/>
			<rect id="XMLID_48_" x="793.6" y="455.1" class="st11" width="9" height="2.3"/>
			<rect id="XMLID_47_" x="798.1" y="445.7" class="st11" width="4.5" height="2.3"/>
			<rect id="XMLID_46_" x="798.1" y="436.3" class="st11" width="4.5" height="2.3"/>
			<rect id="XMLID_45_" x="798.1" y="426.9" class="st11" width="4.5" height="2.3"/>
			<rect id="XMLID_44_" x="798.1" y="417.5" class="st11" width="4.5" height="2.3"/>
			<rect id="XMLID_43_" x="793.6" y="408.1" class="st11" width="9" height="2.3"/>
			<rect id="XMLID_42_" x="798.1" y="398.7" class="st11" width="4.5" height="2.3"/>
			<rect id="XMLID_41_" x="798.1" y="389.3" class="st11" width="4.5" height="2.3"/>
		</g>
		<polygon id="XMLID_437_" class="st3" points="769.4,504.6 784.7,458.4 767,427.1 767,600.9 781.2,600.9 781.2,504.6 		"/>
		<g id="XMLID_465_">
			<path id="XMLID_449_" class="st29" d="M751.3,513.7l0.2,0l12,0l18.3-55.4l-25-44.1h-3.9l-0.4,42.2c0.9,0.4,4.1,1.8,4.8,2.5
				c3.2,3.1,3.2,8.2,0,11.4c-3.1,3.1-8.3,3.2-11.4,0c-3.2-3.1-3.2-8.3,0-11.4c0.7-0.7,3.1-2.2,3.9-2.6l1-42.1H747l-25.6,43.8
				l17.9,55.5L751.3,513.7z"/>
			<polygon id="XMLID_39_" class="st30" points="739.3,513.6 751.4,513.7 751.6,513.7 763.5,513.8 769.1,496.8 733.8,496.8 			"/>
			<rect id="XMLID_440_" x="724.9" y="504.6" class="st4" width="53.3" height="96.3"/>
			<rect id="XMLID_21_" x="751.6" y="504.6" class="st2" width="26.7" height="96.3"/>
		</g>
		<path id="XMLID_490_" class="st3" d="M818.5,477.4h2.2v-28v-1.9v-16.4h-1.3l0,0v-22.8h-1.6H815h-2.6h-2.7h-0.5v49.3v1.2v1.9v1.3
			v4.4v3.2v4.4v3.2v1.7l0,0v23.1c0,4.2,3.4,7.6,7.6,7.6c0.6,0,1.2,0.1,1.8,0.2V477.4z"/>
		<polygon id="XMLID_491_" class="st3" points="802.6,596.1 802.6,589.1 802.6,586.7 802.6,579.7 802.6,577.3 802.6,570.3 
			802.6,567.9 802.6,560.9 802.6,558.5 802.6,551.5 802.6,549.1 802.6,542.1 802.6,539.7 802.6,532.7 802.6,530.3 802.6,523.3 
			802.6,520.9 802.6,513.9 802.6,511.5 802.6,504.5 802.6,502.1 802.6,495.1 802.6,492.7 802.6,485.7 802.6,483.3 802.6,476.3 
			802.6,473.9 802.6,466.9 802.6,464.5 802.6,457.5 802.6,455.1 802.6,448.1 802.6,445.7 802.6,438.7 802.6,436.3 802.6,429.3 
			802.6,426.9 802.6,419.9 802.6,417.5 802.6,410.5 802.6,408.1 802.6,401.1 802.6,398.7 802.6,391.7 802.6,389.3 802.6,389.3 
			798.1,389.3 798.1,389.3 798.1,389.3 796.8,389.3 796.8,431.2 796.8,431.2 793.5,431.2 793.5,447.5 793.5,449.5 793.5,477.4 
			796.8,477.4 796.8,600.9 798.1,600.9 802.6,600.9 802.6,598.5 		"/>
		<g id="XMLID_484_">
			<rect id="XMLID_450_" x="799.7" y="475.2" class="st28" width="15.9" height="125.7"/>
			<rect id="XMLID_451_" x="807.7" y="475.2" class="st17" width="8" height="125.7"/>
			<rect id="XMLID_452_" x="796.4" y="447.5" class="st31" width="21.4" height="29.9"/>
			<rect id="XMLID_456_" x="796.4" y="447.5" class="st17" width="11.7" height="29.9"/>
			<rect id="XMLID_454_" x="796.4" y="447.5" class="st32" width="21.4" height="1.9"/>
			<rect id="XMLID_453_" x="796.4" y="431.2" class="st17" width="21.4" height="16.4"/>
			<polygon id="XMLID_455_" class="st20" points="816.5,397.2 799.7,382.6 799.7,431.2 816.5,431.2 			"/>
			<polygon id="XMLID_459_" class="st13" points="799.7,388 799.7,431.2 816.5,431.2 816.5,402.5 			"/>
			<polygon id="XMLID_460_" class="st9" points="808.1,431.2 816.5,431.2 816.5,402.5 808.1,395.2 			"/>
		</g>
		<g id="XMLID_20_">
			<polygon id="XMLID_448_" class="st5" points="887.6,587.1 906.3,594.1 887.6,601.2 883.9,601.2 883.9,587.1 			"/>
			<polygon id="XMLID_447_" class="st0" points="901.5,592.2 906.3,594.1 901.5,596.1 			"/>
			<polygon id="XMLID_446_" class="st1" points="722.3,596.5 722.3,601.2 887.8,601.2 893.6,598.8 887.8,596.5 			"/>
			<polygon id="XMLID_445_" class="st33" points="722.3,591.8 722.3,596.5 887.8,596.5 893.6,594.1 887.8,591.8 			"/>
			<polygon id="XMLID_444_" class="st29" points="722.3,587.1 722.3,591.8 887.8,591.8 893.6,589.4 887.8,587.1 			"/>
			
				<rect id="XMLID_443_" x="697.1" y="586" transform="matrix(6.123234e-17 -1 1 6.123234e-17 110.0171 1298.2632)" class="st34" width="14.1" height="16.2"/>
			
				<rect id="XMLID_442_" x="700.6" y="589.6" transform="matrix(6.123234e-17 -1 1 6.123234e-17 106.4829 1301.7974)" class="st8" width="7.1" height="16.2"/>
			<path id="XMLID_441_" class="st0" d="M711.9,586.7c0-1.3,1.1-2.4,2.4-2.4c1.3,0,2.4,1.1,2.4,2.4v0.3h3.4v-0.3
				c0-1.3,1.1-2.4,2.4-2.4c1.3,0,2.4,1.1,2.4,2.4v14.8c0,1.3-1.1,2.4-2.4,2.4c-1.3,0-2.4-1.1-2.4-2.4v-0.3h-3.4v0.3
				c0,1.3-1.1,2.4-2.4,2.4c-1.3,0-2.4-1.1-2.4-2.4v-0.3h-3.4v0.3c0,1.3-1.1,2.4-2.4,2.4c-1.3,0-2.4-1.1-2.4-2.4v-14.8
				c0-1.3,1.1-2.4,2.4-2.4c1.3,0,2.4,1.1,2.4,2.4v0.3h3.4V586.7z"/>
			<path id="XMLID_439_" class="st0" d="M724.7,601.5c0,1.3-1.1,2.4-2.4,2.4c-1.3,0-2.4-1.1-2.4-2.4v-0.3h-3.4v0.3
				c0,1.3-1.1,2.4-2.4,2.4c-1.3,0-2.4-1.1-2.4-2.4v-0.3h-3.4v0.3c0,1.3-1.1,2.4-2.4,2.4c-1.3,0-2.4-1.1-2.4-2.4v-7.4h20.9V601.5z"/>
			<path id="XMLID_438_" class="st21" d="M711.9,586.7c0-1.3,1.1-2.4,2.4-2.4c1.3,0,2.4,1.1,2.4,2.4v0.3h3.4v-0.3
				c0-1.3,1.1-2.4,2.4-2.4c1.3,0,2.4,1.1,2.4,2.4v7.4h-20.9v-7.4c0-1.3,1.1-2.4,2.4-2.4c1.3,0,2.4,1.1,2.4,2.4v0.3h3.4V586.7z"/>
		</g>
	</g>
	<g id="XMLID_1276_">
		<g id="XMLID_1313_">
			<path id="XMLID_1764_" class="st0" d="M893.5,562.2c0,20.8-16.8,37.6-37.6,37.6c-20.8,0-37.6-16.8-37.6-37.6
				c0-20.8,16.8-37.6,37.6-37.6C876.7,524.6,893.5,541.4,893.5,562.2z"/>
			<g id="XMLID_1314_">
				<polygon id="XMLID_1763_" class="st13" points="852.4,573.9 840.2,561.8 844.5,557.5 852.4,565.4 867.3,550.5 871.6,554.8 				
					"/>
			</g>
		</g>
		<path id="XMLID_1312_" class="st3" d="M818.3,562.2c0,11.9,5.6,22.5,14.2,29.4c4.1-3.4,7.5-7.7,10-12.8
			c7.8-16.2,3.3-35.1-9.9-46.1C823.9,539.6,818.3,550.2,818.3,562.2z"/>
		<g id="XMLID_1303_">
			<path id="XMLID_1311_" class="st35" d="M835.5,578.9c-9.2,19.1-32.2,27.1-51.3,17.8c-19.1-9.2-27.1-32.2-17.8-51.3
				c9.2-19.1,32.2-27.1,51.3-17.9C836.7,536.8,844.7,559.8,835.5,578.9z"/>
			<g id="XMLID_1304_">
				<g>
					<path id="XMLID_25_" class="st13" d="M798.9,557.3l4.1-8.4l6.8,3.3l-4.1,8.4l8.4,4.1l-3,6.3l-8.4-4.1l-4.1,8.5l-6.8-3.3
						l4.1-8.5l-8.3-4l3-6.3L798.9,557.3z"/>
				</g>
			</g>
		</g>
		<path id="XMLID_1302_" class="st3" d="M782,528.7c-6.6,3.7-12.2,9.4-15.7,16.7c-8.7,17.9-2.2,39.3,14.5,49.5
			c11.3-6.9,18.9-19.2,18.9-33.4C799.7,547.7,792.7,535.7,782,528.7z"/>
		<g id="XMLID_1277_">
			<path id="XMLID_1301_" class="st1" d="M794.4,561.4c0,21.6-17.5,39.1-39.1,39.1c-21.6,0-39.1-17.5-39.1-39.1
				c0-21.6,17.5-39.1,39.1-39.1C776.9,522.3,794.4,539.8,794.4,561.4z"/>
			<g id="XMLID_1278_">
				<g>
					<path id="XMLID_123_" class="st13" d="M742.8,569.5v0.3l-3.6,3.5L728.9,563v-0.7l10.4-10.3l3.6,3.5v0.3l-7.1,6.8L742.8,569.5z"
						/>
					<path id="XMLID_121_" class="st13" d="M765.7,542.3l-15,38.2H745l15-38.2H765.7z"/>
					<path id="XMLID_119_" class="st13" d="M774.9,562.7l-7.1-6.8v-0.3l3.6-3.5l10.4,10.3v0.7l-10.4,10.3l-3.6-3.5v-0.3L774.9,562.7
						z"/>
				</g>
			</g>
		</g>
	</g>
	<path class="st3" d="M878.8,251.7c0-4.2-3.4-7.6-7.6-7.6h-30.4v81.3h38V251.7z"/>
	<rect x="878.7" y="217.2" class="st3" width="74.4" height="108.1"/>
	<g>
		<g>
			<g>
				<path class="st11" d="M893.8,214.3c-0.3,0-0.5-0.1-0.7-0.4L863,175.2c-0.3-0.4-0.2-1,0.2-1.3c0.4-0.3,1-0.2,1.3,0.2l30.1,38.8
					c0.3,0.4,0.2,1-0.2,1.3C894.2,214.2,894,214.3,893.8,214.3z"/>
			</g>
			<g>
				<path class="st11" d="M897.9,214.3c-0.4,0-0.7-0.2-0.9-0.6l-16.4-40.1c-0.2-0.5,0-1,0.5-1.2c0.5-0.2,1,0,1.2,0.5l16.4,40.2
					c0.2,0.5,0,1-0.5,1.2C898.1,214.3,898,214.3,897.9,214.3z"/>
			</g>
			<g>
				<path class="st11" d="M906.1,214.3c-0.1,0-0.2,0-0.3-0.1c-0.5-0.2-0.7-0.7-0.5-1.2l15.8-39.7c0.2-0.5,0.7-0.7,1.2-0.5
					c0.5,0.2,0.7,0.7,0.5,1.2L907,213.7C906.9,214.1,906.5,214.3,906.1,214.3z"/>
			</g>
			<g>
				<path class="st11" d="M910.3,214.3c-0.2,0-0.4-0.1-0.6-0.2c-0.4-0.3-0.5-0.9-0.2-1.3l29.9-38.5c0.3-0.4,0.9-0.5,1.3-0.2
					c0.4,0.3,0.5,0.9,0.2,1.3L911,214C910.8,214.2,910.6,214.3,910.3,214.3z"/>
			</g>
			<g>
				<path class="st11" d="M902,214.3c-0.5,0-0.9-0.4-0.9-0.9v-38.1c0-0.5,0.4-0.9,0.9-0.9c0.5,0,0.9,0.4,0.9,0.9v38.1
					C902.9,213.9,902.5,214.3,902,214.3z"/>
			</g>
			<path class="st30" d="M901.5,135.7C901.5,135.7,901.5,135.7,901.5,135.7C901.5,135.7,901.5,135.7,901.5,135.7c-0.3,0-0.5,0-0.8,0
				c-0.2,0-0.4,0-0.6,0c-0.4,0-0.8,0-1.2,0c-20.8,1.1-37.3,20.6-37.3,41.6l9.7-4.6l0.1-0.1l9.7,5.1l9.7-5.1l0.2,0.1l9.5,5l9.7-5.1
				l0.5,0.3l9.2,4.9l9.7-5.1l0.4,0.2l9.9,4.5C939.9,156,922.8,136.2,901.5,135.7z"/>
			<g>
				<path class="st13" d="M900.2,134.5c-5.1,3.3-22.8,15.9-27.7,37.1l0.1-0.1l9.7,5.1l9.7-5.1l0.2,0.1c0.7-9.6,2.9-25.9,9.1-37.2
					C901,134.5,900.6,134.5,900.2,134.5z"/>
				<path class="st35" d="M902.8,134.5L902.8,134.5c5.2,3.2,23.5,15.9,28.4,37.2l9.9,4.5C941.1,154.8,924,134.9,902.8,134.5z"/>
				<path class="st13" d="M902.8,134.5c6.3,11.3,8.4,27.7,9.2,37.3l9.2,4.9l9.7-5.1l0.4,0.2C926.3,150.4,907.9,137.7,902.8,134.5z"
					/>
				<path class="st35" d="M902.8,134.5c-0.3,0-0.5,0-0.8,0c-0.2,0-0.4,0-0.6,0c-6.3,11.2-8.4,27.5-9.1,37.2l9.5,5l9.7-5.1l0.5,0.3
					C911.2,162.1,909,145.8,902.8,134.5L902.8,134.5z"/>
				<path class="st35" d="M900.2,134.5c-20.8,1.1-37.3,20.6-37.3,41.6l9.7-4.6C877.4,150.4,895.1,137.8,900.2,134.5z"/>
			</g>
		</g>
		<g>
			<rect x="846.2" y="212.9" class="st13" width="107" height="106.9"/>
			<rect x="851.2" y="228.8" class="st0" width="97.3" height="86.7"/>
			<rect x="846.2" y="212.9" class="st35" width="107" height="11.5"/>
			<g>
				<path class="st13" d="M862.6,271.4l13.1-6.8v2l-11.1,5.5v0.1l11.1,5.5v2l-13.1-6.8V271.4z"/>
				<path class="st13" d="M936.8,272.9l-13.1,6.7v-2l11.1-5.5v-0.1l-11.1-5.5v-2l13.1,6.7V272.9z"/>
			</g>
			<g>
				<path class="st13" d="M914.4,277.6l-2.4-2l0.5-3.1l2.9-1.1l0,0c0-1.2-0.2-2.4-0.6-3.6l0,0.1l-3.1-0.2l-1.4-2.8l1.7-2.6h0.1
					c-0.4-0.5-0.8-0.9-1.2-1.4c-0.4-0.4-0.9-0.8-1.4-1.2l0,0l-2.6,1.7l-2.8-1.4l-0.2-3.1l0,0c-1.2-0.3-2.4-0.5-3.6-0.6l0,0l-1.1,2.9
					l-3.1,0.5l-2-2.4l0-0.1c-1.1,0.4-2.1,0.9-3.2,1.6l0.1,0l0.8,3l-2.2,2.2l-3-0.8l0,0c-0.7,1-1.2,2.1-1.7,3.2l0,0l2.4,2l-0.5,3.1
					l-2.9,1.1l0,0c0.1,1.2,0.2,2.4,0.6,3.6l0,0l3.1,0.2l1.4,2.8l-1.7,2.6h0c0.4,0.5,0.8,1,1.3,1.4c0.4,0.4,0.9,0.8,1.3,1.2v0
					l2.6-1.7l2.8,1.4l0.2,3.1l0,0c1.2,0.3,2.4,0.5,3.6,0.6l0-0.1l1.1-2.9l3.1-0.5l2,2.4l0,0c1.1-0.4,2.2-1,3.3-1.7l-0.1,0l-0.8-3
					l2.2-2.2l3,0.8l0,0C913.4,279.8,914,278.7,914.4,277.6L914.4,277.6z M893.1,278.7c-3.6-3.6-3.7-9.5,0-13.2
					c3.6-3.6,9.5-3.7,13.2,0c3.7,3.6,3.7,9.5,0,13.2C902.6,282.3,896.7,282.3,893.1,278.7z"/>
				<path class="st36" d="M901.6,262.2c-5.5-1.1-10.7,2.5-11.8,7.9c-1.1,5.5,2.5,10.7,7.9,11.8c5.5,1.1,10.7-2.5,11.8-7.9
					C910.6,268.6,907,263.3,901.6,262.2z M898.3,278.8c-3.7-0.7-6.1-4.3-5.4-8c0.7-3.7,4.3-6.1,8-5.4c3.7,0.7,6.1,4.3,5.4,8
					C905.6,277.1,902,279.6,898.3,278.8z"/>
			</g>
			<path class="st13" d="M855.3,218.6c0,0.8-0.6,1.4-1.4,1.4c-0.8,0-1.4-0.6-1.4-1.4c0-0.8,0.6-1.4,1.4-1.4
				C854.6,217.2,855.3,217.8,855.3,218.6z"/>
			<path class="st13" d="M861.2,218.6c0,0.8-0.6,1.4-1.4,1.4c-0.8,0-1.4-0.6-1.4-1.4c0-0.8,0.6-1.4,1.4-1.4
				C860.6,217.2,861.2,217.8,861.2,218.6z"/>
			<path class="st13" d="M867.2,218.6c0,0.8-0.6,1.4-1.4,1.4c-0.8,0-1.4-0.6-1.4-1.4c0-0.8,0.6-1.4,1.4-1.4
				C866.6,217.2,867.2,217.8,867.2,218.6z"/>
		</g>
	</g>
	<polygon class="st3" points="395.4,556 339,556 339,600.6 395.4,600.6 548.6,600.6 548.6,556 	"/>
	<g>
		<g>
			<rect x="346.3" y="559.9" class="st13" width="209.5" height="40.7"/>
			<rect x="346.3" y="559.9" class="st35" width="56.4" height="40.7"/>
		</g>
		<path id="XMLID_882_" class="st13" d="M380.2,570.4c-4-4-10.5-4-14.5,0c-4,4-4,10.5,0,14.5c3.8,3.8,9.8,3.9,13.9,0.5l7.6,7.6
			l1.2-1.2l-7.6-7.6C384.1,580.2,384,574.2,380.2,570.4z M379,583.7c-3.3,3.3-8.8,3.4-12.1,0c-3.3-3.3-3.3-8.8,0-12.1
			c3.4-3.4,8.8-3.3,12.1,0C382.3,575,382.3,580.4,379,583.7z"/>
	</g>
	<g id="XMLID_1214_">
		<g id="XMLID_1263_">
			<path id="XMLID_94_" class="st35" d="M676.7,594.2c-11.5,9.7-28.7,8.1-38.3-3.4c-9.6-11.5-8.1-28.7,3.4-38.3
				c11.5-9.7,28.7-8.1,38.3,3.4C689.7,567.4,688.2,584.5,676.7,594.2z"/>
			<g id="XMLID_241_">
				<path id="XMLID_92_" class="st13" d="M654,556l1.2,1.4l-7.2,6.1c-2.9,2.4-4.9,1.7-6.5-0.1c-0.4-0.5-0.8-1.2-1-1.7l1.3-0.7
					c0.1,0.4,0.4,0.9,0.8,1.3c1.1,1.3,2.2,1.5,4.3-0.3L654,556z"/>
				<path id="XMLID_89_" class="st13" d="M651.2,567.6l-4.3,1.7l-1.2-1.4l13.9-5.4l1.4,1.7l-7.7,12.8l-1.3-1.5l2.4-4L651.2,567.6z
					 M655.2,570.3l2.2-3.7c0.5-0.8,1-1.5,1.5-2.2l0,0c-0.8,0.4-1.6,0.8-2.4,1.1l-4,1.6L655.2,570.3z"/>
				<path id="XMLID_87_" class="st13" d="M655.8,580.1l7.9-12.6l1.3,1.5l-3.9,6.1c-1.1,1.7-2,3.2-3.1,4.5l0,0
					c1.5-0.7,3.2-1.4,5.1-2.1l6.9-2.7l1.3,1.5l-14.1,5.2L655.8,580.1z"/>
				<path id="XMLID_84_" class="st13" d="M665.4,584.7l-4.3,1.7l-1.2-1.4l13.9-5.4l1.4,1.7l-7.7,12.8l-1.3-1.5l2.4-4L665.4,584.7z
					 M669.5,587.3l2.2-3.7c0.5-0.8,1-1.5,1.5-2.2l0,0c-0.8,0.4-1.6,0.8-2.4,1.1l-4,1.6L669.5,587.3z"/>
			</g>
		</g>
		<path id="XMLID_1262_" class="st3" d="M655.8,574.2c0-9-4-17-10.3-22.5c-1.3,0.8-2.6,1.6-3.7,2.6c-6.2,5.2-9.4,12.5-9.7,20
			c0.2,5.8,2.3,11.7,6.3,16.5c2,2.4,4.4,4.4,7,5.9C651.7,591.3,655.8,583.2,655.8,574.2z"/>
		<g id="XMLID_1251_">
			<path id="XMLID_240_" class="st8" d="M650.9,570.7c0,16.5-13.4,29.8-29.8,29.8c-16.5,0-29.8-13.4-29.8-29.8
				c0-16.5,13.4-29.8,29.8-29.8C637.6,540.9,650.9,554.2,650.9,570.7z"/>
			<g id="XMLID_201_">
				<path id="XMLID_83_" class="st13" d="M603.7,565.4v5.1h5.9v-5.1h1.6v12.3h-1.6v-5.8h-5.9v5.8h-1.6v-12.3H603.7z"/>
				<path id="XMLID_206_" class="st13" d="M616.3,566.7h-3.7v-1.3h9.1v1.3H618v10.9h-1.6V566.7z"/>
				<path id="XMLID_204_" class="st13" d="M633.4,572.2c-0.1-1.7-0.2-3.8-0.2-5.3h-0.1c-0.4,1.4-0.9,3-1.5,4.7l-2.2,5.9h-1.2l-2-5.8
					c-0.6-1.7-1.1-3.3-1.4-4.8h0c0,1.5-0.1,3.6-0.2,5.4l-0.3,5.3h-1.5l0.9-12.3h2l2.1,5.9c0.5,1.5,0.9,2.9,1.2,4.1h0.1
					c0.3-1.2,0.7-2.6,1.3-4.1l2.2-5.9h2l0.8,12.3h-1.5L633.4,572.2z"/>
				<path id="XMLID_202_" class="st13" d="M637.7,565.4h1.6v10.9h5.2v1.3h-6.8V565.4z"/>
			</g>
		</g>
		<path id="XMLID_1250_" class="st3" d="M609.7,546.6c-10.4,4.3-17.8,14.4-18.3,26.2c0.7,10.1,6.4,18.8,14.7,23.7
			c12.4-9.1,17-26,10.3-40.5C614.6,552.4,612.4,549.3,609.7,546.6z"/>
		<g id="XMLID_1241_">
			<path id="XMLID_200_" class="st1" d="M611.5,553.6c7.7,16.5,0.6,36.1-15.9,43.8c-16.5,7.7-36.1,0.6-43.8-15.9
				c-7.7-16.5-0.6-36.1,15.9-43.8C584.1,530,603.8,537.1,611.5,553.6z"/>
			<g id="XMLID_193_">
				<path id="XMLID_198_" class="st13" d="M577,579.3c-0.6,0.8-2,1.9-4,2.8c-4.7,2.2-9.6,0.9-12.1-4.6c-2.4-5.2-0.6-10.4,4.6-12.8
					c2.1-1,3.6-1.1,4.3-1.1l0.3,2c-1,0-2.3,0.2-3.7,0.9c-3.9,1.8-5.3,5.5-3.3,9.9c1.9,4.1,5.5,5.6,9.5,3.7c1.3-0.6,2.5-1.5,3.2-2.3
					L577,579.3z"/>
				<path id="XMLID_196_" class="st13" d="M580,562.5l2.7,5.8l5.6-2.6l0.7,1.5l-5.6,2.6l2.7,5.8l-1.6,0.7l-2.7-5.8l-5.6,2.6
					l-0.7-1.5l5.6-2.6l-2.7-5.8L580,562.5z"/>
				<path id="XMLID_194_" class="st13" d="M594.7,555.6l2.7,5.8l5.6-2.6l0.7,1.5l-5.6,2.6l2.7,5.8l-1.6,0.7l-2.7-5.8l-5.6,2.6
					l-0.7-1.5l5.6-2.6l-2.7-5.8L594.7,555.6z"/>
			</g>
		</g>
		<path id="XMLID_1240_" class="st3" d="M551.8,581.6c2.1,4.6,5.2,8.4,8.8,11.4c2-2.6,3.7-5.6,4.8-8.8c4.5-12.9,0.5-26.7-9.1-35.2
			c-4.8,5.7-7.4,13-7.6,20.4C549,573.4,549.9,577.6,551.8,581.6z"/>
		<g id="XMLID_1215_">
			<path id="XMLID_192_" class="st2" d="M559,578.8c-6,17-24.6,25.9-41.5,19.9c-17-6-25.9-24.6-19.9-41.5c6-17,24.6-25.9,41.5-19.9
				C556.1,543.2,565,561.8,559,578.8z"/>
			<g id="XMLID_81_">
				<path id="XMLID_189_" class="st13" d="M508.6,550.6c1.3,0.2,2.9,0.6,4.9,1.3c2.5,0.9,4.1,2.1,4.9,3.5c0.7,1.3,0.9,2.9,0.3,4.6
					c-0.6,1.8-1.6,3-3,3.6c-1.8,0.9-4.2,0.9-6.7,0c-0.7-0.3-1.4-0.5-2-0.9l-2.7,7.8l-2.5-0.9L508.6,550.6z M507.8,560.8
					c0.5,0.3,1.2,0.6,2,0.9c3,1.1,5.4,0.2,6.3-2.4c0.9-2.6-0.5-4.4-3.2-5.4c-1.1-0.4-2-0.6-2.4-0.6L507.8,560.8z"/>
				<path id="XMLID_187_" class="st13" d="M526.4,556.6l-2.9,8.1l9.4,3.3l2.9-8.1l2.5,0.9l-6.8,19.4l-2.5-0.9l3.2-9.1l-9.4-3.3
					l-3.2,9.1l-2.5-0.9l6.8-19.4L526.4,556.6z"/>
				<path id="XMLID_184_" class="st13" d="M542.6,562.6c1.3,0.2,2.9,0.6,4.9,1.3c2.5,0.9,4.1,2.1,4.9,3.5c0.7,1.3,0.9,2.9,0.3,4.6
					c-0.6,1.8-1.6,3-3,3.6c-1.8,0.9-4.2,0.9-6.7,0c-0.7-0.3-1.4-0.5-2-0.9l-2.7,7.8l-2.5-0.9L542.6,562.6z M541.8,572.8
					c0.5,0.3,1.2,0.6,2,0.9c3,1.1,5.4,0.2,6.3-2.4c0.9-2.6-0.5-4.4-3.2-5.4c-1.1-0.4-2-0.6-2.4-0.6L541.8,572.8z"/>
			</g>
		</g>
	</g>
</g>
</svg>
